<svg width="24" height="25" viewBox="0 0 24 25" fill="none" xmlns="http://www.w3.org/2000/svg">
<path d="M3.25 9.58203C3.25 8.05704 3.8558 6.5945 4.93414 5.51617C6.01247 4.43783 7.47501 3.83203 9 3.83203H16.013C16.2119 3.83203 16.4027 3.91105 16.5433 4.0517C16.684 4.19235 16.763 4.38312 16.763 4.58203C16.763 4.78094 16.684 4.97171 16.5433 5.11236C16.4027 5.25301 16.2119 5.33203 16.013 5.33203H9C7.87283 5.33203 6.79183 5.7798 5.9948 6.57683C5.19777 7.37386 4.75 8.45486 4.75 9.58203V16.689C4.75 16.8879 4.67098 17.0787 4.53033 17.2194C4.38968 17.36 4.19891 17.439 4 17.439C3.80109 17.439 3.61032 17.36 3.46967 17.2194C3.32902 17.0787 3.25 16.8879 3.25 16.689V9.58203Z" fill="white"/>
<path d="M18.4034 7.37506C15.1447 7.013 11.856 7.013 8.59737 7.37506C8.14644 7.42515 7.72571 7.62632 7.40362 7.94587C7.08153 8.26542 6.87703 8.68454 6.82337 9.13506C6.43908 12.4219 6.43908 15.7423 6.82337 19.0291C6.87703 19.4796 7.08153 19.8987 7.40362 20.2182C7.72571 20.5378 8.14644 20.739 8.59737 20.7891C11.8384 21.1511 15.1624 21.1511 18.4034 20.7891C18.8543 20.739 19.275 20.5378 19.5971 20.2182C19.9192 19.8987 20.1237 19.4796 20.1774 19.0291C20.5617 15.7423 20.5617 12.4219 20.1774 9.13506C20.1237 8.68454 19.9192 8.26542 19.5971 7.94587C19.275 7.62632 18.8543 7.42515 18.4034 7.37506Z" fill="white"/>
</svg>
