<svg width="31" height="26" viewBox="0 0 31 26" fill="none" xmlns="http://www.w3.org/2000/svg">
<path d="M26.0201 7.92355C26.0515 8.11978 26.0809 8.31622 26.1084 8.51286C26.1347 8.70023 26.274 8.85082 26.4559 8.90318C26.9925 9.05775 27.4939 9.29563 27.9451 9.60192C28.1709 9.75521 28.5022 9.58545 28.4735 9.31406C28.4118 8.73096 28.3346 8.14904 28.242 7.56891L28.1459 6.96676C27.8371 5.03173 26.168 3.60791 24.2084 3.60791L11.7368 3.60791C11.4285 2.02142 10.0316 0.82373 8.35497 0.82373H4.91762C2.88319 0.82373 1.16959 2.34387 0.927029 4.36379L0.5183 7.76746C0.0838104 11.3857 0.195945 15.0486 0.850942 18.6335C1.17422 20.4028 2.65398 21.7291 4.44803 21.8574L6.71904 22.0199C9.99012 22.2539 13.2691 22.3402 16.5461 22.2787C16.7543 22.2748 16.9307 22.1273 16.9853 21.9262C17.1221 21.4219 17.316 20.941 17.5596 20.491C17.6752 20.2772 17.5213 20.0054 17.2784 20.0118C13.8113 20.102 10.3409 20.0233 6.8796 19.7757L4.60859 19.6132C3.83837 19.5581 3.20309 18.9887 3.0643 18.2291C2.44985 14.8662 2.34466 11.4299 2.75225 8.03572L3.16098 4.63205C3.26775 3.74289 4.02207 3.07373 4.91762 3.07373H8.35497C9.01503 3.07373 9.55012 3.60882 9.55012 4.26888C9.55012 5.14648 10.2616 5.85791 11.1392 5.85791H24.2084C25.0622 5.85791 25.7895 6.47829 25.924 7.3214L26.0201 7.92355Z" fill="white"/>
<path d="M25.0001 10.9487C23.3433 10.9487 22.0001 12.2919 22.0001 13.9487C22.0001 15.6056 23.3433 16.9487 25.0001 16.9487C26.657 16.9487 28.0001 15.6056 28.0001 13.9487C28.0001 12.2919 26.657 10.9487 25.0001 10.9487Z" fill="white"/>
<path d="M19.0001 23.6987C19.0001 21.2134 21.0148 19.1987 23.5001 19.1987H26.5001C28.9854 19.1987 31.0001 21.2134 31.0001 23.6987C31.0001 24.5272 30.3285 25.1987 29.5001 25.1987H20.5001C19.6717 25.1987 19.0001 24.5272 19.0001 23.6987Z" fill="white"/>
</svg>
