<svg width="24" height="23" viewBox="0 0 24 23" fill="none" xmlns="http://www.w3.org/2000/svg">
<path fill-rule="evenodd" clip-rule="evenodd" d="M21.3246 4.26909H8.68115C8.29321 4.26909 7.97873 4.58357 7.97873 4.9715V7.07875H6.5739V4.9715C6.5739 3.8077 7.51735 2.86426 8.68115 2.86426H21.3246C22.4884 2.86426 23.4319 3.8077 23.4319 4.97151V13.4005C23.4319 14.5643 22.4884 15.5077 21.3246 15.5077H17.8126V17.615C17.8126 18.7788 16.8691 19.7222 15.7053 19.7222H3.06186C1.89806 19.7222 0.954609 18.7788 0.954609 17.615V9.18601C0.954609 8.02221 1.89806 7.07877 3.06186 7.07877H15.7053C16.8691 7.07877 17.8126 8.02221 17.8126 9.18601V14.1029H21.3246C21.7126 14.1029 22.027 13.7884 22.027 13.4005V4.97151C22.027 4.58357 21.7126 4.26909 21.3246 4.26909ZM3.06186 8.4836H15.7053C16.0933 8.4836 16.4078 8.79808 16.4078 9.18601V9.88843H2.35944V9.18601C2.35944 8.79808 2.67392 8.4836 3.06186 8.4836ZM16.4078 17.615V11.2933H2.35944V17.615C2.35944 18.0029 2.67392 18.3174 3.06186 18.3174H15.7053C16.0933 18.3174 16.4078 18.0029 16.4078 17.615ZM10.086 12.6981C9.69808 12.6981 9.3836 13.0126 9.3836 13.4005C9.3836 13.7884 9.69808 14.1029 10.086 14.1029H14.3005C14.6884 14.1029 15.0029 13.7884 15.0029 13.4005C15.0029 13.0126 14.6884 12.6981 14.3005 12.6981H10.086Z" fill="white"/>
</svg>
