<svg width="23" height="20" viewBox="0 0 23 20" fill="none" xmlns="http://www.w3.org/2000/svg">
<path fill-rule="evenodd" clip-rule="evenodd" d="M21.1527 1.44831C21.4842 1.11687 21.4842 0.579517 21.1527 0.248086C20.8213 -0.0833462 20.284 -0.0833462 19.9525 0.248086L1.84726 18.3533C1.51583 18.6848 1.51583 19.2221 1.84726 19.5536C2.17869 19.885 2.71605 19.885 3.04748 19.5536L6.48184 16.1192C7.97306 16.8071 9.68025 17.2561 11.5 17.2561C14.4622 17.2561 17.1262 16.0664 19.0458 14.5931C20.0069 13.8555 20.7954 13.0363 21.3487 12.239C21.8914 11.457 22.25 10.6346 22.25 9.90083C22.25 9.16704 21.8914 8.34469 21.3487 7.56262C20.7954 6.76537 20.0069 5.94617 19.0458 5.20857C18.7396 4.97356 18.4145 4.74577 18.0722 4.52887L21.1527 1.44831ZM15.0404 7.56067L13.7979 8.80313C13.957 9.1355 14.0461 9.50776 14.0461 9.90083C14.0461 11.307 12.9061 12.4469 11.5 12.4469C11.1069 12.4469 10.7347 12.3578 10.4023 12.1987L9.15985 13.4412C9.83067 13.8855 10.6351 14.1442 11.5 14.1442C13.8436 14.1442 15.7434 12.2444 15.7434 9.90083C15.7434 9.03595 15.4847 8.2315 15.0404 7.56067Z" fill="#25262D"/>
<path d="M12.2572 5.72477C12.352 5.74185 12.45 5.71376 12.5181 5.64564L14.7242 3.4396C14.8739 3.28982 14.8118 3.03533 14.6078 2.97842C13.6263 2.70461 12.5831 2.54556 11.5 2.54556C8.53779 2.54556 5.8738 3.73529 3.9542 5.20857C2.99315 5.94617 2.20457 6.76537 1.65129 7.56262C1.10855 8.34469 0.75 9.16704 0.75 9.90083C0.75 10.6346 1.10855 11.457 1.65129 12.239C2.12351 12.9195 2.76711 13.6159 3.54307 14.2639C3.65379 14.3564 3.8165 14.3473 3.91851 14.2453L7.24482 10.919C7.31294 10.8508 7.34102 10.7529 7.32394 10.658C7.27969 10.4123 7.25658 10.1593 7.25658 9.90083C7.25658 7.55725 9.15642 5.65741 11.5 5.65741C11.7585 5.65741 12.0115 5.68051 12.2572 5.72477Z" fill="#25262D"/>
</svg>
