<svg width="31" height="26" viewBox="0 0 31 26" fill="none" xmlns="http://www.w3.org/2000/svg">
<path d="M26.0204 7.92355C26.0517 8.11978 26.0811 8.31622 26.1087 8.51286C26.1349 8.70023 26.2743 8.85082 26.4561 8.90318C26.9928 9.05775 27.4942 9.29563 27.9454 9.60192C28.1712 9.75521 28.5025 9.58545 28.4737 9.31406C28.412 8.73096 28.3349 8.14904 28.2423 7.56891L28.1461 6.96676C27.8373 5.03173 26.1682 3.60791 24.2087 3.60791L11.737 3.60791C11.4287 2.02142 10.0318 0.82373 8.3552 0.82373H4.91786C2.88343 0.82373 1.16982 2.34387 0.927261 4.36379L0.518533 7.76746C0.0840431 11.3857 0.196178 15.0486 0.851175 18.6335C1.17445 20.4028 2.65421 21.7291 4.44826 21.8574L6.71927 22.0199C9.99036 22.2539 13.2694 22.3402 16.5463 22.2787C16.7546 22.2748 16.9309 22.1273 16.9855 21.9262C17.1224 21.4219 17.3162 20.941 17.5598 20.491C17.6754 20.2772 17.5215 20.0054 17.2786 20.0118C13.8115 20.102 10.3412 20.0233 6.87983 19.7757L4.60882 19.6132C3.8386 19.5581 3.20332 18.9887 3.06453 18.2291C2.45008 14.8662 2.34489 11.4299 2.75248 8.03572L3.16121 4.63205C3.26799 3.74289 4.02231 3.07373 4.91786 3.07373H8.3552C9.01527 3.07373 9.55035 3.60882 9.55035 4.26888C9.55035 5.14648 10.2618 5.85791 11.1394 5.85791H24.2087C25.0625 5.85791 25.7897 6.47829 25.9243 7.3214L26.0204 7.92355Z" fill="white"/>
<path d="M25.0004 10.9487C23.3435 10.9487 22.0004 12.2919 22.0004 13.9487C22.0004 15.6056 23.3435 16.9487 25.0004 16.9487C26.6572 16.9487 28.0004 15.6056 28.0004 13.9487C28.0004 12.2919 26.6572 10.9487 25.0004 10.9487Z" fill="white"/>
<path d="M19.0004 23.6987C19.0004 21.2134 21.0151 19.1987 23.5004 19.1987H26.5004C28.9856 19.1987 31.0004 21.2134 31.0004 23.6987C31.0004 24.5272 30.3288 25.1987 29.5004 25.1987H20.5004C19.6719 25.1987 19.0004 24.5272 19.0004 23.6987Z" fill="white"/>
</svg>
