<svg width="23" height="23" viewBox="0 0 23 23" fill="none" xmlns="http://www.w3.org/2000/svg">
<path fill-rule="evenodd" clip-rule="evenodd" d="M20.145 5.44079C20.145 4.27699 19.2016 3.33354 18.0378 3.33354H11.7161V8.95287H20.145V5.44079ZM20.145 10.3577H11.7161V20.1915H18.0378C19.2016 20.1915 20.145 19.2481 20.145 18.0843V10.3577ZM10.3112 1.92872V1.92871H11.7161H18.0378C19.9775 1.92871 21.5499 3.50112 21.5499 5.44079V8.95287V10.3577V18.0843C21.5499 20.0239 19.9775 21.5964 18.0378 21.5964H11.7161L11.716 21.5964H10.3111H5.39424C3.45457 21.5964 1.88216 20.024 1.88216 18.0843V5.4408C1.88216 3.50113 3.45457 1.92872 5.39424 1.92872H10.3111H10.3112ZM10.3111 3.33356H5.39424C4.23044 3.33356 3.28699 4.277 3.28699 5.4408V18.0843C3.28699 19.2481 4.23044 20.1915 5.39424 20.1915H10.3111V3.33356Z" fill="white"/>
</svg>
