<svg width="23" height="23" viewBox="0 0 23 23" fill="none" xmlns="http://www.w3.org/2000/svg">
<path fill-rule="evenodd" clip-rule="evenodd" d="M15.9305 5.74579C15.9305 8.07339 14.0436 9.96029 11.716 9.96029C9.38836 9.96029 7.50146 8.07339 7.50146 5.74579C7.50146 3.41819 9.38836 1.5313 11.716 1.5313C14.0436 1.5313 15.9305 3.41819 15.9305 5.74579ZM17.3353 5.74579C17.3353 8.84926 14.8194 11.3651 11.716 11.3651C8.61249 11.3651 6.09663 8.84926 6.09663 5.74579C6.09663 2.64232 8.61249 0.126465 11.716 0.126465C14.8194 0.126465 17.3353 2.64232 17.3353 5.74579ZM9.60871 14.1748H13.8232C17.8537 14.1748 21.1634 17.2608 21.5183 21.1989H1.91364C2.26852 17.2608 5.57822 14.1748 9.60871 14.1748ZM13.8232 12.7699C18.63 12.7699 22.5693 16.484 22.928 21.1989C22.9456 21.4308 22.9546 21.665 22.9546 21.9014V22.6038H21.5498H1.88214H0.477306V21.9014C0.477306 21.665 0.486285 21.4308 0.503921 21.1989C0.862592 16.484 4.80192 12.7699 9.60871 12.7699H13.8232Z" fill="white"/>
</svg>
