<svg width="28" height="29" viewBox="0 0 28 29" fill="none" xmlns="http://www.w3.org/2000/svg">
<path d="M9.88128 10.3552C10.223 10.0135 10.777 10.0135 11.1187 10.3552L14 13.2365L16.8813 10.3552C17.223 10.0135 17.777 10.0135 18.1187 10.3552C18.4604 10.6969 18.4604 11.2509 18.1187 11.5926L15.2374 14.4739L18.1187 17.3552C18.4604 17.6969 18.4604 18.2509 18.1187 18.5926C17.777 18.9343 17.223 18.9343 16.8813 18.5926L14 15.7113L11.1187 18.5926C10.777 18.9343 10.223 18.9343 9.88129 18.5926C9.53958 18.2509 9.53958 17.6969 9.88129 17.3552L12.7626 14.4739L9.88128 11.5926C9.53957 11.2509 9.53957 10.6969 9.88128 10.3552Z" fill="white"/>
<path fill-rule="evenodd" clip-rule="evenodd" d="M8.53619 4.87079C12.1383 4.4682 15.8616 4.4682 19.4638 4.87079C21.5945 5.10894 23.3153 6.78735 23.5659 8.93048C23.9967 12.6136 23.9967 16.3343 23.5659 20.0174C23.3153 22.1605 21.5945 23.8389 19.4638 24.077C15.8616 24.4796 12.1383 24.4796 8.53618 24.077C6.40541 23.8389 4.68469 22.1605 4.43403 20.0174C4.00327 16.3343 4.00327 12.6136 4.43403 8.93048C4.68469 6.78735 6.40541 5.10894 8.53619 4.87079ZM19.2694 6.60996C15.7964 6.22181 12.2035 6.22181 8.73056 6.60996C7.39539 6.75919 6.32667 7.81297 6.17219 9.13377C5.75722 12.6818 5.75722 16.2661 6.17219 19.8141C6.32667 21.1349 7.39539 22.1886 8.73056 22.3379C12.2035 22.726 15.7964 22.726 19.2694 22.3379C20.6046 22.1886 21.6733 21.1349 21.8278 19.8141C22.2427 16.2661 22.2427 12.6818 21.8278 9.13377C21.6733 7.81297 20.6046 6.75919 19.2694 6.60996Z" fill="white"/>
</svg>
