<svg width="10" height="9" viewBox="0 0 10 9" fill="none" xmlns="http://www.w3.org/2000/svg">
<path d="M10 1.5C10 2.32843 9.32843 3 8.5 3C7.67157 3 7 2.32843 7 1.5C7 0.671573 7.67157 0 8.5 0C9.32843 0 10 0.671573 10 1.5Z" fill="white"/>
<path fill-rule="evenodd" clip-rule="evenodd" d="M6 1H4C2.11438 1 1.17157 1 0.585786 1.58579C0 2.17157 0 3.11438 0 5C0 6.88562 0 7.82843 0.585786 8.41421C1.17157 9 2.11438 9 4 9H6C7.88562 9 8.82843 9 9.41421 8.41421C10 7.82843 10 6.88562 10 5C10 4.27332 10 3.68666 9.96647 3.2065C9.57264 3.54525 9.06023 3.75 8.5 3.75C8.26066 3.75 8.03005 3.71263 7.81368 3.64341L7.14183 4.20328C6.69865 4.57261 6.33944 4.87196 6.02241 5.07586C5.69216 5.28826 5.37054 5.42244 5 5.42244C4.62946 5.42244 4.30784 5.28826 3.97759 5.07586C3.66056 4.87196 3.30136 4.57262 2.85818 4.20329L1.75993 3.28808C1.60083 3.1555 1.57933 2.91903 1.71192 2.75993C1.8445 2.60083 2.08097 2.57933 2.24007 2.71192L3.31952 3.61146C3.786 4.00019 4.10986 4.26921 4.38329 4.44506C4.64797 4.61529 4.82746 4.67244 5 4.67244C5.17254 4.67244 5.35203 4.61529 5.61671 4.44506C5.89013 4.26921 6.214 4.00019 6.68048 3.61146L7.10022 3.26168C6.58213 2.84947 6.25 2.21352 6.25 1.5C6.25 1.32819 6.26926 1.16088 6.30573 1.0001C6.20667 1 6.10479 1 6 1Z" fill="white"/>
</svg>
