<svg width="10" height="10" viewBox="0 0 10 10" fill="none" xmlns="http://www.w3.org/2000/svg">
<path d="M6.27808 6.77385L6.05036 7.0136C6.05036 7.0136 5.50906 7.58348 4.03156 6.02795C2.55406 4.47242 3.09535 3.90254 3.09535 3.90254L3.23876 3.75156C3.59204 3.37962 3.62534 2.78248 3.31712 2.34655L2.68663 1.45481C2.30514 0.91525 1.56798 0.843974 1.13073 1.30432L0.345925 2.13057C0.129114 2.35883 -0.0161741 2.65473 0.00144379 2.98297C0.0465175 3.82273 0.405357 5.62952 2.40768 7.73759C4.53107 9.97312 6.52342 10.062 7.33814 9.98155C7.59584 9.95611 7.81996 9.81714 8.00056 9.627L8.71084 8.87922C9.19028 8.37445 9.05511 7.50908 8.44166 7.15599L7.48641 6.60616C7.08362 6.37432 6.59289 6.44242 6.27808 6.77385Z" fill="white"/>
<path d="M7.5 5C8.88071 5 10 3.88071 10 2.5C10 1.11929 8.88071 0 7.5 0C6.11929 0 5 1.11929 5 2.5C5 2.89992 5.0939 3.27791 5.26087 3.61312C5.30523 3.7022 5.32 3.80402 5.29428 3.90015L5.14538 4.45666C5.08074 4.69825 5.30175 4.91926 5.54334 4.85462L6.09985 4.70572C6.19598 4.68 6.2978 4.69477 6.38688 4.73913C6.72209 4.9061 7.10008 5 7.5 5Z" fill="white"/>
</svg>
