<svg width="10" height="12" viewBox="0 0 10 12" fill="none" xmlns="http://www.w3.org/2000/svg">
<path d="M3.61111 0C3.15087 0 2.77778 0.402979 2.77778 0.900078V1.50013C2.77778 1.99723 3.15087 2.40021 3.61111 2.40021H6.38889C6.84913 2.40021 7.22222 1.99723 7.22222 1.50013V0.900078C7.22222 0.402979 6.84913 0 6.38889 0H3.61111Z" fill="white"/>
<path fill-rule="evenodd" clip-rule="evenodd" d="M0.488155 1.72632C0.804435 1.3847 1.24561 1.26442 1.94444 1.22208V1.50013C1.94444 2.49433 2.69064 3.30029 3.61111 3.30029H6.38889C7.30936 3.30029 8.05556 2.49433 8.05556 1.50013V1.22208C8.75439 1.26442 9.19557 1.3847 9.51185 1.72632C10 2.25357 10 3.10217 10 4.79937V8.39969C10 10.0969 10 10.9455 9.51185 11.4727C9.02369 12 8.23802 12 6.66667 12H3.33333C1.76198 12 0.976311 12 0.488155 11.4727C0 10.9455 0 10.0969 0 8.39969V4.79937C0 3.10217 0 2.25357 0.488155 1.72632ZM5.00001 6.86421L3.90574 5.6823C3.74302 5.50654 3.4792 5.50654 3.31648 5.6823C3.15377 5.85805 3.15377 6.143 3.31648 6.31875L4.41075 7.50066L3.3165 8.68256C3.15378 8.85831 3.15378 9.14326 3.3165 9.31901C3.47921 9.49476 3.74303 9.49476 3.90575 9.31901L5.00001 8.13711L6.09425 9.319C6.25697 9.49475 6.52079 9.49475 6.68351 9.319C6.84622 9.14324 6.84622 8.8583 6.68351 8.68254L5.58926 7.50066L6.68352 6.31876C6.84624 6.14301 6.84624 5.85806 6.68352 5.68231C6.5208 5.50656 6.25698 5.50656 6.09426 5.68231L5.00001 6.86421Z" fill="white"/>
</svg>
