<svg width="12" height="12" viewBox="0 0 12 12" fill="none" xmlns="http://www.w3.org/2000/svg">
<path d="M10.3577 11.0936L6.6051 7.34098C6.23843 7.62731 5.84121 7.83991 5.41343 7.9788C4.98566 8.11769 4.55126 8.18713 4.11023 8.18713C2.97079 8.18713 2.00089 7.79261 1.20053 7.00357C0.400178 6.21452 0 5.25043 0 4.11128C0 2.97213 0.400078 2.00212 1.20023 1.20127C2.00039 0.400422 2.97004 0 4.1092 0C5.24834 0 6.21279 0.400178 7.00253 1.20053C7.79228 2.00089 8.18715 2.97079 8.18715 4.11023C8.18715 4.56408 8.11835 5.00489 7.98073 5.43267C7.84312 5.86044 7.62987 6.2457 7.34098 6.58843L11.1102 10.3743C11.2136 10.476 11.2626 10.5954 11.257 10.7326C11.2515 10.8698 11.1965 10.9906 11.0922 11.095C10.9854 11.2017 10.8632 11.2551 10.7256 11.2551C10.588 11.2551 10.4654 11.2012 10.3577 11.0936ZM4.11023 7.1205C4.94699 7.1205 5.65789 6.82798 6.24293 6.24293C6.82798 5.65789 7.1205 4.94699 7.1205 4.11023C7.1205 3.26237 6.83076 2.54313 6.25127 1.95253C5.67178 1.36193 4.9581 1.06663 4.11023 1.06663C3.26237 1.06663 2.54313 1.36193 1.95253 1.95253C1.36194 2.54313 1.06665 3.26237 1.06665 4.11023C1.06665 4.9581 1.36194 5.67178 1.95253 6.25127C2.54313 6.83076 3.26237 7.1205 4.11023 7.1205Z" fill="white"/>
</svg>
