<svg width="16" height="16" viewBox="0 0 16 16" fill="none" xmlns="http://www.w3.org/2000/svg">
<path d="M15.8544 12.8544L11.0004 8.00039L15.8544 3.14639C15.9474 3.05224 15.9996 2.92523 15.9996 2.79289C15.9996 2.66055 15.9474 2.53354 15.8544 2.43939L13.5614 0.146393C13.4676 0.0526577 13.3405 0 13.2079 0C13.0753 0 12.9482 0.0526577 12.8544 0.146393L8.00039 5.00039L3.14639 0.146393C3.05263 0.0526577 2.92548 0 2.79289 0C2.66031 0 2.53316 0.0526577 2.43939 0.146393L0.146393 2.43939C0.0526577 2.53316 0 2.66031 0 2.79289C0 2.92548 0.0526577 3.05263 0.146393 3.14639L5.00039 8.00039L0.146393 12.8544C0.0526577 12.9482 0 13.0753 0 13.2079C0 13.3405 0.0526577 13.4676 0.146393 13.5614L2.43939 15.8544C2.53316 15.9481 2.66031 16.0008 2.79289 16.0008C2.92548 16.0008 3.05263 15.9481 3.14639 15.8544L8.00039 11.0004L12.8544 15.8544C12.9482 15.9481 13.0753 16.0008 13.2079 16.0008C13.3405 16.0008 13.4676 15.9481 13.5614 15.8544L15.8544 13.5614C15.9481 13.4676 16.0008 13.3405 16.0008 13.2079C16.0008 13.0753 15.9481 12.9482 15.8544 12.8544Z" fill="white"/>
</svg>
