<svg width="20" height="20" viewBox="0 0 20 20" fill="none" xmlns="http://www.w3.org/2000/svg">
<path fill-rule="evenodd" clip-rule="evenodd" d="M7.70801 3.33329C7.70801 2.06764 8.73402 1.04163 9.99967 1.04163C11.2653 1.04163 12.2913 2.06764 12.2913 3.33329C12.2913 4.59895 11.2653 5.62496 9.99967 5.62496C8.73402 5.62496 7.70801 4.59895 7.70801 3.33329Z" fill="white"/>
<path d="M6.8529 9.64529L5.04015 9.04104C4.51871 8.86722 4.16699 8.37924 4.16699 7.82959C4.16699 7.01661 4.9166 6.41061 5.71154 6.58096L7.29284 6.91981C7.38077 6.93865 7.42474 6.94807 7.46833 6.95709C9.13865 7.30259 10.862 7.30259 12.5323 6.95709C12.5759 6.94807 12.6199 6.93865 12.7078 6.91981L14.2891 6.58096C15.0841 6.41061 15.8337 7.01661 15.8337 7.82959C15.8337 8.37924 15.4819 8.86722 14.9605 9.04104L13.1478 9.64529C12.9287 9.71831 12.8191 9.75482 12.7368 9.80566C12.4563 9.97882 12.3042 10.3011 12.3489 10.6277C12.362 10.7236 12.4034 10.8313 12.4863 11.0469L13.5253 13.7483C13.8346 14.5524 13.241 15.4167 12.3794 15.4167C11.9389 15.4167 11.5321 15.1806 11.3135 14.7981L10.0003 12.5L8.68713 14.7981C8.46855 15.1806 8.06177 15.4167 7.62121 15.4167C6.75964 15.4167 6.16607 14.5524 6.47535 13.7483L7.51434 11.0469C7.59724 10.8313 7.63868 10.7236 7.6518 10.6277C7.69646 10.3011 7.54439 9.97882 7.26387 9.80566C7.1815 9.75482 7.07197 9.71831 6.8529 9.64529Z" fill="white"/>
<path d="M10.0003 18.3333C14.6027 18.3333 18.3337 16.6544 18.3337 14.5833C18.3337 13.1484 16.5428 11.9017 13.912 11.2712L14.692 13.2993C15.3162 14.9222 14.1182 16.6664 12.3794 16.6664C11.4903 16.6664 10.6693 16.19 10.2282 15.418L10.0003 15.0192L9.77244 15.418C9.3313 16.19 8.51034 16.6664 7.62121 16.6664C5.88241 16.6664 4.68448 14.9222 5.30867 13.2993L6.08868 11.2712C3.45788 11.9017 1.66699 13.1484 1.66699 14.5833C1.66699 16.6544 5.39795 18.3333 10.0003 18.3333Z" fill="white"/>
</svg>
