<svg width="20" height="20" viewBox="0 0 20 20" fill="none" xmlns="http://www.w3.org/2000/svg">
<path d="M12.75 4H14.2021C14.5773 4 14.9258 4 15.25 4.00223V8.86895L14.5448 8.47483L14.5361 8.46997C14.5017 8.45068 14.4388 8.41539 14.3765 8.38796C14.2946 8.3519 14.1649 8.30595 14 8.30595C13.8351 8.30595 13.7054 8.3519 13.6235 8.38796C13.5612 8.41539 13.4983 8.45068 13.4639 8.46997L13.4552 8.47483L12.75 8.86895V4Z" fill="white"/>
<path d="M20 9.7979V12C20 15.7712 20 17.6569 18.8284 18.8284C17.6569 20 15.7712 20 12 20H8C4.22876 20 2.34315 20 1.17157 18.8284C0 17.6569 0 15.7712 0 12V4.94975C0 4.06722 0 3.62595 0.0693501 3.25839C0.37464 1.64031 1.64031 0.37464 3.25839 0.0693501C3.62595 0 4.06722 0 4.94975 0C5.33642 0 5.52976 0 5.71557 0.0173753C6.51665 0.0922863 7.27652 0.407035 7.89594 0.920515C8.03961 1.03961 8.17633 1.17633 8.44975 1.44975L9 2C9.81578 2.81578 10.2237 3.22367 10.7121 3.49543C10.8851 3.59169 11.0649 3.6749 11.25 3.74443V4V9.42387L11.25 9.45285C11.2499 9.58797 11.2498 9.75531 11.2684 9.89558C11.2878 10.0414 11.3512 10.3735 11.6686 10.5928C12.0156 10.8325 12.371 10.7422 12.5327 10.683C12.6682 10.6335 12.8147 10.5514 12.9195 10.4926L12.9448 10.4784L14 9.88874L15.0552 10.4784L15.0805 10.4926C15.1853 10.5514 15.3318 10.6335 15.4673 10.683C15.629 10.7422 15.9844 10.8325 16.3314 10.5928C16.6488 10.3735 16.7122 10.0414 16.7316 9.89558C16.7502 9.75531 16.7501 9.58797 16.75 9.45285L16.75 9.42387V4.04686C17.7988 4.11911 18.4872 4.30274 19.0062 4.76946C19.0849 4.84024 19.1598 4.91514 19.2305 4.99383C20 5.84935 20 7.16554 20 9.7979Z" fill="white"/>
</svg>
