<svg width="30" height="30" viewBox="0 0 30 30" fill="none" xmlns="http://www.w3.org/2000/svg">
<path d="M14.9993 30C14.5268 30 14.1125 29.8218 13.7564 29.4653C13.4003 29.1088 13.2223 28.7003 13.2223 28.2397V16.7777H1.76034C1.29971 16.7777 0.89117 16.5994 0.534724 16.2428C0.178241 15.8862 0 15.4717 0 14.9993C0 14.5268 0.178241 14.1126 0.534724 13.7564C0.89117 13.4003 1.29971 13.2223 1.76034 13.2223H13.2223V1.76034C13.2223 1.29971 13.4006 0.891153 13.7572 0.53467C14.1138 0.178224 14.5283 0 15.0007 0C15.4732 0 15.8874 0.178224 16.2436 0.53467C16.5997 0.891153 16.7777 1.29971 16.7777 1.76034V13.2223H28.2397C28.7003 13.2223 29.1088 13.4006 29.4653 13.7572C29.8218 14.1138 30 14.5283 30 15.0007C30 15.4732 29.8218 15.8874 29.4653 16.2436C29.1088 16.5997 28.7003 16.7777 28.2397 16.7777H16.7777V28.2397C16.7777 28.7003 16.5994 29.1088 16.2428 29.4653C15.8862 29.8218 15.4717 30 14.9993 30Z" fill="#425766"/>
</svg>
