<svg width="58" height="58" viewBox="0 0 58 58" fill="none" xmlns="http://www.w3.org/2000/svg">
<path fill-rule="evenodd" clip-rule="evenodd" d="M20.3433 7.85631C21.0216 6.42633 22.4785 5.4375 24.1665 5.4375H33.8331C35.521 5.4375 36.978 6.42633 37.6563 7.85631C39.3082 7.86832 40.5956 7.94416 41.7448 8.39331C43.1179 8.92998 44.3123 9.84227 45.1912 11.0258C46.078 12.2199 46.4943 13.7503 47.0672 15.8568L48.8602 22.4332L49.5379 24.4664C49.5572 24.4903 49.5763 24.5143 49.5952 24.5385C51.7722 27.3268 50.7355 31.4736 48.6622 39.767C47.3435 45.0419 46.6841 47.6793 44.7175 49.2148C42.7508 50.7503 40.0322 50.7503 34.5951 50.7503H23.4043C17.9671 50.7503 15.2486 50.7503 13.2819 49.2148C11.3153 47.6793 10.6559 45.0419 9.33722 39.767C7.26384 31.4736 6.22716 27.3268 8.40417 24.5385C8.42321 24.5141 8.44242 24.49 8.4618 24.466L9.13938 22.4332L10.9324 15.8568C11.5053 13.7503 11.9216 12.2199 12.8083 11.0258C13.6873 9.84227 14.8817 8.92998 16.2548 8.39331C17.404 7.94416 18.6914 7.86832 20.3433 7.85631ZM20.3469 11.4847C18.7474 11.5009 18.1056 11.562 17.5744 11.7696C16.835 12.0586 16.1919 12.5498 15.7186 13.1871C15.293 13.7602 15.0433 14.5609 14.3402 17.1391L12.9638 22.1872C15.429 21.7503 18.7955 21.7503 23.4043 21.7503H34.5951C39.204 21.7503 42.5705 21.7503 45.0358 22.1872L43.6593 17.1391C42.9563 14.5609 42.7066 13.7602 42.281 13.1871C41.8077 12.5498 41.1646 12.0586 40.4252 11.7696C39.894 11.562 39.2522 11.5009 37.6527 11.4847C36.9728 12.9106 35.518 13.8958 33.8331 13.8958H24.1665C22.4816 13.8958 21.0268 12.9106 20.3469 11.4847Z" fill="white"/>
</svg>
