<svg width="20" height="20" viewBox="0 0 20 20" fill="none" xmlns="http://www.w3.org/2000/svg">
<path fill-rule="evenodd" clip-rule="evenodd" d="M1.46447 1.46447C0 2.92893 0 5.28595 0 10C0 14.714 0 17.0711 1.46447 18.5355C2.92893 20 5.28595 20 10 20C14.714 20 17.0711 20 18.5355 18.5355C20 17.0711 20 14.7141 20 10C20 5.28598 20 2.92893 18.5355 1.46447C17.0711 0 14.714 0 10 0C5.28595 0 2.92893 0 1.46447 1.46447ZM13.7587 4.87273C13.4543 4.59177 12.9799 4.61075 12.6989 4.91512C12.4179 5.21948 12.4369 5.69398 12.7413 5.97493L13.5818 6.75075H7.96155C5.63558 6.75075 3.75 8.63632 3.75 10.9623C3.75 13.2883 5.63557 15.1738 7.96154 15.1738H12.5C12.9142 15.1738 13.25 14.838 13.25 14.4238C13.25 14.0096 12.9142 13.6738 12.5 13.6738H7.96154C6.464 13.6738 5.25 12.4598 5.25 10.9623C5.25 9.46475 6.464 8.25075 7.96155 8.25075H13.5818L12.7413 9.02657C12.4369 9.30753 12.4179 9.78202 12.6989 10.0864C12.9799 10.3908 13.4543 10.4097 13.7587 10.1288L16.0087 8.05185C16.1625 7.90987 16.25 7.71007 16.25 7.50075C16.25 7.29143 16.1625 7.09163 16.0087 6.94965L13.7587 4.87273Z" fill="white"/>
</svg>
