<svg width="66" height="52" viewBox="0 0 66 52" fill="none" xmlns="http://www.w3.org/2000/svg">
<path d="M40 21.5C40 20.5654 40 20.0981 39.799 19.75C39.6674 19.522 39.478 19.3326 39.25 19.201C38.9019 19 38.4346 19 37.5 19L33.75 19L33.75 16C33.75 15.5858 33.4142 15.25 33 15.25C32.5858 15.25 32.25 15.5858 32.25 16L32.25 19L28.5 19C27.5654 19 27.0981 19 26.75 19.201C26.522 19.3326 26.3326 19.522 26.201 19.75C26 20.0981 26 20.5654 26 21.5C26 22.4346 26 22.9019 26.201 23.25C26.3326 23.478 26.522 23.6674 26.75 23.799C27.0981 24 27.5654 24 28.5 24H32.25L32.25 28H30.5C29.5654 28 29.0981 28 28.75 28.201C28.522 28.3326 28.3326 28.522 28.201 28.75C28 29.0981 28 29.5654 28 30.5C28 31.4346 28 31.9019 28.201 32.25C28.3326 32.478 28.522 32.6674 28.75 32.799C29.0981 33 29.5654 33 30.5 33H32.25L32.25 36C32.25 36.4142 32.5858 36.75 33 36.75C33.4142 36.75 33.75 36.4142 33.75 36L33.75 33H35.5C36.4346 33 36.9019 33 37.25 32.799C37.478 32.6674 37.6674 32.478 37.799 32.25C38 31.9019 38 31.4346 38 30.5C38 29.5654 38 29.0981 37.799 28.75C37.6674 28.522 37.478 28.3326 37.25 28.201C36.9019 28 36.4346 28 35.5 28H33.75L33.75 24H37.5C38.4346 24 38.9019 24 39.25 23.799C39.478 23.6674 39.6674 23.478 39.799 23.25C40 22.9019 40 22.4346 40 21.5Z" fill="#1D2A33"/>
</svg>
