<svg width="41" height="22" viewBox="0 0 41 22" fill="none" xmlns="http://www.w3.org/2000/svg">
<rect width="40.8" height="21.7021" rx="1.08511" fill="#DFE2E4"/>
<rect x="17" y="11.584" width="5.38213" height="2.51745" rx="1.25872" fill="#105EFE"/>
<path d="M15.0014 10.5791V10.4028H15.0339C15.0452 10.3926 15.0558 10.3782 15.0658 10.3597C15.0757 10.3409 15.0842 10.3159 15.0912 10.2844C15.0982 10.253 15.1029 10.2131 15.1051 10.1647L15.116 9.95178H15.4157V10.4028H15.4741V10.5784H15.4157V10.457H15.0597V10.5791H15.0014ZM15.1072 10.4028H15.3574V10.006H15.1709L15.1634 10.1647C15.1614 10.2016 15.1579 10.235 15.1529 10.2651C15.148 10.2949 15.1416 10.3213 15.1339 10.3441C15.1263 10.3669 15.1173 10.3865 15.1072 10.4028ZM15.6755 10.4652C15.6413 10.4652 15.6114 10.457 15.5856 10.4408C15.5598 10.4245 15.5397 10.4016 15.5253 10.3723C15.511 10.3429 15.5039 10.3087 15.5039 10.2699C15.5039 10.2303 15.511 10.1958 15.5253 10.1664C15.5397 10.1368 15.5598 10.1139 15.5856 10.0976C15.6114 10.0813 15.6413 10.0732 15.6755 10.0732C15.7098 10.0732 15.7399 10.0813 15.7657 10.0976C15.7914 10.1139 15.8116 10.1368 15.826 10.1664C15.8405 10.1958 15.8477 10.2303 15.8477 10.2699C15.8477 10.3087 15.8405 10.3429 15.826 10.3723C15.8116 10.4016 15.7914 10.4245 15.7657 10.4408C15.7399 10.457 15.7098 10.4652 15.6755 10.4652ZM15.6755 10.4129C15.7017 10.4129 15.7232 10.4063 15.7399 10.3929C15.7566 10.3796 15.7691 10.3621 15.7772 10.3404C15.7853 10.3185 15.7894 10.2949 15.7894 10.2699C15.7894 10.2443 15.7853 10.2206 15.7772 10.1986C15.7691 10.1767 15.7566 10.1591 15.7399 10.1457C15.7232 10.1322 15.7017 10.1254 15.6755 10.1254C15.6497 10.1254 15.6285 10.1322 15.6117 10.1457C15.595 10.1591 15.5826 10.1767 15.5744 10.1986C15.5663 10.2206 15.5622 10.2443 15.5622 10.2699C15.5622 10.2949 15.5663 10.3185 15.5744 10.3404C15.5826 10.3621 15.595 10.3796 15.6117 10.3929C15.6285 10.4063 15.6497 10.4129 15.6755 10.4129ZM15.904 10.457V10.0779H16.2018V10.457H16.1434V10.1322H15.9617V10.457H15.904ZM16.4296 10.4652C16.3955 10.4652 16.3655 10.457 16.3398 10.4408C16.314 10.4245 16.2939 10.4016 16.2794 10.3723C16.2652 10.3429 16.258 10.3087 16.258 10.2699C16.258 10.2303 16.2652 10.1958 16.2794 10.1664C16.2939 10.1368 16.314 10.1139 16.3398 10.0976C16.3655 10.0813 16.3955 10.0732 16.4296 10.0732C16.464 10.0732 16.4941 10.0813 16.5198 10.0976C16.5456 10.1139 16.5657 10.1368 16.5802 10.1664C16.5947 10.1958 16.6019 10.2303 16.6019 10.2699C16.6019 10.3087 16.5947 10.3429 16.5802 10.3723C16.5657 10.4016 16.5456 10.4245 16.5198 10.4408C16.4941 10.457 16.464 10.4652 16.4296 10.4652ZM16.4296 10.4129C16.4559 10.4129 16.4773 10.4063 16.4941 10.3929C16.5108 10.3796 16.5232 10.3621 16.5314 10.3404C16.5395 10.3185 16.5436 10.2949 16.5436 10.2699C16.5436 10.2443 16.5395 10.2206 16.5314 10.1986C16.5232 10.1767 16.5108 10.1591 16.4941 10.1457C16.4773 10.1322 16.4559 10.1254 16.4296 10.1254C16.4039 10.1254 16.3826 10.1322 16.3659 10.1457C16.3491 10.1591 16.3367 10.1767 16.3286 10.1986C16.3204 10.2206 16.3164 10.2443 16.3164 10.2699C16.3164 10.2949 16.3204 10.3185 16.3286 10.3404C16.3367 10.3621 16.3491 10.3796 16.3659 10.3929C16.3826 10.4063 16.4039 10.4129 16.4296 10.4129ZM16.6243 10.457V10.4028H16.6378C16.6532 10.4028 16.6652 10.3986 16.6738 10.3902C16.6824 10.3816 16.6887 10.366 16.6928 10.3434C16.6971 10.3208 16.7 10.2884 16.7016 10.2461L16.7084 10.0779H16.9607V10.457H16.9023V10.1322H16.7633L16.7572 10.2678C16.7558 10.2988 16.7531 10.3261 16.7491 10.3499C16.745 10.3734 16.7387 10.3932 16.7301 10.4092C16.7217 10.425 16.7105 10.437 16.6965 10.4452C16.6825 10.4531 16.665 10.457 16.6439 10.457H16.6243ZM17.2882 10.2407V10.2949H17.0793V10.2407H17.2882ZM17.0929 10.0779V10.457H17.0353V10.0779H17.0929ZM17.333 10.0779V10.457H17.2747V10.0779H17.333ZM17.4652 10.3709L17.6477 10.0779H17.7148V10.457H17.6572V10.1641L17.4754 10.457H17.4076V10.0779H17.4652V10.3709ZM17.7379 10.1322V10.0779H18.0451V10.1322H17.921V10.457H17.8626V10.1322H17.7379ZM18.237 10.4652C18.2006 10.4652 18.1691 10.457 18.1424 10.4408C18.116 10.4245 18.0956 10.4018 18.0814 10.3726C18.0671 10.3432 18.06 10.3092 18.06 10.2705C18.06 10.2316 18.067 10.1974 18.081 10.1678C18.095 10.1382 18.1147 10.115 18.14 10.0983C18.1656 10.0815 18.1954 10.0732 18.2295 10.0732C18.2492 10.0732 18.2688 10.0765 18.2882 10.083C18.3077 10.0896 18.3253 10.1002 18.3411 10.1149C18.3572 10.1296 18.3699 10.149 18.3794 10.1732C18.3889 10.1974 18.3937 10.2271 18.3937 10.2624V10.2875H18.1014V10.2373H18.3621L18.3353 10.2563C18.3353 10.231 18.3314 10.2085 18.3235 10.1888C18.3156 10.1691 18.3037 10.1537 18.2879 10.1424C18.2723 10.131 18.2528 10.1254 18.2295 10.1254C18.2063 10.1254 18.1863 10.1312 18.1695 10.1427C18.153 10.154 18.1404 10.1688 18.1315 10.1871C18.1227 10.2054 18.1183 10.2251 18.1183 10.2461V10.2793C18.1183 10.3081 18.1233 10.3324 18.1332 10.3523C18.1432 10.3721 18.1571 10.3873 18.175 10.3977C18.1928 10.4079 18.2135 10.4129 18.237 10.4129C18.2522 10.4129 18.2659 10.4108 18.2784 10.4065C18.2908 10.402 18.3015 10.3953 18.3106 10.3865C18.3196 10.3775 18.3265 10.3664 18.3313 10.3533L18.3876 10.3695C18.3817 10.3885 18.3717 10.4053 18.3577 10.4197C18.3439 10.434 18.3268 10.4452 18.3062 10.4533C18.2856 10.4612 18.2626 10.4652 18.237 10.4652ZM18.4147 10.457V10.4028H18.4283C18.4436 10.4028 18.4556 10.3986 18.4642 10.3902C18.4728 10.3816 18.4791 10.366 18.4832 10.3434C18.4875 10.3208 18.4904 10.2884 18.492 10.2461L18.4988 10.0779H18.7511V10.457H18.6928V10.1322H18.5537L18.5476 10.2678C18.5463 10.2988 18.5436 10.3261 18.5395 10.3499C18.5354 10.3734 18.5291 10.3932 18.5205 10.4092C18.5121 10.425 18.5009 10.437 18.4869 10.4452C18.4729 10.4531 18.4554 10.457 18.4344 10.457H18.4147ZM18.8759 10.2156H18.9844C19.0287 10.2154 19.0626 10.2266 19.0861 10.2492C19.1096 10.2718 19.1214 10.3004 19.1214 10.335C19.1214 10.3576 19.1161 10.3781 19.1054 10.3967C19.095 10.415 19.0797 10.4297 19.0593 10.4408C19.039 10.4516 19.014 10.457 18.9844 10.457H18.8257V10.0779H18.8833V10.4028H18.9844C19.0072 10.4028 19.026 10.3968 19.0407 10.3848C19.0556 10.3726 19.063 10.3569 19.063 10.3377C19.063 10.3175 19.0556 10.3012 19.0407 10.2885C19.026 10.2758 19.0072 10.2696 18.9844 10.2699H18.8759V10.2156ZM19.4306 10.2407V10.2949H19.2217V10.2407H19.4306ZM19.2353 10.0779V10.457H19.1777V10.0779H19.2353ZM19.4754 10.0779V10.457H19.4171V10.0779H19.4754ZM19.6002 10.2156H19.7087C19.753 10.2154 19.7869 10.2266 19.8104 10.2492C19.8339 10.2718 19.8457 10.3004 19.8457 10.335C19.8457 10.3576 19.8404 10.3781 19.8297 10.3967C19.8193 10.415 19.804 10.4297 19.7836 10.4408C19.7633 10.4516 19.7383 10.457 19.7087 10.457H19.55V10.0779H19.6076V10.4028H19.7087C19.7315 10.4028 19.7503 10.3968 19.765 10.3848C19.7799 10.3726 19.7874 10.3569 19.7874 10.3377C19.7874 10.3175 19.7799 10.3012 19.765 10.2885C19.7503 10.2758 19.7315 10.2696 19.7087 10.2699H19.6002V10.2156ZM19.906 10.457V10.0779H19.9637V10.457H19.906ZM20.0959 10.3709L20.2784 10.0779H20.3455V10.457H20.2879V10.1641L20.1061 10.457H20.0383V10.0779H20.0959V10.3709ZM20.1916 10.0328C20.1613 10.0328 20.1366 10.0243 20.1176 10.0074C20.0989 9.99021 20.0895 9.96794 20.0895 9.94059H20.1437C20.1437 9.95528 20.1482 9.96726 20.157 9.97653C20.1658 9.9858 20.1773 9.99044 20.1916 9.99044C20.2058 9.99044 20.2173 9.9858 20.2261 9.97653C20.235 9.96726 20.2394 9.95528 20.2394 9.94059H20.2936C20.2936 9.96794 20.2841 9.99021 20.2651 10.0074C20.2464 10.0243 20.2218 10.0328 20.1916 10.0328ZM20.5612 10.1322V10.0779H20.8684V10.1322H20.7443V10.457H20.686V10.1322H20.5612ZM21.0603 10.4652C21.0239 10.4652 20.9924 10.457 20.9657 10.4408C20.9393 10.4245 20.9189 10.4018 20.9047 10.3726C20.8904 10.3432 20.8833 10.3092 20.8833 10.2705C20.8833 10.2316 20.8903 10.1974 20.9043 10.1678C20.9184 10.1382 20.938 10.115 20.9633 10.0983C20.9889 10.0815 21.0187 10.0732 21.0529 10.0732C21.0725 10.0732 21.0921 10.0765 21.1115 10.083C21.131 10.0896 21.1486 10.1002 21.1644 10.1149C21.1805 10.1296 21.1932 10.149 21.2027 10.1732C21.2122 10.1974 21.217 10.2271 21.217 10.2624V10.2875H20.9247V10.2373H21.1854L21.1587 10.2563C21.1587 10.231 21.1547 10.2085 21.1468 10.1888C21.1389 10.1691 21.127 10.1537 21.1112 10.1424C21.0956 10.131 21.0761 10.1254 21.0529 10.1254C21.0296 10.1254 21.0096 10.1312 20.9928 10.1427C20.9763 10.154 20.9637 10.1688 20.9549 10.1871C20.946 10.2054 20.9416 10.2251 20.9416 10.2461V10.2793C20.9416 10.3081 20.9466 10.3324 20.9566 10.3523C20.9665 10.3721 20.9804 10.3873 20.9983 10.3977C21.0161 10.4079 21.0368 10.4129 21.0603 10.4129C21.0755 10.4129 21.0893 10.4108 21.1017 10.4065C21.1141 10.402 21.1249 10.3953 21.1339 10.3865C21.1429 10.3775 21.1498 10.3664 21.1546 10.3533L21.2109 10.3695C21.205 10.3885 21.1951 10.4053 21.181 10.4197C21.1672 10.434 21.1501 10.4452 21.1295 10.4533C21.1089 10.4612 21.0859 10.4652 21.0603 10.4652ZM21.2719 10.457V10.0779H21.3296V10.2427H21.3682L21.5045 10.0779H21.5791L21.4265 10.261L21.5812 10.457H21.5066L21.3818 10.297H21.3296V10.457H21.2719ZM21.7494 10.4652C21.7141 10.4652 21.6836 10.4568 21.6578 10.4401C21.6323 10.4231 21.6125 10.4 21.5985 10.3706C21.5847 10.3412 21.5778 10.3076 21.5778 10.2699C21.5778 10.2312 21.5849 10.1972 21.5991 10.1678C21.6134 10.1382 21.6333 10.115 21.6588 10.0983C21.6846 10.0815 21.7145 10.0732 21.7487 10.0732C21.7754 10.0732 21.7993 10.0781 21.8206 10.0881C21.842 10.0978 21.8596 10.1116 21.8731 10.1295C21.8869 10.1473 21.8954 10.1681 21.8986 10.1919H21.8402C21.8373 10.1803 21.832 10.1695 21.8243 10.1593C21.8166 10.1491 21.8064 10.141 21.7938 10.1349C21.7814 10.1286 21.7665 10.1254 21.7494 10.1254C21.7268 10.1254 21.707 10.1313 21.69 10.143C21.6731 10.1548 21.6598 10.1714 21.6503 10.1929C21.6409 10.2141 21.6361 10.2391 21.6361 10.2678C21.6361 10.297 21.6407 10.3225 21.65 10.3445C21.6593 10.3662 21.6724 10.383 21.6893 10.395C21.7065 10.407 21.7265 10.4129 21.7494 10.4129C21.7722 10.4129 21.7917 10.4071 21.808 10.3953C21.8243 10.3833 21.835 10.3671 21.8402 10.3465H21.8986C21.8954 10.3689 21.8873 10.389 21.8741 10.4068C21.8613 10.4247 21.8442 10.4389 21.8229 10.4496C21.8019 10.46 21.7774 10.4652 21.7494 10.4652ZM21.904 10.1322V10.0779H22.2112V10.1322H22.0871V10.457H22.0288V10.1322H21.904ZM22.4608 10.2136V10.2678H22.2397V10.2136H22.4608ZM22.6839 10.4652C22.6498 10.4652 22.6198 10.457 22.594 10.4408C22.5683 10.4245 22.5482 10.4016 22.5337 10.3723C22.5194 10.3429 22.5123 10.3087 22.5123 10.2699C22.5123 10.2303 22.5194 10.1958 22.5337 10.1664C22.5482 10.1368 22.5683 10.1139 22.594 10.0976C22.6198 10.0813 22.6498 10.0732 22.6839 10.0732C22.7183 10.0732 22.7483 10.0813 22.7741 10.0976C22.7999 10.1139 22.82 10.1368 22.8345 10.1664C22.8489 10.1958 22.8562 10.2303 22.8562 10.2699C22.8562 10.3087 22.8489 10.3429 22.8345 10.3723C22.82 10.4016 22.7999 10.4245 22.7741 10.4408C22.7483 10.457 22.7183 10.4652 22.6839 10.4652ZM22.6839 10.4129C22.7101 10.4129 22.7316 10.4063 22.7483 10.3929C22.7651 10.3796 22.7775 10.3621 22.7856 10.3404C22.7938 10.3185 22.7978 10.2949 22.7978 10.2699C22.7978 10.2443 22.7938 10.2206 22.7856 10.1986C22.7775 10.1767 22.7651 10.1591 22.7483 10.1457C22.7316 10.1322 22.7101 10.1254 22.6839 10.1254C22.6581 10.1254 22.6369 10.1322 22.6202 10.1457C22.6034 10.1591 22.591 10.1767 22.5829 10.1986C22.5747 10.2206 22.5707 10.2443 22.5707 10.2699C22.5707 10.2949 22.5747 10.3185 22.5829 10.3404C22.591 10.3621 22.6034 10.3796 22.6202 10.3929C22.6369 10.4063 22.6581 10.4129 22.6839 10.4129ZM22.9125 10.457V10.0779H23.2102V10.457H23.1519V10.1322H22.9701V10.457H22.9125ZM23.3424 10.3709L23.5249 10.0779H23.592V10.457H23.5344V10.1641L23.3526 10.457H23.2848V10.0779H23.3424V10.3709ZM23.8199 10.4652C23.7846 10.4652 23.7541 10.4568 23.7283 10.4401C23.7028 10.4231 23.683 10.4 23.669 10.3706C23.6552 10.3412 23.6483 10.3076 23.6483 10.2699C23.6483 10.2312 23.6554 10.1972 23.6697 10.1678C23.6839 10.1382 23.7038 10.115 23.7293 10.0983C23.7551 10.0815 23.7851 10.0732 23.8192 10.0732C23.8459 10.0732 23.8698 10.0781 23.8911 10.0881C23.9126 10.0978 23.9301 10.1116 23.9437 10.1295C23.9574 10.1473 23.9659 10.1681 23.9691 10.1919H23.9108C23.9078 10.1803 23.9025 10.1695 23.8948 10.1593C23.8871 10.1491 23.877 10.141 23.8643 10.1349C23.8519 10.1286 23.8371 10.1254 23.8199 10.1254C23.7973 10.1254 23.7775 10.1313 23.7605 10.143C23.7436 10.1548 23.7304 10.1714 23.7209 10.1929C23.7114 10.2141 23.7066 10.2391 23.7066 10.2678C23.7066 10.297 23.7113 10.3225 23.7205 10.3445C23.7298 10.3662 23.7429 10.383 23.7599 10.395C23.777 10.407 23.797 10.4129 23.8199 10.4129C23.8427 10.4129 23.8623 10.4071 23.8785 10.3953C23.8948 10.3833 23.9056 10.3671 23.9108 10.3465H23.9691C23.9659 10.3689 23.9578 10.389 23.9447 10.4068C23.9318 10.4247 23.9147 10.4389 23.8935 10.4496C23.8724 10.46 23.8479 10.4652 23.8199 10.4652ZM24.1352 10.4658C24.1113 10.4658 24.0895 10.4613 24.0698 10.4523C24.0501 10.443 24.0345 10.4297 24.023 10.4123C24.0115 10.3949 24.0057 10.3738 24.0057 10.3492C24.0057 10.3275 24.01 10.31 24.0186 10.2966C24.0272 10.2831 24.0386 10.2725 24.0528 10.2648C24.0673 10.2569 24.0831 10.251 24.1003 10.2471C24.1177 10.2433 24.1352 10.2402 24.1529 10.238C24.1759 10.235 24.1946 10.2328 24.2088 10.2312C24.2233 10.2296 24.2338 10.2269 24.2404 10.2231C24.2471 10.2192 24.2505 10.2127 24.2505 10.2034V10.2014C24.2505 10.1772 24.2439 10.1584 24.2305 10.1451C24.2174 10.1315 24.1974 10.1247 24.1705 10.1247C24.1429 10.1247 24.1212 10.1308 24.1054 10.143C24.0896 10.155 24.0785 10.1679 24.0722 10.1817L24.0166 10.162C24.0265 10.139 24.0397 10.121 24.0562 10.1081C24.073 10.0952 24.091 10.0862 24.1105 10.081C24.1302 10.0758 24.1495 10.0732 24.1685 10.0732C24.1807 10.0732 24.1947 10.0746 24.2105 10.0776C24.2263 10.0803 24.2417 10.0862 24.2566 10.0952C24.2718 10.104 24.2842 10.1175 24.2939 10.1356C24.3039 10.1534 24.3089 10.1774 24.3089 10.2075V10.457H24.2505V10.4055H24.2478C24.244 10.4136 24.2374 10.4224 24.2282 10.4319C24.2189 10.4412 24.2066 10.4492 24.1912 10.456C24.176 10.4626 24.1574 10.4658 24.1352 10.4658ZM24.1441 10.4136C24.1671 10.4136 24.1866 10.4091 24.2024 10.4001C24.2182 10.391 24.2302 10.3794 24.2383 10.3651C24.2465 10.3507 24.2505 10.3356 24.2505 10.32V10.2665C24.248 10.2694 24.2426 10.2721 24.2343 10.2746C24.2261 10.2769 24.2166 10.2789 24.2058 10.2807C24.1951 10.2825 24.1847 10.2841 24.1746 10.2854C24.1644 10.2866 24.1563 10.2875 24.1502 10.2882C24.135 10.2902 24.1209 10.2935 24.1078 10.298C24.0947 10.3023 24.084 10.3087 24.0759 10.3173C24.068 10.3259 24.064 10.3377 24.064 10.3526C24.064 10.3727 24.0715 10.388 24.0864 10.3984C24.1016 10.4085 24.1208 10.4136 24.1441 10.4136ZM24.6364 10.2407V10.2949H24.4275V10.2407H24.6364ZM24.4411 10.0779V10.457H24.3835V10.0779H24.4411ZM24.6812 10.0779V10.457H24.6229V10.0779H24.6812ZM24.8134 10.3709L24.9959 10.0779H25.063V10.457H25.0054V10.1641L24.8236 10.457H24.7558V10.0779H24.8134V10.3709ZM25.2963 10.4652C25.2599 10.4652 25.2284 10.457 25.2017 10.4408C25.1752 10.4245 25.1549 10.4018 25.1407 10.3726C25.1264 10.3432 25.1193 10.3092 25.1193 10.2705C25.1193 10.2316 25.1263 10.1974 25.1403 10.1678C25.1543 10.1382 25.174 10.115 25.1993 10.0983C25.2249 10.0815 25.2547 10.0732 25.2888 10.0732C25.3085 10.0732 25.3281 10.0765 25.3475 10.083C25.3669 10.0896 25.3846 10.1002 25.4004 10.1149C25.4165 10.1296 25.4292 10.149 25.4387 10.1732C25.4482 10.1974 25.453 10.2271 25.453 10.2624V10.2875H25.1607V10.2373H25.4214L25.3946 10.2563C25.3946 10.231 25.3907 10.2085 25.3828 10.1888C25.3749 10.1691 25.363 10.1537 25.3472 10.1424C25.3316 10.131 25.3121 10.1254 25.2888 10.1254C25.2656 10.1254 25.2456 10.1312 25.2288 10.1427C25.2123 10.154 25.1997 10.1688 25.1908 10.1871C25.182 10.2054 25.1776 10.2251 25.1776 10.2461V10.2793C25.1776 10.3081 25.1826 10.3324 25.1925 10.3523C25.2025 10.3721 25.2164 10.3873 25.2342 10.3977C25.2521 10.4079 25.2728 10.4129 25.2963 10.4129C25.3115 10.4129 25.3252 10.4108 25.3377 10.4065C25.3501 10.402 25.3608 10.3953 25.3699 10.3865C25.3789 10.3775 25.3858 10.3664 25.3906 10.3533L25.4469 10.3695C25.441 10.3885 25.431 10.4053 25.417 10.4197C25.4032 10.434 25.3861 10.4452 25.3655 10.4533C25.3449 10.4612 25.3218 10.4652 25.2963 10.4652Z" fill="#6A8496"/>
<path d="M13.0504 8.85156V8.15684H13.3171C13.3671 8.15684 13.4088 8.16477 13.442 8.18062C13.4753 8.19616 13.5001 8.21761 13.5166 8.24496C13.5331 8.27201 13.5413 8.30262 13.5413 8.33682C13.5413 8.3651 13.5359 8.38935 13.525 8.40955C13.5144 8.42944 13.5 8.44561 13.4816 8.45804C13.4633 8.47048 13.4428 8.47949 13.4201 8.48508V8.49208C13.445 8.49301 13.4686 8.50047 13.491 8.51446C13.5137 8.52814 13.5322 8.54741 13.5465 8.57227C13.5611 8.59714 13.5684 8.62714 13.5684 8.66226C13.5684 8.69832 13.5597 8.73065 13.5423 8.75924C13.5252 8.78753 13.4991 8.81007 13.4639 8.82685C13.4291 8.84333 13.3851 8.85156 13.332 8.85156H13.0504ZM13.1762 8.74665H13.3115C13.3572 8.74665 13.3901 8.7378 13.4103 8.72008C13.4308 8.70236 13.4411 8.67982 13.4411 8.65247C13.4411 8.63164 13.436 8.61299 13.4257 8.59652C13.4154 8.58005 13.4008 8.56699 13.3819 8.55735C13.3632 8.54772 13.3411 8.5429 13.3157 8.5429H13.1762V8.74665ZM13.1762 8.45245H13.3012C13.3226 8.45245 13.3421 8.44841 13.3595 8.44032C13.3769 8.43224 13.3906 8.4209 13.4005 8.40629C13.4108 8.39137 13.4159 8.3738 13.4159 8.3536C13.4159 8.32687 13.4064 8.3048 13.3875 8.28739C13.3685 8.26967 13.3407 8.26082 13.304 8.26082H13.1762V8.45245ZM13.6374 8.85156V8.33029H13.856C13.9176 8.3306 13.9662 8.34319 14.002 8.36805C14.038 8.39261 14.0561 8.4268 14.0561 8.47063C14.0561 8.50016 14.046 8.52409 14.0258 8.54243C14.0056 8.56046 13.9782 8.57274 13.9437 8.57927C13.9707 8.58144 13.9945 8.58844 14.015 8.60025C14.0359 8.61175 14.0522 8.62683 14.064 8.64548C14.0758 8.66413 14.0817 8.68573 14.0817 8.71029C14.0817 8.73888 14.0741 8.76391 14.0589 8.78535C14.0439 8.80649 14.0222 8.82281 13.9936 8.83431C13.9653 8.84581 13.9306 8.85156 13.8896 8.85156H13.6374ZM13.7521 8.75458H13.8896C13.9123 8.75489 13.93 8.74976 13.9428 8.73919C13.9558 8.72832 13.9622 8.71355 13.9619 8.6949C13.9622 8.67345 13.9558 8.65667 13.9428 8.64454C13.93 8.63211 13.9123 8.62589 13.8896 8.62589H13.7521V8.75458ZM13.7521 8.54663H13.8584C13.8832 8.54632 13.9028 8.54088 13.9171 8.53031C13.9314 8.51974 13.9386 8.50529 13.9386 8.48695C13.9386 8.46861 13.9313 8.45447 13.9167 8.44452C13.9021 8.43426 13.8818 8.42913 13.856 8.42913H13.7521V8.54663ZM14.3783 8.86182C14.326 8.86182 14.281 8.85094 14.243 8.82918C14.2051 8.80711 14.1759 8.77603 14.1554 8.73593C14.1352 8.69583 14.1251 8.64859 14.1251 8.59419C14.1251 8.54041 14.1352 8.49332 14.1554 8.45291C14.1756 8.41219 14.204 8.38049 14.2407 8.3578C14.2774 8.33511 14.3206 8.32376 14.3703 8.32376C14.4023 8.32376 14.4327 8.32889 14.4612 8.33915C14.4902 8.3494 14.5156 8.36526 14.5377 8.3867C14.5601 8.40815 14.5777 8.43551 14.5904 8.46877C14.6031 8.50171 14.6095 8.54104 14.6095 8.58673V8.62496H14.1824V8.54243H14.5484L14.4911 8.56668C14.4911 8.53715 14.4866 8.51151 14.4776 8.48975C14.4686 8.46768 14.4552 8.45043 14.4375 8.43799C14.4198 8.42556 14.3977 8.41934 14.3713 8.41934C14.3448 8.41934 14.3223 8.42556 14.3037 8.43799C14.285 8.45043 14.2709 8.46721 14.2612 8.48835C14.2516 8.50917 14.2468 8.53249 14.2468 8.55829V8.61564C14.2468 8.64734 14.2522 8.67454 14.2631 8.69723C14.2743 8.71961 14.2898 8.73671 14.3097 8.74852C14.3299 8.76033 14.3534 8.76624 14.3801 8.76624C14.3975 8.76624 14.4134 8.76375 14.4277 8.75878C14.4423 8.7538 14.4547 8.74634 14.465 8.7364C14.4755 8.72614 14.4836 8.71355 14.4892 8.69863L14.6039 8.71215C14.5965 8.7423 14.5826 8.76872 14.5624 8.79142C14.5425 8.8138 14.5169 8.8312 14.4855 8.84364C14.4544 8.85576 14.4187 8.86182 14.3783 8.86182ZM14.63 9.0031V8.75038H14.6711C14.6823 8.74199 14.6916 8.73049 14.699 8.71588C14.7065 8.70096 14.7126 8.6834 14.7172 8.66319C14.7222 8.64268 14.7262 8.61983 14.7293 8.59466C14.7328 8.56948 14.7357 8.54243 14.7382 8.51353L14.7531 8.33029H15.1299V8.75038H15.2101V9.0031H15.0916V8.85156H14.7508V9.0031H14.63ZM14.7974 8.75038H15.0124V8.4296H14.8599L14.8515 8.51353C14.8472 8.56854 14.8411 8.61579 14.8333 8.65527C14.8259 8.69443 14.8139 8.72614 14.7974 8.75038ZM15.3844 8.68511L15.5933 8.33029H15.7192V8.85156H15.6012V8.49627L15.3928 8.85156H15.2665V8.33029H15.3844V8.68511ZM15.7518 8.431V8.33029H16.2074V8.431H16.0391V8.85156H15.9202V8.431H15.7518ZM16.4792 8.86182C16.427 8.86182 16.3819 8.85094 16.344 8.82918C16.3061 8.80711 16.2769 8.77603 16.2563 8.73593C16.2361 8.69583 16.226 8.64859 16.226 8.59419C16.226 8.54041 16.2361 8.49332 16.2563 8.45291C16.2765 8.41219 16.305 8.38049 16.3417 8.3578C16.3783 8.33511 16.4215 8.32376 16.4713 8.32376C16.5033 8.32376 16.5336 8.32889 16.5622 8.33915C16.5911 8.3494 16.6166 8.36526 16.6387 8.3867C16.661 8.40815 16.6786 8.43551 16.6914 8.46877C16.7041 8.50171 16.7105 8.54104 16.7105 8.58673V8.62496H16.2834V8.54243H16.6494L16.592 8.56668C16.592 8.53715 16.5875 8.51151 16.5785 8.48975C16.5695 8.46768 16.5561 8.45043 16.5384 8.43799C16.5207 8.42556 16.4986 8.41934 16.4722 8.41934C16.4458 8.41934 16.4233 8.42556 16.4046 8.43799C16.386 8.45043 16.3718 8.46721 16.3622 8.48835C16.3525 8.50917 16.3477 8.53249 16.3477 8.55829V8.61564C16.3477 8.64734 16.3532 8.67454 16.364 8.69723C16.3752 8.71961 16.3908 8.73671 16.4107 8.74852C16.4309 8.76033 16.4543 8.76624 16.4811 8.76624C16.4985 8.76624 16.5143 8.76375 16.5286 8.75878C16.5432 8.7538 16.5557 8.74634 16.5659 8.7364C16.5765 8.72614 16.5846 8.71355 16.5902 8.69863L16.7049 8.71215C16.6974 8.7423 16.6836 8.76872 16.6634 8.79142C16.6435 8.8138 16.6178 8.8312 16.5864 8.84364C16.5554 8.85576 16.5196 8.86182 16.4792 8.86182ZM16.9678 8.70842H17.0891C17.0906 8.728 17.0995 8.74324 17.1156 8.75411C17.1318 8.76468 17.1529 8.76997 17.1791 8.76997C17.2055 8.76997 17.2277 8.76422 17.2457 8.75272C17.2641 8.7409 17.2732 8.72303 17.2732 8.6991C17.2732 8.6848 17.2697 8.67236 17.2625 8.6618C17.2557 8.65123 17.2459 8.64299 17.2331 8.63708C17.2204 8.63118 17.2056 8.62823 17.1889 8.62823H17.1087V8.54104H17.1889C17.214 8.54104 17.2331 8.53529 17.2462 8.52378C17.2596 8.51197 17.2662 8.49721 17.2662 8.47949C17.2662 8.45991 17.2593 8.44421 17.2453 8.4324C17.2316 8.42059 17.2125 8.41468 17.1879 8.41468C17.1637 8.41468 17.1435 8.42012 17.1273 8.431C17.1111 8.44188 17.1026 8.45602 17.1017 8.47343H16.9809C16.9815 8.44328 16.9905 8.41701 17.0079 8.39463C17.0257 8.37194 17.0496 8.35453 17.0797 8.34241C17.1102 8.32998 17.1444 8.32376 17.1823 8.32376C17.223 8.32376 17.2582 8.32982 17.2877 8.34194C17.3172 8.35407 17.3401 8.37116 17.3562 8.39323C17.3724 8.41499 17.3803 8.44063 17.38 8.47016C17.3803 8.49845 17.3716 8.52176 17.3539 8.5401C17.3362 8.55844 17.3123 8.57165 17.2821 8.57973V8.58486C17.3029 8.58611 17.3216 8.59201 17.3381 8.60258C17.3548 8.61315 17.368 8.62729 17.3777 8.64501C17.3873 8.66273 17.3921 8.6834 17.3921 8.70702C17.3921 8.73904 17.383 8.7667 17.3646 8.79002C17.3466 8.81302 17.3216 8.83074 17.2896 8.84317C17.2575 8.8556 17.2209 8.86182 17.1795 8.86182C17.1394 8.86182 17.1035 8.85576 17.0718 8.84364C17.0404 8.83151 17.0154 8.81411 16.9968 8.79142C16.9784 8.76841 16.9688 8.74075 16.9678 8.70842ZM17.5856 8.86229C17.5524 8.86229 17.5225 8.85638 17.4961 8.84457C17.4697 8.83245 17.4489 8.81473 17.4336 8.79142C17.4184 8.7681 17.4108 8.73935 17.4108 8.70516C17.4108 8.67594 17.4162 8.65169 17.4271 8.63242C17.438 8.61315 17.4528 8.59776 17.4714 8.58626C17.4904 8.57476 17.5117 8.56606 17.5353 8.56015C17.5589 8.55394 17.5833 8.54958 17.6085 8.5471C17.6393 8.54368 17.6641 8.54072 17.6831 8.53824C17.702 8.53575 17.7157 8.53171 17.7241 8.52612C17.7328 8.52052 17.7372 8.51182 17.7372 8.5V8.49767C17.7372 8.4725 17.7297 8.45291 17.7148 8.43893C17.6999 8.42494 17.6781 8.41794 17.6495 8.41794C17.6194 8.41794 17.5954 8.42447 17.5777 8.43753C17.5603 8.45058 17.5485 8.46597 17.5423 8.48369L17.428 8.46737C17.4371 8.43566 17.452 8.40924 17.4728 8.3881C17.4936 8.36666 17.519 8.35065 17.5488 8.34008C17.579 8.3292 17.6122 8.32376 17.6486 8.32376C17.6734 8.32376 17.6983 8.32671 17.7232 8.33262C17.748 8.33821 17.7709 8.34785 17.7917 8.36153C17.8125 8.3752 17.8292 8.39354 17.8416 8.41655C17.854 8.43955 17.8603 8.4683 17.8603 8.5028V8.85156H17.7423V8.77976H17.7386C17.7311 8.79406 17.7205 8.80758 17.7069 8.82032C17.6935 8.83276 17.6767 8.84286 17.6565 8.85063C17.6366 8.8584 17.613 8.86229 17.5856 8.86229ZM17.6169 8.77183C17.6417 8.77183 17.6632 8.76701 17.6812 8.75738C17.6992 8.74743 17.7132 8.73438 17.7232 8.71821C17.7331 8.70174 17.7381 8.68387 17.7381 8.66459V8.60351C17.7341 8.60662 17.7275 8.60958 17.7185 8.61237C17.7095 8.61486 17.6992 8.61719 17.6877 8.61937C17.6762 8.62154 17.6649 8.62341 17.6537 8.62496C17.6428 8.62652 17.6333 8.62776 17.6253 8.62869C17.6069 8.63118 17.5905 8.63537 17.5758 8.64128C17.5615 8.64688 17.5502 8.65465 17.5418 8.66459C17.5334 8.67454 17.5292 8.68744 17.5292 8.70329C17.5292 8.72598 17.5375 8.74308 17.5539 8.75458C17.5704 8.76608 17.5914 8.77183 17.6169 8.77183ZM18.2957 8.33029V8.431H18.071V8.85156H17.9512V8.33029H18.2957ZM18.5643 8.86182C18.5133 8.86182 18.4692 8.85063 18.4319 8.82825C18.3946 8.80587 18.3657 8.77447 18.3452 8.73407C18.325 8.69366 18.3149 8.64672 18.3149 8.59326C18.3149 8.53948 18.325 8.49239 18.3452 8.45198C18.3657 8.41126 18.3946 8.37971 18.4319 8.35733C18.4692 8.33495 18.5133 8.32376 18.5643 8.32376C18.6153 8.32376 18.6594 8.33495 18.6967 8.35733C18.734 8.37971 18.7629 8.41126 18.7834 8.45198C18.804 8.49239 18.8142 8.53948 18.8142 8.59326C18.8142 8.64672 18.804 8.69366 18.7834 8.73407C18.7629 8.77447 18.734 8.80587 18.6967 8.82825C18.6594 8.85063 18.6153 8.86182 18.5643 8.86182ZM18.5643 8.76297C18.5926 8.76297 18.6159 8.75551 18.6342 8.74059C18.6526 8.72536 18.6663 8.70485 18.6753 8.67905C18.6846 8.65325 18.6893 8.62465 18.6893 8.59326C18.6893 8.56124 18.6846 8.53233 18.6753 8.50653C18.6663 8.48073 18.6526 8.46037 18.6342 8.44545C18.6159 8.43022 18.5926 8.42261 18.5643 8.42261C18.5366 8.42261 18.5135 8.43022 18.4948 8.44545C18.4762 8.46037 18.4622 8.48073 18.4529 8.50653C18.4439 8.53233 18.4394 8.56124 18.4394 8.59326C18.4394 8.62465 18.4439 8.65325 18.4529 8.67905C18.4622 8.70485 18.4762 8.72536 18.4948 8.74059C18.5135 8.75551 18.5366 8.76297 18.5643 8.76297ZM18.8459 8.85156L18.8455 8.75038H18.8627C18.8811 8.75038 18.8955 8.74479 18.9061 8.7336C18.917 8.72241 18.9252 8.70314 18.9308 8.67578C18.9364 8.64812 18.9401 8.61004 18.942 8.56155L18.9508 8.33029H19.3308V8.85156H19.2119V8.431H19.0627L19.0543 8.59978C19.0522 8.64299 19.0473 8.68045 19.0399 8.71215C19.0324 8.74386 19.0217 8.77012 19.0077 8.79095C18.994 8.81146 18.9769 8.8267 18.9564 8.83664C18.9359 8.84659 18.9117 8.85156 18.8837 8.85156H18.8459ZM19.6488 8.86182C19.5978 8.86182 19.5537 8.85063 19.5164 8.82825C19.4791 8.80587 19.4502 8.77447 19.4297 8.73407C19.4095 8.69366 19.3994 8.64672 19.3994 8.59326C19.3994 8.53948 19.4095 8.49239 19.4297 8.45198C19.4502 8.41126 19.4791 8.37971 19.5164 8.35733C19.5537 8.33495 19.5978 8.32376 19.6488 8.32376C19.6998 8.32376 19.7439 8.33495 19.7812 8.35733C19.8185 8.37971 19.8474 8.41126 19.868 8.45198C19.8885 8.49239 19.8987 8.53948 19.8987 8.59326C19.8987 8.64672 19.8885 8.69366 19.868 8.73407C19.8474 8.77447 19.8185 8.80587 19.7812 8.82825C19.7439 8.85063 19.6998 8.86182 19.6488 8.86182ZM19.6488 8.76297C19.6771 8.76297 19.7004 8.75551 19.7188 8.74059C19.7371 8.72536 19.7508 8.70485 19.7598 8.67905C19.7691 8.65325 19.7738 8.62465 19.7738 8.59326C19.7738 8.56124 19.7691 8.53233 19.7598 8.50653C19.7508 8.48073 19.7371 8.46037 19.7188 8.44545C19.7004 8.43022 19.6771 8.42261 19.6488 8.42261C19.6212 8.42261 19.598 8.43022 19.5793 8.44545C19.5607 8.46037 19.5467 8.48073 19.5374 8.50653C19.5284 8.53233 19.5239 8.56124 19.5239 8.59326C19.5239 8.62465 19.5284 8.65325 19.5374 8.67905C19.5467 8.70485 19.5607 8.72536 19.5793 8.74059C19.598 8.75551 19.6212 8.76297 19.6488 8.76297ZM19.9663 8.85156V8.33029H20.185C20.2466 8.3306 20.2952 8.34319 20.331 8.36805C20.367 8.39261 20.385 8.4268 20.385 8.47063C20.385 8.50016 20.3749 8.52409 20.3547 8.54243C20.3345 8.56046 20.3072 8.57274 20.2727 8.57927C20.2997 8.58144 20.3235 8.58844 20.344 8.60025C20.3648 8.61175 20.3812 8.62683 20.393 8.64548C20.4048 8.66413 20.4107 8.68573 20.4107 8.71029C20.4107 8.73888 20.4031 8.76391 20.3878 8.78535C20.3729 8.80649 20.3512 8.82281 20.3226 8.83431C20.2943 8.84581 20.2596 8.85156 20.2186 8.85156H19.9663ZM20.081 8.75458H20.2186C20.2413 8.75489 20.259 8.74976 20.2717 8.73919C20.2848 8.72832 20.2912 8.71355 20.2909 8.6949C20.2912 8.67345 20.2848 8.65667 20.2717 8.64454C20.259 8.63211 20.2413 8.62589 20.2186 8.62589H20.081V8.75458ZM20.081 8.54663H20.1873C20.2122 8.54632 20.2318 8.54088 20.2461 8.53031C20.2604 8.51974 20.2675 8.50529 20.2675 8.48695C20.2675 8.46861 20.2602 8.45447 20.2456 8.44452C20.231 8.43426 20.2108 8.42913 20.185 8.42913H20.081V8.54663ZM20.7035 8.86182C20.6525 8.86182 20.6084 8.85063 20.5711 8.82825C20.5338 8.80587 20.5049 8.77447 20.4844 8.73407C20.4641 8.69366 20.454 8.64672 20.454 8.59326C20.454 8.53948 20.4641 8.49239 20.4844 8.45198C20.5049 8.41126 20.5338 8.37971 20.5711 8.35733C20.6084 8.33495 20.6525 8.32376 20.7035 8.32376C20.7545 8.32376 20.7986 8.33495 20.8359 8.35733C20.8732 8.37971 20.9021 8.41126 20.9226 8.45198C20.9431 8.49239 20.9534 8.53948 20.9534 8.59326C20.9534 8.64672 20.9431 8.69366 20.9226 8.73407C20.9021 8.77447 20.8732 8.80587 20.8359 8.82825C20.7986 8.85063 20.7545 8.86182 20.7035 8.86182ZM20.7035 8.76297C20.7318 8.76297 20.7551 8.75551 20.7734 8.74059C20.7918 8.72536 20.8054 8.70485 20.8145 8.67905C20.8238 8.65325 20.8284 8.62465 20.8284 8.59326C20.8284 8.56124 20.8238 8.53233 20.8145 8.50653C20.8054 8.48073 20.7918 8.46037 20.7734 8.44545C20.7551 8.43022 20.7318 8.42261 20.7035 8.42261C20.6758 8.42261 20.6527 8.43022 20.634 8.44545C20.6154 8.46037 20.6014 8.48073 20.5921 8.50653C20.583 8.53233 20.5785 8.56124 20.5785 8.59326C20.5785 8.62465 20.583 8.65325 20.5921 8.67905C20.6014 8.70485 20.6154 8.72536 20.634 8.74059C20.6527 8.75551 20.6758 8.76297 20.7035 8.76297ZM21.021 8.85156V8.33029H21.1436V8.54104H21.1884L21.3455 8.33029H21.4929L21.3003 8.58673L21.4947 8.85156H21.3465L21.2033 8.6548H21.1436V8.85156H21.021ZM21.9568 8.86182C21.9049 8.86182 21.8603 8.85047 21.823 8.82778C21.7857 8.80478 21.7571 8.77308 21.7372 8.73267C21.7173 8.69226 21.7073 8.64579 21.7073 8.59326C21.7073 8.5401 21.7174 8.49332 21.7377 8.45291C21.7579 8.4125 21.7866 8.38095 21.8239 8.35826C21.8612 8.33526 21.9052 8.32376 21.9559 8.32376C21.9984 8.32376 22.0361 8.33153 22.0687 8.34707C22.1013 8.36261 22.1273 8.38453 22.1466 8.41281C22.1661 8.44079 22.1773 8.47358 22.1801 8.5112H22.0626C22.0595 8.49441 22.0535 8.47933 22.0444 8.46597C22.0354 8.4526 22.0236 8.44203 22.009 8.43426C21.9947 8.42649 21.9776 8.42261 21.9577 8.42261C21.9325 8.42261 21.9105 8.42944 21.8915 8.44312C21.8729 8.45649 21.8583 8.47576 21.8477 8.50094C21.8371 8.52612 21.8318 8.55627 21.8318 8.59139C21.8318 8.62683 21.837 8.65744 21.8472 8.68324C21.8575 8.70873 21.8721 8.72847 21.891 8.74246C21.91 8.75614 21.9322 8.76297 21.9577 8.76297C21.9848 8.76297 22.0076 8.75505 22.0263 8.73919C22.0452 8.72334 22.0573 8.70143 22.0626 8.67345H22.1801C22.1773 8.71044 22.1665 8.74308 22.1475 8.77137C22.1285 8.79965 22.1029 8.82188 22.0706 8.83804C22.0382 8.85389 22.0003 8.86182 21.9568 8.86182ZM22.1899 8.431V8.33029H22.6455V8.431H22.4771V8.85156H22.3582V8.431H22.1899ZM22.7079 9.04646V8.33029H22.8282V8.41655H22.8357C22.8419 8.40411 22.8508 8.39075 22.8623 8.37645C22.8738 8.36184 22.8893 8.3494 22.9089 8.33915C22.9288 8.32889 22.9541 8.32376 22.9849 8.32376C23.025 8.32376 23.0612 8.33402 23.0935 8.35453C23.1259 8.37505 23.1515 8.4052 23.1705 8.44499C23.1897 8.48477 23.1994 8.53373 23.1994 8.59186C23.1994 8.64905 23.19 8.6977 23.1714 8.7378C23.1527 8.77789 23.1271 8.80851 23.0945 8.82965C23.0621 8.85047 23.0255 8.86089 22.9844 8.86089C22.9549 8.86089 22.9302 8.85591 22.9103 8.84597C22.8907 8.83571 22.8749 8.82359 22.8627 8.8096C22.8509 8.7953 22.8419 8.78178 22.8357 8.76904H22.8306V9.04646H22.7079ZM22.9509 8.76018C22.9779 8.76018 23.0004 8.75287 23.0185 8.73826C23.0368 8.72365 23.0506 8.7036 23.06 8.67812C23.0693 8.65263 23.0739 8.62372 23.0739 8.59139C23.0739 8.55906 23.0693 8.53031 23.06 8.50513C23.0506 8.47996 23.037 8.46022 23.0189 8.44592C23.0009 8.43162 22.9782 8.42447 22.9509 8.42447C22.9244 8.42447 22.902 8.43131 22.8837 8.44499C22.8657 8.45866 22.8518 8.47809 22.8422 8.50327C22.8329 8.52814 22.8282 8.55751 22.8282 8.59139C22.8282 8.62496 22.8329 8.65449 22.8422 8.67998C22.8518 8.70516 22.8658 8.7249 22.8842 8.73919C22.9025 8.75318 22.9247 8.76018 22.9509 8.76018ZM23.4176 8.86229C23.3843 8.86229 23.3545 8.85638 23.3281 8.84457C23.3016 8.83245 23.2808 8.81473 23.2656 8.79142C23.2503 8.7681 23.2427 8.73935 23.2427 8.70516C23.2427 8.67594 23.2482 8.65169 23.259 8.63242C23.2699 8.61315 23.2847 8.59776 23.3033 8.58626C23.3223 8.57476 23.3436 8.56606 23.3672 8.56015C23.3908 8.55394 23.4152 8.54958 23.4404 8.5471C23.4712 8.54368 23.4961 8.54072 23.515 8.53824C23.534 8.53575 23.5477 8.53171 23.5561 8.52612C23.5648 8.52052 23.5691 8.51182 23.5691 8.5V8.49767C23.5691 8.4725 23.5616 8.45291 23.5467 8.43893C23.5318 8.42494 23.51 8.41794 23.4815 8.41794C23.4513 8.41794 23.4274 8.42447 23.4096 8.43753C23.3922 8.45058 23.3804 8.46597 23.3742 8.48369L23.26 8.46737C23.269 8.43566 23.2839 8.40924 23.3047 8.3881C23.3256 8.36666 23.3509 8.35065 23.3807 8.34008C23.4109 8.3292 23.4442 8.32376 23.4805 8.32376C23.5054 8.32376 23.5303 8.32671 23.5551 8.33262C23.58 8.33821 23.6028 8.34785 23.6237 8.36153C23.6445 8.3752 23.6611 8.39354 23.6735 8.41655C23.686 8.43955 23.6922 8.4683 23.6922 8.5028V8.85156H23.5742V8.77976H23.5705C23.563 8.79406 23.5525 8.80758 23.5388 8.82032C23.5254 8.83276 23.5086 8.84286 23.4884 8.85063C23.4686 8.8584 23.4449 8.86229 23.4176 8.86229ZM23.4488 8.77183C23.4737 8.77183 23.4951 8.76701 23.5132 8.75738C23.5312 8.74743 23.5452 8.73438 23.5551 8.71821C23.5651 8.70174 23.57 8.68387 23.57 8.66459V8.60351C23.566 8.60662 23.5595 8.60958 23.5505 8.61237C23.5414 8.61486 23.5312 8.61719 23.5197 8.61937C23.5082 8.62154 23.4968 8.62341 23.4856 8.62496C23.4748 8.62652 23.4653 8.62776 23.4572 8.62869C23.4389 8.63118 23.4224 8.63537 23.4078 8.64128C23.3935 8.64688 23.3821 8.65465 23.3737 8.66459C23.3654 8.67454 23.3612 8.68744 23.3612 8.70329C23.3612 8.72598 23.3694 8.74308 23.3859 8.75458C23.4023 8.76608 23.4233 8.77183 23.4488 8.77183ZM24.1403 8.5401V8.64081H23.8638V8.5401H24.1403ZM23.9011 8.33029V8.85156H23.7831V8.33029H23.9011ZM24.2214 8.33029V8.85156H24.1034V8.33029H24.2214ZM24.4298 8.68511L24.6387 8.33029H24.7646V8.85156H24.6466V8.49627L24.4382 8.85156H24.3119V8.33029H24.4298V8.68511ZM25.2957 8.33029V8.85156H24.8555V8.33029H24.9744V8.75085H25.1786V8.33029H25.2957ZM25.3754 8.76018V9.01895H25.2551V8.76018H25.3754ZM25.5181 8.50047H25.6715C25.7377 8.50016 25.789 8.51632 25.8253 8.54896C25.862 8.58129 25.8803 8.62356 25.8803 8.67578C25.8803 8.70998 25.8721 8.74028 25.8556 8.7667C25.8392 8.79312 25.8154 8.81395 25.7843 8.82918C25.7532 8.8441 25.7156 8.85156 25.6715 8.85156H25.4346V8.33029H25.5526V8.75085H25.6715C25.6979 8.75085 25.7196 8.74417 25.7367 8.7308C25.7541 8.71713 25.7628 8.69941 25.7628 8.67765C25.7628 8.65496 25.7541 8.63646 25.7367 8.62216C25.7196 8.60787 25.6979 8.60087 25.6715 8.60118H25.5181V8.50047ZM25.9456 8.85156V8.33029H26.0682V8.85156H25.9456Z" fill="#6A8496"/>
</svg>
