<svg width="66" height="52" viewBox="0 0 66 52" fill="none" xmlns="http://www.w3.org/2000/svg">
<path fill-rule="evenodd" clip-rule="evenodd" d="M24.75 15C25.1642 15 25.5 15.3358 25.5 15.75L25.5 35.75C25.5 36.1642 25.1642 36.5 24.75 36.5C24.3358 36.5 24 36.1642 24 35.75L24 15.75C24 15.3358 24.3358 15 24.75 15Z" fill="#1D2A33"/>
<path d="M28.75 21.25C28.75 20.3154 28.75 19.8481 28.951 19.5C29.0826 19.272 29.272 19.0826 29.5 18.951C29.8481 18.75 30.3154 18.75 31.25 18.75H40.25C41.1846 18.75 41.6519 18.75 42 18.951C42.228 19.0826 42.4174 19.272 42.549 19.5C42.75 19.8481 42.75 20.3154 42.75 21.25C42.75 22.1846 42.75 22.6519 42.549 23C42.4174 23.228 42.228 23.4174 42 23.549C41.6519 23.75 41.1846 23.75 40.25 23.75L31.25 23.75C30.3154 23.75 29.8481 23.75 29.5 23.549C29.272 23.4174 29.0826 23.228 28.951 23C28.75 22.6519 28.75 22.1846 28.75 21.25Z" fill="#1D2A33"/>
<path d="M28.75 30.25C28.75 29.3154 28.75 28.8481 28.951 28.5C29.0826 28.272 29.272 28.0826 29.5 27.951C29.8481 27.75 30.3154 27.75 31.25 27.75L37.25 27.75C38.1846 27.75 38.6519 27.75 39 27.951C39.228 28.0826 39.4174 28.272 39.549 28.5C39.75 28.8481 39.75 29.3154 39.75 30.25C39.75 31.1846 39.75 31.6519 39.549 32C39.4174 32.228 39.228 32.4174 39 32.549C38.6519 32.75 38.1846 32.75 37.25 32.75H31.25C30.3154 32.75 29.8481 32.75 29.5 32.549C29.272 32.4174 29.0826 32.228 28.951 32C28.75 31.6519 28.75 31.1846 28.75 30.25Z" fill="#1D2A33"/>
</svg>
