<svg width="20" height="20" viewBox="0 0 20 20" fill="none" xmlns="http://www.w3.org/2000/svg">
<path fill-rule="evenodd" clip-rule="evenodd" d="M17.5 9.24794V13.4091C17.5 15.9896 17.5 17.2798 16.8882 17.8436C16.5965 18.1125 16.2282 18.2814 15.8359 18.3263C15.0133 18.4204 14.0527 17.5708 12.1315 15.8715C11.2823 15.1204 10.8577 14.7449 10.3664 14.6459C10.1245 14.5972 9.87548 14.5972 9.63356 14.6459C9.14229 14.7449 8.71768 15.1204 7.86847 15.8715C5.94728 17.5708 4.98668 18.4204 4.1641 18.3263C3.77179 18.2814 3.40351 18.1125 3.11176 17.8436C2.5 17.2798 2.5 15.9896 2.5 13.4091V9.24794C2.5 5.67409 2.5 3.88717 3.59835 2.77692C4.6967 1.66667 6.46447 1.66667 10 1.66667C13.5355 1.66667 15.3033 1.66667 16.4016 2.77692C17.5 3.88717 17.5 5.67409 17.5 9.24794ZM6.875 5.00001C6.875 4.65483 7.15482 4.37501 7.5 4.37501H12.5C12.8452 4.37501 13.125 4.65483 13.125 5.00001C13.125 5.34518 12.8452 5.62501 12.5 5.62501H7.5C7.15482 5.62501 6.875 5.34518 6.875 5.00001Z" fill="white"/>
</svg>
