<svg width="18" height="14" viewBox="0 0 18 14" fill="none" xmlns="http://www.w3.org/2000/svg">
<path d="M0.75 6.00002C0.335786 6.00002 1.81059e-08 6.33581 0 6.75002C-1.81059e-08 7.16424 0.335786 7.50002 0.75 7.50002H10V12.75C10 13.0534 10.1827 13.3268 10.463 13.4429C10.7432 13.559 11.0658 13.4949 11.2803 13.2804L17.2803 7.28035C17.421 7.1397 17.5 6.94893 17.5 6.75002C17.5 6.55111 17.421 6.36034 17.2803 6.21969L11.2803 0.219692C11.0658 0.00519343 10.7432 -0.0589736 10.463 0.0571124C10.1827 0.173197 10 0.446675 10 0.750022V6.00002H0.75Z" fill="white"/>
</svg>
