<svg width="10" height="10" viewBox="0 0 10 10" fill="none" xmlns="http://www.w3.org/2000/svg">
<path fill-rule="evenodd" clip-rule="evenodd" d="M9.20525 3.93029C9.17794 3.92855 9.14821 3.92856 9.11738 3.92857L9.10969 3.92858H7.90077C6.90431 3.92858 6.05167 4.7191 6.05167 5.75C6.05167 6.7809 6.90431 7.57143 7.90077 7.57143H9.10969L9.11738 7.57143C9.14821 7.57145 9.17794 7.57146 9.20525 7.56972C9.61001 7.54396 9.96796 7.22473 9.99806 6.77885C10 6.74961 10 6.7181 10 6.68889L9.99999 6.68096V4.81905L10 4.81112C10 4.78191 10 4.7504 9.99806 4.72116C9.96796 4.27528 9.61001 3.95605 9.20525 3.93029ZM7.79358 6.23571C8.05012 6.23571 8.25809 6.01825 8.25809 5.75C8.25809 5.48175 8.05012 5.26429 7.79358 5.26429C7.53704 5.26429 7.32907 5.48175 7.32907 5.75C7.32907 6.01825 7.53704 6.23571 7.79358 6.23571Z" fill="#6F8CA6"/>
<path fill-rule="evenodd" clip-rule="evenodd" d="M9.11707 8.30001C9.18892 8.29813 9.2433 8.3652 9.22381 8.43493C9.12706 8.78098 8.97351 9.07591 8.72711 9.32425C8.36646 9.68774 7.90913 9.84906 7.34411 9.92562C6.79509 10 6.09358 10 5.20791 10H4.18968C3.30401 10 2.6025 10 2.05348 9.92562C1.48846 9.84906 1.03114 9.68774 0.670479 9.32425C0.309822 8.96076 0.149766 8.49985 0.0738002 7.93038C-1.35154e-05 7.37705 -7.45629e-06 6.67003 1.5587e-07 5.7774V5.7226C-7.51374e-06 4.82997 -1.36271e-05 4.12295 0.0738 3.56962C0.149765 3.00016 0.309822 2.53924 0.670479 2.17575C1.03114 1.81226 1.48846 1.65094 2.05348 1.57438C2.6025 1.49999 3.30401 1.49999 4.18968 1.5L5.20791 1.5C6.09358 1.49999 6.79509 1.49999 7.34411 1.57438C7.90913 1.65094 8.36646 1.81226 8.72711 2.17575C8.97351 2.42408 9.12706 2.71902 9.22381 3.06506C9.2433 3.13479 9.18892 3.20188 9.11706 3.2L7.90073 3.2C6.53367 3.2 5.32874 4.28844 5.32874 5.75C5.32874 7.21157 6.53367 8.3 7.90073 8.3L9.11707 8.30001ZM1.80723 3.44286C1.60761 3.44286 1.44578 3.60595 1.44578 3.80714C1.44578 4.00833 1.60761 4.17143 1.80723 4.17143H3.73494C3.93456 4.17143 4.09639 4.00833 4.09639 3.80714C4.09639 3.60595 3.93456 3.44286 3.73494 3.44286H1.80723Z" fill="#6F8CA6"/>
<path d="M2.88834 1.01219L3.86774 0.29063C4.39372 -0.0968767 5.10628 -0.0968765 5.63226 0.29063L6.61681 1.01599C6.20515 0.999977 5.74544 0.999988 5.24143 1H4.15616C3.69561 0.99999 3.27205 0.999979 2.88834 1.01219Z" fill="#6F8CA6"/>
</svg>
