<svg width="18" height="18" viewBox="0 0 18 18" fill="none" xmlns="http://www.w3.org/2000/svg">
<rect width="18" height="18" rx="9" fill="#105EFE"/>
<path d="M8.99985 12C8.90537 12 8.82251 11.9644 8.75129 11.8931C8.68006 11.8218 8.64445 11.7401 8.64445 11.6479V9.35555H6.35207C6.25994 9.35555 6.17823 9.31989 6.10694 9.24857C6.03565 9.17724 6 9.09434 6 8.99986C6 8.90537 6.03565 8.82251 6.10694 8.75129C6.17823 8.68007 6.25994 8.64445 6.35207 8.64445H8.64445V6.35207C8.64445 6.25994 8.68011 6.17823 8.75143 6.10693C8.82276 6.03564 8.90566 6 9.00014 6C9.09463 6 9.17749 6.03564 9.24871 6.10693C9.31993 6.17823 9.35555 6.25994 9.35555 6.35207V8.64445H11.6479C11.7401 8.64445 11.8218 8.68011 11.8931 8.75143C11.9644 8.82276 12 8.90566 12 9.00014C12 9.09463 11.9644 9.17749 11.8931 9.24871C11.8218 9.31993 11.7401 9.35555 11.6479 9.35555H9.35555V11.6479C9.35555 11.7401 9.31989 11.8218 9.24857 11.8931C9.17724 11.9644 9.09434 12 8.99985 12Z" fill="white"/>
</svg>
