<svg width="26" height="25" viewBox="0 0 26 25" fill="none" xmlns="http://www.w3.org/2000/svg">
<path d="M17.3916 11.1691C17.9784 11.1691 18.4541 11.6448 18.4541 12.2316C18.4541 12.8184 17.9784 13.2941 17.3916 13.2941H9.5999C9.0131 13.2941 8.5374 12.8184 8.5374 12.2316C8.5374 11.6448 9.0131 11.1691 9.5999 11.1691H17.3916Z" fill="white"/>
<path fill-rule="evenodd" clip-rule="evenodd" d="M2.50505 16.6292C-0.679425 8.8128 5.07097 0.260742 13.5112 0.260742H13.9666C20.2787 0.260742 25.3957 5.37776 25.3957 11.6899C25.3957 18.7177 19.6985 24.4149 12.6707 24.4149H1.59199C1.14113 24.4149 0.739355 24.1304 0.589716 23.705C0.440077 23.2797 0.575156 22.8063 0.926692 22.524L3.71964 20.281C3.84176 20.1829 3.88496 20.0163 3.82586 19.8712L2.50505 16.6292ZM13.5112 2.38574C6.58012 2.38574 1.85792 9.40866 4.473 15.8275L5.79381 19.0695C6.20747 20.0848 5.90508 21.2513 5.05023 21.9378L4.61185 22.2899H12.6707C18.5249 22.2899 23.2707 17.5441 23.2707 11.6899C23.2707 6.55136 19.1051 2.38574 13.9666 2.38574H13.5112Z" fill="white"/>
</svg>
