<svg width="182" height="80" viewBox="0 0 182 80" fill="none" xmlns="http://www.w3.org/2000/svg">
<rect width="182" height="80" rx="10" fill="#141E27"/>
<rect x="68.0381" y="22" width="85.7051" height="35" rx="3" fill="#105EFE"/>
<rect x="29.3017" y="22.3017" width="34.3966" height="34.3966" rx="2.69831" stroke="#6A8496" stroke-width="0.603382"/>
<path d="M91.8378 44.7689V42.4903H92.2585C92.4046 42.3588 92.5419 42.1733 92.6704 41.9338C92.799 41.6913 92.9085 41.367 92.9991 40.961C93.0896 40.5549 93.1495 40.0393 93.1787 39.4141L93.319 36.6622H97.1927V42.4903H97.9464V44.7602H97.1927V43.1914H92.5915V44.7689H91.8378ZM93.205 42.4903H96.439V37.3633H94.0288L93.9324 39.4141C93.9061 39.8903 93.8609 40.3226 93.7966 40.7112C93.7323 41.0968 93.6505 41.4371 93.5512 41.7322C93.4519 42.0273 93.3365 42.2799 93.205 42.4903ZM100.006 43.3053C99.6962 43.3053 99.4143 43.2469 99.1602 43.1301C98.906 43.0103 98.7045 42.8379 98.5555 42.613C98.4065 42.388 98.332 42.1164 98.332 41.7979C98.332 41.5175 98.3875 41.2911 98.4985 41.1187C98.6095 40.9434 98.757 40.8061 98.9411 40.7068C99.128 40.6046 99.3325 40.5286 99.5546 40.4789C99.7795 40.4293 100.006 40.3898 100.234 40.3606C100.532 40.3226 100.773 40.2934 100.957 40.273C101.144 40.2525 101.28 40.2175 101.364 40.1678C101.452 40.1182 101.496 40.0334 101.496 39.9137V39.8874C101.496 39.5748 101.41 39.3323 101.237 39.16C101.068 38.9847 100.809 38.897 100.462 38.897C100.105 38.897 99.8248 38.9759 99.6203 39.1337C99.4158 39.2885 99.2727 39.455 99.1909 39.6332L98.4722 39.3791C98.6007 39.0811 98.7716 38.8488 98.9849 38.6823C99.2011 38.5158 99.4348 38.3989 99.686 38.3318C99.9402 38.2646 100.19 38.231 100.435 38.231C100.593 38.231 100.774 38.25 100.979 38.2879C101.183 38.323 101.382 38.3989 101.575 38.5158C101.77 38.6297 101.931 38.8036 102.057 39.0373C102.185 39.268 102.249 39.5777 102.249 39.9662V43.1914H101.496V42.5253H101.461C101.411 42.6305 101.326 42.7444 101.207 42.8671C101.087 42.9869 100.928 43.0906 100.729 43.1783C100.533 43.263 100.292 43.3053 100.006 43.3053ZM100.12 42.6305C100.418 42.6305 100.669 42.5721 100.874 42.4552C101.078 42.3384 101.233 42.1879 101.338 42.0039C101.443 41.8169 101.496 41.6226 101.496 41.4211V40.7287C101.464 40.7667 101.394 40.8017 101.285 40.8339C101.18 40.8631 101.058 40.8894 100.917 40.9128C100.78 40.9361 100.646 40.9566 100.514 40.9741C100.383 40.9887 100.278 41.0004 100.199 41.0092C100.003 41.0355 99.8204 41.0778 99.651 41.1362C99.4815 41.1917 99.3442 41.275 99.2391 41.386C99.1368 41.497 99.0857 41.6489 99.0857 41.8417C99.0857 42.1017 99.1821 42.2989 99.3749 42.4333C99.5706 42.5648 99.8189 42.6305 100.12 42.6305ZM102.775 43.1914V42.4903H102.951C103.149 42.4903 103.304 42.4362 103.415 42.3281C103.526 42.2171 103.608 42.0156 103.661 41.7234C103.716 41.4313 103.754 41.0121 103.774 40.4658L103.862 38.2923H107.122V43.1914H106.369V38.9934H104.572L104.493 40.7462C104.476 41.1465 104.441 41.4999 104.388 41.8067C104.335 42.1105 104.254 42.3661 104.143 42.5735C104.034 42.778 103.89 42.9329 103.709 43.038C103.528 43.1403 103.301 43.1914 103.029 43.1914H102.775ZM110.137 43.2966C109.667 43.2966 109.259 43.1914 108.915 42.9811C108.573 42.7707 108.31 42.4771 108.126 42.1003C107.942 41.7205 107.85 41.2808 107.85 40.7813C107.85 40.2788 107.94 39.8362 108.121 39.4536C108.303 39.0709 108.557 38.7714 108.884 38.5552C109.214 38.3391 109.6 38.231 110.041 38.231C110.295 38.231 110.548 38.2733 110.799 38.358C111.05 38.4428 111.278 38.5801 111.482 38.77C111.69 38.9598 111.855 39.2111 111.978 39.5237C112.1 39.8362 112.162 40.2204 112.162 40.6761V41.0004H108.384V40.3519H111.754L111.408 40.5973C111.408 40.2701 111.357 39.9794 111.255 39.7252C111.152 39.4711 110.999 39.271 110.794 39.1249C110.593 38.9788 110.342 38.9058 110.041 38.9058C109.74 38.9058 109.481 38.9803 109.265 39.1293C109.052 39.2753 108.888 39.4667 108.774 39.7033C108.66 39.94 108.603 40.1941 108.603 40.4658V40.8952C108.603 41.2662 108.668 41.5803 108.796 41.8374C108.925 42.0944 109.104 42.2902 109.335 42.4246C109.566 42.556 109.833 42.6217 110.137 42.6217C110.333 42.6217 110.511 42.594 110.672 42.5385C110.832 42.4801 110.971 42.3939 111.088 42.2799C111.205 42.1631 111.294 42.0199 111.355 41.8505L112.083 42.0608C112.007 42.3062 111.878 42.5224 111.697 42.7094C111.519 42.8934 111.297 43.038 111.031 43.1432C110.765 43.2455 110.467 43.2966 110.137 43.2966ZM114.922 43.2966C114.452 43.2966 114.044 43.1914 113.7 42.9811C113.358 42.7707 113.095 42.4771 112.911 42.1003C112.727 41.7205 112.635 41.2808 112.635 40.7813C112.635 40.2788 112.725 39.8362 112.907 39.4536C113.088 39.0709 113.342 38.7714 113.669 38.5552C113.999 38.3391 114.385 38.231 114.826 38.231C115.08 38.231 115.333 38.2733 115.584 38.358C115.835 38.4428 116.063 38.5801 116.268 38.77C116.475 38.9598 116.64 39.2111 116.763 39.5237C116.885 39.8362 116.947 40.2204 116.947 40.6761V41.0004H113.169V40.3519H116.539L116.193 40.5973C116.193 40.2701 116.142 39.9794 116.04 39.7252C115.937 39.4711 115.784 39.271 115.58 39.1249C115.378 38.9788 115.127 38.9058 114.826 38.9058C114.525 38.9058 114.266 38.9803 114.05 39.1293C113.837 39.2753 113.673 39.4667 113.559 39.7033C113.446 39.94 113.389 40.1941 113.389 40.4658V40.8952C113.389 41.2662 113.453 41.5803 113.581 41.8374C113.71 42.0944 113.89 42.2902 114.12 42.4246C114.351 42.556 114.618 42.6217 114.922 42.6217C115.118 42.6217 115.296 42.594 115.457 42.5385C115.618 42.4801 115.756 42.3939 115.873 42.2799C115.99 42.1631 116.079 42.0199 116.14 41.8505L116.868 42.0608C116.792 42.3062 116.663 42.5224 116.482 42.7094C116.304 42.8934 116.082 43.038 115.816 43.1432C115.55 43.2455 115.252 43.2966 114.922 43.2966Z" fill="white"/>
<path d="M130.279 40.7138C130.454 40.5385 130.454 40.2544 130.279 40.0792L127.423 37.2236C127.248 37.0483 126.964 37.0483 126.788 37.2236C126.613 37.3988 126.613 37.6829 126.788 37.8582L129.327 40.3965L126.788 42.9348C126.613 43.1101 126.613 43.3942 126.788 43.5694C126.964 43.7446 127.248 43.7446 127.423 43.5694L130.279 40.7138ZM123.23 40.8452H129.961V39.9478H123.23V40.8452Z" fill="white"/>
<path d="M42.5926 40.0792C42.4173 40.2544 42.4173 40.5385 42.5926 40.7138L45.4482 43.5694C45.6234 43.7446 45.9075 43.7446 46.0828 43.5694C46.258 43.3942 46.258 43.1101 46.0828 42.9348L43.5444 40.3965L46.0828 37.8582C46.258 37.6829 46.258 37.3988 46.0828 37.2236C45.9075 37.0483 45.6234 37.0483 45.4482 37.2236L42.5926 40.0792ZM49.6406 39.9478L42.9099 39.9478L42.9099 40.8452L49.6406 40.8452L49.6406 39.9478Z" fill="#6A8496"/>
</svg>
