<svg width="58" height="58" viewBox="0 0 58 58" fill="none" xmlns="http://www.w3.org/2000/svg">
<path fill-rule="evenodd" clip-rule="evenodd" d="M29.0002 53.1673C17.6079 53.1673 11.9117 53.1673 8.37262 49.6282C4.8335 46.0891 4.8335 40.3929 4.8335 29.0006C4.8335 17.6084 4.8335 11.9122 8.37262 8.37311C11.9117 4.83398 17.6079 4.83398 29.0002 4.83398C40.3924 4.83398 46.0886 4.83398 49.6277 8.37311C53.1668 11.9122 53.1668 17.6084 53.1668 29.0006C53.1668 40.3929 53.1668 46.0891 49.6277 49.6282C46.0886 53.1673 40.3924 53.1673 29.0002 53.1673ZM21.146 15.7089C21.146 14.7079 20.3345 13.8964 19.3335 13.8964C18.3325 13.8964 17.521 14.7079 17.521 15.7089L17.521 18.7298H14.5002C13.4991 18.7298 12.6877 19.5413 12.6877 20.5423C12.6877 21.5433 13.4991 22.3548 14.5002 22.3548L17.521 22.3548V25.3756C17.521 26.3766 18.3325 27.1881 19.3335 27.1881C20.3345 27.1881 21.146 26.3766 21.146 25.3756V22.3548H24.1668C25.1678 22.3548 25.9793 21.5433 25.9793 20.5423C25.9793 19.5413 25.1678 18.7298 24.1668 18.7298H21.146V15.7089ZM33.8335 18.7298C32.8325 18.7298 32.021 19.5412 32.021 20.5423C32.021 21.5433 32.8325 22.3548 33.8335 22.3548H43.5002C44.5012 22.3548 45.3127 21.5433 45.3127 20.5423C45.3127 19.5412 44.5012 18.7298 43.5002 18.7298H33.8335ZM33.8335 33.2298C32.8325 33.2298 32.021 34.0412 32.021 35.0423C32.021 36.0433 32.8325 36.8548 33.8335 36.8548H43.5002C44.5012 36.8548 45.3127 36.0433 45.3127 35.0423C45.3127 34.0412 44.5012 33.2298 43.5002 33.2298H33.8335ZM16.9901 33.7607C16.2823 33.0529 15.1347 33.0529 14.4269 33.7607C13.719 34.4685 13.719 35.6161 14.4269 36.3239L16.7702 38.6673L14.4269 41.0107C13.7191 41.7185 13.7191 42.8661 14.4269 43.5739C15.1347 44.2818 16.2823 44.2818 16.9902 43.5739L19.3335 41.2306L21.6768 43.5739C22.3847 44.2817 23.5323 44.2817 24.2401 43.5739C24.9479 42.8661 24.9479 41.7185 24.2401 41.0107L21.8968 38.6673L24.2401 36.324C24.948 35.6161 24.948 34.4685 24.2401 33.7607C23.5323 33.0529 22.3847 33.0529 21.6769 33.7607L19.3335 36.1041L16.9901 33.7607ZM33.8335 40.4798C32.8325 40.4798 32.021 41.2912 32.021 42.2923C32.021 43.2933 32.8325 44.1048 33.8335 44.1048H43.5002C44.5012 44.1048 45.3127 43.2933 45.3127 42.2923C45.3127 41.2912 44.5012 40.4798 43.5002 40.4798H33.8335Z" fill="white"/>
</svg>
