<svg width="18" height="18" viewBox="0 0 18 18" fill="none" xmlns="http://www.w3.org/2000/svg">
<path d="M17.8362 14.4612L12.3754 9.00044L17.8362 3.53969C17.9408 3.43378 17.9995 3.29089 17.9995 3.142C17.9995 2.99312 17.9408 2.85023 17.8362 2.74432L15.2566 0.164692C15.1511 0.0592399 15.008 0 14.8589 0C14.7097 0 14.5667 0.0592399 14.4612 0.164692L9.00044 5.62544L3.53969 0.164692C3.43421 0.0592399 3.29116 0 3.142 0C2.99285 0 2.8498 0.0592399 2.74432 0.164692L0.164692 2.74432C0.0592399 2.8498 0 2.99285 0 3.142C0 3.29116 0.0592399 3.43421 0.164692 3.53969L5.62544 9.00044L0.164692 14.4612C0.0592399 14.5667 0 14.7097 0 14.8589C0 15.008 0.0592399 15.1511 0.164692 15.2566L2.74432 17.8362C2.8498 17.9416 2.99285 18.0009 3.142 18.0009C3.29116 18.0009 3.43421 17.9416 3.53969 17.8362L9.00044 12.3754L14.4612 17.8362C14.5667 17.9416 14.7097 18.0009 14.8589 18.0009C15.008 18.0009 15.1511 17.9416 15.2566 17.8362L17.8362 15.2566C17.9416 15.1511 18.0009 15.008 18.0009 14.8589C18.0009 14.7097 17.9416 14.5667 17.8362 14.4612Z" fill="white"/>
</svg>
