<svg width="10" height="10" viewBox="0 0 10 10" fill="none" xmlns="http://www.w3.org/2000/svg">
<path opacity="0.3" d="M9.18684 1.40841C9.50904 1.08622 9.50904 0.563838 9.18684 0.241645C8.86465 -0.0805483 8.34227 -0.0805483 8.02008 0.241645L4.71425 3.54747L1.40842 0.241645C1.08623 -0.0805476 0.563848 -0.080548 0.241655 0.241645C-0.0805381 0.563839 -0.0805378 1.08622 0.241655 1.40841L3.54748 4.71424L0.241645 8.02008C-0.0805481 8.34227 -0.0805485 8.86465 0.241645 9.18684C0.563838 9.50904 1.08622 9.50904 1.40841 9.18684L4.71425 5.881L8.02009 9.18684C8.34228 9.50904 8.86466 9.50904 9.18685 9.18684C9.50905 8.86465 9.50905 8.34227 9.18685 8.02008L5.88101 4.71424L9.18684 1.40841Z" fill="white"/>
</svg>
