<svg width="24" height="25" viewBox="0 0 24 25" fill="none" xmlns="http://www.w3.org/2000/svg">
<path d="M3.25 9.58301C3.25 8.05801 3.8558 6.59548 4.93414 5.51714C6.01247 4.43881 7.47501 3.83301 9 3.83301H16.013C16.2119 3.83301 16.4027 3.91203 16.5433 4.05268C16.684 4.19333 16.763 4.3841 16.763 4.58301C16.763 4.78192 16.684 4.97269 16.5433 5.11334C16.4027 5.25399 16.2119 5.33301 16.013 5.33301H9C7.87283 5.33301 6.79183 5.78077 5.9948 6.5778C5.19777 7.37483 4.75 8.45584 4.75 9.58301V16.69C4.75 16.8889 4.67098 17.0797 4.53033 17.2203C4.38968 17.361 4.19891 17.44 4 17.44C3.80109 17.44 3.61032 17.361 3.46967 17.2203C3.32902 17.0797 3.25 16.8889 3.25 16.69V9.58301Z" fill="white"/>
<path d="M18.4034 7.37601C15.1447 7.01395 11.856 7.01395 8.59737 7.37601C8.14644 7.42609 7.72571 7.62727 7.40362 7.94682C7.08153 8.26636 6.87703 8.68548 6.82337 9.13601C6.43908 12.4228 6.43908 15.7432 6.82337 19.03C6.87703 19.4805 7.08153 19.8996 7.40362 20.2192C7.72571 20.5387 8.14644 20.7399 8.59737 20.79C11.8384 21.152 15.1624 21.152 18.4034 20.79C18.8543 20.7399 19.275 20.5387 19.5971 20.2192C19.9192 19.8996 20.1237 19.4805 20.1774 19.03C20.5617 15.7432 20.5617 12.4228 20.1774 9.13601C20.1237 8.68548 19.9192 8.26636 19.5971 7.94682C19.275 7.62727 18.8543 7.42609 18.4034 7.37601Z" fill="white"/>
</svg>
