<svg width="18" height="18" viewBox="0 0 18 18" fill="none" xmlns="http://www.w3.org/2000/svg">
<path d="M12.1066 -0.000488281C12.2392 -0.000488281 12.3664 0.0521901 12.4602 0.145958L15.2886 2.97439C15.4838 3.16965 15.4838 3.48623 15.2886 3.68149L6.09619 12.8739C6.03337 12.9367 5.95495 12.9816 5.869 13.0041L2.04057 14.0041C1.86883 14.049 1.68617 13.9994 1.56066 13.8739C1.43514 13.7484 1.38558 13.5657 1.43044 13.394L2.43044 9.56554C2.45289 9.47958 2.49784 9.40116 2.56066 9.33835L11.753 0.145958C11.8468 0.0521901 11.974 -0.000488281 12.1066 -0.000488281Z" fill="#25262D"/>
<path d="M1.5 15.7495C1.08579 15.7495 0.75 16.0853 0.75 16.4995C0.75 16.9137 1.08579 17.2495 1.5 17.2495H16.5C16.9142 17.2495 17.25 16.9137 17.25 16.4995C17.25 16.0853 16.9142 15.7495 16.5 15.7495H1.5Z" fill="#25262D"/>
</svg>
