<svg width="42" height="42" viewBox="0 0 42 42" fill="none" xmlns="http://www.w3.org/2000/svg">
<rect width="42" height="42" rx="8" fill="white"/>
<path d="M9.53164 13.0716C8.92024 13.2228 8.35927 13.7271 8.13236 14.3322C8 14.6914 8 14.7166 8 21.3033C8 27.9152 8 27.9152 8.13236 28.2808C8.30885 28.7346 8.72485 29.1884 9.19127 29.4153L9.54424 29.5918H21.0158H32.4873L32.7835 29.4531C33.1995 29.264 33.6722 28.7976 33.8487 28.4068L34 28.0791V21.3033V14.5276L33.8235 14.1683C33.6155 13.746 33.1302 13.2922 32.7079 13.1283C32.4432 13.0211 31.7813 13.0148 21.1418 13.0022C12.1852 12.9959 9.79006 13.0085 9.53164 13.0716ZM30.88 14.7734C30.88 14.786 30.5648 15.0759 30.1741 15.4163C29.7896 15.7566 29.0143 16.45 28.4533 16.9542C27.8987 17.4585 26.5498 18.6623 25.4594 19.633C24.369 20.6037 22.9823 21.8454 22.3772 22.3937C20.9086 23.7048 21.1229 23.7048 19.6543 22.3874C19.0492 21.8454 17.6625 20.6037 16.5721 19.633C15.4817 18.6623 14.1644 17.4837 13.6475 17.0173C13.1307 16.5508 12.4752 15.9646 12.1978 15.7188C11.9142 15.473 11.5612 15.1516 11.4036 15.0129L11.12 14.7545L21.0032 14.7482C26.4364 14.7482 30.88 14.7608 30.88 14.7734ZM11.1704 17.1244C11.9394 17.8114 12.8218 18.5993 13.137 18.8766C13.4458 19.1477 14.0194 19.6582 14.4039 20.0112C14.7884 20.3579 15.3178 20.8243 15.5825 21.0512C15.8473 21.2781 16.0616 21.4924 16.0616 21.5302C16.0679 21.5743 15.6771 21.9273 15.2044 22.3244C14.0005 23.3203 11.5738 25.3246 11.2398 25.5894C11.0885 25.7091 10.6977 26.0306 10.3762 26.2953C10.0485 26.5663 9.76485 26.7869 9.73964 26.7869C9.72073 26.7869 9.70182 24.3351 9.70182 21.3348C9.70182 18.3346 9.72073 15.8827 9.73964 15.8827C9.75855 15.8827 10.4015 16.4437 11.1704 17.1244ZM32.3297 21.3348C32.3297 24.3351 32.3108 26.7869 32.2856 26.7869C32.2541 26.7869 31.8507 26.4655 31.3779 26.0747C30.9052 25.6902 29.4933 24.5242 28.239 23.4905C26.991 22.4568 25.9636 21.5806 25.9699 21.5365C25.9699 21.4924 26.4679 21.0197 27.0793 20.4839C29.3042 18.5174 29.8652 18.0194 31.0376 16.9668C31.6994 16.3743 32.2541 15.889 32.2856 15.8827C32.3108 15.8827 32.3297 18.3346 32.3297 21.3348ZM17.9273 23.1501C19.9568 24.9906 20.1522 25.1166 21.0158 25.1166C21.7721 25.1166 22.0432 24.978 23.0958 24.0451C24.7093 22.6143 24.5581 22.7278 24.7156 22.8349C24.7976 22.8854 25.4027 23.377 26.0582 23.9317C27.3251 24.9843 29.7455 26.9823 30.3947 27.5118L30.7855 27.8269L25.9195 27.8459C23.247 27.8522 18.8475 27.8522 16.1498 27.8459L11.2461 27.8269L11.6368 27.5118C12.1222 27.121 14.1076 25.4759 15.5321 24.2973C17.3033 22.8286 17.3978 22.753 17.4419 22.753C17.4672 22.753 17.6878 22.9295 17.9273 23.1501Z" fill="#105EFE"/>
</svg>
