<svg width="20" height="20" viewBox="0 0 20 20" fill="none" xmlns="http://www.w3.org/2000/svg">
<path d="M20 9.7979V12C20 15.7712 20 17.6569 18.8284 18.8284C17.6569 20 15.7713 20 12 20H8.00002C4.22878 20 2.34315 20 1.17157 18.8284C0.19725 17.8541 0.0332098 16.3859 0.00559133 13.7501H8.69366L6.43392 15.3935C6.09893 15.6371 6.02487 16.1062 6.26849 16.4412C6.51212 16.7762 6.98118 16.8502 7.31617 16.6066L11.4412 13.6066C11.6352 13.4655 11.75 13.24 11.75 13.0001C11.75 12.7601 11.6352 12.5346 11.4412 12.3935L7.31617 9.3935C6.98118 9.14987 6.51212 9.22393 6.26849 9.55892C6.02487 9.89391 6.09893 10.363 6.43392 10.6066L8.69366 12.2501H1.30816e-05L0 12L2.71797e-05 4.94975C2.71797e-05 4.06725 2.71797e-05 3.62594 0.069376 3.25839C0.374666 1.64031 1.64033 0.37464 3.25841 0.0693501C3.62597 0 4.06724 0 4.94977 0C5.33644 0 5.52978 0 5.71559 0.0173753C6.51667 0.0922863 7.27654 0.407035 7.89596 0.920515C8.03963 1.03961 8.17634 1.17633 8.44976 1.44975L9.00002 2C9.81579 2.81578 10.2237 3.22367 10.7121 3.49543C10.9805 3.64471 11.2651 3.7626 11.5604 3.84678C12.0979 4 12.6748 4 13.8284 4H14.2021C16.8345 4 18.1507 4 19.0062 4.76946C19.0849 4.84024 19.1598 4.91514 19.2306 4.99383C20 5.84935 20 7.16554 20 9.7979Z" fill="white"/>
</svg>
