<svg width="20" height="20" viewBox="0 0 20 20" fill="none" xmlns="http://www.w3.org/2000/svg">
<path d="M11.6665 2.29102C13.2555 2.29102 14.3844 2.29234 15.2408 2.40748C16.0792 2.5202 16.5622 2.73159 16.9149 3.08427C17.3209 3.49022 17.4976 3.8049 17.5954 4.36588C17.7058 4.99818 17.7082 5.90011 17.7082 7.49935C17.7082 7.84453 17.988 8.12435 18.3332 8.12435C18.6784 8.12435 18.9582 7.84453 18.9582 7.49935L18.9582 7.41909C18.9582 5.91977 18.9582 4.9041 18.8268 4.15101C18.6806 3.31323 18.3692 2.77075 17.7988 2.20039C17.1752 1.57675 16.3844 1.29999 15.4074 1.16863C14.458 1.04099 13.245 1.041 11.7135 1.04102H11.6665C11.3213 1.04102 11.0415 1.32084 11.0415 1.66602C11.0415 2.01119 11.3213 2.29102 11.6665 2.29102Z" fill="#5F7483"/>
<path d="M1.66651 11.8743C2.01169 11.8743 2.29151 12.1542 2.29151 12.4993C2.29151 14.0986 2.29391 15.0005 2.40424 15.6328C2.50213 16.1938 2.67881 16.5085 3.08476 16.9144C3.43744 17.2671 3.92047 17.4785 4.75888 17.5912C5.61527 17.7064 6.74416 17.7077 8.33317 17.7077C8.67835 17.7077 8.95818 17.9875 8.95818 18.3327C8.95818 18.6779 8.67835 18.9577 8.33317 18.9577H8.28617C6.7547 18.9577 5.54167 18.9577 4.59232 18.8301C3.6153 18.6987 2.82451 18.4219 2.20088 17.7983C1.63051 17.2279 1.31904 16.6855 1.17285 15.8477C1.04144 15.0946 1.04147 14.0789 1.04151 12.5796L1.04151 12.4993C1.04151 12.1542 1.32133 11.8743 1.66651 11.8743Z" fill="#5F7483"/>
<path d="M18.3332 11.8743C18.6784 11.8743 18.9582 12.1542 18.9582 12.4993L18.9582 12.5796C18.9582 14.0789 18.9582 15.0946 18.8268 15.8477C18.6806 16.6855 18.3692 17.2279 17.7988 17.7983C17.1752 18.4219 16.3844 18.6987 15.4074 18.8301C14.458 18.9577 13.245 18.9577 11.7135 18.9577H11.6665C11.3213 18.9577 11.0415 18.6779 11.0415 18.3327C11.0415 17.9875 11.3213 17.7077 11.6665 17.7077C13.2555 17.7077 14.3844 17.7064 15.2408 17.5912C16.0792 17.4785 16.5622 17.2671 16.9149 16.9144C17.3209 16.5085 17.4976 16.1938 17.5954 15.6328C17.7058 15.0005 17.7082 14.0986 17.7082 12.4993C17.7082 12.1542 17.988 11.8743 18.3332 11.8743Z" fill="#5F7483"/>
<path d="M8.28616 1.04102H8.33318C8.67835 1.04102 8.95818 1.32084 8.95818 1.66602C8.95818 2.01119 8.67835 2.29102 8.33318 2.29102C6.74416 2.29102 5.61527 2.29234 4.75888 2.40748C3.92047 2.5202 3.43744 2.73159 3.08476 3.08427C2.67881 3.49022 2.50213 3.8049 2.40424 4.36588C2.29391 4.99818 2.29151 5.90011 2.29151 7.49935C2.29151 7.84453 2.01169 8.12435 1.66651 8.12435C1.32133 8.12435 1.04151 7.84453 1.04151 7.49935L1.04151 7.41909C1.04147 5.91979 1.04144 4.9041 1.17285 4.15101C1.31904 3.31323 1.63051 2.77075 2.20088 2.20039C2.82451 1.57675 3.6153 1.29999 4.59232 1.16863C5.54166 1.04099 6.7547 1.041 8.28616 1.04102Z" fill="#5F7483"/>
<path d="M9.99984 8.95768C9.42455 8.95768 8.95818 9.42405 8.95818 9.99935C8.95818 10.5746 9.42455 11.041 9.99984 11.041C10.5751 11.041 11.0415 10.5746 11.0415 9.99935C11.0415 9.42405 10.5751 8.95768 9.99984 8.95768Z" fill="#5F7483"/>
<path fill-rule="evenodd" clip-rule="evenodd" d="M4.9102 11.7158C4.4144 11.1407 4.16651 10.8532 4.16651 9.99935C4.16651 9.14551 4.4144 8.85796 4.9102 8.28286C5.90015 7.13454 7.56041 5.83268 9.99984 5.83268C12.4393 5.83268 14.0995 7.13454 15.0895 8.28286C15.5853 8.85796 15.8332 9.14551 15.8332 9.99935C15.8332 10.8532 15.5853 11.1407 15.0895 11.7158C14.0995 12.8642 12.4393 14.166 9.99984 14.166C7.56041 14.166 5.90015 12.8642 4.9102 11.7158ZM7.70818 9.99935C7.70818 8.7337 8.73419 7.70768 9.99984 7.70768C11.2655 7.70768 12.2915 8.7337 12.2915 9.99935C12.2915 11.265 11.2655 12.291 9.99984 12.291C8.73419 12.291 7.70818 11.265 7.70818 9.99935Z" fill="#5F7483"/>
</svg>
