<svg width="24" height="25" viewBox="0 0 24 25" fill="none" xmlns="http://www.w3.org/2000/svg">
<path d="M12 10.2197C10.7574 10.2197 9.75 11.2271 9.75 12.4697C9.75 13.7124 10.7574 14.7197 12 14.7197C13.2426 14.7197 14.25 13.7124 14.25 12.4697C14.25 11.2271 13.2426 10.2197 12 10.2197Z" fill="#787878"/>
<path fill-rule="evenodd" clip-rule="evenodd" d="M12 5.96973C9.38223 5.96973 7.02801 7.02111 5.33162 8.32308C4.48232 8.97491 3.78544 9.69886 3.29649 10.4034C2.81686 11.0945 2.5 11.8213 2.5 12.4697C2.5 13.1182 2.81686 13.8449 3.29649 14.536C3.78544 15.2406 4.48232 15.9645 5.33162 16.6164C7.02801 17.9183 9.38223 18.9697 12 18.9697C14.6178 18.9697 16.972 17.9183 18.6684 16.6164C19.5177 15.9645 20.2146 15.2406 20.7035 14.536C21.1831 13.8449 21.5 13.1182 21.5 12.4697C21.5 11.8213 21.1831 11.0945 20.7035 10.4034C20.2146 9.69886 19.5177 8.97491 18.6684 8.32308C16.972 7.02111 14.6178 5.96973 12 5.96973ZM8.25 12.4697C8.25 10.3987 9.92893 8.71973 12 8.71973C14.0711 8.71973 15.75 10.3987 15.75 12.4697C15.75 14.5408 14.0711 16.2197 12 16.2197C9.92893 16.2197 8.25 14.5408 8.25 12.4697Z" fill="#787878"/>
</svg>
