<svg width="20" height="20" viewBox="0 0 20 20" fill="none" xmlns="http://www.w3.org/2000/svg">
<path d="M11.6665 2.29167C13.2555 2.29167 14.3844 2.293 15.2408 2.40814C16.0792 2.52086 16.5622 2.73225 16.9149 3.08493C17.3209 3.49087 17.4976 3.80556 17.5954 4.36654C17.7058 4.99884 17.7082 5.90077 17.7082 7.50001C17.7082 7.84518 17.988 8.12501 18.3332 8.12501C18.6784 8.12501 18.9582 7.84518 18.9582 7.50001L18.9582 7.41974C18.9582 5.92042 18.9582 4.90476 18.8268 4.15166C18.6806 3.31388 18.3692 2.77141 17.7988 2.20104C17.1752 1.57741 16.3844 1.30064 15.4074 1.16928C14.458 1.04165 13.245 1.04166 11.7135 1.04167H11.6665C11.3213 1.04167 11.0415 1.32149 11.0415 1.66667C11.0415 2.01185 11.3213 2.29167 11.6665 2.29167Z" fill="#425766"/>
<path d="M1.66651 11.875C2.01169 11.875 2.29151 12.1548 2.29151 12.5C2.29151 14.0992 2.29391 15.0012 2.40424 15.6335C2.50213 16.1945 2.67881 16.5091 3.08476 16.9151C3.43744 17.2678 3.92047 17.4792 4.75888 17.5919C5.61527 17.707 6.74416 17.7083 8.33317 17.7083C8.67835 17.7083 8.95818 17.9882 8.95818 18.3333C8.95818 18.6785 8.67835 18.9583 8.33317 18.9583H8.28617C6.7547 18.9584 5.54167 18.9584 4.59232 18.8307C3.6153 18.6994 2.82451 18.4226 2.20088 17.799C1.63051 17.2286 1.31904 16.6861 1.17285 15.8483C1.04144 15.0953 1.04147 14.0796 1.04151 12.5803L1.04151 12.5C1.04151 12.1548 1.32133 11.875 1.66651 11.875Z" fill="#425766"/>
<path d="M18.3332 11.875C18.6784 11.875 18.9582 12.1548 18.9582 12.5L18.9582 12.5803C18.9582 14.0796 18.9582 15.0953 18.8268 15.8483C18.6806 16.6861 18.3692 17.2286 17.7988 17.799C17.1752 18.4226 16.3844 18.6994 15.4074 18.8307C14.458 18.9584 13.245 18.9584 11.7135 18.9583H11.6665C11.3213 18.9583 11.0415 18.6785 11.0415 18.3333C11.0415 17.9882 11.3213 17.7083 11.6665 17.7083C13.2555 17.7083 14.3844 17.707 15.2408 17.5919C16.0792 17.4792 16.5622 17.2678 16.9149 16.9151C17.3209 16.5091 17.4976 16.1945 17.5954 15.6335C17.7058 15.0012 17.7082 14.0992 17.7082 12.5C17.7082 12.1548 17.988 11.875 18.3332 11.875Z" fill="#425766"/>
<path d="M8.28616 1.04167H8.33318C8.67835 1.04167 8.95818 1.32149 8.95818 1.66667C8.95818 2.01185 8.67835 2.29167 8.33318 2.29167C6.74416 2.29167 5.61527 2.293 4.75888 2.40814C3.92047 2.52086 3.43744 2.73225 3.08476 3.08493C2.67881 3.49087 2.50213 3.80556 2.40424 4.36654C2.29391 4.99884 2.29151 5.90077 2.29151 7.50001C2.29151 7.84518 2.01169 8.12501 1.66651 8.12501C1.32133 8.12501 1.04151 7.84518 1.04151 7.50001L1.04151 7.41974C1.04147 5.92044 1.04144 4.90475 1.17285 4.15166C1.31904 3.31388 1.63051 2.77141 2.20088 2.20104C2.82451 1.57741 3.6153 1.30064 4.59232 1.16928C5.54166 1.04165 6.7547 1.04166 8.28616 1.04167Z" fill="#425766"/>
<path d="M9.99984 8.95834C9.42455 8.95834 8.95818 9.42471 8.95818 10C8.95818 10.5753 9.42455 11.0417 9.99984 11.0417C10.5751 11.0417 11.0415 10.5753 11.0415 10C11.0415 9.42471 10.5751 8.95834 9.99984 8.95834Z" fill="#425766"/>
<path fill-rule="evenodd" clip-rule="evenodd" d="M4.9102 11.7165C4.4144 11.1414 4.16651 10.8538 4.16651 10C4.16651 9.14616 4.4144 8.85861 4.9102 8.28351C5.90015 7.13519 7.56041 5.83334 9.99984 5.83334C12.4393 5.83334 14.0995 7.13519 15.0895 8.28351C15.5853 8.85861 15.8332 9.14616 15.8332 10C15.8332 10.8538 15.5853 11.1414 15.0895 11.7165C14.0995 12.8648 12.4393 14.1667 9.99984 14.1667C7.56041 14.1667 5.90015 12.8648 4.9102 11.7165ZM7.70818 10C7.70818 8.73435 8.73419 7.70834 9.99984 7.70834C11.2655 7.70834 12.2915 8.73435 12.2915 10C12.2915 11.2657 11.2655 12.2917 9.99984 12.2917C8.73419 12.2917 7.70818 11.2657 7.70818 10Z" fill="#425766"/>
</svg>
