<svg width="20" height="20" viewBox="0 0 20 20" fill="none" xmlns="http://www.w3.org/2000/svg">
<path fill-rule="evenodd" clip-rule="evenodd" d="M0.0693501 3.25839C0 3.62595 0 4.06722 0 4.94975V12C0 15.7712 0 17.6569 1.17157 18.8284C2.34315 20 4.22876 20 8 20H12C15.7712 20 17.6569 20 18.8284 18.8284C20 17.6569 20 15.7712 20 12V9.7979C20 7.16554 20 5.84935 19.2305 4.99383C19.1598 4.91514 19.0849 4.84024 19.0062 4.76946C18.1506 4 16.8345 4 14.2021 4H13.8284C12.6747 4 12.0979 4 11.5604 3.84678C11.2651 3.7626 10.9804 3.64471 10.7121 3.49543C10.2237 3.22367 9.81578 2.81578 9 2L8.44975 1.44975C8.17633 1.17633 8.03961 1.03961 7.89594 0.920515C7.27652 0.407035 6.51665 0.0922863 5.71557 0.0173753C5.52976 0 5.33642 0 4.94975 0C4.06722 0 3.62595 0 3.25839 0.0693501C1.64031 0.37464 0.37464 1.64031 0.0693501 3.25839ZM7.25 11C7.25 10.5858 7.58579 10.25 8 10.25H12C12.4142 10.25 12.75 10.5858 12.75 11C12.75 11.4142 12.4142 11.75 12 11.75H8C7.58579 11.75 7.25 11.4142 7.25 11Z" fill="white"/>
</svg>
