<svg width="27" height="22" viewBox="0 0 27 22" fill="none" xmlns="http://www.w3.org/2000/svg">
<path fill-rule="evenodd" clip-rule="evenodd" d="M0 2.75C0 2.02065 0.284463 1.32118 0.790812 0.805456C1.29716 0.289731 1.98392 0 2.7 0H24.3C25.0161 0 25.7028 0.289731 26.2092 0.805456C26.7155 1.32118 27 2.02065 27 2.75V19.25C27 20.0145 26.6936 20.7075 26.1994 21.2053C26.0909 21.4428 25.918 21.6438 25.7011 21.7846C25.4841 21.9254 25.2322 22.0001 24.975 22H2.7C1.98392 22 1.29716 21.7103 0.790812 21.1945C0.284463 20.6788 0 19.9793 0 19.25V2.75ZM9.3042 19.25L14.4788 11.8855L9.09225 5.94275C8.95618 5.79249 8.78893 5.67502 8.60267 5.59889C8.41641 5.52276 8.21582 5.48988 8.01552 5.50266C7.81521 5.51544 7.62022 5.57354 7.44474 5.67274C7.26926 5.77194 7.1177 5.90975 7.0011 6.07612L2.7 12.2086V2.75H24.3V16.4312L19.903 11.4551C19.7679 11.3022 19.6007 11.1821 19.4139 11.1037C19.227 11.0254 19.0253 10.9907 18.8236 11.0023C18.6219 11.0139 18.4253 11.0715 18.2483 11.1708C18.0713 11.2701 17.9185 11.4086 17.8011 11.5761L12.42 19.25H9.3042Z" fill="white"/>
</svg>
