<svg width="24" height="24" viewBox="0 0 24 24" fill="none" xmlns="http://www.w3.org/2000/svg">
<path fill-rule="evenodd" clip-rule="evenodd" d="M8.24914 7.01346C8.24906 7.00898 8.24902 7.00449 8.24902 7V6C8.24902 3.92893 9.92796 2.25 11.999 2.25C14.0701 2.25 15.749 3.92893 15.749 6V7C15.749 7.0045 15.749 7.00898 15.7489 7.01346C17.0463 7.04975 17.8365 7.18393 18.4416 7.67997C19.271 8.35995 19.5019 9.5144 19.9637 11.8233L20.5637 14.8233C21.2277 18.1437 21.5598 19.8039 20.6596 20.902C19.7594 22 18.0664 22 14.6802 22H9.31783C5.93165 22 4.23856 22 3.33839 20.902C2.43822 19.8039 2.77026 18.1437 3.43434 14.8233L4.03434 11.8233C4.49612 9.5144 4.72701 8.35995 5.55645 7.67997C6.16153 7.18392 6.95176 7.04975 8.24914 7.01346ZM9.74902 6C9.74902 4.75736 10.7564 3.75 11.999 3.75C13.2417 3.75 14.249 4.75736 14.249 6V7C14.249 7 14.249 7 14.249 7C14.1934 6.99999 14.1371 7 14.0802 7H9.91783C9.86087 7 9.80461 7 9.74902 7.00001C9.74902 7.00001 9.74902 7.00001 9.74902 7.00001V6ZM11.9994 17.25C11.0209 17.25 10.1865 16.625 9.87724 15.7501C9.7392 15.3595 9.31071 15.1548 8.92017 15.2929C8.52963 15.4309 8.32494 15.8594 8.46298 16.2499C8.97741 17.7054 10.3655 18.75 11.9994 18.75C13.6333 18.75 15.0214 17.7054 15.5358 16.2499C15.6739 15.8594 15.4692 15.4309 15.0786 15.2929C14.6881 15.1548 14.2596 15.3595 14.1216 15.7501C13.8123 16.625 12.9779 17.25 11.9994 17.25Z" fill="white"/>
</svg>
