<svg width="463" height="232" viewBox="0 0 463 232" fill="none" xmlns="http://www.w3.org/2000/svg">
<mask id="mask0_2645_16817" style="mask-type:alpha" maskUnits="userSpaceOnUse" x="0" y="0" width="463" height="232">
<rect x="0.5" y="0.5" width="462" height="231" rx="24.5" fill="#18232E" stroke="#0F171E"/>
</mask>
<g mask="url(#mask0_2645_16817)">
<rect width="463" height="231.037" rx="25" fill="#18232E"/>
<g filter="url(#filter0_dddddd_2645_16817)">
<mask id="mask1_2645_16817" style="mask-type:alpha" maskUnits="userSpaceOnUse" x="230" y="136" width="218" height="115">
<path d="M319.843 139.426L444.553 208.523C447.66 210.245 448.103 212.175 445.696 213.508L381.984 248.809C377.26 251.426 364.526 250.53 358.427 247.151L233.716 178.053C230.609 176.332 230.166 174.402 232.573 173.068L296.285 137.768C301.009 135.15 313.744 136.047 319.843 139.426Z" fill="#0F181E" stroke="#1D2A33" stroke-width="0.382824"/>
</mask>
<g mask="url(#mask1_2645_16817)">
<path d="M319.843 139.426L444.553 208.523C447.66 210.245 448.103 212.175 445.696 213.508L381.984 248.809C377.26 251.426 364.526 250.53 358.427 247.151L233.716 178.053C230.609 176.332 230.166 174.402 232.573 173.068L296.285 137.768C301.009 135.15 313.744 136.047 319.843 139.426Z" fill="#0F181E" stroke="#1D2A33" stroke-width="0.382824"/>
<g filter="url(#filter1_f_2645_16817)">
<path d="M265.518 174.281C269.562 161.872 271.585 155.667 276.948 150.929C282.311 146.19 288.921 144.768 302.141 141.924L365.474 128.3C378.694 125.456 385.304 124.034 388.154 127.006C391.004 129.978 388.982 136.182 384.938 148.591L384.092 151.187C380.611 161.865 378.871 167.203 374.335 171.606C369.799 176.009 363.905 178.08 352.117 182.221L318.437 194.055C316.043 194.896 314.846 195.316 313.697 195.563C312.548 195.809 311.466 195.876 309.304 196.01L279.633 197.855C269.007 198.515 263.694 198.845 261.57 195.878C259.446 192.911 261.182 187.584 264.654 176.93L265.518 174.281Z" fill="#105EFE"/>
</g>
</g>
<circle cx="9.28709" cy="9.28709" r="9.28709" transform="matrix(0.874712 0.484644 -0.874712 0.484644 403.525 195.754)" fill="#1E2D3A"/>
<circle cx="9.28709" cy="9.28709" r="9.28709" transform="matrix(0.874712 0.484644 -0.874712 0.484644 413.68 201.383)" fill="#334859"/>
<rect width="3.48299" height="8.12699" transform="matrix(0.874712 0.484644 -0.874712 0.484644 254.26 173.814)" fill="#1E2D3A"/>
<rect width="60.3661" height="4.64355" rx="2.32177" transform="matrix(0.874712 0.484644 -0.874712 0.484644 305.029 145.682)" fill="white"/>
<rect width="18.5742" height="4.64355" rx="2.32177" transform="matrix(0.874712 0.484644 -0.874712 0.484644 298.938 149.057)" fill="white"/>
<rect width="3.48299" height="8.12699" transform="matrix(0.874712 0.484644 -0.874712 0.484644 258.318 176.064)" fill="white"/>
<rect width="3.48299" height="8.12699" transform="matrix(0.874712 0.484644 -0.874712 0.484644 262.381 178.314)" fill="white"/>
<rect width="3.48299" height="8.12699" transform="matrix(0.874712 0.484644 -0.874712 0.484644 266.443 180.564)" fill="white"/>
<rect width="3.48299" height="8.12699" transform="matrix(0.874712 0.484644 -0.874712 0.484644 270.506 182.812)" fill="white"/>
<rect width="3.48299" height="8.12699" transform="matrix(0.874712 0.484644 -0.874712 0.484644 274.566 185.066)" fill="white"/>
<rect width="3.48299" height="8.12699" transform="matrix(0.874712 0.484644 -0.874712 0.484644 278.629 187.316)" fill="white"/>
<rect width="3.48299" height="8.12699" transform="matrix(0.874712 0.484644 -0.874712 0.484644 282.689 189.562)" fill="white"/>
<rect width="3.48299" height="8.12699" transform="matrix(0.874712 0.484644 -0.874712 0.484644 286.752 191.814)" fill="white"/>
<rect width="3.48299" height="8.12699" transform="matrix(0.874712 0.484644 -0.874712 0.484644 290.812 194.066)" fill="white"/>
<rect width="3.48299" height="8.12699" transform="matrix(0.874712 0.484644 -0.874712 0.484644 294.877 196.316)" fill="white"/>
<rect width="3.48299" height="8.12699" transform="matrix(0.874712 0.484644 -0.874712 0.484644 298.938 198.568)" fill="white"/>
<rect width="3.48299" height="8.12699" transform="matrix(0.874712 0.484644 -0.874712 0.484644 303 200.818)" fill="white"/>
<rect width="3.48299" height="8.12699" transform="matrix(0.874712 0.484644 -0.874712 0.484644 307.061 203.07)" fill="white"/>
<rect width="3.48299" height="8.12699" transform="matrix(0.874712 0.484644 -0.874712 0.484644 311.121 205.324)" fill="white"/>
<rect width="3.48299" height="8.12699" transform="matrix(0.874712 0.484644 -0.874712 0.484644 315.184 207.574)" fill="white"/>
</g>
<g filter="url(#filter2_dddddd_2645_16817)">
<mask id="mask2_2645_16817" style="mask-type:alpha" maskUnits="userSpaceOnUse" x="307" y="98" width="220" height="94">
<path d="M382.007 98.7702L522.274 130.485C525.72 131.264 526.693 132.976 524.792 134.915L474.452 186.257C470.688 190.096 458.158 192.813 451.334 191.27L311.066 159.556C307.62 158.777 306.646 157.064 308.547 155.125L358.889 103.784C362.653 99.9445 375.183 97.2272 382.007 98.7702Z" fill="#0F181E" stroke="#1D2A33" stroke-width="0.382824"/>
</mask>
<g mask="url(#mask2_2645_16817)">
<path d="M382.007 98.7702L522.274 130.485C525.72 131.264 526.693 132.976 524.792 134.915L474.452 186.257C470.688 190.096 458.158 192.813 451.334 191.27L311.066 159.556C307.62 158.777 306.646 157.064 308.547 155.125L358.889 103.784C362.653 99.9445 375.183 97.2272 382.007 98.7702Z" fill="#0F181E" stroke="#1D2A33" stroke-width="0.382824"/>
<g filter="url(#filter3_f_2645_16817)">
<path d="M340.467 147.308C340.616 134.24 340.69 127.707 344.435 121.65C348.179 115.592 354.131 112.377 366.034 105.946L422.18 75.6139C434.083 69.1833 440.035 65.968 443.686 68.0297C447.338 70.0915 447.263 76.6251 447.114 89.6923L447.085 92.1655C446.957 103.404 446.893 109.023 443.848 114.524C440.802 120.026 435.741 123.666 425.619 130.946L397.126 151.44C395.063 152.924 394.031 153.666 392.993 154.226C391.954 154.785 390.927 155.153 388.874 155.888L361.22 165.783C351.166 169.38 346.139 171.179 343.192 168.918C340.246 166.657 340.31 161.051 340.438 149.837L340.467 147.308Z" fill="#105EFE"/>
</g>
</g>
<rect width="3.51056" height="8.03475" transform="matrix(0.975379 0.220534 -0.700118 0.714028 329.562 149.834)" fill="#1E2D3A"/>
<rect width="60.8438" height="4.59085" rx="2.29542" transform="matrix(0.975379 0.220534 -0.700118 0.714028 369.736 108.863)" fill="white"/>
<rect width="18.7212" height="4.59085" rx="2.29542" transform="matrix(0.975379 0.220534 -0.700118 0.714028 364.916 113.779)" fill="white"/>
<rect width="3.51056" height="8.03475" transform="matrix(0.975379 0.220534 -0.700118 0.714028 334.127 150.865)" fill="white"/>
<rect width="3.51056" height="8.03475" transform="matrix(0.975379 0.220534 -0.700118 0.714028 338.689 151.904)" fill="white"/>
<rect width="3.51056" height="8.03475" transform="matrix(0.975379 0.220534 -0.700118 0.714028 343.256 152.938)" fill="white"/>
<rect width="3.51056" height="8.03475" transform="matrix(0.975379 0.220534 -0.700118 0.714028 347.82 153.963)" fill="white"/>
<rect width="3.51056" height="8.03475" transform="matrix(0.975379 0.220534 -0.700118 0.714028 352.385 154.998)" fill="white"/>
<rect width="3.51056" height="8.03475" transform="matrix(0.975379 0.220534 -0.700118 0.714028 356.951 156.027)" fill="white"/>
<rect width="3.51056" height="8.03475" transform="matrix(0.975379 0.220534 -0.700118 0.714028 361.518 157.061)" fill="white"/>
<rect width="3.51056" height="8.03475" transform="matrix(0.975379 0.220534 -0.700118 0.714028 366.082 158.094)" fill="white"/>
<rect width="3.51056" height="8.03475" transform="matrix(0.975379 0.220534 -0.700118 0.714028 370.646 159.127)" fill="white"/>
<rect width="3.51056" height="8.03475" transform="matrix(0.975379 0.220534 -0.700118 0.714028 375.211 160.158)" fill="white"/>
<rect width="3.51056" height="8.03475" transform="matrix(0.975379 0.220534 -0.700118 0.714028 379.775 161.191)" fill="white"/>
<rect width="3.51056" height="8.03475" transform="matrix(0.975379 0.220534 -0.700118 0.714028 384.342 162.219)" fill="white"/>
<rect width="3.51056" height="8.03475" transform="matrix(0.975379 0.220534 -0.700118 0.714028 388.906 163.256)" fill="white"/>
<rect width="3.51056" height="8.03475" transform="matrix(0.975379 0.220534 -0.700118 0.714028 393.471 164.293)" fill="white"/>
<rect width="3.51056" height="8.03475" transform="matrix(0.975379 0.220534 -0.700118 0.714028 398.035 165.316)" fill="white"/>
</g>
</g>
<defs>
<filter id="filter0_dddddd_2645_16817" x="150.75" y="136.148" width="376.768" height="294.279" filterUnits="userSpaceOnUse" color-interpolation-filters="sRGB">
<feFlood flood-opacity="0" result="BackgroundImageFix"/>
<feColorMatrix in="SourceAlpha" type="matrix" values="0 0 0 0 0 0 0 0 0 0 0 0 0 0 0 0 0 0 127 0" result="hardAlpha"/>
<feOffset dy="2.76726"/>
<feGaussianBlur stdDeviation="1.1069"/>
<feColorMatrix type="matrix" values="0 0 0 0 0 0 0 0 0 0 0 0 0 0 0 0 0 0 0.140573 0"/>
<feBlend mode="normal" in2="BackgroundImageFix" result="effect1_dropShadow_2645_16817"/>
<feColorMatrix in="SourceAlpha" type="matrix" values="0 0 0 0 0 0 0 0 0 0 0 0 0 0 0 0 0 0 127 0" result="hardAlpha"/>
<feOffset dy="6.6501"/>
<feGaussianBlur stdDeviation="2.66004"/>
<feColorMatrix type="matrix" values="0 0 0 0 0 0 0 0 0 0 0 0 0 0 0 0 0 0 0.201946 0"/>
<feBlend mode="normal" in2="effect1_dropShadow_2645_16817" result="effect2_dropShadow_2645_16817"/>
<feColorMatrix in="SourceAlpha" type="matrix" values="0 0 0 0 0 0 0 0 0 0 0 0 0 0 0 0 0 0 127 0" result="hardAlpha"/>
<feOffset dy="12.5216"/>
<feGaussianBlur stdDeviation="5.00862"/>
<feColorMatrix type="matrix" values="0 0 0 0 0 0 0 0 0 0 0 0 0 0 0 0 0 0 0.25 0"/>
<feBlend mode="normal" in2="effect2_dropShadow_2645_16817" result="effect3_dropShadow_2645_16817"/>
<feColorMatrix in="SourceAlpha" type="matrix" values="0 0 0 0 0 0 0 0 0 0 0 0 0 0 0 0 0 0 127 0" result="hardAlpha"/>
<feOffset dy="22.3363"/>
<feGaussianBlur stdDeviation="8.93452"/>
<feColorMatrix type="matrix" values="0 0 0 0 0 0 0 0 0 0 0 0 0 0 0 0 0 0 0.298054 0"/>
<feBlend mode="normal" in2="effect3_dropShadow_2645_16817" result="effect4_dropShadow_2645_16817"/>
<feColorMatrix in="SourceAlpha" type="matrix" values="0 0 0 0 0 0 0 0 0 0 0 0 0 0 0 0 0 0 127 0" result="hardAlpha"/>
<feOffset dy="41.7776"/>
<feGaussianBlur stdDeviation="16.711"/>
<feColorMatrix type="matrix" values="0 0 0 0 0 0 0 0 0 0 0 0 0 0 0 0 0 0 0.359427 0"/>
<feBlend mode="normal" in2="effect4_dropShadow_2645_16817" result="effect5_dropShadow_2645_16817"/>
<feColorMatrix in="SourceAlpha" type="matrix" values="0 0 0 0 0 0 0 0 0 0 0 0 0 0 0 0 0 0 127 0" result="hardAlpha"/>
<feOffset dy="100"/>
<feGaussianBlur stdDeviation="40"/>
<feColorMatrix type="matrix" values="0 0 0 0 0 0 0 0 0 0 0 0 0 0 0 0 0 0 0.5 0"/>
<feBlend mode="normal" in2="effect5_dropShadow_2645_16817" result="effect6_dropShadow_2645_16817"/>
<feBlend mode="normal" in="SourceGraphic" in2="effect6_dropShadow_2645_16817" result="shape"/>
</filter>
<filter id="filter1_f_2645_16817" x="225" y="89.7151" width="200.128" height="144.23" filterUnits="userSpaceOnUse" color-interpolation-filters="sRGB">
<feFlood flood-opacity="0" result="BackgroundImageFix"/>
<feBlend mode="normal" in="SourceGraphic" in2="BackgroundImageFix" result="shape"/>
<feGaussianBlur stdDeviation="17.8211" result="effect1_foregroundBlur_2645_16817"/>
</filter>
<filter id="filter2_dddddd_2645_16817" x="227.309" y="98.2246" width="378.723" height="273.592" filterUnits="userSpaceOnUse" color-interpolation-filters="sRGB">
<feFlood flood-opacity="0" result="BackgroundImageFix"/>
<feColorMatrix in="SourceAlpha" type="matrix" values="0 0 0 0 0 0 0 0 0 0 0 0 0 0 0 0 0 0 127 0" result="hardAlpha"/>
<feOffset dy="2.76726"/>
<feGaussianBlur stdDeviation="1.1069"/>
<feColorMatrix type="matrix" values="0 0 0 0 0 0 0 0 0 0 0 0 0 0 0 0 0 0 0.140573 0"/>
<feBlend mode="normal" in2="BackgroundImageFix" result="effect1_dropShadow_2645_16817"/>
<feColorMatrix in="SourceAlpha" type="matrix" values="0 0 0 0 0 0 0 0 0 0 0 0 0 0 0 0 0 0 127 0" result="hardAlpha"/>
<feOffset dy="6.6501"/>
<feGaussianBlur stdDeviation="2.66004"/>
<feColorMatrix type="matrix" values="0 0 0 0 0 0 0 0 0 0 0 0 0 0 0 0 0 0 0.201946 0"/>
<feBlend mode="normal" in2="effect1_dropShadow_2645_16817" result="effect2_dropShadow_2645_16817"/>
<feColorMatrix in="SourceAlpha" type="matrix" values="0 0 0 0 0 0 0 0 0 0 0 0 0 0 0 0 0 0 127 0" result="hardAlpha"/>
<feOffset dy="12.5216"/>
<feGaussianBlur stdDeviation="5.00862"/>
<feColorMatrix type="matrix" values="0 0 0 0 0 0 0 0 0 0 0 0 0 0 0 0 0 0 0.25 0"/>
<feBlend mode="normal" in2="effect2_dropShadow_2645_16817" result="effect3_dropShadow_2645_16817"/>
<feColorMatrix in="SourceAlpha" type="matrix" values="0 0 0 0 0 0 0 0 0 0 0 0 0 0 0 0 0 0 127 0" result="hardAlpha"/>
<feOffset dy="22.3363"/>
<feGaussianBlur stdDeviation="8.93452"/>
<feColorMatrix type="matrix" values="0 0 0 0 0 0 0 0 0 0 0 0 0 0 0 0 0 0 0.298054 0"/>
<feBlend mode="normal" in2="effect3_dropShadow_2645_16817" result="effect4_dropShadow_2645_16817"/>
<feColorMatrix in="SourceAlpha" type="matrix" values="0 0 0 0 0 0 0 0 0 0 0 0 0 0 0 0 0 0 127 0" result="hardAlpha"/>
<feOffset dy="41.7776"/>
<feGaussianBlur stdDeviation="16.711"/>
<feColorMatrix type="matrix" values="0 0 0 0 0 0 0 0 0 0 0 0 0 0 0 0 0 0 0.359427 0"/>
<feBlend mode="normal" in2="effect4_dropShadow_2645_16817" result="effect5_dropShadow_2645_16817"/>
<feColorMatrix in="SourceAlpha" type="matrix" values="0 0 0 0 0 0 0 0 0 0 0 0 0 0 0 0 0 0 127 0" result="hardAlpha"/>
<feOffset dy="100"/>
<feGaussianBlur stdDeviation="40"/>
<feColorMatrix type="matrix" values="0 0 0 0 0 0 0 0 0 0 0 0 0 0 0 0 0 0 0.5 0"/>
<feBlend mode="normal" in2="effect5_dropShadow_2645_16817" result="effect6_dropShadow_2645_16817"/>
<feBlend mode="normal" in="SourceGraphic" in2="effect6_dropShadow_2645_16817" result="shape"/>
</filter>
<filter id="filter3_f_2645_16817" x="304.75" y="31.7679" width="178.058" height="173.792" filterUnits="userSpaceOnUse" color-interpolation-filters="sRGB">
<feFlood flood-opacity="0" result="BackgroundImageFix"/>
<feBlend mode="normal" in="SourceGraphic" in2="BackgroundImageFix" result="shape"/>
<feGaussianBlur stdDeviation="17.8211" result="effect1_foregroundBlur_2645_16817"/>
</filter>
</defs>
</svg>
