<svg width="50" height="50" viewBox="0 0 50 50" fill="none" xmlns="http://www.w3.org/2000/svg">
<path fill-rule="evenodd" clip-rule="evenodd" d="M6.25 25C6.25 23.3424 6.90848 21.7527 8.08058 20.5806C9.25269 19.4085 10.8424 18.75 12.5 18.75H37.5C39.1576 18.75 40.7473 19.4085 41.9194 20.5806C43.0915 21.7527 43.75 23.3424 43.75 25V39.5833C43.75 41.2409 43.0915 42.8307 41.9194 44.0028C40.7473 45.1749 39.1576 45.8333 37.5 45.8333H12.5C10.8424 45.8333 9.25269 45.1749 8.08058 44.0028C6.90848 42.8307 6.25 41.2409 6.25 39.5833V25ZM27.0833 29.1667C27.0833 28.6141 26.8638 28.0842 26.4731 27.6935C26.0824 27.3028 25.5525 27.0833 25 27.0833C24.4475 27.0833 23.9176 27.3028 23.5269 27.6935C23.1362 28.0842 22.9167 28.6141 22.9167 29.1667V35.4167C22.9167 35.9692 23.1362 36.4991 23.5269 36.8898C23.9176 37.2805 24.4475 37.5 25 37.5C25.5525 37.5 26.0824 37.2805 26.4731 36.8898C26.8638 36.4991 27.0833 35.9692 27.0833 35.4167V29.1667Z" fill="white"/>
<path d="M16.667 20.8333V14.5833C16.667 12.3732 17.545 10.2536 19.1078 8.69078C20.6706 7.12797 22.7902 6.25 25.0003 6.25C27.2105 6.25 29.3301 7.12797 30.8929 8.69078C32.4557 10.2536 33.3337 12.3732 33.3337 14.5833V20.8333" stroke="white" stroke-width="2" stroke-linecap="round" stroke-linejoin="round"/>
</svg>
