<svg width="59" height="59" viewBox="0 0 59 59" fill="none" xmlns="http://www.w3.org/2000/svg">
<circle cx="29.5" cy="29.5" r="29.5" fill="#1C2833"/>
<path d="M31.5391 45.2992L32.3071 44.0018C32.9028 42.9954 33.2006 42.4922 33.679 42.2139C34.1574 41.9357 34.7597 41.9253 35.9644 41.9046C37.7428 41.8739 38.8582 41.7649 39.7937 41.3775C41.5293 40.6586 42.9082 39.2796 43.6272 37.544C44.1663 36.2423 44.1663 34.5921 44.1663 31.2917V29.875C44.1663 29.3513 44.1663 28.8572 44.1648 28.3901C44.1629 27.7848 43.4227 27.4427 42.8873 27.7252C42.0001 28.1933 40.9892 28.4583 39.9163 28.4583C36.3955 28.4583 33.5413 25.6041 33.5413 22.0833C33.5413 21.0105 33.8063 19.9996 34.2745 19.1124C34.557 18.577 34.2149 17.8368 33.6095 17.8348C33.1425 17.8333 32.6484 17.8333 32.1247 17.8333H27.8747C23.2373 17.8333 20.9186 17.8333 19.2153 18.8771C18.2622 19.4612 17.4609 20.2625 16.8768 21.2156C15.833 22.919 15.833 25.2376 15.833 29.875V31.2917C15.833 34.5921 15.833 36.2423 16.3722 37.544C17.0911 39.2796 18.4701 40.6586 20.2057 41.3775C21.1411 41.7649 22.2565 41.8739 24.0349 41.9046C25.2396 41.9253 25.8419 41.9357 26.3203 42.2139C26.7987 42.4922 27.0965 42.9954 27.6922 44.0018L28.4602 45.2992C29.1447 46.4556 30.8546 46.4556 31.5391 45.2992Z" fill="#425766"/>
<circle cx="39.917" cy="22.0833" r="4.25" fill="#425766"/>
</svg>
