<svg width="58" height="58" viewBox="0 0 58 58" fill="none" xmlns="http://www.w3.org/2000/svg">
<path d="M6.65706 35.5633L7.90802 40.2319C9.36829 45.6817 10.0984 48.4066 11.7537 50.1739C13.0606 51.5693 14.752 52.5458 16.6139 52.9799C18.9721 53.5298 21.6969 52.7996 27.1467 51.3394C32.5965 49.8791 35.3214 49.149 37.0887 47.4937C37.2354 47.3564 37.3774 47.2147 37.5147 47.0691C36.7071 47.0013 35.8925 46.8713 35.0646 46.7067C33.3823 46.3722 31.3834 45.8366 29.0195 45.2032L28.7614 45.134L28.7016 45.118C26.1293 44.4288 23.9803 43.8518 22.2644 43.2319C20.4598 42.5801 18.8202 41.7764 17.4279 40.4724C15.5092 38.6753 14.1665 36.3497 13.5695 33.7895C13.1364 31.9317 13.2602 30.1099 13.5979 28.2212C13.9216 26.4113 14.5028 24.2423 15.1992 21.6435L16.4907 16.8238L16.5361 16.6543C11.8948 17.9046 9.45177 18.6443 7.82259 20.1702C6.42717 21.4771 5.45065 23.1685 5.01651 25.0305C4.46667 27.3886 5.1968 30.1135 6.65706 35.5633Z" fill="white"/>
<path fill-rule="evenodd" clip-rule="evenodd" d="M50.3372 25.8963L49.0862 30.5649C47.626 36.0147 46.8958 38.7396 45.2406 40.5068C43.9337 41.9023 42.2423 42.8788 40.3803 43.3129C40.1477 43.3672 39.9115 43.409 39.6694 43.4388C37.458 43.7116 34.7596 42.9886 29.8475 41.6724C24.3978 40.2121 21.6729 39.482 19.9056 37.8267C18.5102 36.5198 17.5337 34.8284 17.0995 32.9665C16.5497 30.6083 17.2798 27.8834 18.7401 22.4337L19.991 17.765C20.201 16.9815 20.396 16.2537 20.5807 15.5775C21.6804 11.5513 22.4195 9.33619 23.8367 7.82308C25.1436 6.42766 26.835 5.45114 28.6969 5.01699C31.0551 4.46716 33.78 5.19729 39.2297 6.65755C44.6795 8.11782 47.4044 8.84795 49.1717 10.5032C50.5671 11.8101 51.5436 13.5015 51.9778 15.3635C52.5276 17.7216 51.7975 20.4465 50.3372 25.8963ZM26.7098 23.6982C26.9689 22.7313 27.9628 22.1575 28.9297 22.4166L40.6013 25.544C41.5682 25.8031 42.142 26.7969 41.8829 27.7638C41.6238 28.7307 40.63 29.3045 39.6631 29.0455L27.9915 25.9181C27.0246 25.659 26.4508 24.6651 26.7098 23.6982ZM24.8324 30.7004C25.0915 29.7335 26.0854 29.1597 27.0523 29.4188L34.0552 31.2952C35.0222 31.5543 35.596 32.5482 35.3369 33.5151C35.0778 34.482 34.0839 35.0558 33.117 34.7967L26.1141 32.9203C25.1472 32.6612 24.5733 31.6673 24.8324 30.7004Z" fill="white"/>
</svg>
