<svg width="17" height="15" viewBox="0 0 17 15" fill="none" xmlns="http://www.w3.org/2000/svg">
<path fill-rule="evenodd" clip-rule="evenodd" d="M8.5 0L14.676 0.174619C15.7673 0.205473 16.6699 1.0339 16.794 2.11853C17.0687 4.51944 17.0687 6.94384 16.794 9.34475C16.6699 10.4294 15.7673 11.2578 14.676 11.2887L9.56138 11.4333V13.1612H12.7455C13.0972 13.1612 13.3823 13.4463 13.3823 13.798C13.3823 14.1497 13.0972 14.4349 12.7455 14.4349H4.25454C3.90284 14.4349 3.61772 14.1497 3.61772 13.798C3.61772 13.4463 3.90284 13.1612 4.25454 13.1612H7.43865V11.4333L2.324 11.2887C1.23273 11.2578 0.330128 10.4294 0.206028 9.34475C-0.068676 6.94384 -0.0686759 4.51944 0.206028 2.11853C0.330128 1.0339 1.23273 0.205473 2.324 0.174619L8.5 0ZM2.55635 8.4912C2.20465 8.4912 1.91953 8.77632 1.91953 9.12802C1.91953 9.47973 2.20465 9.76484 2.55635 9.76484H14.4437C14.7954 9.76484 15.0805 9.47973 15.0805 9.12802C15.0805 8.77632 14.7954 8.4912 14.4437 8.4912H2.55635Z" fill="#425766"/>
</svg>
