<svg width="8" height="8" viewBox="0 0 8 8" fill="none" xmlns="http://www.w3.org/2000/svg">
<path d="M3.76003 6.46448L3.76004 6.46447L6.71838 3.50613C6.31575 3.33855 5.83887 3.06328 5.38786 2.61227C4.93678 2.16119 4.6615 1.68423 4.49393 1.28156L1.53553 4.23996L1.53551 4.23998C1.30466 4.47083 1.18923 4.58626 1.08996 4.71353C0.972854 4.86367 0.872454 5.02612 0.790537 5.19801C0.721093 5.34372 0.66947 5.49859 0.566224 5.80833L0.0217794 7.44166C-0.0290289 7.59409 0.0106419 7.76214 0.124252 7.87575C0.237863 7.98936 0.405912 8.02903 0.558337 7.97822L2.19167 7.43378C2.50141 7.33053 2.65628 7.27891 2.80199 7.20946C2.97388 7.12755 3.13633 7.02715 3.28647 6.91004C3.41374 6.81077 3.52918 6.69533 3.76003 6.46448Z" fill="#6A8496"/>
<path d="M7.53929 2.68522C8.15357 2.07094 8.15357 1.07499 7.53929 0.460711C6.92501 -0.15357 5.92906 -0.15357 5.31478 0.460711L4.95996 0.815527C4.96482 0.830199 4.96986 0.845074 4.97509 0.860142C5.10514 1.235 5.35052 1.7264 5.81213 2.18801C6.27373 2.64961 6.76514 2.89499 7.13999 3.02505C7.15499 3.03025 7.1698 3.03527 7.18441 3.04011L7.53929 2.68522Z" fill="#6A8496"/>
</svg>
