<svg width="12" height="12" viewBox="0 0 12 12" fill="none" xmlns="http://www.w3.org/2000/svg">
<path d="M4.9297 10.3651C5.12061 10.2162 5.29378 10.043 5.64006 9.69671L10.0776 5.25919C9.47363 5.00782 8.75831 4.59492 8.08179 3.91841C7.40517 3.24179 6.99225 2.52635 6.74089 1.92234L2.30329 6.35994L2.30327 6.35996C1.957 6.70624 1.78384 6.87939 1.63494 7.0703C1.45928 7.29551 1.30868 7.53919 1.18581 7.79702C1.08164 8.01558 1.00421 8.24789 0.849336 8.71249L0.0326691 11.1625C-0.0435433 11.3911 0.0159628 11.6432 0.186379 11.8136C0.356795 11.984 0.608868 12.0435 0.837505 11.9673L3.28751 11.1507C3.75211 10.9958 3.98442 10.9184 4.20299 10.8142C4.46082 10.6913 4.70449 10.5407 4.9297 10.3651Z" fill="#6A8496"/>
<path d="M11.3089 4.02783C12.2304 3.10641 12.2304 1.61249 11.3089 0.691067C10.3875 -0.230356 8.89359 -0.230356 7.97217 0.691067L7.43994 1.22329C7.44723 1.2453 7.45479 1.26761 7.46263 1.29021C7.65771 1.8525 8.02578 2.5896 8.71819 3.28201C9.4106 3.97442 10.1477 4.34249 10.71 4.53757C10.7325 4.54538 10.7547 4.5529 10.7766 4.56016L11.3089 4.02783Z" fill="#6A8496"/>
</svg>
