<svg width="18" height="19" viewBox="0 0 18 19" fill="none" xmlns="http://www.w3.org/2000/svg">
<path d="M3.45827 5.16265C3.24305 5.10587 3.06417 4.95643 2.97001 4.75474C2.87585 4.55305 2.87613 4.31996 2.97079 4.11851L4.63155 0.584121C4.75531 0.320735 5.02026 0.152717 5.31127 0.153077C5.60228 0.153437 5.86682 0.32211 5.98993 0.585801L6.72255 2.15504C6.74875 2.14474 6.77579 2.13581 6.80362 2.12836C11.151 0.963489 15.6195 3.5434 16.7844 7.89075C17.9492 12.2381 15.3693 16.7066 11.022 17.8715C6.67464 19.0364 2.2061 16.4565 1.04123 12.1091C0.670811 10.7267 0.679144 9.32978 1.00358 8.03105C1.10397 7.62919 1.51112 7.38479 1.91299 7.48518C2.31485 7.58557 2.55925 7.99273 2.45886 8.39459C2.19456 9.45258 2.18728 10.5907 2.49012 11.7209C3.44058 15.268 7.08661 17.3731 10.6338 16.4226C14.1809 15.4722 16.2859 11.8261 15.3355 8.27898C14.4006 4.78982 10.8575 2.69601 7.36591 3.53307L8.1051 5.11637C8.22821 5.38006 8.18767 5.69116 8.00109 5.91449C7.81451 6.13783 7.51558 6.23307 7.2342 6.15883L3.45827 5.16265Z" fill="#25262D"/>
</svg>
