<svg width="16" height="20" viewBox="0 0 16 20" fill="none" xmlns="http://www.w3.org/2000/svg">
<path d="M5 0.749512C5 0.335298 5.33579 -0.000488281 5.75 -0.000488281H9.75C10.1642 -0.000488281 10.5 0.335298 10.5 0.749512V1.49951H14.75C15.1642 1.49951 15.5 1.8353 15.5 2.24951C15.5 2.66373 15.1642 2.99951 14.75 2.99951H0.75C0.335786 2.99951 0 2.66373 0 2.24951C0 1.8353 0.335786 1.49951 0.75 1.49951H5V0.749512Z" fill="#25262D"/>
<path fill-rule="evenodd" clip-rule="evenodd" d="M1.9899 5.6943C2.01803 5.44108 2.23206 5.24951 2.48684 5.24951H13.0132C13.2679 5.24951 13.482 5.44108 13.5101 5.6943L13.7102 7.49564C14.071 10.7426 14.071 14.0196 13.7102 17.2665L13.6905 17.4439C13.5591 18.6265 12.6426 19.5694 11.4643 19.7344C9.0001 20.0794 6.49989 20.0794 4.03574 19.7344C2.85737 19.5694 1.94085 18.6265 1.80945 17.4439L1.78975 17.2665C1.42897 14.0196 1.42897 10.7426 1.78975 7.49564L1.9899 5.6943ZM6.5 9.14951C6.5 8.73529 6.16421 8.39951 5.75 8.39951C5.33579 8.39951 5 8.73529 5 9.14951L5 16.1495C5 16.5637 5.33579 16.8995 5.75 16.8995C6.16421 16.8995 6.5 16.5637 6.5 16.1495L6.5 9.14951ZM10.5 9.14951C10.5 8.73529 10.1642 8.39951 9.75 8.39951C9.33579 8.39951 9 8.73529 9 9.14951V16.1495C9 16.5637 9.33579 16.8995 9.75 16.8995C10.1642 16.8995 10.5 16.5637 10.5 16.1495V9.14951Z" fill="#25262D"/>
</svg>
