<svg width="29" height="29" viewBox="0 0 29 29" fill="none" xmlns="http://www.w3.org/2000/svg">
<path fill-rule="evenodd" clip-rule="evenodd" d="M11.9479 0C8.3293 0 5.39583 2.93347 5.39583 6.55208C5.39583 10.1707 8.3293 13.1042 11.9479 13.1042C15.5665 13.1042 18.5 10.1707 18.5 6.55208C18.5 2.93347 15.5665 0 11.9479 0ZM7.70833 6.55208C7.70833 4.21063 9.60646 2.3125 11.9479 2.3125C14.2894 2.3125 16.1875 4.21063 16.1875 6.55208C16.1875 8.89354 14.2894 10.7917 11.9479 10.7917C9.60646 10.7917 7.70833 8.89354 7.70833 6.55208Z" fill="white"/>
<path d="M2.3125 21.1979C2.3125 19.2822 3.86551 17.7292 5.78125 17.7292H6.30676C6.34739 17.7292 6.38777 17.7356 6.42639 17.7482L7.76072 18.1839C9.29696 18.6855 10.9008 18.9039 12.4959 18.8391C12.7086 18.8304 12.8826 18.6718 12.9276 18.4636C13.0409 17.9394 13.1986 17.4317 13.3967 16.9447C13.4901 16.7149 13.3004 16.4584 13.0535 16.4829C11.5191 16.6354 9.96085 16.4697 8.47853 15.9856L7.14419 15.5499C6.87382 15.4616 6.59118 15.4167 6.30676 15.4167H5.78125C2.58835 15.4167 0 18.005 0 21.1979V23.0299C0 24.1911 0.84157 25.1812 1.98763 25.3683C5.9886 26.0215 10.0378 26.2786 14.0767 26.1394C14.3271 26.1308 14.4628 25.84 14.3216 25.6329C14.0227 25.1946 13.7604 24.7293 13.5393 24.2414C13.4328 24.0064 13.2002 23.8509 12.9423 23.8552C9.40481 23.9144 5.86334 23.658 2.36024 23.086C2.33272 23.0815 2.3125 23.0577 2.3125 23.0299V21.1979Z" fill="white"/>
<path fill-rule="evenodd" clip-rule="evenodd" d="M15.0312 20.4271C15.0312 21.9254 15.5062 23.3128 16.3138 24.4468C16.7638 25.0787 17.3171 25.632 17.949 26.082C19.0831 26.8896 20.4704 27.3646 21.9688 27.3646C25.8002 27.3646 28.9062 24.2586 28.9062 20.4271C28.9062 18.9288 28.4313 17.5414 27.6237 16.4073C27.1737 15.7754 26.6204 15.2222 25.9885 14.7722C24.8544 13.9646 23.4671 13.4896 21.9688 13.4896C18.1373 13.4896 15.0312 16.5956 15.0312 20.4271ZM21.9688 25.0521C21.111 25.0521 20.3078 24.8186 19.6193 24.4117L25.9534 18.0776C26.3603 18.7662 26.5938 19.5694 26.5938 20.4271C26.5938 22.9814 24.5231 25.0521 21.9688 25.0521ZM17.9841 22.7765L24.3182 16.4424C23.6297 16.0356 22.8265 15.8021 21.9688 15.8021C19.4144 15.8021 17.3438 17.8728 17.3438 20.4271C17.3438 21.2848 17.5772 22.088 17.9841 22.7765Z" fill="white"/>
</svg>
