<svg width="49" height="49" viewBox="0 0 49 49" fill="none" xmlns="http://www.w3.org/2000/svg">
<circle cx="24.5" cy="24.5" r="24.5" fill="#18232E"/>
<path d="M35.453 19.9824C35.202 20.7846 34.8348 21.5457 34.363 22.2414L34.382 22.2114C33.934 22.9581 33.399 23.8207 32.777 24.7994C32.2437 25.5721 31.9613 25.9721 31.93 25.9994C31.7883 26.1784 31.6962 26.3915 31.663 26.6174L31.662 26.6244C31.6877 26.8281 31.7823 27.0169 31.93 27.1594L32.33 27.6054C34.47 29.8047 35.6737 31.3207 35.941 32.1534C35.9917 32.2902 36.008 32.4373 35.9885 32.5819C35.9689 32.7265 35.9142 32.864 35.829 32.9824L35.831 32.9794C35.7301 33.083 35.6074 33.1627 35.4717 33.2127C35.3361 33.2627 35.191 33.2817 35.047 33.2684H35.051H32.415C32.078 33.2684 31.768 33.1504 31.525 32.9544L31.528 32.9564C31.1814 32.6716 30.8629 32.3542 30.577 32.0084L30.568 31.9964C30.1073 31.4757 29.6987 31.0374 29.342 30.6814C28.154 29.5521 27.2773 28.9874 26.712 28.9874C26.5296 28.9721 26.3475 29.0197 26.196 29.1224L26.199 29.1204C26.1342 29.2019 26.0867 29.2957 26.0592 29.396C26.0317 29.4964 26.0248 29.6013 26.039 29.7044V29.7004C26.0011 30.1671 25.9884 30.6354 26.001 31.1034V31.0864V32.2454C26.0294 32.3839 26.0197 32.5274 25.9728 32.6607C25.926 32.7941 25.8438 32.9122 25.735 33.0024L25.734 33.0034C25.2273 33.2313 24.67 33.3233 24.117 33.2704L24.13 33.2714C22.616 33.2466 21.1377 32.8081 19.855 32.0034L19.89 32.0234C18.4098 31.1322 17.1414 29.9293 16.173 28.4984L16.146 28.4564C15.2054 27.2018 14.3785 25.8658 13.675 24.4644L13.605 24.3104C13.1371 23.4025 12.7254 22.4667 12.372 21.5084L12.312 21.3234C12.149 20.8256 12.045 20.3104 12.002 19.7884L12 19.7634C12 19.2581 12.2973 19.0054 12.892 19.0054H15.522C15.7879 18.9848 16.0517 19.0651 16.261 19.2304L16.259 19.2284C16.459 19.4474 16.607 19.7164 16.68 20.0164L16.683 20.0284C17.1174 21.2728 17.648 22.4814 18.27 23.6434L18.203 23.5064C18.6527 24.4193 19.1967 25.2827 19.826 26.0824L19.803 26.0514C20.3363 26.7061 20.7523 27.0334 21.051 27.0334L21.083 27.0344C21.1533 27.0345 21.2224 27.0161 21.2833 26.981C21.3443 26.9459 21.3948 26.8953 21.43 26.8344L21.431 26.8324C21.5262 26.5816 21.5641 26.3127 21.542 26.0454V26.0514V22.1724C21.5236 21.7326 21.4147 21.3012 21.222 20.9054L21.23 20.9244C21.1128 20.6731 20.9614 20.4392 20.78 20.2294L20.783 20.2334C20.6154 20.066 20.5063 19.8489 20.472 19.6144L20.471 19.6084C20.471 19.4384 20.549 19.2854 20.671 19.1854L20.672 19.1844C20.7977 19.0696 20.9618 19.0061 21.132 19.0064H25.286C25.3903 18.9939 25.4961 19.0076 25.5937 19.0464C25.6913 19.0852 25.7777 19.1477 25.845 19.2284L25.846 19.2294C25.9723 19.4628 26.0276 19.728 26.005 19.9924V19.9874V25.1604C25.9895 25.3644 26.037 25.5682 26.141 25.7444L26.139 25.7404C26.1756 25.7952 26.2251 25.8401 26.2832 25.8712C26.3413 25.9022 26.4061 25.9185 26.472 25.9184C26.6406 25.9073 26.8042 25.8513 26.944 25.7564L26.941 25.7584C27.2117 25.5718 27.448 25.3581 27.65 25.1174L27.654 25.1124C28.2718 24.4134 28.8257 23.6604 29.309 22.8624L29.348 22.7924C29.692 22.2224 30.064 21.5204 30.401 20.7994L30.463 20.6524L30.909 19.7604C30.9872 19.5296 31.1387 19.3306 31.3402 19.1936C31.5418 19.0566 31.7826 18.9892 32.026 19.0014H32.023H34.654C35.3647 19.0014 35.6313 19.3284 35.454 19.9824H35.453Z" fill="#108BFE"/>
</svg>
