<svg width="42" height="25" viewBox="0 0 42 25" fill="none" xmlns="http://www.w3.org/2000/svg">
<path d="M40.008 24.7609H35.444C33.718 24.7609 33.198 23.3629 30.104 20.2669C27.4 17.6609 26.258 17.3369 25.574 17.3369C24.628 17.3369 24.37 17.5969 24.37 18.8989V23.0029C24.37 24.1129 24.01 24.7629 21.11 24.7629C18.2966 24.5739 15.5683 23.7192 13.1499 22.2692C10.7316 20.8192 8.69225 18.8155 7.2 16.4229C3.65803 12.0122 1.19282 6.8366 0 1.30692C0 0.622916 0.26 0.00291657 1.564 0.00291657H6.124C7.296 0.00291657 7.718 0.524917 8.178 1.73092C10.392 8.24692 14.17 13.9149 15.704 13.9149C16.292 13.9149 16.548 13.6549 16.548 12.1889V5.47692C16.354 2.41492 14.728 2.15692 14.728 1.04892C14.7486 0.756599 14.8823 0.483814 15.1007 0.288503C15.3192 0.0931921 15.6052 -0.00925704 15.898 0.00291657H23.066C24.046 0.00291657 24.37 0.490916 24.37 1.66292V10.7229C24.37 11.7009 24.79 12.0249 25.086 12.0249C25.674 12.0249 26.126 11.7009 27.204 10.6249C29.5138 7.80623 31.4015 4.66674 32.808 1.30492C32.9513 0.900844 33.2231 0.5549 33.5818 0.320094C33.9405 0.0852887 34.3663 -0.0254258 34.794 0.00491642H39.356C40.724 0.00491642 41.014 0.688917 40.724 1.66492C39.0643 5.38151 37.0112 8.90964 34.6 12.1889C34.108 12.9389 33.912 13.3289 34.6 14.2089C35.052 14.8929 36.652 16.2289 37.726 17.4989C39.29 19.0589 40.588 20.8629 41.57 22.8389C41.962 24.1109 41.31 24.7609 40.008 24.7609Z" fill="white"/>
</svg>
