<svg width="20" height="20" viewBox="0 0 20 20" fill="none" xmlns="http://www.w3.org/2000/svg">
<g clip-path="url(#clip0_2645_1850)">
<path d="M1.6665 5.41667C1.6665 3.3456 3.34544 1.66667 5.4165 1.66667C7.48757 1.66667 9.1665 3.3456 9.1665 5.41667V7.91667C9.1665 8.20729 9.1665 8.3526 9.13456 8.47181C9.04787 8.79534 8.79517 9.04804 8.47165 9.13473C8.35243 9.16667 8.20712 9.16667 7.9165 9.16667H5.4165C3.34544 9.16667 1.6665 7.48774 1.6665 5.41667Z" fill="#425766"/>
<path d="M10.8332 12.0833C10.8332 11.7927 10.8332 11.6474 10.8651 11.5282C10.9518 11.2047 11.2045 10.952 11.528 10.8653C11.6472 10.8333 11.7926 10.8333 12.0832 10.8333H14.5832C16.6542 10.8333 18.3332 12.5123 18.3332 14.5833C18.3332 16.6544 16.6542 18.3333 14.5832 18.3333C12.5121 18.3333 10.8332 16.6544 10.8332 14.5833V12.0833Z" fill="#425766"/>
<path d="M1.6665 14.5833C1.6665 12.5123 3.34544 10.8333 5.4165 10.8333H7.6665C8.19155 10.8333 8.45408 10.8333 8.65462 10.9355C8.83102 11.0254 8.97444 11.1688 9.06432 11.3452C9.1665 11.5458 9.1665 11.8083 9.1665 12.3333V14.5833C9.1665 16.6544 7.48757 18.3333 5.4165 18.3333C3.34544 18.3333 1.6665 16.6544 1.6665 14.5833Z" fill="#425766"/>
<path d="M10.8332 5.41667C10.8332 3.3456 12.5121 1.66667 14.5832 1.66667C16.6542 1.66667 18.3332 3.3456 18.3332 5.41667C18.3332 7.48774 16.6542 9.16667 14.5832 9.16667H11.9046C11.7802 9.16667 11.718 9.16667 11.6657 9.16078C11.2311 9.1118 10.888 8.76878 10.8391 8.33414C10.8332 8.28182 10.8332 8.21963 10.8332 8.09524V5.41667Z" fill="#425766"/>
<path d="M1.6665 5.41667C1.6665 3.3456 3.34544 1.66667 5.4165 1.66667C7.48757 1.66667 9.1665 3.3456 9.1665 5.41667V7.91667C9.1665 8.20729 9.1665 8.3526 9.13456 8.47181C9.04787 8.79534 8.79517 9.04804 8.47165 9.13473C8.35243 9.16667 8.20712 9.16667 7.9165 9.16667H5.4165C3.34544 9.16667 1.6665 7.48774 1.6665 5.41667Z" stroke="#425766" stroke-width="1.5"/>
<path d="M10.8332 12.0833C10.8332 11.7927 10.8332 11.6474 10.8651 11.5282C10.9518 11.2047 11.2045 10.952 11.528 10.8653C11.6472 10.8333 11.7926 10.8333 12.0832 10.8333H14.5832C16.6542 10.8333 18.3332 12.5123 18.3332 14.5833C18.3332 16.6544 16.6542 18.3333 14.5832 18.3333C12.5121 18.3333 10.8332 16.6544 10.8332 14.5833V12.0833Z" stroke="#425766" stroke-width="1.5"/>
<path d="M1.6665 14.5833C1.6665 12.5123 3.34544 10.8333 5.4165 10.8333H7.6665C8.19155 10.8333 8.45408 10.8333 8.65462 10.9355C8.83102 11.0254 8.97444 11.1688 9.06432 11.3452C9.1665 11.5458 9.1665 11.8083 9.1665 12.3333V14.5833C9.1665 16.6544 7.48757 18.3333 5.4165 18.3333C3.34544 18.3333 1.6665 16.6544 1.6665 14.5833Z" stroke="#425766" stroke-width="1.5"/>
<path d="M10.8332 5.41667C10.8332 3.3456 12.5121 1.66667 14.5832 1.66667C16.6542 1.66667 18.3332 3.3456 18.3332 5.41667C18.3332 7.48774 16.6542 9.16667 14.5832 9.16667H11.9046C11.7802 9.16667 11.718 9.16667 11.6657 9.16078C11.2311 9.1118 10.888 8.76878 10.8391 8.33414C10.8332 8.28182 10.8332 8.21963 10.8332 8.09524V5.41667Z" stroke="#425766" stroke-width="1.5"/>
</g>
<defs>
<clipPath id="clip0_2645_1850">
<rect width="20" height="20" rx="5" fill="white"/>
</clipPath>
</defs>
</svg>
