<svg width="181" height="36" viewBox="0 0 181 36" fill="none" xmlns="http://www.w3.org/2000/svg">
<g clip-path="url(#clip0_3173_1632)">
<path fill-rule="evenodd" clip-rule="evenodd" d="M51.2342 14.7067L60.3326 14.7004C66.0689 14.7004 69.0355 17.2997 69.0378 21.8991C69.0378 25.0995 67.476 29.1001 60.3432 29.1001H44.5078V6.90039H67.4529V11.9001H51.2322L51.2342 14.7067ZM59.5414 24.0984C61.323 24.0984 62.3111 23.2983 62.3111 21.8992C62.3111 20.5001 61.321 19.7 59.5414 19.7H51.2322V24.0983L59.5414 24.0984ZM113.149 24.1004V24.2994C113.149 27.4998 109.787 29.5 103.458 29.5H102.667C95.9405 29.5 92.9739 26.8987 92.9739 23.5394V23.3023L99.5015 23.3002C99.6983 25.0993 101.281 25.4994 103.259 25.4994C105.478 25.4994 106.621 25.0993 106.621 23.8992C106.621 22.68 105.822 22.3011 104.134 22.3011L100.688 22.299V18.6987H104.051C105.437 18.6987 106.029 18.2986 106.029 17.2996C106.029 16.2984 105.041 15.6994 103.062 15.6994C101.084 15.6994 100.098 16.2984 99.8971 17.4985H93.1708V17.2953C93.1708 13.898 97.1274 12.099 102.864 12.099H103.259C108.996 12.099 112.557 13.6992 112.557 16.4997V16.8997C112.557 19.3 110.3 20.2038 108.916 20.5024C110.601 20.8304 113.149 21.5011 113.149 24.1004ZM151.789 23.8993H158.45C158.45 25.3006 157.24 29.5 148.37 29.498H147.564C139.299 29.498 137.283 24.998 137.283 21.008V20.5889C137.283 16.4996 139.062 12.0989 147.568 12.0989H148.163C157.064 12.0989 158.448 16.6982 158.448 21.4882V22.0978L143.796 22.0957C143.999 24.096 145.395 25.2982 148.288 25.2982C151.135 25.2982 151.543 24.4233 151.749 23.9831C151.763 23.9529 151.776 23.925 151.789 23.8993ZM151.726 18.8977C151.726 17.4986 150.935 16.0994 147.769 16.0994C144.999 16.0994 144.009 17.2996 143.813 18.8998L151.726 18.8977ZM174.449 22.5003H181.001C181.001 24.9006 179.418 29.5 170.912 29.498H170.517C162.011 29.498 160.231 24.2993 160.231 21.099V20.5C160.231 17.3017 161.913 12.099 170.517 12.101H170.912C179.316 12.0989 181.001 16.5017 181.001 18.9017H174.474C174.304 17.9005 173.483 16.5014 170.912 16.5014H170.517C167.946 16.5014 166.759 18.5016 166.759 20.7007V20.8997C166.759 23.101 168.143 24.9004 170.517 24.9004H170.912C173.682 24.9004 174.277 23.3004 174.449 22.5003ZM128.974 29.1H135.305V12.501H128.974V18.4997H121.459V12.501H115.128V29.1H121.459V23.0993H128.974V29.1ZM84.8619 29.1H91.1926V12.501H84.6651L77.346 22.1V12.501H71.0152V29.1H77.5428L84.8619 19.501V29.1Z" fill="white"/>
<path fill-rule="evenodd" clip-rule="evenodd" d="M35.6066 18C35.6066 27.9413 27.636 36 17.8033 36C7.97059 36 0 27.9413 0 18C0 8.05867 7.97092 0 17.8033 0C27.6356 0 35.6066 8.059 35.6066 18ZM23.5455 28.2617V7.71733H18.431C13.484 7.71733 10.5323 10.2023 10.5323 14.3637C10.5323 17.636 12.1883 19.505 14.6755 21.3063L14.7174 21.336L14.6881 21.3783L10.1054 28.2806H13.8401L18.9628 20.54L17.2085 19.3441C14.9998 17.8285 13.9488 16.6665 13.9488 14.1521C13.9488 11.8068 15.632 10.4057 18.4498 10.4057H20.0911V28.2617L23.5455 28.2617Z" fill="white"/>
</g>
<defs>
<clipPath id="clip0_3173_1632">
<rect width="181" height="36" fill="white"/>
</clipPath>
</defs>
</svg>
