<svg width="181" height="43" viewBox="0 0 181 43" fill="none" xmlns="http://www.w3.org/2000/svg">
<g clip-path="url(#clip0_3173_1647)">
<path d="M58.0202 42.0673V35.8323H73.0604V42.0673H77.9302V31.7903H75.129V5.94727H57.6754L57.2444 18.2453C57.029 25.3403 56.4687 29.5113 55.0897 31.7903H53.1504V42.0673H58.0202ZM61.8125 18.9333L62.1142 9.98927H69.9144V31.7903H60.0025C60.9075 29.7263 61.5971 26.0283 61.8125 18.9333ZM80.931 14.2033V35.8323H85.3698L93.2993 22.4593V35.8323H98.2984V14.2033H93.8596L85.9301 27.5763V14.2033H80.931ZM107.346 14.2033H102.605V42.0673H107.733V33.2953C109.026 35.2303 110.922 36.2623 113.12 36.2623C118.119 36.2623 121.567 32.2633 121.567 24.9963C121.567 17.7723 118.206 13.7733 113.379 13.7733C110.966 13.7733 108.983 14.8913 107.604 16.9983L107.346 14.2033ZM111.827 32.2203C109.112 32.2203 107.733 30.0273 107.733 25.0393C107.733 20.0083 109.199 17.8153 112.086 17.8153C114.887 17.8153 116.266 20.0083 116.266 24.9963C116.266 30.0273 114.801 32.2203 111.827 32.2203ZM141.585 34.3703V30.1993C139.99 31.2743 137.318 32.2203 134.819 32.2203C131.069 32.2203 129.647 30.4573 129.432 26.8453H141.8V24.1363C141.8 16.6113 138.482 13.7733 133.354 13.7733C127.105 13.7733 124.131 18.5463 124.131 25.0823C124.131 32.6073 127.837 36.2623 134.388 36.2623C137.663 36.2623 140.076 35.4023 141.585 34.3703ZM133.267 17.8153C135.81 17.8153 136.586 19.9223 136.586 22.6313V23.0613H129.432C129.561 19.6213 130.811 17.8153 133.267 17.8153ZM157.949 35.8323H163.767L155.536 24.1793L162.776 14.2033H157.605L150.365 24.1793V14.2033H145.236V35.8323H150.365V25.2113L157.949 35.8323ZM180.751 18.2453V14.2033H163.556V18.2453H169.589V35.8323H174.718V18.2453H180.751Z" fill="white"/>
<mask id="mask0_3173_1647" style="mask-type:luminance" maskUnits="userSpaceOnUse" x="0" y="0" width="44" height="43">
<path d="M43.0952 21.5C43.0952 9.62588 33.4481 0 21.5476 0C9.6472 0 0 9.62588 0 21.5C0 33.3742 9.6472 43 21.5476 43C33.4481 43 43.0952 33.3742 43.0952 21.5Z" fill="white"/>
</mask>
<g mask="url(#mask0_3173_1647)">
<path d="M43.0952 21.5C43.0952 9.62588 33.4481 0 21.5476 0C9.6472 0 0 9.62588 0 21.5C0 33.3742 9.6472 43 21.5476 43C33.4481 43 43.0952 33.3742 43.0952 21.5Z" fill="url(#paint0_linear_3173_1647)"/>
<path d="M52.6935 2.75795C53.8794 3.56722 54.7148 4.79401 55.0321 6.19222C55.3451 7.57169 55.1482 9.01755 54.4775 10.2636C53.8066 11.5096 52.7074 12.4719 51.3819 12.9733L50.4496 42.4025C49.4312 45.4254 37.1619 47.0837 34.1209 46.1076C33.3999 45.8784 32.7318 45.5081 32.1559 45.0182C31.5798 44.5284 31.1075 43.929 30.7663 43.2549C30.4252 42.5809 30.222 41.8458 30.1687 41.0925C30.1156 40.3393 30.2133 39.5831 30.4563 38.8679L34.1252 27.9702L-16.8637 74.6625L-24.9785 65.8403L25.9802 19.1767L14.8731 21.8714C14.1381 22.0517 13.3745 22.0841 12.6269 21.9667C11.8792 21.8492 11.1625 21.5842 10.5187 21.1871C9.87486 20.7902 9.31678 20.2691 8.87706 19.6545C8.43735 19.0397 8.12482 18.3438 7.95774 17.6072C7.61734 16.1088 7.88015 14.5369 8.68962 13.2298C9.4991 11.9227 10.7905 10.9849 12.2859 10.6184L42.4856 3.29402C43.1065 2.03078 44.1616 1.03218 45.4586 0.480209C46.7557 -0.071768 48.2083 -0.140379 49.5518 0.286879C50.9223 0.726913 52.0068 1.62562 52.6935 2.75795Z" fill="url(#paint1_linear_3173_1647)"/>
<path d="M52.6935 2.75795C53.8794 3.56722 54.7148 4.79401 55.0321 6.19222C55.3451 7.57169 55.1482 9.01755 54.4775 10.2636C53.8066 11.5096 52.7074 12.4719 51.3819 12.9733L50.4496 42.4025C49.4312 45.4254 37.1619 47.0837 34.1209 46.1076C33.3999 45.8784 32.7318 45.5081 32.1559 45.0182C31.5798 44.5284 31.1075 43.929 30.7663 43.2549C30.4252 42.5809 30.222 41.8458 30.1687 41.0925C30.1156 40.3393 30.2133 39.5831 30.4563 38.8679L34.1252 27.9702L-16.8637 74.6625L-24.9785 65.8403L25.9802 19.1767L14.8731 21.8714C14.1381 22.0517 13.3745 22.0841 12.6269 21.9667C11.8792 21.8492 11.1625 21.5842 10.5187 21.1871C9.87486 20.7902 9.31678 20.2691 8.87706 19.6545C8.43735 19.0397 8.12482 18.3438 7.95774 17.6072C7.61734 16.1088 7.88015 14.5369 8.68962 13.2298C9.4991 11.9227 10.7905 10.9849 12.2859 10.6184L42.4856 3.29402C43.1065 2.03078 44.1616 1.03218 45.4586 0.480209C46.7557 -0.071768 48.2083 -0.140379 49.5518 0.286879C50.9223 0.726913 52.0068 1.62562 52.6935 2.75795Z" fill="url(#paint2_linear_3173_1647)"/>
</g>
</g>
<defs>
<linearGradient id="paint0_linear_3173_1647" x1="43.0952" y1="41.1481" x2="-24.2824" y2="-21.5297" gradientUnits="userSpaceOnUse">
<stop offset="0.01" stop-color="#3E3BA0"/>
<stop offset="1" stop-color="#498BFF"/>
</linearGradient>
<linearGradient id="paint1_linear_3173_1647" x1="193.507" y1="101.598" x2="-63.1729" y2="131.644" gradientUnits="userSpaceOnUse">
<stop stop-color="#FFB800"/>
<stop offset="1" stop-color="#FFF11D"/>
</linearGradient>
<linearGradient id="paint2_linear_3173_1647" x1="-24.9785" y1="66.8308" x2="169.484" y2="-36.4285" gradientUnits="userSpaceOnUse">
<stop stop-color="#FFF11D"/>
<stop offset="1" stop-color="#FFB800"/>
</linearGradient>
<clipPath id="clip0_3173_1647">
<rect width="181" height="43" fill="white"/>
</clipPath>
</defs>
</svg>
