<svg width="18" height="14" viewBox="0 0 18 14" fill="none" xmlns="http://www.w3.org/2000/svg">
<path d="M17.25 6.00002C17.6642 6.00002 18 6.33581 18 6.75002C18 7.16424 17.6642 7.50002 17.25 7.50002H8V12.75C8 13.0534 7.81727 13.3268 7.53701 13.4429C7.25676 13.559 6.93417 13.4949 6.71967 13.2804L0.719669 7.28035C0.579018 7.1397 0.5 6.94893 0.5 6.75002C0.5 6.55111 0.579018 6.36034 0.719669 6.21969L6.71967 0.219692C6.93417 0.00519343 7.25676 -0.0589736 7.53701 0.0571124C7.81727 0.173197 8 0.446675 8 0.750022V6.00002H17.25Z" fill="white"/>
</svg>
