<svg width="42" height="42" viewBox="0 0 42 42" fill="none" xmlns="http://www.w3.org/2000/svg">
<rect width="42" height="42" rx="8" fill="#44CF59"/>
<path d="M31.6697 14.8898C28.2735 9.6248 21.3185 8.0648 15.9397 11.3311C10.691 14.5973 9.00096 21.7148 12.3972 26.9636L12.6735 27.3861L11.536 31.6436L15.7935 30.5061L16.216 30.7823C18.0522 31.7736 20.051 32.3423 22.0335 32.3423C24.1622 32.3423 26.291 31.7736 28.1272 30.6361C33.376 27.2236 34.936 20.2523 31.6697 14.8573V14.8898ZM28.696 25.8423C28.1272 26.6873 27.4122 27.2561 26.421 27.4023C25.8522 27.4023 25.1372 27.6786 22.3097 26.5573C19.9047 25.4198 17.906 23.5673 16.4922 21.4386C15.6472 20.4473 15.2085 19.1636 15.0785 17.8798C15.0785 16.7423 15.501 15.751 16.216 15.036C16.4922 14.7598 16.7847 14.6136 17.061 14.6136H17.776C18.0522 14.6136 18.3447 14.6136 18.491 15.1823C18.7672 15.8973 19.4822 17.6036 19.4822 17.7498C19.6285 17.8961 19.5635 18.9848 18.9135 19.6023C18.556 20.0086 18.491 20.0248 18.6372 20.3173C19.206 21.1623 19.921 22.0236 20.6197 22.7386C21.4647 23.4536 22.326 24.0223 23.3172 24.4448C23.5935 24.5911 23.886 24.5911 24.0322 24.2985C24.1785 24.0223 24.8772 23.3073 25.1697 23.0148C25.446 22.7386 25.5922 22.7386 25.8847 22.8686L28.1597 24.0061C28.436 24.1523 28.7285 24.2823 28.8747 24.4285C29.021 24.8511 29.021 25.4198 28.7285 25.8423H28.696Z" fill="white"/>
</svg>
