<svg width="63" height="63" viewBox="0 0 63 63" fill="none" xmlns="http://www.w3.org/2000/svg">
<circle cx="31.5" cy="31.5" r="31.5" fill="#105EFE"/>
<path d="M20.937 34.4203H25.9135L28.4203 37.6327L30.8714 40.4923L35.495 46.3043H30.0358L26.8419 42.3863L25.2264 40.0652L20.937 34.4203ZM22.9611 44.4103C20.51 44.4103 18.3065 43.8533 16.3505 42.7391C14.3946 41.625 12.8472 40.0095 11.7083 37.8927C10.5694 35.7758 10 33.2195 10 30.2237C10 27.2032 10.5694 24.6345 11.7083 22.5177C12.8472 20.3884 14.3946 18.7729 16.3505 17.6712C18.3065 16.5571 20.51 16 22.9611 16C25.4121 16 27.6156 16.5571 29.5716 17.6712C31.5275 18.7729 33.0687 20.3884 34.1952 22.5177C35.3341 24.6345 35.9035 27.2032 35.9035 30.2237C35.9035 33.2319 35.3341 35.7944 34.1952 37.9112C33.0687 40.0281 31.5275 41.6436 29.5716 42.7577C27.6156 43.8594 25.4121 44.4103 22.9611 44.4103ZM22.9611 39.2482C24.3847 39.2482 25.6226 38.9016 26.6748 38.2083C27.7271 37.5151 28.5379 36.5 29.1073 35.163C29.6892 33.8137 29.9801 32.1673 29.9801 30.2237C29.9801 28.2678 29.6892 26.6152 29.1073 25.2659C28.5379 23.9165 27.7271 22.8952 26.6748 22.202C25.6226 21.5088 24.3847 21.1621 22.9611 21.1621C21.5498 21.1621 20.3181 21.5088 19.2659 22.202C18.2136 22.8952 17.3904 23.9165 16.7962 25.2659C16.2144 26.6152 15.9235 28.2678 15.9235 30.2237C15.9235 32.1673 16.2144 33.8137 16.7962 35.163C17.3904 36.5 18.2136 37.5151 19.2659 38.2083C20.3181 38.9016 21.5498 39.2482 22.9611 39.2482Z" fill="white"/>
<path d="M38.3199 45.9858L37.478 42.6553L44.2445 27.9783L44.2081 27.8343L34.6847 30.2416L33.5562 25.777L49.7765 21.6768L50.7003 25.3313L44.4639 39.5295L44.5003 39.6735L54.0777 37.2525L55.2063 41.7172L38.3199 45.9858Z" fill="white"/>
</svg>
