<svg width="20" height="20" viewBox="0 0 20 20" fill="none" xmlns="http://www.w3.org/2000/svg">
<path fill-rule="evenodd" clip-rule="evenodd" d="M10.0432 1.04167H9.9565C9.20779 1.04165 8.58342 1.04163 8.08777 1.10827C7.56461 1.1786 7.09228 1.33333 6.71272 1.71289C6.33316 2.09245 6.17844 2.56478 6.1081 3.08794C6.04146 3.58359 6.04148 4.20793 6.0415 4.95666V5.02144C4.35719 5.07654 3.34577 5.27337 2.64281 5.97632C1.6665 6.95263 1.6665 8.52398 1.6665 11.6667C1.6665 14.8094 1.6665 16.3807 2.64281 17.357C3.61913 18.3333 5.19047 18.3333 8.33317 18.3333H11.6665C14.8092 18.3333 16.3805 18.3333 17.3569 17.357C18.3332 16.3807 18.3332 14.8094 18.3332 11.6667C18.3332 8.52398 18.3332 6.95263 17.3569 5.97632C16.6539 5.27337 15.6425 5.07654 13.9582 5.02144V4.95668C13.9582 4.20796 13.9582 3.58359 13.8916 3.08794C13.8212 2.56478 13.6665 2.09245 13.287 1.71289C12.9074 1.33333 12.4351 1.1786 11.9119 1.10827C11.4163 1.04163 10.7919 1.04165 10.0432 1.04167ZM12.7082 5.00158V5.00001C12.7082 4.19667 12.7068 3.65703 12.6527 3.2545C12.601 2.86995 12.5117 2.70537 12.4031 2.59677C12.2945 2.48817 12.1299 2.39882 11.7453 2.34712C11.3428 2.293 10.8032 2.29167 9.99984 2.29167C9.1965 2.29167 8.65686 2.293 8.25433 2.34712C7.86978 2.39882 7.7052 2.48817 7.5966 2.59677C7.48801 2.70537 7.39865 2.86995 7.34695 3.2545C7.29283 3.65703 7.29151 4.19667 7.29151 5.00001V5.00158C7.6182 5.00001 7.96489 5.00001 8.33317 5.00001H11.6665C12.0348 5.00001 12.3815 5.00001 12.7082 5.00158ZM14.1665 7.50001C14.1665 7.96024 13.7934 8.33334 13.3332 8.33334C12.8729 8.33334 12.4998 7.96024 12.4998 7.50001C12.4998 7.03977 12.8729 6.66667 13.3332 6.66667C13.7934 6.66667 14.1665 7.03977 14.1665 7.50001ZM6.6665 8.33334C7.12674 8.33334 7.49984 7.96024 7.49984 7.50001C7.49984 7.03977 7.12674 6.66667 6.6665 6.66667C6.20627 6.66667 5.83317 7.03977 5.83317 7.50001C5.83317 7.96024 6.20627 8.33334 6.6665 8.33334Z" fill="white"/>
</svg>
