<svg width="66" height="52" viewBox="0 0 66 52" fill="none" xmlns="http://www.w3.org/2000/svg">
<path fill-rule="evenodd" clip-rule="evenodd" d="M24.375 15.625C24.7892 15.625 25.125 15.9608 25.125 16.375L25.125 36.375C25.125 36.7892 24.7892 37.125 24.375 37.125C23.9608 37.125 23.625 36.7892 23.625 36.375L23.625 16.375C23.625 15.9608 23.9608 15.625 24.375 15.625Z" fill="#425766"/>
<path d="M28.375 21.875C28.375 20.9404 28.375 20.4731 28.576 20.125C28.7076 19.897 28.897 19.7076 29.125 19.576C29.4731 19.375 29.9404 19.375 30.875 19.375H39.875C40.8096 19.375 41.2769 19.375 41.625 19.576C41.853 19.7076 42.0424 19.897 42.174 20.125C42.375 20.4731 42.375 20.9404 42.375 21.875C42.375 22.8096 42.375 23.2769 42.174 23.625C42.0424 23.853 41.853 24.0424 41.625 24.174C41.2769 24.375 40.8096 24.375 39.875 24.375L30.875 24.375C29.9404 24.375 29.4731 24.375 29.125 24.174C28.897 24.0424 28.7076 23.853 28.576 23.625C28.375 23.2769 28.375 22.8096 28.375 21.875Z" fill="#425766"/>
<path d="M28.375 30.875C28.375 29.9404 28.375 29.4731 28.576 29.125C28.7076 28.897 28.897 28.7076 29.125 28.576C29.4731 28.375 29.9404 28.375 30.875 28.375L36.875 28.375C37.8096 28.375 38.2769 28.375 38.625 28.576C38.853 28.7076 39.0424 28.897 39.174 29.125C39.375 29.4731 39.375 29.9404 39.375 30.875C39.375 31.8096 39.375 32.2769 39.174 32.625C39.0424 32.853 38.853 33.0424 38.625 33.174C38.2769 33.375 37.8096 33.375 36.875 33.375H30.875C29.9404 33.375 29.4731 33.375 29.125 33.174C28.897 33.0424 28.7076 32.853 28.576 32.625C28.375 32.2769 28.375 31.8096 28.375 30.875Z" fill="#425766"/>
</svg>
