<svg width="41" height="22" viewBox="0 0 41 22" fill="none" xmlns="http://www.w3.org/2000/svg">
<mask id="mask0_4302_773" style="mask-type:alpha" maskUnits="userSpaceOnUse" x="0" y="0" width="41" height="22">
<rect y="0.148438" width="40.8" height="21.7021" rx="1.08511" fill="#DFE2E4"/>
</mask>
<g mask="url(#mask0_4302_773)">
<rect y="0.148438" width="40.8" height="21.7021" rx="1.08511" fill="#DFE2E4"/>
<path fill-rule="evenodd" clip-rule="evenodd" d="M-6 -2.625C-6 -4.05054 -5.44161 -5.41769 -4.44767 -6.4257C-3.45372 -7.43371 -2.10565 -8 -0.7 -8H41.7C43.1056 -8 44.4537 -7.43371 45.4477 -6.4257C46.4416 -5.41769 47 -4.05054 47 -2.625V29.625C47 31.1193 46.3984 32.4738 45.4286 33.4466C45.2155 33.9109 44.876 34.3037 44.4502 34.5789C44.0244 34.8541 43.5299 35.0002 43.025 35H-0.7C-2.10565 35 -3.45372 34.4337 -4.44767 33.4257C-5.44161 32.4177 -6 31.0505 -6 29.625V-2.625ZM12.2638 29.625L22.4213 15.2308L11.8477 3.61537C11.5807 3.32168 11.2523 3.09208 10.8867 2.94328C10.5211 2.79448 10.1274 2.73023 9.73416 2.7552C9.34097 2.78017 8.95821 2.89373 8.61375 3.08763C8.26929 3.28152 7.97179 3.55087 7.7429 3.87606L-0.7 15.8623V-2.625H41.7V24.1156L33.069 14.3896C32.8036 14.0906 32.4754 13.8559 32.1087 13.7028C31.742 13.5496 31.346 13.4819 30.95 13.5046C30.554 13.5273 30.1681 13.6398 29.8207 13.8339C29.4734 14.028 29.1734 14.2987 28.9429 14.6261L18.38 29.625H12.2638Z" fill="#425766" fill-opacity="0.1"/>
</g>
<rect x="22.0217" y="2.21018" width="2.30043" height="2.30043" rx="0.499149" stroke="#6A8496" stroke-width="0.0434043" stroke-dasharray="0.09 0.09"/>
<rect x="22.043" y="10.7822" width="5.38213" height="2.51745" rx="1.25872" fill="#105EFE"/>
<g clip-path="url(#clip0_4302_773)">
<path fill-rule="evenodd" clip-rule="evenodd" d="M22.7528 3.18078C22.7294 3.22971 22.7376 3.28694 22.7541 3.4014L22.7662 3.48549C22.7873 3.63252 22.7979 3.70603 22.8489 3.74995C22.8999 3.79387 22.9747 3.79387 23.1243 3.79387H23.2203C23.3699 3.79387 23.4447 3.79387 23.4957 3.74995C23.5467 3.70603 23.5573 3.63252 23.5785 3.48549L23.5906 3.4014C23.607 3.28694 23.6153 3.22971 23.5918 3.18078C23.5684 3.13185 23.5184 3.1021 23.4186 3.04262L23.3585 3.00681C23.2678 2.95279 23.2224 2.92578 23.1723 2.92578C23.1222 2.92578 23.0769 2.95279 22.9862 3.00681L22.9261 3.04262C22.8262 3.1021 22.7763 3.13185 22.7528 3.18078ZM23.1723 3.24045C23.1903 3.24045 23.2049 3.25503 23.2049 3.27301V3.37067L23.3025 3.37067C23.3205 3.37067 23.3351 3.38524 23.3351 3.40322C23.3351 3.4212 23.3205 3.43577 23.3025 3.43577L23.2049 3.43577V3.53343C23.2049 3.55141 23.1903 3.56598 23.1723 3.56598C23.1543 3.56598 23.1398 3.55141 23.1398 3.53343V3.43577H23.0421C23.0241 3.43577 23.0096 3.4212 23.0096 3.40322C23.0096 3.38524 23.0241 3.37067 23.0421 3.37067H23.1398V3.27301C23.1398 3.25503 23.1543 3.24045 23.1723 3.24045Z" fill="#6A8496"/>
</g>
<path d="M22.162 18.8272V18.5423H22.2101V18.8272H22.162ZM22.0433 18.7091V18.6604H22.3282V18.7091H22.0433ZM22.4035 18.8574L22.6011 18.4664V18.4628H22.3733V18.4153H22.6569V18.4658L22.4599 18.8574H22.4035ZM23.0361 18.6444V18.6919H22.8427V18.6444H23.0361ZM23.2402 18.8634C23.2078 18.8634 23.1801 18.8545 23.1572 18.8367C23.1342 18.8188 23.1167 18.7931 23.1046 18.7595C23.0926 18.7257 23.0865 18.6847 23.0865 18.6367C23.0865 18.5888 23.0926 18.548 23.1046 18.5141C23.1169 18.4801 23.1345 18.4542 23.1575 18.4364C23.1804 18.4184 23.208 18.4094 23.2402 18.4094C23.2725 18.4094 23.3001 18.4184 23.323 18.4364C23.346 18.4542 23.3635 18.4801 23.3755 18.5141C23.3878 18.548 23.3939 18.5888 23.3939 18.6367C23.3939 18.6847 23.3879 18.7257 23.3758 18.7595C23.3638 18.7931 23.3463 18.8188 23.3233 18.8367C23.3006 18.8545 23.2729 18.8634 23.2402 18.8634ZM23.2402 18.8165C23.2622 18.8165 23.2808 18.8095 23.296 18.7954C23.3113 18.7812 23.3228 18.7606 23.3307 18.7337C23.3388 18.7068 23.3429 18.6745 23.3429 18.6367C23.3429 18.5987 23.3388 18.5663 23.3307 18.5394C23.3228 18.5124 23.3113 18.4919 23.296 18.4776C23.2808 18.4634 23.2622 18.4563 23.2402 18.4563C23.2074 18.4563 23.1821 18.4721 23.1643 18.5037C23.1465 18.5354 23.1376 18.5797 23.1376 18.6367C23.1376 18.6745 23.1415 18.7068 23.1494 18.7337C23.1576 18.7606 23.1692 18.7812 23.1845 18.7954C23.1999 18.8095 23.2185 18.8165 23.2402 18.8165ZM23.5915 18.8634C23.5591 18.8634 23.5314 18.8545 23.5085 18.8367C23.4855 18.8188 23.468 18.7931 23.456 18.7595C23.4439 18.7257 23.4379 18.6847 23.4379 18.6367C23.4379 18.5888 23.4439 18.548 23.456 18.5141C23.4682 18.4801 23.4858 18.4542 23.5088 18.4364C23.5317 18.4184 23.5593 18.4094 23.5915 18.4094C23.6238 18.4094 23.6514 18.4184 23.6743 18.4364C23.6973 18.4542 23.7148 18.4801 23.7268 18.5141C23.7391 18.548 23.7452 18.5888 23.7452 18.6367C23.7452 18.6847 23.7392 18.7257 23.7271 18.7595C23.7151 18.7931 23.6976 18.8188 23.6746 18.8367C23.6519 18.8545 23.6242 18.8634 23.5915 18.8634ZM23.5915 18.8165C23.6135 18.8165 23.6321 18.8095 23.6473 18.7954C23.6626 18.7812 23.6741 18.7606 23.682 18.7337C23.6902 18.7068 23.6942 18.6745 23.6942 18.6367C23.6942 18.5987 23.6902 18.5663 23.682 18.5394C23.6741 18.5124 23.6626 18.4919 23.6473 18.4776C23.6321 18.4634 23.6135 18.4563 23.5915 18.4563C23.5587 18.4563 23.5334 18.4721 23.5156 18.5037C23.4978 18.5354 23.4889 18.5797 23.4889 18.6367C23.4889 18.6745 23.4928 18.7068 23.5008 18.7337C23.5089 18.7606 23.5205 18.7812 23.5358 18.7954C23.5512 18.8095 23.5698 18.8165 23.5915 18.8165ZM23.9428 18.8634C23.9104 18.8634 23.8827 18.8545 23.8598 18.8367C23.8368 18.8188 23.8193 18.7931 23.8073 18.7595C23.7952 18.7257 23.7892 18.6847 23.7892 18.6367C23.7892 18.5888 23.7952 18.548 23.8073 18.5141C23.8195 18.4801 23.8371 18.4542 23.8601 18.4364C23.883 18.4184 23.9106 18.4094 23.9428 18.4094C23.9751 18.4094 24.0027 18.4184 24.0256 18.4364C24.0486 18.4542 24.0661 18.4801 24.0781 18.5141C24.0904 18.548 24.0965 18.5888 24.0965 18.6367C24.0965 18.6847 24.0905 18.7257 24.0784 18.7595C24.0664 18.7931 24.0489 18.8188 24.0259 18.8367C24.0032 18.8545 23.9755 18.8634 23.9428 18.8634ZM23.9428 18.8165C23.9648 18.8165 23.9834 18.8095 23.9986 18.7954C24.0139 18.7812 24.0254 18.7606 24.0333 18.7337C24.0415 18.7068 24.0455 18.6745 24.0455 18.6367C24.0455 18.5987 24.0415 18.5663 24.0333 18.5394C24.0254 18.5124 24.0139 18.4919 23.9986 18.4776C23.9834 18.4634 23.9648 18.4563 23.9428 18.4563C23.91 18.4563 23.8847 18.4721 23.8669 18.5037C23.8491 18.5354 23.8402 18.5797 23.8402 18.6367C23.8402 18.6745 23.8441 18.7068 23.8521 18.7337C23.8602 18.7606 23.8718 18.7812 23.8871 18.7954C23.9025 18.8095 23.9211 18.8165 23.9428 18.8165ZM24.3404 18.6444V18.6919H24.147V18.6444H24.3404ZM24.5446 18.8634C24.5121 18.8634 24.4844 18.8545 24.4615 18.8367C24.4386 18.8188 24.421 18.7931 24.409 18.7595C24.3969 18.7257 24.3909 18.6847 24.3909 18.6367C24.3909 18.5888 24.3969 18.548 24.409 18.5141C24.4212 18.4801 24.4388 18.4542 24.4618 18.4364C24.4847 18.4184 24.5123 18.4094 24.5446 18.4094C24.5768 18.4094 24.6044 18.4184 24.6274 18.4364C24.6503 18.4542 24.6678 18.4801 24.6799 18.5141C24.6921 18.548 24.6983 18.5888 24.6983 18.6367C24.6983 18.6847 24.6922 18.7257 24.6802 18.7595C24.6681 18.7931 24.6506 18.8188 24.6277 18.8367C24.6049 18.8545 24.5772 18.8634 24.5446 18.8634ZM24.5446 18.8165C24.5665 18.8165 24.5851 18.8095 24.6004 18.7954C24.6156 18.7812 24.6272 18.7606 24.6351 18.7337C24.6432 18.7068 24.6472 18.6745 24.6472 18.6367C24.6472 18.5987 24.6432 18.5663 24.6351 18.5394C24.6272 18.5124 24.6156 18.4919 24.6004 18.4776C24.5851 18.4634 24.5665 18.4563 24.5446 18.4563C24.5117 18.4563 24.4864 18.4721 24.4686 18.5037C24.4508 18.5354 24.4419 18.5797 24.4419 18.6367C24.4419 18.6745 24.4459 18.7068 24.4538 18.7337C24.4619 18.7606 24.4736 18.7812 24.4888 18.7954C24.5042 18.8095 24.5228 18.8165 24.5446 18.8165ZM24.8959 18.8634C24.8634 18.8634 24.8357 18.8545 24.8128 18.8367C24.7899 18.8188 24.7723 18.7931 24.7603 18.7595C24.7482 18.7257 24.7422 18.6847 24.7422 18.6367C24.7422 18.5888 24.7482 18.548 24.7603 18.5141C24.7725 18.4801 24.7902 18.4542 24.8131 18.4364C24.836 18.4184 24.8636 18.4094 24.8959 18.4094C24.9281 18.4094 24.9557 18.4184 24.9787 18.4364C25.0016 18.4542 25.0191 18.4801 25.0312 18.5141C25.0434 18.548 25.0496 18.5888 25.0496 18.6367C25.0496 18.6847 25.0435 18.7257 25.0315 18.7595C25.0194 18.7931 25.0019 18.8188 24.979 18.8367C24.9562 18.8545 24.9285 18.8634 24.8959 18.8634ZM24.8959 18.8165C24.9178 18.8165 24.9364 18.8095 24.9517 18.7954C24.9669 18.7812 24.9785 18.7606 24.9864 18.7337C24.9945 18.7068 24.9985 18.6745 24.9985 18.6367C24.9985 18.5987 24.9945 18.5663 24.9864 18.5394C24.9785 18.5124 24.9669 18.4919 24.9517 18.4776C24.9364 18.4634 24.9178 18.4563 24.8959 18.4563C24.863 18.4563 24.8377 18.4721 24.8199 18.5037C24.8021 18.5354 24.7932 18.5797 24.7932 18.6367C24.7932 18.6745 24.7972 18.7068 24.8051 18.7337C24.8132 18.7606 24.8249 18.7812 24.8401 18.7954C24.8555 18.8095 24.8741 18.8165 24.8959 18.8165ZM25.2472 18.8634C25.2147 18.8634 25.187 18.8545 25.1641 18.8367C25.1412 18.8188 25.1237 18.7931 25.1116 18.7595C25.0995 18.7257 25.0935 18.6847 25.0935 18.6367C25.0935 18.5888 25.0995 18.548 25.1116 18.5141C25.1238 18.4801 25.1415 18.4542 25.1644 18.4364C25.1873 18.4184 25.2149 18.4094 25.2472 18.4094C25.2794 18.4094 25.307 18.4184 25.33 18.4364C25.3529 18.4542 25.3704 18.4801 25.3825 18.5141C25.3947 18.548 25.4009 18.5888 25.4009 18.6367C25.4009 18.6847 25.3948 18.7257 25.3828 18.7595C25.3707 18.7931 25.3532 18.8188 25.3303 18.8367C25.3075 18.8545 25.2798 18.8634 25.2472 18.8634ZM25.2472 18.8165C25.2691 18.8165 25.2877 18.8095 25.303 18.7954C25.3182 18.7812 25.3298 18.7606 25.3377 18.7337C25.3458 18.7068 25.3498 18.6745 25.3498 18.6367C25.3498 18.5987 25.3458 18.5663 25.3377 18.5394C25.3298 18.5124 25.3182 18.4919 25.303 18.4776C25.2877 18.4634 25.2691 18.4563 25.2472 18.4563C25.2143 18.4563 25.189 18.4721 25.1712 18.5037C25.1534 18.5354 25.1445 18.5797 25.1445 18.6367C25.1445 18.6745 25.1485 18.7068 25.1564 18.7337C25.1645 18.7606 25.1762 18.7812 25.1914 18.7954C25.2068 18.8095 25.2254 18.8165 25.2472 18.8165ZM25.6448 18.6444V18.6919H25.4513V18.6444H25.6448ZM25.8489 18.8634C25.8165 18.8634 25.7888 18.8545 25.7658 18.8367C25.7429 18.8188 25.7254 18.7931 25.7133 18.7595C25.7012 18.7257 25.6952 18.6847 25.6952 18.6367C25.6952 18.5888 25.7012 18.548 25.7133 18.5141C25.7256 18.4801 25.7432 18.4542 25.7661 18.4364C25.7891 18.4184 25.8167 18.4094 25.8489 18.4094C25.8811 18.4094 25.9087 18.4184 25.9317 18.4364C25.9546 18.4542 25.9721 18.4801 25.9842 18.5141C25.9965 18.548 26.0026 18.5888 26.0026 18.6367C26.0026 18.6847 25.9966 18.7257 25.9845 18.7595C25.9724 18.7931 25.9549 18.8188 25.932 18.8367C25.9092 18.8545 25.8815 18.8634 25.8489 18.8634ZM25.8489 18.8165C25.8709 18.8165 25.8895 18.8095 25.9047 18.7954C25.9199 18.7812 25.9315 18.7606 25.9394 18.7337C25.9475 18.7068 25.9516 18.6745 25.9516 18.6367C25.9516 18.5987 25.9475 18.5663 25.9394 18.5394C25.9315 18.5124 25.9199 18.4919 25.9047 18.4776C25.8895 18.4634 25.8709 18.4563 25.8489 18.4563C25.8161 18.4563 25.7908 18.4721 25.7729 18.5037C25.7551 18.5354 25.7462 18.5797 25.7462 18.6367C25.7462 18.6745 25.7502 18.7068 25.7581 18.7337C25.7662 18.7606 25.7779 18.7812 25.7931 18.7954C25.8086 18.8095 25.8271 18.8165 25.8489 18.8165ZM26.2002 18.8634C26.1678 18.8634 26.1401 18.8545 26.1171 18.8367C26.0942 18.8188 26.0767 18.7931 26.0646 18.7595C26.0525 18.7257 26.0465 18.6847 26.0465 18.6367C26.0465 18.5888 26.0525 18.548 26.0646 18.5141C26.0769 18.4801 26.0945 18.4542 26.1174 18.4364C26.1404 18.4184 26.168 18.4094 26.2002 18.4094C26.2325 18.4094 26.26 18.4184 26.283 18.4364C26.3059 18.4542 26.3234 18.4801 26.3355 18.5141C26.3478 18.548 26.3539 18.5888 26.3539 18.6367C26.3539 18.6847 26.3479 18.7257 26.3358 18.7595C26.3237 18.7931 26.3062 18.8188 26.2833 18.8367C26.2605 18.8545 26.2328 18.8634 26.2002 18.8634ZM26.2002 18.8165C26.2222 18.8165 26.2408 18.8095 26.256 18.7954C26.2712 18.7812 26.2828 18.7606 26.2907 18.7337C26.2988 18.7068 26.3029 18.6745 26.3029 18.6367C26.3029 18.5987 26.2988 18.5663 26.2907 18.5394C26.2828 18.5124 26.2712 18.4919 26.256 18.4776C26.2408 18.4634 26.2222 18.4563 26.2002 18.4563C26.1674 18.4563 26.1421 18.4721 26.1243 18.5037C26.1064 18.5354 26.0975 18.5797 26.0975 18.6367C26.0975 18.6745 26.1015 18.7068 26.1094 18.7337C26.1175 18.7606 26.1292 18.7812 26.1444 18.7954C26.1599 18.8095 26.1785 18.8165 26.2002 18.8165ZM26.5978 18.6444V18.6919H26.4043V18.6444H26.5978ZM26.8019 18.8634C26.7695 18.8634 26.7418 18.8545 26.7189 18.8367C26.6959 18.8188 26.6784 18.7931 26.6663 18.7595C26.6543 18.7257 26.6482 18.6847 26.6482 18.6367C26.6482 18.5888 26.6543 18.548 26.6663 18.5141C26.6786 18.4801 26.6962 18.4542 26.7192 18.4364C26.7421 18.4184 26.7697 18.4094 26.8019 18.4094C26.8342 18.4094 26.8618 18.4184 26.8847 18.4364C26.9077 18.4542 26.9252 18.4801 26.9372 18.5141C26.9495 18.548 26.9556 18.5888 26.9556 18.6367C26.9556 18.6847 26.9496 18.7257 26.9375 18.7595C26.9255 18.7931 26.908 18.8188 26.885 18.8367C26.8623 18.8545 26.8346 18.8634 26.8019 18.8634ZM26.8019 18.8165C26.8239 18.8165 26.8425 18.8095 26.8577 18.7954C26.8729 18.7812 26.8845 18.7606 26.8924 18.7337C26.9005 18.7068 26.9046 18.6745 26.9046 18.6367C26.9046 18.5987 26.9005 18.5663 26.8924 18.5394C26.8845 18.5124 26.8729 18.4919 26.8577 18.4776C26.8425 18.4634 26.8239 18.4563 26.8019 18.4563C26.7691 18.4563 26.7438 18.4721 26.726 18.5037C26.7082 18.5354 26.6993 18.5797 26.6993 18.6367C26.6993 18.6745 26.7032 18.7068 26.7111 18.7337C26.7193 18.7606 26.7309 18.7812 26.7462 18.7954C26.7616 18.8095 26.7802 18.8165 26.8019 18.8165ZM27.1532 18.8634C27.1208 18.8634 27.0931 18.8545 27.0702 18.8367C27.0472 18.8188 27.0297 18.7931 27.0176 18.7595C27.0056 18.7257 26.9995 18.6847 26.9995 18.6367C26.9995 18.5888 27.0056 18.548 27.0176 18.5141C27.0299 18.4801 27.0475 18.4542 27.0705 18.4364C27.0934 18.4184 27.121 18.4094 27.1532 18.4094C27.1855 18.4094 27.2131 18.4184 27.236 18.4364C27.259 18.4542 27.2765 18.4801 27.2885 18.5141C27.3008 18.548 27.3069 18.5888 27.3069 18.6367C27.3069 18.6847 27.3009 18.7257 27.2888 18.7595C27.2768 18.7931 27.2593 18.8188 27.2363 18.8367C27.2136 18.8545 27.1859 18.8634 27.1532 18.8634ZM27.1532 18.8165C27.1752 18.8165 27.1938 18.8095 27.209 18.7954C27.2243 18.7812 27.2358 18.7606 27.2437 18.7337C27.2518 18.7068 27.2559 18.6745 27.2559 18.6367C27.2559 18.5987 27.2518 18.5663 27.2437 18.5394C27.2358 18.5124 27.2243 18.4919 27.209 18.4776C27.1938 18.4634 27.1752 18.4563 27.1532 18.4563C27.1204 18.4563 27.0951 18.4721 27.0773 18.5037C27.0595 18.5354 27.0506 18.5797 27.0506 18.6367C27.0506 18.6745 27.0545 18.7068 27.0624 18.7337C27.0706 18.7606 27.0822 18.7812 27.0975 18.7954C27.1129 18.8095 27.1315 18.8165 27.1532 18.8165Z" fill="#6A8496"/>
<path d="M22.2175 20.0352C22.1799 20.0352 22.1464 20.026 22.1169 20.0076C22.0874 19.9892 22.0642 19.9631 22.0472 19.9293C22.0304 19.8953 22.022 19.855 22.022 19.8085C22.022 19.7619 22.0304 19.7215 22.0472 19.6875C22.0642 19.6535 22.0874 19.6273 22.1169 19.6089C22.1464 19.5905 22.1799 19.5813 22.2175 19.5813C22.2553 19.5813 22.2888 19.5905 22.3181 19.6089C22.3473 19.6273 22.3704 19.6535 22.3872 19.6875C22.404 19.7215 22.4124 19.7619 22.4124 19.8085C22.4124 19.855 22.404 19.8953 22.3872 19.9293C22.3704 19.9631 22.3473 19.9892 22.3181 20.0076C22.2888 20.026 22.2553 20.0352 22.2175 20.0352ZM22.2175 19.9854C22.2442 19.9854 22.2683 19.9787 22.2899 19.9652C22.3116 19.9516 22.3289 19.9316 22.3415 19.9053C22.3544 19.879 22.3608 19.8467 22.3608 19.8085C22.3608 19.7702 22.3544 19.7378 22.3415 19.7115C22.3289 19.685 22.3116 19.665 22.2899 19.6516C22.2683 19.6379 22.2442 19.6311 22.2175 19.6311C22.1908 19.6311 22.1666 19.6379 22.1448 19.6516C22.123 19.665 22.1057 19.685 22.0929 19.7115C22.08 19.7378 22.0736 19.7702 22.0736 19.8085C22.0736 19.8467 22.08 19.879 22.0929 19.9053C22.1057 19.9316 22.123 19.9516 22.1448 19.9652C22.1666 19.9787 22.1908 19.9854 22.2175 19.9854ZM22.6519 20.0352C22.6143 20.0352 22.5808 20.026 22.5513 20.0076C22.5218 19.9892 22.4986 19.9631 22.4816 19.9293C22.4647 19.8953 22.4563 19.855 22.4563 19.8085C22.4563 19.7619 22.4647 19.7215 22.4816 19.6875C22.4986 19.6535 22.5218 19.6273 22.5513 19.6089C22.5808 19.5905 22.6143 19.5813 22.6519 19.5813C22.6897 19.5813 22.7232 19.5905 22.7525 19.6089C22.7817 19.6273 22.8048 19.6535 22.8216 19.6875C22.8384 19.7215 22.8468 19.7619 22.8468 19.8085C22.8468 19.855 22.8384 19.8953 22.8216 19.9293C22.8048 19.9631 22.7817 19.9892 22.7525 20.0076C22.7232 20.026 22.6897 20.0352 22.6519 20.0352ZM22.6519 19.9854C22.6786 19.9854 22.7027 19.9787 22.7243 19.9652C22.746 19.9516 22.7632 19.9316 22.7759 19.9053C22.7888 19.879 22.7952 19.8467 22.7952 19.8085C22.7952 19.7702 22.7888 19.7378 22.7759 19.7115C22.7632 19.685 22.746 19.665 22.7243 19.6516C22.7027 19.6379 22.6786 19.6311 22.6519 19.6311C22.6252 19.6311 22.6009 19.6379 22.5792 19.6516C22.5574 19.665 22.5401 19.685 22.5273 19.7115C22.5144 19.7378 22.508 19.7702 22.508 19.8085C22.508 19.8467 22.5144 19.879 22.5273 19.9053C22.5401 19.9316 22.5574 19.9516 22.5792 19.9652C22.6009 19.9787 22.6252 19.9854 22.6519 19.9854ZM23.0863 20.0352C23.0487 20.0352 23.0151 20.026 22.9857 20.0076C22.9562 19.9892 22.933 19.9631 22.9159 19.9293C22.8991 19.8953 22.8907 19.855 22.8907 19.8085C22.8907 19.7619 22.8991 19.7215 22.9159 19.6875C22.933 19.6535 22.9562 19.6273 22.9857 19.6089C23.0151 19.5905 23.0487 19.5813 23.0863 19.5813C23.124 19.5813 23.1576 19.5905 23.1868 19.6089C23.2161 19.6273 23.2392 19.6535 23.256 19.6875C23.2728 19.7215 23.2812 19.7619 23.2812 19.8085C23.2812 19.855 23.2728 19.8953 23.256 19.9293C23.2392 19.9631 23.2161 19.9892 23.1868 20.0076C23.1576 20.026 23.124 20.0352 23.0863 20.0352ZM23.0863 19.9854C23.113 19.9854 23.1371 19.9787 23.1586 19.9652C23.1804 19.9516 23.1976 19.9316 23.2103 19.9053C23.2231 19.879 23.2296 19.8467 23.2296 19.8085C23.2296 19.7702 23.2231 19.7378 23.2103 19.7115C23.1976 19.685 23.1804 19.665 23.1586 19.6516C23.1371 19.6379 23.113 19.6311 23.0863 19.6311C23.0595 19.6311 23.0353 19.6379 23.0136 19.6516C22.9918 19.665 22.9745 19.685 22.9616 19.7115C22.9488 19.7378 22.9423 19.7702 22.9423 19.8085C22.9423 19.8467 22.9488 19.879 22.9616 19.9053C22.9745 19.9316 22.9918 19.9516 23.0136 19.9652C23.0353 19.9787 23.0595 19.9854 23.0863 19.9854ZM23.604 19.9818H23.5589L23.4717 19.8525V19.8483H23.5209L23.604 19.9818ZM23.604 19.7166L23.5209 19.8507H23.4717V19.8465L23.5589 19.7166H23.604ZM23.7313 19.9818H23.6862L23.599 19.8525V19.8483H23.6482L23.7313 19.9818ZM23.7313 19.7166L23.6482 19.8507H23.599V19.8465L23.6862 19.7166H23.7313ZM23.8016 20.0293V19.5872H23.855V19.7842H24.0906V19.5872H24.144V20.0293H24.0906V19.8317H23.855V20.0293H23.8016ZM24.3131 20.037C24.2922 20.037 24.2731 20.0331 24.2559 20.0251C24.2387 20.017 24.225 20.0054 24.2149 19.9901C24.2048 19.9749 24.1998 19.9565 24.1998 19.9349C24.1998 19.916 24.2036 19.9006 24.2111 19.889C24.2186 19.8771 24.2286 19.8678 24.241 19.8611C24.2537 19.8541 24.2675 19.849 24.2826 19.8456C24.2978 19.8423 24.3131 19.8396 24.3286 19.8376C24.3487 19.8351 24.3651 19.8331 24.3775 19.8317C24.3902 19.8303 24.3994 19.8279 24.4051 19.8246C24.4111 19.8212 24.414 19.8155 24.414 19.8074V19.8056C24.414 19.7844 24.4082 19.768 24.3965 19.7563C24.385 19.7445 24.3675 19.7385 24.344 19.7385C24.3199 19.7385 24.3009 19.7439 24.287 19.7545C24.2732 19.765 24.2635 19.7763 24.258 19.7884L24.2093 19.7712C24.218 19.751 24.2296 19.7353 24.244 19.724C24.2586 19.7127 24.2745 19.7048 24.2915 19.7002C24.3087 19.6957 24.3256 19.6934 24.3422 19.6934C24.3529 19.6934 24.3652 19.6947 24.379 19.6973C24.3929 19.6997 24.4063 19.7048 24.4194 19.7127C24.4326 19.7204 24.4435 19.7322 24.452 19.748C24.4607 19.7636 24.4651 19.7846 24.4651 19.8109V20.0293H24.414V19.9842H24.4116C24.4083 19.9913 24.4026 19.999 24.3944 20.0073C24.3863 20.0155 24.3755 20.0225 24.3621 20.0284C24.3488 20.0341 24.3325 20.037 24.3131 20.037ZM24.3209 19.9913C24.341 19.9913 24.358 19.9874 24.3719 19.9794C24.3857 19.9715 24.3962 19.9614 24.4033 19.9489C24.4105 19.9362 24.414 19.9231 24.414 19.9094V19.8625C24.4118 19.8651 24.4071 19.8675 24.3998 19.8697C24.3927 19.8716 24.3844 19.8734 24.3749 19.875C24.3656 19.8766 24.3565 19.878 24.3476 19.8792C24.3387 19.8802 24.3315 19.8809 24.3262 19.8815C24.3129 19.8833 24.3006 19.8862 24.2891 19.8901C24.2776 19.8939 24.2683 19.8995 24.2612 19.9071C24.2543 19.9146 24.2508 19.9249 24.2508 19.9379C24.2508 19.9555 24.2574 19.9689 24.2704 19.978C24.2837 19.9869 24.3005 19.9913 24.3209 19.9913ZM24.5238 19.9444H24.5778C24.5792 19.9595 24.5861 19.9709 24.5986 19.9789C24.611 19.9866 24.6273 19.9905 24.6472 19.9907C24.6676 19.9905 24.685 19.9863 24.6995 19.978C24.7139 19.9695 24.7212 19.9557 24.7214 19.9367C24.7214 19.9256 24.7186 19.9161 24.7131 19.9079C24.7076 19.8996 24.6999 19.8932 24.69 19.8887C24.6801 19.8839 24.6684 19.8815 24.655 19.8815H24.598V19.8358H24.655C24.6751 19.8358 24.6901 19.8313 24.6998 19.8222C24.7094 19.8131 24.7143 19.8016 24.7143 19.7878C24.7143 19.7729 24.7091 19.7611 24.6986 19.7522C24.6881 19.7431 24.6731 19.7385 24.6538 19.7385C24.6346 19.7385 24.6185 19.7429 24.6054 19.7516C24.5925 19.7601 24.5857 19.7712 24.5849 19.7848H24.5315C24.5321 19.767 24.5376 19.7513 24.5478 19.7376C24.5581 19.7238 24.5722 19.713 24.59 19.7053C24.608 19.6974 24.6284 19.6934 24.6514 19.6934C24.6747 19.6934 24.6949 19.6975 24.7119 19.7056C24.7291 19.7137 24.7425 19.7248 24.752 19.7388C24.7615 19.7527 24.7661 19.7684 24.7659 19.786C24.7661 19.8046 24.7609 19.8197 24.7502 19.8314C24.7397 19.8429 24.7266 19.8511 24.7107 19.856V19.859C24.7232 19.86 24.7341 19.864 24.7434 19.8712C24.7529 19.8783 24.7602 19.8876 24.7653 19.899C24.7705 19.9103 24.773 19.9229 24.773 19.9367C24.773 19.9569 24.7676 19.9745 24.7567 19.9895C24.746 20.0044 24.7313 20.0158 24.7125 20.024C24.6937 20.0321 24.6722 20.0362 24.6478 20.0364C24.6243 20.0362 24.6032 20.0323 24.5846 20.0245C24.5662 20.0168 24.5516 20.0062 24.5407 19.9925C24.53 19.9787 24.5244 19.9626 24.5238 19.9444ZM24.8021 20.0293V19.6976H24.9374C24.973 19.6978 25.0013 19.706 25.0223 19.7222C25.0434 19.7382 25.0539 19.7595 25.0537 19.786C25.0539 19.8062 25.048 19.8217 25.0359 19.8326C25.0241 19.8435 25.0088 19.8509 24.9902 19.8548C25.0023 19.8566 25.0141 19.861 25.0255 19.8679C25.0372 19.8748 25.0469 19.8843 25.0546 19.8964C25.0623 19.9082 25.0662 19.9229 25.0662 19.9403C25.0662 19.9573 25.0618 19.9725 25.0531 19.986C25.0444 19.9994 25.0321 20.01 25.016 20.0177C25 20.0254 24.9807 20.0293 24.9582 20.0293H24.8021ZM24.8502 19.9824H24.9582C24.9756 19.9826 24.9892 19.9786 24.9991 19.9703C25.0092 19.9619 25.0142 19.9506 25.014 19.9361C25.0142 19.9189 25.0092 19.9055 24.9991 19.8958C24.9892 19.8859 24.9756 19.8809 24.9582 19.8809H24.8502V19.9824ZM24.8502 19.837H24.9374C24.9578 19.8368 24.9738 19.8326 24.9855 19.8243C24.9972 19.8158 25.0029 19.8042 25.0027 19.7896C25.0029 19.7755 24.9972 19.7645 24.9855 19.7566C24.9738 19.7485 24.9578 19.7445 24.9374 19.7445H24.8502V19.837ZM25.2122 20.037C25.1912 20.037 25.1721 20.0331 25.1549 20.0251C25.1377 20.017 25.124 20.0054 25.114 19.9901C25.1039 19.9749 25.0988 19.9565 25.0988 19.9349C25.0988 19.916 25.1026 19.9006 25.1101 19.889C25.1176 19.8771 25.1276 19.8678 25.1401 19.8611C25.1527 19.8541 25.1666 19.849 25.1816 19.8456C25.1968 19.8423 25.2122 19.8396 25.2276 19.8376C25.2478 19.8351 25.2641 19.8331 25.2766 19.8317C25.2892 19.8303 25.2984 19.8279 25.3041 19.8246C25.3101 19.8212 25.3131 19.8155 25.3131 19.8074V19.8056C25.3131 19.7844 25.3072 19.768 25.2955 19.7563C25.2841 19.7445 25.2666 19.7385 25.243 19.7385C25.2189 19.7385 25.1999 19.7439 25.1861 19.7545C25.1722 19.765 25.1625 19.7763 25.157 19.7884L25.1083 19.7712C25.117 19.751 25.1286 19.7353 25.143 19.724C25.1577 19.7127 25.1735 19.7048 25.1905 19.7002C25.2077 19.6957 25.2246 19.6934 25.2412 19.6934C25.2519 19.6934 25.2642 19.6947 25.278 19.6973C25.2919 19.6997 25.3053 19.7048 25.3184 19.7127C25.3316 19.7204 25.3425 19.7322 25.351 19.748C25.3597 19.7636 25.3641 19.7846 25.3641 19.8109V20.0293H25.3131V19.9842H25.3107C25.3073 19.9913 25.3016 19.999 25.2935 20.0073C25.2854 20.0155 25.2746 20.0225 25.2611 20.0284C25.2479 20.0341 25.2316 20.037 25.2122 20.037ZM25.2199 19.9913C25.2401 19.9913 25.2571 19.9874 25.2709 19.9794C25.2848 19.9715 25.2952 19.9614 25.3024 19.9489C25.3095 19.9362 25.3131 19.9231 25.3131 19.9094V19.8625C25.3109 19.8651 25.3061 19.8675 25.2988 19.8697C25.2917 19.8716 25.2834 19.8734 25.2739 19.875C25.2646 19.8766 25.2555 19.878 25.2466 19.8792C25.2377 19.8802 25.2306 19.8809 25.2252 19.8815C25.212 19.8833 25.1996 19.8862 25.1881 19.8901C25.1767 19.8939 25.1674 19.8995 25.1602 19.9071C25.1533 19.9146 25.1499 19.9249 25.1499 19.9379C25.1499 19.9555 25.1564 19.9689 25.1694 19.978C25.1827 19.9869 25.1995 19.9913 25.2199 19.9913ZM25.6507 19.84V19.8875H25.4679V19.84H25.6507ZM25.4798 19.6976V20.0293H25.4294V19.6976H25.4798ZM25.6899 19.6976V20.0293H25.6388V19.6976H25.6899ZM25.8056 19.9539L25.9652 19.6976H26.024V20.0293H25.9735V19.7729L25.8145 20.0293H25.7551V19.6976H25.8056V19.9539ZM26.2281 20.0364C26.1963 20.0364 26.1687 20.0293 26.1453 20.0151C26.1222 20.0008 26.1044 19.9809 26.0919 19.9554C26.0794 19.9297 26.0732 19.8999 26.0732 19.8661C26.0732 19.8321 26.0794 19.8021 26.0916 19.7762C26.1039 19.7503 26.1211 19.73 26.1432 19.7154C26.1656 19.7007 26.1917 19.6934 26.2216 19.6934C26.2388 19.6934 26.2559 19.6963 26.2729 19.702C26.2899 19.7078 26.3053 19.7171 26.3192 19.7299C26.3332 19.7428 26.3444 19.7598 26.3527 19.781C26.361 19.8021 26.3652 19.8281 26.3652 19.859V19.8809H26.1094V19.837H26.3376L26.3141 19.8536C26.3141 19.8315 26.3107 19.8118 26.3038 19.7946C26.2968 19.7774 26.2865 19.7638 26.2726 19.754C26.259 19.7441 26.2419 19.7391 26.2216 19.7391C26.2012 19.7391 26.1837 19.7442 26.1691 19.7542C26.1546 19.7641 26.1435 19.7771 26.1358 19.7931C26.1281 19.8091 26.1243 19.8263 26.1243 19.8447V19.8738C26.1243 19.8989 26.1286 19.9202 26.1373 19.9376C26.146 19.955 26.1582 19.9683 26.1738 19.9774C26.1894 19.9863 26.2075 19.9907 26.2281 19.9907C26.2414 19.9907 26.2534 19.9888 26.2643 19.9851C26.2752 19.9811 26.2846 19.9753 26.2925 19.9676C26.3004 19.9597 26.3064 19.95 26.3106 19.9385L26.3598 19.9527C26.3547 19.9694 26.346 19.984 26.3337 19.9967C26.3217 20.0091 26.3066 20.0189 26.2886 20.026C26.2706 20.033 26.2505 20.0364 26.2281 20.0364ZM26.5557 20.0293V19.6976H26.6061V19.8418H26.6399L26.7592 19.6976H26.8245L26.691 19.8578L26.8263 20.0293H26.761L26.6518 19.8893H26.6061V20.0293H26.5557ZM26.9734 20.0364C26.9436 20.0364 26.9174 20.0293 26.8948 20.0151C26.8723 20.0008 26.8547 19.9808 26.842 19.9551C26.8295 19.9294 26.8233 19.8995 26.8233 19.8655C26.8233 19.8309 26.8295 19.8007 26.842 19.775C26.8547 19.7491 26.8723 19.729 26.8948 19.7148C26.9174 19.7005 26.9436 19.6934 26.9734 19.6934C27.0035 19.6934 27.0298 19.7005 27.0524 19.7148C27.0749 19.729 27.0925 19.7491 27.1052 19.775C27.1178 19.8007 27.1242 19.8309 27.1242 19.8655C27.1242 19.8995 27.1178 19.9294 27.1052 19.9551C27.0925 19.9808 27.0749 20.0008 27.0524 20.0151C27.0298 20.0293 27.0035 20.0364 26.9734 20.0364ZM26.9734 19.9907C26.9964 19.9907 27.0152 19.9849 27.0298 19.9732C27.0444 19.9615 27.0553 19.9462 27.0624 19.9272C27.0696 19.908 27.0731 19.8875 27.0731 19.8655C27.0731 19.8432 27.0696 19.8224 27.0624 19.8032C27.0553 19.784 27.0444 19.7686 27.0298 19.7569C27.0152 19.745 26.9964 19.7391 26.9734 19.7391C26.9509 19.7391 26.9323 19.745 26.9177 19.7569C26.903 19.7686 26.8921 19.784 26.885 19.8032C26.8779 19.8224 26.8743 19.8432 26.8743 19.8655C26.8743 19.8875 26.8779 19.908 26.885 19.9272C26.8921 19.9462 26.903 19.9615 26.9177 19.9732C26.9323 19.9849 26.9509 19.9907 26.9734 19.9907ZM27.3544 19.9605L27.4701 19.6976H27.5182L27.3752 20.0293H27.3336L27.193 19.6976H27.2405L27.3544 19.9605ZM27.2239 19.6976V20.0293H27.1734V19.6976H27.2239ZM27.485 20.0293V19.6976H27.5354V20.0293H27.485ZM27.6007 20.0293V19.6976H27.8612V20.0293H27.8102V19.745H27.6511V20.0293H27.6007ZM28.0238 20.037C28.0028 20.037 27.9837 20.0331 27.9665 20.0251C27.9493 20.017 27.9357 20.0054 27.9256 19.9901C27.9155 19.9749 27.9104 19.9565 27.9104 19.9349C27.9104 19.916 27.9142 19.9006 27.9217 19.889C27.9292 19.8771 27.9392 19.8678 27.9517 19.8611C27.9643 19.8541 27.9782 19.849 27.9932 19.8456C28.0085 19.8423 28.0238 19.8396 28.0392 19.8376C28.0594 19.8351 28.0757 19.8331 28.0882 19.8317C28.1008 19.8303 28.11 19.8279 28.1158 19.8246C28.1217 19.8212 28.1247 19.8155 28.1247 19.8074V19.8056C28.1247 19.7844 28.1188 19.768 28.1072 19.7563C28.0957 19.7445 28.0782 19.7385 28.0546 19.7385C28.0305 19.7385 28.0115 19.7439 27.9977 19.7545C27.9838 19.765 27.9741 19.7763 27.9686 19.7884L27.9199 19.7712C27.9286 19.751 27.9402 19.7353 27.9546 19.724C27.9693 19.7127 27.9851 19.7048 28.0021 19.7002C28.0193 19.6957 28.0362 19.6934 28.0529 19.6934C28.0635 19.6934 28.0758 19.6947 28.0897 19.6973C28.1035 19.6997 28.1169 19.7048 28.13 19.7127C28.1433 19.7204 28.1541 19.7322 28.1626 19.748C28.1713 19.7636 28.1757 19.7846 28.1757 19.8109V20.0293H28.1247V19.9842H28.1223C28.1189 19.9913 28.1132 19.999 28.1051 20.0073C28.097 20.0155 28.0862 20.0225 28.0727 20.0284C28.0595 20.0341 28.0432 20.037 28.0238 20.037ZM28.0315 19.9913C28.0517 19.9913 28.0687 19.9874 28.0825 19.9794C28.0964 19.9715 28.1069 19.9614 28.114 19.9489C28.1211 19.9362 28.1247 19.9231 28.1247 19.9094V19.8625C28.1225 19.8651 28.1177 19.8675 28.1104 19.8697C28.1033 19.8716 28.095 19.8734 28.0855 19.875C28.0762 19.8766 28.0671 19.878 28.0582 19.8792C28.0493 19.8802 28.0422 19.8809 28.0368 19.8815C28.0236 19.8833 28.0112 19.8862 27.9997 19.8901C27.9883 19.8939 27.979 19.8995 27.9719 19.9071C27.9649 19.9146 27.9615 19.9249 27.9615 19.9379C27.9615 19.9555 27.968 19.9689 27.9811 19.978C27.9943 19.9869 28.0111 19.9913 28.0315 19.9913ZM28.4623 19.84V19.8875H28.2795V19.84H28.4623ZM28.2914 19.6976V20.0293H28.241V19.6976H28.2914ZM28.5015 19.6976V20.0293H28.4504V19.6976H28.5015ZM28.6172 19.9539L28.7768 19.6976H28.8356V20.0293H28.7851V19.7729L28.6261 20.0293H28.5668V19.6976H28.6172V19.9539ZM28.9513 19.9539L29.1109 19.6976H29.1697V20.0293H29.1192V19.7729L28.9602 20.0293H28.9009V19.6976H28.9513V19.9539ZM29.2284 19.9818L29.3115 19.8483H29.3608V19.8525L29.2735 19.9818H29.2284ZM29.2284 19.7166H29.2735L29.3608 19.8465V19.8507H29.3115L29.2284 19.7166ZM29.356 19.9818L29.4391 19.8483H29.4883V19.8525L29.4011 19.9818H29.356ZM29.356 19.7166H29.4011L29.4883 19.8465V19.8507H29.4391L29.356 19.7166Z" fill="#6A8496"/>
<path d="M22.0014 9.77735V9.60102H22.0339C22.0452 9.59085 22.0558 9.57649 22.0658 9.55795C22.0757 9.53919 22.0842 9.5141 22.0912 9.48267C22.0982 9.45125 22.1029 9.41135 22.1051 9.36297L22.116 9.15002H22.4157V9.60102H22.4741V9.77667H22.4157V9.65527H22.0597V9.77735H22.0014ZM22.1072 9.60102H22.3574V9.20428H22.1709L22.1634 9.36297C22.1614 9.39982 22.1579 9.43328 22.1529 9.46335C22.148 9.49319 22.1416 9.51952 22.1339 9.54235C22.1263 9.56519 22.1173 9.58474 22.1072 9.60102ZM22.6755 9.66341C22.6413 9.66341 22.6114 9.65527 22.5856 9.639C22.5598 9.62272 22.5397 9.59989 22.5253 9.5705C22.511 9.54111 22.5039 9.50698 22.5039 9.46809C22.5039 9.42853 22.511 9.39406 22.5253 9.36467C22.5397 9.33505 22.5598 9.31211 22.5856 9.29583C22.6114 9.27956 22.6413 9.27142 22.6755 9.27142C22.7098 9.27142 22.7399 9.27956 22.7657 9.29583C22.7914 9.31211 22.8116 9.33505 22.826 9.36467C22.8405 9.39406 22.8477 9.42853 22.8477 9.46809C22.8477 9.50698 22.8405 9.54111 22.826 9.5705C22.8116 9.59989 22.7914 9.62272 22.7657 9.639C22.7399 9.65527 22.7098 9.66341 22.6755 9.66341ZM22.6755 9.61119C22.7017 9.61119 22.7232 9.60452 22.7399 9.59118C22.7566 9.57785 22.7691 9.56033 22.7772 9.53862C22.7853 9.5167 22.7894 9.49319 22.7894 9.46809C22.7894 9.44255 22.7853 9.41881 22.7772 9.39688C22.7691 9.37495 22.7566 9.35732 22.7399 9.34398C22.7232 9.33042 22.7017 9.32364 22.6755 9.32364C22.6497 9.32364 22.6285 9.33042 22.6117 9.34398C22.595 9.35732 22.5826 9.37495 22.5744 9.39688C22.5663 9.41881 22.5622 9.44255 22.5622 9.46809C22.5622 9.49319 22.5663 9.5167 22.5744 9.53862C22.5826 9.56033 22.595 9.57785 22.6117 9.59118C22.6285 9.60452 22.6497 9.61119 22.6755 9.61119ZM22.904 9.65527V9.27616H23.2018V9.65527H23.1434V9.33042H22.9617V9.65527H22.904ZM23.4296 9.66341C23.3955 9.66341 23.3655 9.65527 23.3398 9.639C23.314 9.62272 23.2939 9.59989 23.2794 9.5705C23.2652 9.54111 23.258 9.50698 23.258 9.46809C23.258 9.42853 23.2652 9.39406 23.2794 9.36467C23.2939 9.33505 23.314 9.31211 23.3398 9.29583C23.3655 9.27956 23.3955 9.27142 23.4296 9.27142C23.464 9.27142 23.4941 9.27956 23.5198 9.29583C23.5456 9.31211 23.5657 9.33505 23.5802 9.36467C23.5947 9.39406 23.6019 9.42853 23.6019 9.46809C23.6019 9.50698 23.5947 9.54111 23.5802 9.5705C23.5657 9.59989 23.5456 9.62272 23.5198 9.639C23.4941 9.65527 23.464 9.66341 23.4296 9.66341ZM23.4296 9.61119C23.4559 9.61119 23.4773 9.60452 23.4941 9.59118C23.5108 9.57785 23.5232 9.56033 23.5314 9.53862C23.5395 9.5167 23.5436 9.49319 23.5436 9.46809C23.5436 9.44255 23.5395 9.41881 23.5314 9.39688C23.5232 9.37495 23.5108 9.35732 23.4941 9.34398C23.4773 9.33042 23.4559 9.32364 23.4296 9.32364C23.4039 9.32364 23.3826 9.33042 23.3659 9.34398C23.3491 9.35732 23.3367 9.37495 23.3286 9.39688C23.3204 9.41881 23.3164 9.44255 23.3164 9.46809C23.3164 9.49319 23.3204 9.5167 23.3286 9.53862C23.3367 9.56033 23.3491 9.57785 23.3659 9.59118C23.3826 9.60452 23.4039 9.61119 23.4296 9.61119ZM23.6243 9.65527V9.60102H23.6378C23.6532 9.60102 23.6652 9.59684 23.6738 9.58847C23.6824 9.57988 23.6887 9.56428 23.6928 9.54168C23.6971 9.51907 23.7 9.48663 23.7016 9.44436L23.7084 9.27616H23.9607V9.65527H23.9023V9.33042H23.7633L23.7572 9.46606C23.7558 9.49703 23.7531 9.52438 23.7491 9.54812C23.745 9.57163 23.7387 9.59141 23.7301 9.60746C23.7217 9.62329 23.7105 9.63527 23.6965 9.64341C23.6825 9.65132 23.665 9.65527 23.6439 9.65527H23.6243ZM24.2882 9.43893V9.49319H24.0793V9.43893H24.2882ZM24.0929 9.27616V9.65527H24.0353V9.27616H24.0929ZM24.333 9.27616V9.65527H24.2747V9.27616H24.333ZM24.4652 9.56914L24.6477 9.27616H24.7148V9.65527H24.6572V9.36229L24.4754 9.65527H24.4076V9.27616H24.4652V9.56914ZM24.7379 9.33042V9.27616H25.0451V9.33042H24.921V9.65527H24.8626V9.33042H24.7379ZM25.237 9.66341C25.2006 9.66341 25.1691 9.65527 25.1424 9.639C25.116 9.62272 25.0956 9.6 25.0814 9.57084C25.0671 9.54145 25.06 9.50743 25.06 9.46877C25.06 9.42989 25.067 9.39564 25.081 9.36602C25.095 9.33641 25.1147 9.31324 25.14 9.29651C25.1656 9.27978 25.1954 9.27142 25.2295 9.27142C25.2492 9.27142 25.2688 9.27469 25.2882 9.28125C25.3077 9.28781 25.3253 9.29843 25.3411 9.31313C25.3572 9.32782 25.3699 9.34726 25.3794 9.37145C25.3889 9.39564 25.3937 9.42537 25.3937 9.46063V9.48573H25.1014V9.43554H25.3621L25.3353 9.45453C25.3353 9.42921 25.3314 9.40672 25.3235 9.38705C25.3156 9.36738 25.3037 9.3519 25.2879 9.34059C25.2723 9.32929 25.2528 9.32364 25.2295 9.32364C25.2063 9.32364 25.1863 9.3294 25.1695 9.34093C25.153 9.35223 25.1404 9.36704 25.1315 9.38535C25.1227 9.40366 25.1183 9.42333 25.1183 9.44436V9.47759C25.1183 9.5063 25.1233 9.5306 25.1332 9.55049C25.1432 9.57039 25.1571 9.58553 25.175 9.59593C25.1928 9.6061 25.2135 9.61119 25.237 9.61119C25.2522 9.61119 25.2659 9.60904 25.2784 9.60475C25.2908 9.60023 25.3015 9.59356 25.3106 9.58474C25.3196 9.5757 25.3265 9.56462 25.3313 9.55151L25.3876 9.56779C25.3817 9.58678 25.3717 9.6035 25.3577 9.61797C25.3439 9.63221 25.3268 9.64341 25.3062 9.65154C25.2856 9.65946 25.2626 9.66341 25.237 9.66341ZM25.4147 9.65527V9.60102H25.4283C25.4436 9.60102 25.4556 9.59684 25.4642 9.58847C25.4728 9.57988 25.4791 9.56428 25.4832 9.54168C25.4875 9.51907 25.4904 9.48663 25.492 9.44436L25.4988 9.27616H25.7511V9.65527H25.6928V9.33042H25.5537L25.5476 9.46606C25.5463 9.49703 25.5436 9.52438 25.5395 9.54812C25.5354 9.57163 25.5291 9.59141 25.5205 9.60746C25.5121 9.62329 25.5009 9.63527 25.4869 9.64341C25.4729 9.65132 25.4554 9.65527 25.4344 9.65527H25.4147ZM25.8759 9.41384H25.9844C26.0287 9.41361 26.0626 9.4248 26.0861 9.44741C26.1096 9.47001 26.1214 9.49861 26.1214 9.5332C26.1214 9.55581 26.1161 9.57638 26.1054 9.59491C26.095 9.61323 26.0797 9.62792 26.0593 9.639C26.039 9.64985 26.014 9.65527 25.9844 9.65527H25.8257V9.27616H25.8833V9.60102H25.9844C26.0072 9.60102 26.026 9.59503 26.0407 9.58305C26.0556 9.57084 26.063 9.55513 26.063 9.53591C26.063 9.51579 26.0556 9.4994 26.0407 9.48674C26.026 9.47408 26.0072 9.46787 25.9844 9.46809H25.8759V9.41384ZM26.4306 9.43893V9.49319H26.2217V9.43893H26.4306ZM26.2353 9.27616V9.65527H26.1777V9.27616H26.2353ZM26.4754 9.27616V9.65527H26.4171V9.27616H26.4754ZM26.6002 9.41384H26.7087C26.753 9.41361 26.7869 9.4248 26.8104 9.44741C26.8339 9.47001 26.8457 9.49861 26.8457 9.5332C26.8457 9.55581 26.8404 9.57638 26.8297 9.59491C26.8193 9.61323 26.804 9.62792 26.7836 9.639C26.7633 9.64985 26.7383 9.65527 26.7087 9.65527H26.55V9.27616H26.6076V9.60102H26.7087C26.7315 9.60102 26.7503 9.59503 26.765 9.58305C26.7799 9.57084 26.7874 9.55513 26.7874 9.53591C26.7874 9.51579 26.7799 9.4994 26.765 9.48674C26.7503 9.47408 26.7315 9.46787 26.7087 9.46809H26.6002V9.41384ZM26.906 9.65527V9.27616H26.9637V9.65527H26.906ZM27.0959 9.56914L27.2784 9.27616H27.3455V9.65527H27.2879V9.36229L27.1061 9.65527H27.0383V9.27616H27.0959V9.56914ZM27.1916 9.23106C27.1613 9.23106 27.1366 9.22259 27.1176 9.20563C27.0989 9.18845 27.0895 9.16618 27.0895 9.13883H27.1437C27.1437 9.15352 27.1482 9.16551 27.157 9.17477C27.1658 9.18404 27.1773 9.18868 27.1916 9.18868C27.2058 9.18868 27.2173 9.18404 27.2261 9.17477C27.235 9.16551 27.2394 9.15352 27.2394 9.13883H27.2936C27.2936 9.16618 27.2841 9.18845 27.2651 9.20563C27.2464 9.22259 27.2218 9.23106 27.1916 9.23106ZM27.5612 9.33042V9.27616H27.8684V9.33042H27.7443V9.65527H27.686V9.33042H27.5612ZM28.0603 9.66341C28.0239 9.66341 27.9924 9.65527 27.9657 9.639C27.9393 9.62272 27.9189 9.6 27.9047 9.57084C27.8904 9.54145 27.8833 9.50743 27.8833 9.46877C27.8833 9.42989 27.8903 9.39564 27.9043 9.36602C27.9184 9.33641 27.938 9.31324 27.9633 9.29651C27.9889 9.27978 28.0187 9.27142 28.0529 9.27142C28.0725 9.27142 28.0921 9.27469 28.1115 9.28125C28.131 9.28781 28.1486 9.29843 28.1644 9.31313C28.1805 9.32782 28.1932 9.34726 28.2027 9.37145C28.2122 9.39564 28.217 9.42537 28.217 9.46063V9.48573H27.9247V9.43554H28.1854L28.1587 9.45453C28.1587 9.42921 28.1547 9.40672 28.1468 9.38705C28.1389 9.36738 28.127 9.3519 28.1112 9.34059C28.0956 9.32929 28.0761 9.32364 28.0529 9.32364C28.0296 9.32364 28.0096 9.3294 27.9928 9.34093C27.9763 9.35223 27.9637 9.36704 27.9549 9.38535C27.946 9.40366 27.9416 9.42333 27.9416 9.44436V9.47759C27.9416 9.5063 27.9466 9.5306 27.9566 9.55049C27.9665 9.57039 27.9804 9.58553 27.9983 9.59593C28.0161 9.6061 28.0368 9.61119 28.0603 9.61119C28.0755 9.61119 28.0893 9.60904 28.1017 9.60475C28.1141 9.60023 28.1249 9.59356 28.1339 9.58474C28.1429 9.5757 28.1498 9.56462 28.1546 9.55151L28.2109 9.56779C28.205 9.58678 28.1951 9.6035 28.181 9.61797C28.1672 9.63221 28.1501 9.64341 28.1295 9.65154C28.1089 9.65946 28.0859 9.66341 28.0603 9.66341ZM28.2719 9.65527V9.27616H28.3296V9.44096H28.3682L28.5045 9.27616H28.5791L28.4265 9.45928L28.5812 9.65527H28.5066L28.3818 9.49522H28.3296V9.65527H28.2719ZM28.7494 9.66341C28.7141 9.66341 28.6836 9.65505 28.6578 9.63832C28.6323 9.62136 28.6125 9.59819 28.5985 9.5688C28.5847 9.53942 28.5778 9.50585 28.5778 9.46809C28.5778 9.42944 28.5849 9.39541 28.5991 9.36602C28.6134 9.33641 28.6333 9.31324 28.6588 9.29651C28.6846 9.27978 28.7145 9.27142 28.7487 9.27142C28.7754 9.27142 28.7993 9.27639 28.8206 9.28634C28.842 9.29606 28.8596 9.30985 28.8731 9.32771C28.8869 9.34557 28.8954 9.36636 28.8986 9.3901H28.8402C28.8373 9.37857 28.832 9.36772 28.8243 9.35755C28.8166 9.34737 28.8064 9.33924 28.7938 9.33313C28.7814 9.3268 28.7665 9.32364 28.7494 9.32364C28.7268 9.32364 28.707 9.32952 28.69 9.34127C28.6731 9.35303 28.6598 9.36964 28.6503 9.39112C28.6409 9.41237 28.6361 9.43735 28.6361 9.46606C28.6361 9.49522 28.6407 9.52077 28.65 9.54269C28.6593 9.5644 28.6724 9.58124 28.6893 9.59322C28.7065 9.6052 28.7265 9.61119 28.7494 9.61119C28.7722 9.61119 28.7917 9.60531 28.808 9.59356C28.8243 9.58158 28.835 9.5653 28.8402 9.54473H28.8986C28.8954 9.56711 28.8873 9.58723 28.8741 9.60509C28.8613 9.62295 28.8442 9.63719 28.8229 9.64781C28.8019 9.65821 28.7774 9.66341 28.7494 9.66341ZM28.904 9.33042V9.27616H29.2112V9.33042H29.0871V9.65527H29.0288V9.33042H28.904ZM29.4608 9.4118V9.46606H29.2397V9.4118H29.4608ZM29.6839 9.66341C29.6498 9.66341 29.6198 9.65527 29.594 9.639C29.5683 9.62272 29.5482 9.59989 29.5337 9.5705C29.5194 9.54111 29.5123 9.50698 29.5123 9.46809C29.5123 9.42853 29.5194 9.39406 29.5337 9.36467C29.5482 9.33505 29.5683 9.31211 29.594 9.29583C29.6198 9.27956 29.6498 9.27142 29.6839 9.27142C29.7183 9.27142 29.7483 9.27956 29.7741 9.29583C29.7999 9.31211 29.82 9.33505 29.8345 9.36467C29.8489 9.39406 29.8562 9.42853 29.8562 9.46809C29.8562 9.50698 29.8489 9.54111 29.8345 9.5705C29.82 9.59989 29.7999 9.62272 29.7741 9.639C29.7483 9.65527 29.7183 9.66341 29.6839 9.66341ZM29.6839 9.61119C29.7101 9.61119 29.7316 9.60452 29.7483 9.59118C29.7651 9.57785 29.7775 9.56033 29.7856 9.53862C29.7938 9.5167 29.7978 9.49319 29.7978 9.46809C29.7978 9.44255 29.7938 9.41881 29.7856 9.39688C29.7775 9.37495 29.7651 9.35732 29.7483 9.34398C29.7316 9.33042 29.7101 9.32364 29.6839 9.32364C29.6581 9.32364 29.6369 9.33042 29.6202 9.34398C29.6034 9.35732 29.591 9.37495 29.5829 9.39688C29.5747 9.41881 29.5707 9.44255 29.5707 9.46809C29.5707 9.49319 29.5747 9.5167 29.5829 9.53862C29.591 9.56033 29.6034 9.57785 29.6202 9.59118C29.6369 9.60452 29.6581 9.61119 29.6839 9.61119ZM29.9125 9.65527V9.27616H30.2102V9.65527H30.1519V9.33042H29.9701V9.65527H29.9125ZM30.3424 9.56914L30.5249 9.27616H30.592V9.65527H30.5344V9.36229L30.3526 9.65527H30.2848V9.27616H30.3424V9.56914ZM30.8199 9.66341C30.7846 9.66341 30.7541 9.65505 30.7283 9.63832C30.7028 9.62136 30.683 9.59819 30.669 9.5688C30.6552 9.53942 30.6483 9.50585 30.6483 9.46809C30.6483 9.42944 30.6554 9.39541 30.6697 9.36602C30.6839 9.33641 30.7038 9.31324 30.7293 9.29651C30.7551 9.27978 30.7851 9.27142 30.8192 9.27142C30.8459 9.27142 30.8698 9.27639 30.8911 9.28634C30.9126 9.29606 30.9301 9.30985 30.9437 9.32771C30.9574 9.34557 30.9659 9.36636 30.9691 9.3901H30.9108C30.9078 9.37857 30.9025 9.36772 30.8948 9.35755C30.8871 9.34737 30.877 9.33924 30.8643 9.33313C30.8519 9.3268 30.8371 9.32364 30.8199 9.32364C30.7973 9.32364 30.7775 9.32952 30.7605 9.34127C30.7436 9.35303 30.7304 9.36964 30.7209 9.39112C30.7114 9.41237 30.7066 9.43735 30.7066 9.46606C30.7066 9.49522 30.7113 9.52077 30.7205 9.54269C30.7298 9.5644 30.7429 9.58124 30.7599 9.59322C30.777 9.6052 30.797 9.61119 30.8199 9.61119C30.8427 9.61119 30.8623 9.60531 30.8785 9.59356C30.8948 9.58158 30.9056 9.5653 30.9108 9.54473H30.9691C30.9659 9.56711 30.9578 9.58723 30.9447 9.60509C30.9318 9.62295 30.9147 9.63719 30.8935 9.64781C30.8724 9.65821 30.8479 9.66341 30.8199 9.66341ZM31.1352 9.66409C31.1113 9.66409 31.0895 9.65957 31.0698 9.65053C31.0501 9.64126 31.0345 9.62792 31.023 9.61051C31.0115 9.59311 31.0057 9.57208 31.0057 9.54744C31.0057 9.52574 31.01 9.50822 31.0186 9.49488C31.0272 9.48132 31.0386 9.47069 31.0528 9.46301C31.0673 9.45509 31.0831 9.44922 31.1003 9.44537C31.1177 9.44153 31.1352 9.43848 31.1529 9.43622C31.1759 9.43328 31.1946 9.43102 31.2088 9.42944C31.2233 9.42785 31.2338 9.42514 31.2404 9.4213C31.2471 9.41745 31.2505 9.4109 31.2505 9.40163V9.3996C31.2505 9.37541 31.2439 9.35664 31.2305 9.34331C31.2174 9.32974 31.1974 9.32296 31.1705 9.32296C31.1429 9.32296 31.1212 9.32906 31.1054 9.34127C31.0896 9.35325 31.0785 9.36614 31.0722 9.37993L31.0166 9.36026C31.0265 9.3372 31.0397 9.31923 31.0562 9.30634C31.073 9.29346 31.091 9.28442 31.1105 9.27922C31.1302 9.27402 31.1495 9.27142 31.1685 9.27142C31.1807 9.27142 31.1947 9.27289 31.2105 9.27583C31.2263 9.27854 31.2417 9.28442 31.2566 9.29346C31.2718 9.30227 31.2842 9.31573 31.2939 9.33381C31.3039 9.35167 31.3089 9.37563 31.3089 9.4057V9.65527H31.2505V9.60373H31.2478C31.244 9.61187 31.2374 9.62069 31.2282 9.63018C31.2189 9.63945 31.2066 9.64747 31.1912 9.65426C31.176 9.66081 31.1574 9.66409 31.1352 9.66409ZM31.1441 9.61187C31.1671 9.61187 31.1866 9.60735 31.2024 9.59831C31.2182 9.58926 31.2302 9.57762 31.2383 9.56338C31.2465 9.54891 31.2505 9.53388 31.2505 9.51828V9.4647C31.248 9.46764 31.2426 9.47035 31.2343 9.47284C31.2261 9.4751 31.2166 9.47714 31.2058 9.47894C31.1951 9.48075 31.1847 9.48233 31.1746 9.48369C31.1644 9.48482 31.1563 9.48573 31.1502 9.4864C31.135 9.48844 31.1209 9.49172 31.1078 9.49624C31.0947 9.50053 31.084 9.50698 31.0759 9.51557C31.068 9.52416 31.064 9.53591 31.064 9.55083C31.064 9.57095 31.0715 9.58621 31.0864 9.59661C31.1016 9.60678 31.1208 9.61187 31.1441 9.61187ZM31.6364 9.43893V9.49319H31.4275V9.43893H31.6364ZM31.4411 9.27616V9.65527H31.3835V9.27616H31.4411ZM31.6812 9.27616V9.65527H31.6229V9.27616H31.6812ZM31.8134 9.56914L31.9959 9.27616H32.063V9.65527H32.0054V9.36229L31.8236 9.65527H31.7558V9.27616H31.8134V9.56914ZM32.2963 9.66341C32.2599 9.66341 32.2284 9.65527 32.2017 9.639C32.1752 9.62272 32.1549 9.6 32.1407 9.57084C32.1264 9.54145 32.1193 9.50743 32.1193 9.46877C32.1193 9.42989 32.1263 9.39564 32.1403 9.36602C32.1543 9.33641 32.174 9.31324 32.1993 9.29651C32.2249 9.27978 32.2547 9.27142 32.2888 9.27142C32.3085 9.27142 32.3281 9.27469 32.3475 9.28125C32.3669 9.28781 32.3846 9.29843 32.4004 9.31313C32.4165 9.32782 32.4292 9.34726 32.4387 9.37145C32.4482 9.39564 32.453 9.42537 32.453 9.46063V9.48573H32.1607V9.43554H32.4214L32.3946 9.45453C32.3946 9.42921 32.3907 9.40672 32.3828 9.38705C32.3749 9.36738 32.363 9.3519 32.3472 9.34059C32.3316 9.32929 32.3121 9.32364 32.2888 9.32364C32.2656 9.32364 32.2456 9.3294 32.2288 9.34093C32.2123 9.35223 32.1997 9.36704 32.1908 9.38535C32.182 9.40366 32.1776 9.42333 32.1776 9.44436V9.47759C32.1776 9.5063 32.1826 9.5306 32.1925 9.55049C32.2025 9.57039 32.2164 9.58553 32.2342 9.59593C32.2521 9.6061 32.2728 9.61119 32.2963 9.61119C32.3115 9.61119 32.3252 9.60904 32.3377 9.60475C32.3501 9.60023 32.3608 9.59356 32.3699 9.58474C32.3789 9.5757 32.3858 9.56462 32.3906 9.55151L32.4469 9.56779C32.441 9.58678 32.431 9.6035 32.417 9.61797C32.4032 9.63221 32.3861 9.64341 32.3655 9.65154C32.3449 9.65946 32.3218 9.66341 32.2963 9.66341Z" fill="#6A8496"/>
<path d="M22.0504 8.0498V7.35508H22.3171C22.3671 7.35508 22.4088 7.36301 22.442 7.37886C22.4753 7.3944 22.5001 7.41585 22.5166 7.4432C22.5331 7.47025 22.5413 7.50087 22.5413 7.53506C22.5413 7.56334 22.5359 7.58759 22.525 7.60779C22.5144 7.62769 22.5 7.64385 22.4816 7.65628C22.4633 7.66872 22.4428 7.67773 22.4201 7.68333V7.69032C22.445 7.69125 22.4686 7.69871 22.491 7.7127C22.5137 7.72638 22.5322 7.74565 22.5465 7.77052C22.5611 7.79538 22.5684 7.82538 22.5684 7.8605C22.5684 7.89656 22.5597 7.92889 22.5423 7.95749C22.5252 7.98577 22.4991 8.00831 22.4639 8.02509C22.4291 8.04157 22.3851 8.0498 22.332 8.0498H22.0504ZM22.1762 7.9449H22.3115C22.3572 7.9449 22.3901 7.93604 22.4103 7.91832C22.4308 7.9006 22.4411 7.87807 22.4411 7.85071C22.4411 7.82989 22.436 7.81124 22.4257 7.79476C22.4154 7.77829 22.4008 7.76523 22.3819 7.7556C22.3632 7.74596 22.3411 7.74114 22.3157 7.74114H22.1762V7.9449ZM22.1762 7.65069H22.3012C22.3226 7.65069 22.3421 7.64665 22.3595 7.63857C22.3769 7.63048 22.3906 7.61914 22.4005 7.60453C22.4108 7.58961 22.4159 7.57205 22.4159 7.55184C22.4159 7.52511 22.4064 7.50304 22.3875 7.48563C22.3685 7.46792 22.3407 7.45906 22.304 7.45906H22.1762V7.65069ZM22.6374 8.0498V7.52853H22.856C22.9176 7.52884 22.9662 7.54143 23.002 7.5663C23.038 7.59085 23.0561 7.62504 23.0561 7.66887C23.0561 7.6984 23.046 7.72234 23.0258 7.74068C23.0056 7.75871 22.9782 7.77098 22.9437 7.77751C22.9707 7.77969 22.9945 7.78668 23.015 7.79849C23.0359 7.80999 23.0522 7.82507 23.064 7.84372C23.0758 7.86237 23.0817 7.88397 23.0817 7.90853C23.0817 7.93713 23.0741 7.96215 23.0589 7.9836C23.0439 8.00473 23.0222 8.02105 22.9936 8.03255C22.9653 8.04405 22.9306 8.0498 22.8896 8.0498H22.6374ZM22.7521 7.95282H22.8896C22.9123 7.95313 22.93 7.94801 22.9428 7.93744C22.9558 7.92656 22.9622 7.91179 22.9619 7.89314C22.9622 7.87169 22.9558 7.85491 22.9428 7.84279C22.93 7.83035 22.9123 7.82414 22.8896 7.82414H22.7521V7.95282ZM22.7521 7.74487H22.8584C22.8832 7.74456 22.9028 7.73912 22.9171 7.72855C22.9314 7.71799 22.9386 7.70353 22.9386 7.68519C22.9386 7.66685 22.9313 7.65271 22.9167 7.64276C22.9021 7.6325 22.8818 7.62738 22.856 7.62738H22.7521V7.74487ZM23.3783 8.06006C23.326 8.06006 23.281 8.04918 23.243 8.02742C23.2051 8.00535 23.1759 7.97427 23.1554 7.93417C23.1352 7.89407 23.1251 7.84683 23.1251 7.79243C23.1251 7.73866 23.1352 7.69156 23.1554 7.65116C23.1756 7.61044 23.204 7.57873 23.2407 7.55604C23.2774 7.53335 23.3206 7.522 23.3703 7.522C23.4023 7.522 23.4327 7.52713 23.4612 7.53739C23.4902 7.54765 23.5156 7.5635 23.5377 7.58495C23.5601 7.60639 23.5777 7.63375 23.5904 7.66701C23.6031 7.69996 23.6095 7.73928 23.6095 7.78497V7.8232H23.1824V7.74068H23.5484L23.4911 7.76492C23.4911 7.73539 23.4866 7.70975 23.4776 7.68799C23.4686 7.66592 23.4552 7.64867 23.4375 7.63624C23.4198 7.6238 23.3977 7.61758 23.3713 7.61758C23.3448 7.61758 23.3223 7.6238 23.3037 7.63624C23.285 7.64867 23.2709 7.66545 23.2612 7.68659C23.2516 7.70742 23.2468 7.73073 23.2468 7.75653V7.81388C23.2468 7.84558 23.2522 7.87278 23.2631 7.89547C23.2743 7.91785 23.2898 7.93495 23.3097 7.94676C23.3299 7.95857 23.3534 7.96448 23.3801 7.96448C23.3975 7.96448 23.4134 7.96199 23.4277 7.95702C23.4423 7.95205 23.4547 7.94459 23.465 7.93464C23.4755 7.92438 23.4836 7.91179 23.4892 7.89687L23.6039 7.91039C23.5965 7.94055 23.5826 7.96697 23.5624 7.98966C23.5425 8.01204 23.5169 8.02944 23.4855 8.04188C23.4544 8.054 23.4187 8.06006 23.3783 8.06006ZM23.63 8.20134V7.94863H23.6711C23.6823 7.94023 23.6916 7.92873 23.699 7.91412C23.7065 7.8992 23.7126 7.88164 23.7172 7.86144C23.7222 7.84092 23.7262 7.81808 23.7293 7.7929C23.7328 7.76772 23.7357 7.74068 23.7382 7.71177L23.7531 7.52853H24.1299V7.94863H24.2101V8.20134H24.0916V8.0498H23.7508V8.20134H23.63ZM23.7974 7.94863H24.0124V7.62784H23.8599L23.8515 7.71177C23.8472 7.76679 23.8411 7.81403 23.8333 7.85351C23.8259 7.89268 23.8139 7.92438 23.7974 7.94863ZM24.3844 7.88335L24.5933 7.52853H24.7192V8.0498H24.6012V7.69452L24.3928 8.0498H24.2665V7.52853H24.3844V7.88335ZM24.7518 7.62924V7.52853H25.2074V7.62924H25.0391V8.0498H24.9202V7.62924H24.7518ZM25.4792 8.06006C25.427 8.06006 25.3819 8.04918 25.344 8.02742C25.3061 8.00535 25.2769 7.97427 25.2563 7.93417C25.2361 7.89407 25.226 7.84683 25.226 7.79243C25.226 7.73866 25.2361 7.69156 25.2563 7.65116C25.2765 7.61044 25.305 7.57873 25.3417 7.55604C25.3783 7.53335 25.4215 7.522 25.4713 7.522C25.5033 7.522 25.5336 7.52713 25.5622 7.53739C25.5911 7.54765 25.6166 7.5635 25.6387 7.58495C25.661 7.60639 25.6786 7.63375 25.6914 7.66701C25.7041 7.69996 25.7105 7.73928 25.7105 7.78497V7.8232H25.2834V7.74068H25.6494L25.592 7.76492C25.592 7.73539 25.5875 7.70975 25.5785 7.68799C25.5695 7.66592 25.5561 7.64867 25.5384 7.63624C25.5207 7.6238 25.4986 7.61758 25.4722 7.61758C25.4458 7.61758 25.4233 7.6238 25.4046 7.63624C25.386 7.64867 25.3718 7.66545 25.3622 7.68659C25.3525 7.70742 25.3477 7.73073 25.3477 7.75653V7.81388C25.3477 7.84558 25.3532 7.87278 25.364 7.89547C25.3752 7.91785 25.3908 7.93495 25.4107 7.94676C25.4309 7.95857 25.4543 7.96448 25.4811 7.96448C25.4985 7.96448 25.5143 7.96199 25.5286 7.95702C25.5432 7.95205 25.5557 7.94459 25.5659 7.93464C25.5765 7.92438 25.5846 7.91179 25.5902 7.89687L25.7049 7.91039C25.6974 7.94055 25.6836 7.96697 25.6634 7.98966C25.6435 8.01204 25.6178 8.02944 25.5864 8.04188C25.5554 8.054 25.5196 8.06006 25.4792 8.06006ZM25.9678 7.90666H26.0891C26.0906 7.92625 26.0995 7.94148 26.1156 7.95236C26.1318 7.96293 26.1529 7.96821 26.1791 7.96821C26.2055 7.96821 26.2277 7.96246 26.2457 7.95096C26.2641 7.93915 26.2732 7.92127 26.2732 7.89734C26.2732 7.88304 26.2697 7.87061 26.2625 7.86004C26.2557 7.84947 26.2459 7.84123 26.2331 7.83533C26.2204 7.82942 26.2056 7.82647 26.1889 7.82647H26.1087V7.73928H26.1889C26.214 7.73928 26.2331 7.73353 26.2462 7.72203C26.2596 7.71021 26.2662 7.69545 26.2662 7.67773C26.2662 7.65815 26.2593 7.64245 26.2453 7.63064C26.2316 7.61883 26.2125 7.61292 26.1879 7.61292C26.1637 7.61292 26.1435 7.61836 26.1273 7.62924C26.1111 7.64012 26.1026 7.65426 26.1017 7.67167H25.9809C25.9815 7.64152 25.9905 7.61525 26.0079 7.59287C26.0257 7.57018 26.0496 7.55278 26.0797 7.54065C26.1102 7.52822 26.1444 7.522 26.1823 7.522C26.223 7.522 26.2582 7.52806 26.2877 7.54019C26.3172 7.55231 26.3401 7.5694 26.3562 7.59147C26.3724 7.61323 26.3803 7.63888 26.38 7.66841C26.3803 7.69669 26.3716 7.72001 26.3539 7.73835C26.3362 7.75668 26.3123 7.7699 26.2821 7.77798V7.78311C26.3029 7.78435 26.3216 7.79026 26.3381 7.80082C26.3548 7.81139 26.368 7.82554 26.3777 7.84325C26.3873 7.86097 26.3921 7.88164 26.3921 7.90527C26.3921 7.93728 26.383 7.96495 26.3646 7.98826C26.3466 8.01126 26.3216 8.02898 26.2896 8.04141C26.2575 8.05385 26.2209 8.06006 26.1795 8.06006C26.1394 8.06006 26.1035 8.054 26.0718 8.04188C26.0404 8.02976 26.0154 8.01235 25.9968 7.98966C25.9784 7.96666 25.9688 7.93899 25.9678 7.90666ZM26.5856 8.06053C26.5524 8.06053 26.5225 8.05462 26.4961 8.04281C26.4697 8.03069 26.4489 8.01297 26.4336 7.98966C26.4184 7.96634 26.4108 7.93759 26.4108 7.9034C26.4108 7.87418 26.4162 7.84994 26.4271 7.83066C26.438 7.81139 26.4528 7.79601 26.4714 7.7845C26.4904 7.773 26.5117 7.7643 26.5353 7.75839C26.5589 7.75218 26.5833 7.74783 26.6085 7.74534C26.6393 7.74192 26.6641 7.73897 26.6831 7.73648C26.702 7.73399 26.7157 7.72995 26.7241 7.72436C26.7328 7.71876 26.7372 7.71006 26.7372 7.69825V7.69592C26.7372 7.67074 26.7297 7.65116 26.7148 7.63717C26.6999 7.62318 26.6781 7.61619 26.6495 7.61619C26.6194 7.61619 26.5954 7.62271 26.5777 7.63577C26.5603 7.64882 26.5485 7.66421 26.5423 7.68193L26.428 7.66561C26.4371 7.6339 26.452 7.60748 26.4728 7.58635C26.4936 7.5649 26.519 7.54889 26.5488 7.53832C26.579 7.52744 26.6122 7.522 26.6486 7.522C26.6734 7.522 26.6983 7.52496 26.7232 7.53086C26.748 7.53646 26.7709 7.54609 26.7917 7.55977C26.8125 7.57345 26.8292 7.59179 26.8416 7.61479C26.854 7.63779 26.8603 7.66654 26.8603 7.70104V8.0498H26.7423V7.978H26.7386C26.7311 7.9923 26.7205 8.00582 26.7069 8.01857C26.6935 8.031 26.6767 8.0411 26.6565 8.04887C26.6366 8.05664 26.613 8.06053 26.5856 8.06053ZM26.6169 7.97007C26.6417 7.97007 26.6632 7.96526 26.6812 7.95562C26.6992 7.94567 26.7132 7.93262 26.7232 7.91646C26.7331 7.89998 26.7381 7.88211 26.7381 7.86284V7.80176C26.7341 7.80486 26.7275 7.80782 26.7185 7.81062C26.7095 7.8131 26.6992 7.81543 26.6877 7.81761C26.6762 7.81978 26.6649 7.82165 26.6537 7.8232C26.6428 7.82476 26.6333 7.826 26.6253 7.82693C26.6069 7.82942 26.5905 7.83362 26.5758 7.83952C26.5615 7.84512 26.5502 7.85289 26.5418 7.86284C26.5334 7.87278 26.5292 7.88568 26.5292 7.90154C26.5292 7.92423 26.5375 7.94132 26.5539 7.95282C26.5704 7.96432 26.5914 7.97007 26.6169 7.97007ZM27.2957 7.52853V7.62924H27.071V8.0498H26.9512V7.52853H27.2957ZM27.5643 8.06006C27.5133 8.06006 27.4692 8.04887 27.4319 8.02649C27.3946 8.00411 27.3657 7.97272 27.3452 7.93231C27.325 7.8919 27.3149 7.84496 27.3149 7.7915C27.3149 7.73772 27.325 7.69063 27.3452 7.65022C27.3657 7.6095 27.3946 7.57795 27.4319 7.55557C27.4692 7.53319 27.5133 7.522 27.5643 7.522C27.6153 7.522 27.6594 7.53319 27.6967 7.55557C27.734 7.57795 27.7629 7.6095 27.7834 7.65022C27.804 7.69063 27.8142 7.73772 27.8142 7.7915C27.8142 7.84496 27.804 7.8919 27.7834 7.93231C27.7629 7.97272 27.734 8.00411 27.6967 8.02649C27.6594 8.04887 27.6153 8.06006 27.5643 8.06006ZM27.5643 7.96122C27.5926 7.96122 27.6159 7.95376 27.6342 7.93884C27.6526 7.9236 27.6663 7.90309 27.6753 7.87729C27.6846 7.85149 27.6893 7.82289 27.6893 7.7915C27.6893 7.75948 27.6846 7.73057 27.6753 7.70477C27.6663 7.67898 27.6526 7.65862 27.6342 7.6437C27.6159 7.62846 27.5926 7.62085 27.5643 7.62085C27.5366 7.62085 27.5135 7.62846 27.4948 7.6437C27.4762 7.65862 27.4622 7.67898 27.4529 7.70477C27.4439 7.73057 27.4394 7.75948 27.4394 7.7915C27.4394 7.82289 27.4439 7.85149 27.4529 7.87729C27.4622 7.90309 27.4762 7.9236 27.4948 7.93884C27.5135 7.95376 27.5366 7.96122 27.5643 7.96122ZM27.8459 8.0498L27.8455 7.94863H27.8627C27.8811 7.94863 27.8955 7.94303 27.9061 7.93184C27.917 7.92065 27.9252 7.90138 27.9308 7.87403C27.9364 7.84636 27.9401 7.80828 27.942 7.75979L27.9508 7.52853H28.3308V8.0498H28.2119V7.62924H28.0627L28.0543 7.79803C28.0522 7.84123 28.0473 7.87869 28.0399 7.91039C28.0324 7.9421 28.0217 7.96837 28.0077 7.98919C27.994 8.00971 27.9769 8.02494 27.9564 8.03488C27.9359 8.04483 27.9117 8.0498 27.8837 8.0498H27.8459ZM28.6488 8.06006C28.5978 8.06006 28.5537 8.04887 28.5164 8.02649C28.4791 8.00411 28.4502 7.97272 28.4297 7.93231C28.4095 7.8919 28.3994 7.84496 28.3994 7.7915C28.3994 7.73772 28.4095 7.69063 28.4297 7.65022C28.4502 7.6095 28.4791 7.57795 28.5164 7.55557C28.5537 7.53319 28.5978 7.522 28.6488 7.522C28.6998 7.522 28.7439 7.53319 28.7812 7.55557C28.8185 7.57795 28.8474 7.6095 28.868 7.65022C28.8885 7.69063 28.8987 7.73772 28.8987 7.7915C28.8987 7.84496 28.8885 7.8919 28.868 7.93231C28.8474 7.97272 28.8185 8.00411 28.7812 8.02649C28.7439 8.04887 28.6998 8.06006 28.6488 8.06006ZM28.6488 7.96122C28.6771 7.96122 28.7004 7.95376 28.7188 7.93884C28.7371 7.9236 28.7508 7.90309 28.7598 7.87729C28.7691 7.85149 28.7738 7.82289 28.7738 7.7915C28.7738 7.75948 28.7691 7.73057 28.7598 7.70477C28.7508 7.67898 28.7371 7.65862 28.7188 7.6437C28.7004 7.62846 28.6771 7.62085 28.6488 7.62085C28.6212 7.62085 28.598 7.62846 28.5793 7.6437C28.5607 7.65862 28.5467 7.67898 28.5374 7.70477C28.5284 7.73057 28.5239 7.75948 28.5239 7.7915C28.5239 7.82289 28.5284 7.85149 28.5374 7.87729C28.5467 7.90309 28.5607 7.9236 28.5793 7.93884C28.598 7.95376 28.6212 7.96122 28.6488 7.96122ZM28.9663 8.0498V7.52853H29.185C29.2466 7.52884 29.2952 7.54143 29.331 7.5663C29.367 7.59085 29.385 7.62504 29.385 7.66887C29.385 7.6984 29.3749 7.72234 29.3547 7.74068C29.3345 7.75871 29.3072 7.77098 29.2727 7.77751C29.2997 7.77969 29.3235 7.78668 29.344 7.79849C29.3648 7.80999 29.3812 7.82507 29.393 7.84372C29.4048 7.86237 29.4107 7.88397 29.4107 7.90853C29.4107 7.93713 29.4031 7.96215 29.3878 7.9836C29.3729 8.00473 29.3512 8.02105 29.3226 8.03255C29.2943 8.04405 29.2596 8.0498 29.2186 8.0498H28.9663ZM29.081 7.95282H29.2186C29.2413 7.95313 29.259 7.94801 29.2717 7.93744C29.2848 7.92656 29.2912 7.91179 29.2909 7.89314C29.2912 7.87169 29.2848 7.85491 29.2717 7.84279C29.259 7.83035 29.2413 7.82414 29.2186 7.82414H29.081V7.95282ZM29.081 7.74487H29.1873C29.2122 7.74456 29.2318 7.73912 29.2461 7.72855C29.2604 7.71799 29.2675 7.70353 29.2675 7.68519C29.2675 7.66685 29.2602 7.65271 29.2456 7.64276C29.231 7.6325 29.2108 7.62738 29.185 7.62738H29.081V7.74487ZM29.7035 8.06006C29.6525 8.06006 29.6084 8.04887 29.5711 8.02649C29.5338 8.00411 29.5049 7.97272 29.4844 7.93231C29.4641 7.8919 29.454 7.84496 29.454 7.7915C29.454 7.73772 29.4641 7.69063 29.4844 7.65022C29.5049 7.6095 29.5338 7.57795 29.5711 7.55557C29.6084 7.53319 29.6525 7.522 29.7035 7.522C29.7545 7.522 29.7986 7.53319 29.8359 7.55557C29.8732 7.57795 29.9021 7.6095 29.9226 7.65022C29.9431 7.69063 29.9534 7.73772 29.9534 7.7915C29.9534 7.84496 29.9431 7.8919 29.9226 7.93231C29.9021 7.97272 29.8732 8.00411 29.8359 8.02649C29.7986 8.04887 29.7545 8.06006 29.7035 8.06006ZM29.7035 7.96122C29.7318 7.96122 29.7551 7.95376 29.7734 7.93884C29.7918 7.9236 29.8054 7.90309 29.8145 7.87729C29.8238 7.85149 29.8284 7.82289 29.8284 7.7915C29.8284 7.75948 29.8238 7.73057 29.8145 7.70477C29.8054 7.67898 29.7918 7.65862 29.7734 7.6437C29.7551 7.62846 29.7318 7.62085 29.7035 7.62085C29.6758 7.62085 29.6527 7.62846 29.634 7.6437C29.6154 7.65862 29.6014 7.67898 29.5921 7.70477C29.583 7.73057 29.5785 7.75948 29.5785 7.7915C29.5785 7.82289 29.583 7.85149 29.5921 7.87729C29.6014 7.90309 29.6154 7.9236 29.634 7.93884C29.6527 7.95376 29.6758 7.96122 29.7035 7.96122ZM30.021 8.0498V7.52853H30.1436V7.73928H30.1884L30.3455 7.52853H30.4929L30.3003 7.78497L30.4947 8.0498H30.3465L30.2033 7.85304H30.1436V8.0498H30.021ZM30.9568 8.06006C30.9049 8.06006 30.8603 8.04872 30.823 8.02603C30.7857 8.00302 30.7571 7.97132 30.7372 7.93091C30.7173 7.8905 30.7073 7.84403 30.7073 7.7915C30.7073 7.73835 30.7174 7.69156 30.7377 7.65116C30.7579 7.61075 30.7866 7.5792 30.8239 7.55651C30.8612 7.5335 30.9052 7.522 30.9559 7.522C30.9984 7.522 31.0361 7.52977 31.0687 7.54531C31.1013 7.56086 31.1273 7.58277 31.1466 7.61106C31.1661 7.63903 31.1773 7.67183 31.1801 7.70944H31.0626C31.0595 7.69265 31.0535 7.67758 31.0444 7.66421C31.0354 7.65084 31.0236 7.64028 31.009 7.6325C30.9947 7.62473 30.9776 7.62085 30.9577 7.62085C30.9325 7.62085 30.9105 7.62769 30.8915 7.64136C30.8729 7.65473 30.8583 7.674 30.8477 7.69918C30.8371 7.72436 30.8318 7.75451 30.8318 7.78963C30.8318 7.82507 30.837 7.85569 30.8472 7.88149C30.8575 7.90697 30.8721 7.92671 30.891 7.9407C30.91 7.95438 30.9322 7.96122 30.9577 7.96122C30.9848 7.96122 31.0076 7.95329 31.0263 7.93744C31.0452 7.92158 31.0573 7.89967 31.0626 7.87169H31.1801C31.1773 7.90868 31.1665 7.94132 31.1475 7.96961C31.1285 7.99789 31.1029 8.02012 31.0706 8.03628C31.0382 8.05214 31.0003 8.06006 30.9568 8.06006ZM31.1899 7.62924V7.52853H31.6455V7.62924H31.4771V8.0498H31.3582V7.62924H31.1899ZM31.7079 8.2447V7.52853H31.8282V7.61479H31.8357C31.8419 7.60235 31.8508 7.58899 31.8623 7.57469C31.8738 7.56008 31.8893 7.54765 31.9089 7.53739C31.9288 7.52713 31.9541 7.522 31.9849 7.522C32.025 7.522 32.0612 7.53226 32.0935 7.55278C32.1259 7.57329 32.1515 7.60344 32.1705 7.64323C32.1897 7.68302 32.1994 7.73197 32.1994 7.7901C32.1994 7.84729 32.19 7.89594 32.1714 7.93604C32.1527 7.97614 32.1271 8.00675 32.0945 8.02789C32.0621 8.04872 32.0255 8.05913 31.9844 8.05913C31.9549 8.05913 31.9302 8.05416 31.9103 8.04421C31.8907 8.03395 31.8749 8.02183 31.8627 8.00784C31.8509 7.99354 31.8419 7.98002 31.8357 7.96728H31.8306V8.2447H31.7079ZM31.9509 7.95842C31.9779 7.95842 32.0004 7.95111 32.0185 7.9365C32.0368 7.92189 32.0506 7.90185 32.06 7.87636C32.0693 7.85087 32.0739 7.82196 32.0739 7.78963C32.0739 7.75731 32.0693 7.72855 32.06 7.70338C32.0506 7.6782 32.037 7.65846 32.0189 7.64416C32.0009 7.62986 31.9782 7.62271 31.9509 7.62271C31.9244 7.62271 31.902 7.62955 31.8837 7.64323C31.8657 7.65691 31.8518 7.67633 31.8422 7.70151C31.8329 7.72638 31.8282 7.75575 31.8282 7.78963C31.8282 7.8232 31.8329 7.85273 31.8422 7.87822C31.8518 7.9034 31.8658 7.92314 31.8842 7.93744C31.9025 7.95142 31.9247 7.95842 31.9509 7.95842ZM32.4176 8.06053C32.3843 8.06053 32.3545 8.05462 32.3281 8.04281C32.3016 8.03069 32.2808 8.01297 32.2656 7.98966C32.2503 7.96634 32.2427 7.93759 32.2427 7.9034C32.2427 7.87418 32.2482 7.84994 32.259 7.83066C32.2699 7.81139 32.2847 7.79601 32.3033 7.7845C32.3223 7.773 32.3436 7.7643 32.3672 7.75839C32.3908 7.75218 32.4152 7.74783 32.4404 7.74534C32.4712 7.74192 32.4961 7.73897 32.515 7.73648C32.534 7.73399 32.5477 7.72995 32.5561 7.72436C32.5648 7.71876 32.5691 7.71006 32.5691 7.69825V7.69592C32.5691 7.67074 32.5616 7.65116 32.5467 7.63717C32.5318 7.62318 32.51 7.61619 32.4815 7.61619C32.4513 7.61619 32.4274 7.62271 32.4096 7.63577C32.3922 7.64882 32.3804 7.66421 32.3742 7.68193L32.26 7.66561C32.269 7.6339 32.2839 7.60748 32.3047 7.58635C32.3256 7.5649 32.3509 7.54889 32.3807 7.53832C32.4109 7.52744 32.4442 7.522 32.4805 7.522C32.5054 7.522 32.5303 7.52496 32.5551 7.53086C32.58 7.53646 32.6028 7.54609 32.6237 7.55977C32.6445 7.57345 32.6611 7.59179 32.6735 7.61479C32.686 7.63779 32.6922 7.66654 32.6922 7.70104V8.0498H32.5742V7.978H32.5705C32.563 7.9923 32.5525 8.00582 32.5388 8.01857C32.5254 8.031 32.5086 8.0411 32.4884 8.04887C32.4686 8.05664 32.4449 8.06053 32.4176 8.06053ZM32.4488 7.97007C32.4737 7.97007 32.4951 7.96526 32.5132 7.95562C32.5312 7.94567 32.5452 7.93262 32.5551 7.91646C32.5651 7.89998 32.57 7.88211 32.57 7.86284V7.80176C32.566 7.80486 32.5595 7.80782 32.5505 7.81062C32.5414 7.8131 32.5312 7.81543 32.5197 7.81761C32.5082 7.81978 32.4968 7.82165 32.4856 7.8232C32.4748 7.82476 32.4653 7.826 32.4572 7.82693C32.4389 7.82942 32.4224 7.83362 32.4078 7.83952C32.3935 7.84512 32.3821 7.85289 32.3737 7.86284C32.3654 7.87278 32.3612 7.88568 32.3612 7.90154C32.3612 7.92423 32.3694 7.94132 32.3859 7.95282C32.4023 7.96432 32.4233 7.97007 32.4488 7.97007ZM33.1403 7.73835V7.83906H32.8638V7.73835H33.1403ZM32.9011 7.52853V8.0498H32.7831V7.52853H32.9011ZM33.2214 7.52853V8.0498H33.1034V7.52853H33.2214ZM33.4298 7.88335L33.6387 7.52853H33.7646V8.0498H33.6466V7.69452L33.4382 8.0498H33.3119V7.52853H33.4298V7.88335ZM34.2957 7.52853V8.0498H33.8555V7.52853H33.9744V7.94909H34.1786V7.52853H34.2957ZM34.3754 7.95842V8.21719H34.2551V7.95842H34.3754ZM34.5181 7.69871H34.6715C34.7377 7.6984 34.789 7.71457 34.8253 7.7472C34.862 7.77953 34.8803 7.82181 34.8803 7.87403C34.8803 7.90822 34.8721 7.93852 34.8556 7.96495C34.8392 7.99137 34.8154 8.01219 34.7843 8.02742C34.7532 8.04234 34.7156 8.0498 34.6715 8.0498H34.4346V7.52853H34.5526V7.94909H34.6715C34.6979 7.94909 34.7196 7.94241 34.7367 7.92904C34.7541 7.91537 34.7628 7.89765 34.7628 7.87589C34.7628 7.8532 34.7541 7.8347 34.7367 7.82041C34.7196 7.80611 34.6979 7.79911 34.6715 7.79942H34.5181V7.69871ZM34.9456 8.0498V7.52853H35.0682V8.0498H34.9456Z" fill="#6A8496"/>
<defs>
<clipPath id="clip0_4302_773">
<rect width="1.0417" height="1.0417" fill="white" transform="translate(22.6523 2.83887)"/>
</clipPath>
</defs>
</svg>
