<svg width="41" height="22" viewBox="0 0 41 22" fill="none" xmlns="http://www.w3.org/2000/svg">
<rect y="0.148438" width="40.8" height="21.7021" rx="1.08511" fill="#DFE2E4"/>
<rect x="0.607422" y="0.668945" width="19.1413" height="20.6604" rx="0.651064" fill="white"/>
<g clip-path="url(#clip0_4302_755)">
<path fill-rule="evenodd" clip-rule="evenodd" d="M10.3008 10.7985C10.3008 10.7717 10.3115 10.7459 10.3304 10.7269C10.3494 10.7079 10.3752 10.6973 10.4021 10.6973H10.4031C10.4299 10.6973 10.4557 10.7079 10.4747 10.7269C10.4937 10.7459 10.5043 10.7717 10.5043 10.7985C10.5043 10.8254 10.4937 10.8512 10.4747 10.8702C10.4557 10.8891 10.4299 10.8998 10.4031 10.8998H10.4021C10.3752 10.8998 10.3494 10.8891 10.3304 10.8702C10.3115 10.8512 10.3008 10.8254 10.3008 10.7985Z" fill="#425766" fill-opacity="0.52"/>
<path fill-rule="evenodd" clip-rule="evenodd" d="M9.1875 10.393C9.1875 10.3393 9.20884 10.2877 9.24683 10.2498C9.28481 10.2118 9.33633 10.1904 9.39005 10.1904H11.0105C11.0642 10.1904 11.1157 10.2118 11.1537 10.2498C11.1917 10.2877 11.213 10.3393 11.213 10.393V11.6083C11.213 11.6646 11.19 11.7157 11.153 11.7523C11.1448 11.7698 11.1319 11.7846 11.1156 11.795C11.0993 11.8054 11.0804 11.8109 11.0611 11.8109H9.39005C9.33633 11.8109 9.28481 11.7895 9.24683 11.7515C9.20884 11.7135 9.1875 11.662 9.1875 11.6083V10.393ZM9.8855 11.6083L10.2737 11.0659L9.8696 10.6281C9.85939 10.6171 9.84684 10.6084 9.83287 10.6028C9.8189 10.5972 9.80385 10.5948 9.78882 10.5957C9.77379 10.5967 9.75917 10.601 9.746 10.6083C9.73284 10.6156 9.72147 10.6257 9.71272 10.638L9.39005 11.0897V10.393H11.0105V11.4007L10.6806 11.0342C10.6705 11.0229 10.6579 11.0141 10.6439 11.0083C10.6299 11.0025 10.6148 11 10.5996 11.0008C10.5845 11.0017 10.5698 11.0059 10.5565 11.0132C10.5432 11.0205 10.5317 11.0307 10.5229 11.0431L10.1192 11.6083H9.8855Z" fill="#425766" fill-opacity="0.52"/>
</g>
<rect x="21.6369" y="2.21018" width="2.30043" height="2.30043" rx="0.499149" stroke="#6A8496" stroke-width="0.0434043" stroke-dasharray="0.09 0.09"/>
<rect x="1.12891" y="1.2334" width="2.34383" height="2.34383" rx="0.520851" fill="white"/>
<rect x="21.6582" y="10.7822" width="5.38213" height="2.51745" rx="1.25872" fill="#105EFE"/>
<g clip-path="url(#clip1_4302_755)">
<path fill-rule="evenodd" clip-rule="evenodd" d="M22.3661 3.18078C22.3427 3.22971 22.3509 3.28694 22.3674 3.4014L22.3795 3.48549C22.4006 3.63252 22.4112 3.70603 22.4622 3.74995C22.5132 3.79387 22.588 3.79387 22.7376 3.79387H22.8336C22.9832 3.79387 23.058 3.79387 23.109 3.74995C23.16 3.70603 23.1706 3.63252 23.1917 3.48549L23.2038 3.4014C23.2203 3.28694 23.2285 3.22971 23.2051 3.18078C23.1816 3.13185 23.1317 3.1021 23.0318 3.04262L22.9717 3.00681C22.881 2.95279 22.8357 2.92578 22.7856 2.92578C22.7355 2.92578 22.6902 2.95279 22.5995 3.00681L22.5394 3.04262C22.4395 3.1021 22.3896 3.13185 22.3661 3.18078ZM22.7856 3.24045C22.8036 3.24045 22.8182 3.25503 22.8182 3.27301V3.37067L22.9158 3.37067C22.9338 3.37067 22.9484 3.38524 22.9484 3.40322C22.9484 3.4212 22.9338 3.43577 22.9158 3.43577L22.8182 3.43577V3.53343C22.8182 3.55141 22.8036 3.56598 22.7856 3.56598C22.7676 3.56598 22.7531 3.55141 22.7531 3.53343V3.43577H22.6554C22.6374 3.43577 22.6228 3.4212 22.6228 3.40322C22.6228 3.38524 22.6374 3.37067 22.6554 3.37067H22.7531V3.27301C22.7531 3.25503 22.7676 3.24045 22.7856 3.24045Z" fill="#6A8496"/>
</g>
<path d="M21.7772 18.8272V18.5423H21.8253V18.8272H21.7772ZM21.6586 18.7091V18.6604H21.9434V18.7091H21.6586ZM22.0188 18.8574L22.2164 18.4664V18.4628H21.9885V18.4153H22.2721V18.4658L22.0751 18.8574H22.0188ZM22.6513 18.6444V18.6919H22.4579V18.6444H22.6513ZM22.8555 18.8634C22.823 18.8634 22.7953 18.8545 22.7724 18.8367C22.7495 18.8188 22.7319 18.7931 22.7199 18.7595C22.7078 18.7257 22.7018 18.6847 22.7018 18.6367C22.7018 18.5888 22.7078 18.548 22.7199 18.5141C22.7321 18.4801 22.7497 18.4542 22.7727 18.4364C22.7956 18.4184 22.8232 18.4094 22.8555 18.4094C22.8877 18.4094 22.9153 18.4184 22.9383 18.4364C22.9612 18.4542 22.9787 18.4801 22.9908 18.5141C23.003 18.548 23.0092 18.5888 23.0092 18.6367C23.0092 18.6847 23.0031 18.7257 22.9911 18.7595C22.979 18.7931 22.9615 18.8188 22.9386 18.8367C22.9158 18.8545 22.8881 18.8634 22.8555 18.8634ZM22.8555 18.8165C22.8774 18.8165 22.896 18.8095 22.9113 18.7954C22.9265 18.7812 22.9381 18.7606 22.946 18.7337C22.9541 18.7068 22.9581 18.6745 22.9581 18.6367C22.9581 18.5987 22.9541 18.5663 22.946 18.5394C22.9381 18.5124 22.9265 18.4919 22.9113 18.4776C22.896 18.4634 22.8774 18.4563 22.8555 18.4563C22.8226 18.4563 22.7973 18.4721 22.7795 18.5037C22.7617 18.5354 22.7528 18.5797 22.7528 18.6367C22.7528 18.6745 22.7568 18.7068 22.7647 18.7337C22.7728 18.7606 22.7845 18.7812 22.7997 18.7954C22.8151 18.8095 22.8337 18.8165 22.8555 18.8165ZM23.2068 18.8634C23.1743 18.8634 23.1466 18.8545 23.1237 18.8367C23.1008 18.8188 23.0833 18.7931 23.0712 18.7595C23.0591 18.7257 23.0531 18.6847 23.0531 18.6367C23.0531 18.5888 23.0591 18.548 23.0712 18.5141C23.0834 18.4801 23.1011 18.4542 23.124 18.4364C23.1469 18.4184 23.1745 18.4094 23.2068 18.4094C23.239 18.4094 23.2666 18.4184 23.2896 18.4364C23.3125 18.4542 23.33 18.4801 23.3421 18.5141C23.3543 18.548 23.3605 18.5888 23.3605 18.6367C23.3605 18.6847 23.3544 18.7257 23.3424 18.7595C23.3303 18.7931 23.3128 18.8188 23.2899 18.8367C23.2671 18.8545 23.2394 18.8634 23.2068 18.8634ZM23.2068 18.8165C23.2287 18.8165 23.2473 18.8095 23.2626 18.7954C23.2778 18.7812 23.2894 18.7606 23.2973 18.7337C23.3054 18.7068 23.3094 18.6745 23.3094 18.6367C23.3094 18.5987 23.3054 18.5663 23.2973 18.5394C23.2894 18.5124 23.2778 18.4919 23.2626 18.4776C23.2473 18.4634 23.2287 18.4563 23.2068 18.4563C23.1739 18.4563 23.1486 18.4721 23.1308 18.5037C23.113 18.5354 23.1041 18.5797 23.1041 18.6367C23.1041 18.6745 23.1081 18.7068 23.116 18.7337C23.1241 18.7606 23.1358 18.7812 23.151 18.7954C23.1664 18.8095 23.185 18.8165 23.2068 18.8165ZM23.5581 18.8634C23.5256 18.8634 23.498 18.8545 23.475 18.8367C23.4521 18.8188 23.4346 18.7931 23.4225 18.7595C23.4104 18.7257 23.4044 18.6847 23.4044 18.6367C23.4044 18.5888 23.4104 18.548 23.4225 18.5141C23.4348 18.4801 23.4524 18.4542 23.4753 18.4364C23.4982 18.4184 23.5258 18.4094 23.5581 18.4094C23.5903 18.4094 23.6179 18.4184 23.6409 18.4364C23.6638 18.4542 23.6813 18.4801 23.6934 18.5141C23.7056 18.548 23.7118 18.5888 23.7118 18.6367C23.7118 18.6847 23.7057 18.7257 23.6937 18.7595C23.6816 18.7931 23.6641 18.8188 23.6412 18.8367C23.6184 18.8545 23.5907 18.8634 23.5581 18.8634ZM23.5581 18.8165C23.58 18.8165 23.5986 18.8095 23.6139 18.7954C23.6291 18.7812 23.6407 18.7606 23.6486 18.7337C23.6567 18.7068 23.6607 18.6745 23.6607 18.6367C23.6607 18.5987 23.6567 18.5663 23.6486 18.5394C23.6407 18.5124 23.6291 18.4919 23.6139 18.4776C23.5986 18.4634 23.58 18.4563 23.5581 18.4563C23.5252 18.4563 23.4999 18.4721 23.4821 18.5037C23.4643 18.5354 23.4554 18.5797 23.4554 18.6367C23.4554 18.6745 23.4594 18.7068 23.4673 18.7337C23.4754 18.7606 23.4871 18.7812 23.5023 18.7954C23.5177 18.8095 23.5363 18.8165 23.5581 18.8165ZM23.9557 18.6444V18.6919H23.7622V18.6444H23.9557ZM24.1598 18.8634C24.1274 18.8634 24.0997 18.8545 24.0767 18.8367C24.0538 18.8188 24.0363 18.7931 24.0242 18.7595C24.0121 18.7257 24.0061 18.6847 24.0061 18.6367C24.0061 18.5888 24.0121 18.548 24.0242 18.5141C24.0365 18.4801 24.0541 18.4542 24.077 18.4364C24.1 18.4184 24.1276 18.4094 24.1598 18.4094C24.1921 18.4094 24.2196 18.4184 24.2426 18.4364C24.2655 18.4542 24.283 18.4801 24.2951 18.5141C24.3074 18.548 24.3135 18.5888 24.3135 18.6367C24.3135 18.6847 24.3075 18.7257 24.2954 18.7595C24.2833 18.7931 24.2658 18.8188 24.2429 18.8367C24.2201 18.8545 24.1924 18.8634 24.1598 18.8634ZM24.1598 18.8165C24.1818 18.8165 24.2004 18.8095 24.2156 18.7954C24.2308 18.7812 24.2424 18.7606 24.2503 18.7337C24.2584 18.7068 24.2625 18.6745 24.2625 18.6367C24.2625 18.5987 24.2584 18.5663 24.2503 18.5394C24.2424 18.5124 24.2308 18.4919 24.2156 18.4776C24.2004 18.4634 24.1818 18.4563 24.1598 18.4563C24.127 18.4563 24.1017 18.4721 24.0839 18.5037C24.066 18.5354 24.0571 18.5797 24.0571 18.6367C24.0571 18.6745 24.0611 18.7068 24.069 18.7337C24.0771 18.7606 24.0888 18.7812 24.104 18.7954C24.1195 18.8095 24.1381 18.8165 24.1598 18.8165ZM24.5111 18.8634C24.4787 18.8634 24.451 18.8545 24.428 18.8367C24.4051 18.8188 24.3876 18.7931 24.3755 18.7595C24.3635 18.7257 24.3574 18.6847 24.3574 18.6367C24.3574 18.5888 24.3635 18.548 24.3755 18.5141C24.3878 18.4801 24.4054 18.4542 24.4283 18.4364C24.4513 18.4184 24.4789 18.4094 24.5111 18.4094C24.5434 18.4094 24.5709 18.4184 24.5939 18.4364C24.6168 18.4542 24.6343 18.4801 24.6464 18.5141C24.6587 18.548 24.6648 18.5888 24.6648 18.6367C24.6648 18.6847 24.6588 18.7257 24.6467 18.7595C24.6346 18.7931 24.6171 18.8188 24.5942 18.8367C24.5714 18.8545 24.5438 18.8634 24.5111 18.8634ZM24.5111 18.8165C24.5331 18.8165 24.5517 18.8095 24.5669 18.7954C24.5821 18.7812 24.5937 18.7606 24.6016 18.7337C24.6097 18.7068 24.6138 18.6745 24.6138 18.6367C24.6138 18.5987 24.6097 18.5663 24.6016 18.5394C24.5937 18.5124 24.5821 18.4919 24.5669 18.4776C24.5517 18.4634 24.5331 18.4563 24.5111 18.4563C24.4783 18.4563 24.453 18.4721 24.4352 18.5037C24.4174 18.5354 24.4085 18.5797 24.4085 18.6367C24.4085 18.6745 24.4124 18.7068 24.4203 18.7337C24.4284 18.7606 24.4401 18.7812 24.4553 18.7954C24.4708 18.8095 24.4894 18.8165 24.5111 18.8165ZM24.8624 18.8634C24.83 18.8634 24.8023 18.8545 24.7793 18.8367C24.7564 18.8188 24.7389 18.7931 24.7268 18.7595C24.7148 18.7257 24.7087 18.6847 24.7087 18.6367C24.7087 18.5888 24.7148 18.548 24.7268 18.5141C24.7391 18.4801 24.7567 18.4542 24.7796 18.4364C24.8026 18.4184 24.8302 18.4094 24.8624 18.4094C24.8947 18.4094 24.9223 18.4184 24.9452 18.4364C24.9681 18.4542 24.9856 18.4801 24.9977 18.5141C25.01 18.548 25.0161 18.5888 25.0161 18.6367C25.0161 18.6847 25.0101 18.7257 24.998 18.7595C24.9859 18.7931 24.9684 18.8188 24.9455 18.8367C24.9227 18.8545 24.8951 18.8634 24.8624 18.8634ZM24.8624 18.8165C24.8844 18.8165 24.903 18.8095 24.9182 18.7954C24.9334 18.7812 24.945 18.7606 24.9529 18.7337C24.961 18.7068 24.9651 18.6745 24.9651 18.6367C24.9651 18.5987 24.961 18.5663 24.9529 18.5394C24.945 18.5124 24.9334 18.4919 24.9182 18.4776C24.903 18.4634 24.8844 18.4563 24.8624 18.4563C24.8296 18.4563 24.8043 18.4721 24.7865 18.5037C24.7687 18.5354 24.7598 18.5797 24.7598 18.6367C24.7598 18.6745 24.7637 18.7068 24.7716 18.7337C24.7797 18.7606 24.7914 18.7812 24.8066 18.7954C24.8221 18.8095 24.8407 18.8165 24.8624 18.8165ZM25.26 18.6444V18.6919H25.0666V18.6444H25.26ZM25.4641 18.8634C25.4317 18.8634 25.404 18.8545 25.3811 18.8367C25.3581 18.8188 25.3406 18.7931 25.3285 18.7595C25.3165 18.7257 25.3104 18.6847 25.3104 18.6367C25.3104 18.5888 25.3165 18.548 25.3285 18.5141C25.3408 18.4801 25.3584 18.4542 25.3814 18.4364C25.4043 18.4184 25.4319 18.4094 25.4641 18.4094C25.4964 18.4094 25.524 18.4184 25.5469 18.4364C25.5699 18.4542 25.5874 18.4801 25.5994 18.5141C25.6117 18.548 25.6178 18.5888 25.6178 18.6367C25.6178 18.6847 25.6118 18.7257 25.5997 18.7595C25.5877 18.7931 25.5702 18.8188 25.5472 18.8367C25.5245 18.8545 25.4968 18.8634 25.4641 18.8634ZM25.4641 18.8165C25.4861 18.8165 25.5047 18.8095 25.5199 18.7954C25.5352 18.7812 25.5467 18.7606 25.5546 18.7337C25.5627 18.7068 25.5668 18.6745 25.5668 18.6367C25.5668 18.5987 25.5627 18.5663 25.5546 18.5394C25.5467 18.5124 25.5352 18.4919 25.5199 18.4776C25.5047 18.4634 25.4861 18.4563 25.4641 18.4563C25.4313 18.4563 25.406 18.4721 25.3882 18.5037C25.3704 18.5354 25.3615 18.5797 25.3615 18.6367C25.3615 18.6745 25.3654 18.7068 25.3733 18.7337C25.3815 18.7606 25.3931 18.7812 25.4084 18.7954C25.4238 18.8095 25.4424 18.8165 25.4641 18.8165ZM25.8154 18.8634C25.783 18.8634 25.7553 18.8545 25.7324 18.8367C25.7094 18.8188 25.6919 18.7931 25.6798 18.7595C25.6678 18.7257 25.6617 18.6847 25.6617 18.6367C25.6617 18.5888 25.6678 18.548 25.6798 18.5141C25.6921 18.4801 25.7097 18.4542 25.7327 18.4364C25.7556 18.4184 25.7832 18.4094 25.8154 18.4094C25.8477 18.4094 25.8753 18.4184 25.8982 18.4364C25.9212 18.4542 25.9387 18.4801 25.9507 18.5141C25.963 18.548 25.9691 18.5888 25.9691 18.6367C25.9691 18.6847 25.9631 18.7257 25.951 18.7595C25.939 18.7931 25.9215 18.8188 25.8985 18.8367C25.8758 18.8545 25.8481 18.8634 25.8154 18.8634ZM25.8154 18.8165C25.8374 18.8165 25.856 18.8095 25.8712 18.7954C25.8865 18.7812 25.898 18.7606 25.9059 18.7337C25.9141 18.7068 25.9181 18.6745 25.9181 18.6367C25.9181 18.5987 25.9141 18.5663 25.9059 18.5394C25.898 18.5124 25.8865 18.4919 25.8712 18.4776C25.856 18.4634 25.8374 18.4563 25.8154 18.4563C25.7826 18.4563 25.7573 18.4721 25.7395 18.5037C25.7217 18.5354 25.7128 18.5797 25.7128 18.6367C25.7128 18.6745 25.7167 18.7068 25.7247 18.7337C25.7328 18.7606 25.7444 18.7812 25.7597 18.7954C25.7751 18.8095 25.7937 18.8165 25.8154 18.8165ZM26.213 18.6444V18.6919H26.0196V18.6444H26.213ZM26.4172 18.8634C26.3847 18.8634 26.357 18.8545 26.3341 18.8367C26.3111 18.8188 26.2936 18.7931 26.2816 18.7595C26.2695 18.7257 26.2635 18.6847 26.2635 18.6367C26.2635 18.5888 26.2695 18.548 26.2816 18.5141C26.2938 18.4801 26.3114 18.4542 26.3344 18.4364C26.3573 18.4184 26.3849 18.4094 26.4172 18.4094C26.4494 18.4094 26.477 18.4184 26.5 18.4364C26.5229 18.4542 26.5404 18.4801 26.5525 18.5141C26.5647 18.548 26.5709 18.5888 26.5709 18.6367C26.5709 18.6847 26.5648 18.7257 26.5528 18.7595C26.5407 18.7931 26.5232 18.8188 26.5002 18.8367C26.4775 18.8545 26.4498 18.8634 26.4172 18.8634ZM26.4172 18.8165C26.4391 18.8165 26.4577 18.8095 26.473 18.7954C26.4882 18.7812 26.4998 18.7606 26.5077 18.7337C26.5158 18.7068 26.5198 18.6745 26.5198 18.6367C26.5198 18.5987 26.5158 18.5663 26.5077 18.5394C26.4998 18.5124 26.4882 18.4919 26.473 18.4776C26.4577 18.4634 26.4391 18.4563 26.4172 18.4563C26.3843 18.4563 26.359 18.4721 26.3412 18.5037C26.3234 18.5354 26.3145 18.5797 26.3145 18.6367C26.3145 18.6745 26.3185 18.7068 26.3264 18.7337C26.3345 18.7606 26.3462 18.7812 26.3614 18.7954C26.3768 18.8095 26.3954 18.8165 26.4172 18.8165ZM26.7685 18.8634C26.736 18.8634 26.7083 18.8545 26.6854 18.8367C26.6624 18.8188 26.6449 18.7931 26.6329 18.7595C26.6208 18.7257 26.6148 18.6847 26.6148 18.6367C26.6148 18.5888 26.6208 18.548 26.6329 18.5141C26.6451 18.4801 26.6627 18.4542 26.6857 18.4364C26.7086 18.4184 26.7362 18.4094 26.7685 18.4094C26.8007 18.4094 26.8283 18.4184 26.8513 18.4364C26.8742 18.4542 26.8917 18.4801 26.9038 18.5141C26.916 18.548 26.9222 18.5888 26.9222 18.6367C26.9222 18.6847 26.9161 18.7257 26.9041 18.7595C26.892 18.7931 26.8745 18.8188 26.8516 18.8367C26.8288 18.8545 26.8011 18.8634 26.7685 18.8634ZM26.7685 18.8165C26.7904 18.8165 26.809 18.8095 26.8243 18.7954C26.8395 18.7812 26.8511 18.7606 26.859 18.7337C26.8671 18.7068 26.8711 18.6745 26.8711 18.6367C26.8711 18.5987 26.8671 18.5663 26.859 18.5394C26.8511 18.5124 26.8395 18.4919 26.8243 18.4776C26.809 18.4634 26.7904 18.4563 26.7685 18.4563C26.7356 18.4563 26.7103 18.4721 26.6925 18.5037C26.6747 18.5354 26.6658 18.5797 26.6658 18.6367C26.6658 18.6745 26.6698 18.7068 26.6777 18.7337C26.6858 18.7606 26.6975 18.7812 26.7127 18.7954C26.7281 18.8095 26.7467 18.8165 26.7685 18.8165Z" fill="#6A8496"/>
<path d="M21.8327 20.0352C21.7951 20.0352 21.7616 20.026 21.7321 20.0076C21.7027 19.9892 21.6794 19.9631 21.6624 19.9293C21.6456 19.8953 21.6372 19.855 21.6372 19.8085C21.6372 19.7619 21.6456 19.7215 21.6624 19.6875C21.6794 19.6535 21.7027 19.6273 21.7321 19.6089C21.7616 19.5905 21.7951 19.5813 21.8327 19.5813C21.8705 19.5813 21.904 19.5905 21.9333 19.6089C21.9626 19.6273 21.9856 19.6535 22.0024 19.6875C22.0193 19.7215 22.0277 19.7619 22.0277 19.8085C22.0277 19.855 22.0193 19.8953 22.0024 19.9293C21.9856 19.9631 21.9626 19.9892 21.9333 20.0076C21.904 20.026 21.8705 20.0352 21.8327 20.0352ZM21.8327 19.9854C21.8594 19.9854 21.8836 19.9787 21.9051 19.9652C21.9269 19.9516 21.9441 19.9316 21.9567 19.9053C21.9696 19.879 21.976 19.8467 21.976 19.8085C21.976 19.7702 21.9696 19.7378 21.9567 19.7115C21.9441 19.685 21.9269 19.665 21.9051 19.6516C21.8836 19.6379 21.8594 19.6311 21.8327 19.6311C21.806 19.6311 21.7818 19.6379 21.76 19.6516C21.7383 19.665 21.721 19.685 21.7081 19.7115C21.6952 19.7378 21.6888 19.7702 21.6888 19.8085C21.6888 19.8467 21.6952 19.879 21.7081 19.9053C21.721 19.9316 21.7383 19.9516 21.76 19.9652C21.7818 19.9787 21.806 19.9854 21.8327 19.9854ZM22.2671 20.0352C22.2295 20.0352 22.196 20.026 22.1665 20.0076C22.137 19.9892 22.1138 19.9631 22.0968 19.9293C22.08 19.8953 22.0716 19.855 22.0716 19.8085C22.0716 19.7619 22.08 19.7215 22.0968 19.6875C22.1138 19.6535 22.137 19.6273 22.1665 19.6089C22.196 19.5905 22.2295 19.5813 22.2671 19.5813C22.3049 19.5813 22.3384 19.5905 22.3677 19.6089C22.397 19.6273 22.42 19.6535 22.4368 19.6875C22.4536 19.7215 22.462 19.7619 22.462 19.8085C22.462 19.855 22.4536 19.8953 22.4368 19.9293C22.42 19.9631 22.397 19.9892 22.3677 20.0076C22.3384 20.026 22.3049 20.0352 22.2671 20.0352ZM22.2671 19.9854C22.2938 19.9854 22.3179 19.9787 22.3395 19.9652C22.3613 19.9516 22.3785 19.9316 22.3911 19.9053C22.404 19.879 22.4104 19.8467 22.4104 19.8085C22.4104 19.7702 22.404 19.7378 22.3911 19.7115C22.3785 19.685 22.3613 19.665 22.3395 19.6516C22.3179 19.6379 22.2938 19.6311 22.2671 19.6311C22.2404 19.6311 22.2162 19.6379 22.1944 19.6516C22.1727 19.665 22.1553 19.685 22.1425 19.7115C22.1296 19.7378 22.1232 19.7702 22.1232 19.8085C22.1232 19.8467 22.1296 19.879 22.1425 19.9053C22.1553 19.9316 22.1727 19.9516 22.1944 19.9652C22.2162 19.9787 22.2404 19.9854 22.2671 19.9854ZM22.7015 20.0352C22.6639 20.0352 22.6304 20.026 22.6009 20.0076C22.5714 19.9892 22.5482 19.9631 22.5312 19.9293C22.5144 19.8953 22.506 19.855 22.506 19.8085C22.506 19.7619 22.5144 19.7215 22.5312 19.6875C22.5482 19.6535 22.5714 19.6273 22.6009 19.6089C22.6304 19.5905 22.6639 19.5813 22.7015 19.5813C22.7393 19.5813 22.7728 19.5905 22.8021 19.6089C22.8313 19.6273 22.8544 19.6535 22.8712 19.6875C22.888 19.7215 22.8964 19.7619 22.8964 19.8085C22.8964 19.855 22.888 19.8953 22.8712 19.9293C22.8544 19.9631 22.8313 19.9892 22.8021 20.0076C22.7728 20.026 22.7393 20.0352 22.7015 20.0352ZM22.7015 19.9854C22.7282 19.9854 22.7523 19.9787 22.7739 19.9652C22.7956 19.9516 22.8129 19.9316 22.8255 19.9053C22.8384 19.879 22.8448 19.8467 22.8448 19.8085C22.8448 19.7702 22.8384 19.7378 22.8255 19.7115C22.8129 19.685 22.7956 19.665 22.7739 19.6516C22.7523 19.6379 22.7282 19.6311 22.7015 19.6311C22.6748 19.6311 22.6506 19.6379 22.6288 19.6516C22.607 19.665 22.5897 19.685 22.5769 19.7115C22.564 19.7378 22.5576 19.7702 22.5576 19.8085C22.5576 19.8467 22.564 19.879 22.5769 19.9053C22.5897 19.9316 22.607 19.9516 22.6288 19.9652C22.6506 19.9787 22.6748 19.9854 22.7015 19.9854ZM23.2192 19.9818H23.1741L23.0869 19.8525V19.8483H23.1362L23.2192 19.9818ZM23.2192 19.7166L23.1362 19.8507H23.0869V19.8465L23.1741 19.7166H23.2192ZM23.3465 19.9818H23.3014L23.2142 19.8525V19.8483H23.2635L23.3465 19.9818ZM23.3465 19.7166L23.2635 19.8507H23.2142V19.8465L23.3014 19.7166H23.3465ZM23.4169 20.0293V19.5872H23.4703V19.7842H23.7058V19.5872H23.7593V20.0293H23.7058V19.8317H23.4703V20.0293H23.4169ZM23.9284 20.037C23.9074 20.037 23.8883 20.0331 23.8711 20.0251C23.8539 20.017 23.8403 20.0054 23.8302 19.9901C23.8201 19.9749 23.815 19.9565 23.815 19.9349C23.815 19.916 23.8188 19.9006 23.8263 19.889C23.8338 19.8771 23.8438 19.8678 23.8563 19.8611C23.8689 19.8541 23.8828 19.849 23.8978 19.8456C23.913 19.8423 23.9284 19.8396 23.9438 19.8376C23.964 19.8351 23.9803 19.8331 23.9928 19.8317C24.0054 19.8303 24.0146 19.8279 24.0204 19.8246C24.0263 19.8212 24.0293 19.8155 24.0293 19.8074V19.8056C24.0293 19.7844 24.0234 19.768 24.0118 19.7563C24.0003 19.7445 23.9828 19.7385 23.9592 19.7385C23.9351 19.7385 23.9161 19.7439 23.9023 19.7545C23.8884 19.765 23.8787 19.7763 23.8732 19.7884L23.8245 19.7712C23.8332 19.751 23.8448 19.7353 23.8592 19.724C23.8739 19.7127 23.8897 19.7048 23.9067 19.7002C23.9239 19.6957 23.9408 19.6934 23.9575 19.6934C23.9681 19.6934 23.9804 19.6947 23.9942 19.6973C24.0081 19.6997 24.0215 19.7048 24.0346 19.7127C24.0479 19.7204 24.0587 19.7322 24.0672 19.748C24.0759 19.7636 24.0803 19.7846 24.0803 19.8109V20.0293H24.0293V19.9842H24.0269C24.0235 19.9913 24.0178 19.999 24.0097 20.0073C24.0016 20.0155 23.9908 20.0225 23.9773 20.0284C23.9641 20.0341 23.9478 20.037 23.9284 20.037ZM23.9361 19.9913C23.9563 19.9913 23.9733 19.9874 23.9871 19.9794C24.001 19.9715 24.0115 19.9614 24.0186 19.9489C24.0257 19.9362 24.0293 19.9231 24.0293 19.9094V19.8625C24.0271 19.8651 24.0223 19.8675 24.015 19.8697C24.0079 19.8716 23.9996 19.8734 23.9901 19.875C23.9808 19.8766 23.9717 19.878 23.9628 19.8792C23.9539 19.8802 23.9468 19.8809 23.9414 19.8815C23.9282 19.8833 23.9158 19.8862 23.9043 19.8901C23.8929 19.8939 23.8836 19.8995 23.8765 19.9071C23.8695 19.9146 23.8661 19.9249 23.8661 19.9379C23.8661 19.9555 23.8726 19.9689 23.8857 19.978C23.8989 19.9869 23.9157 19.9913 23.9361 19.9913ZM24.139 19.9444H24.193C24.1944 19.9595 24.2013 19.9709 24.2138 19.9789C24.2263 19.9866 24.2425 19.9905 24.2625 19.9907C24.2828 19.9905 24.3003 19.9863 24.3147 19.978C24.3291 19.9695 24.3364 19.9557 24.3366 19.9367C24.3366 19.9256 24.3339 19.9161 24.3283 19.9079C24.3228 19.8996 24.3151 19.8932 24.3052 19.8887C24.2953 19.8839 24.2836 19.8815 24.2702 19.8815H24.2132V19.8358H24.2702C24.2904 19.8358 24.3053 19.8313 24.315 19.8222C24.3247 19.8131 24.3295 19.8016 24.3295 19.7878C24.3295 19.7729 24.3243 19.7611 24.3138 19.7522C24.3033 19.7431 24.2884 19.7385 24.269 19.7385C24.2498 19.7385 24.2337 19.7429 24.2206 19.7516C24.2078 19.7601 24.201 19.7712 24.2002 19.7848H24.1468C24.1473 19.767 24.1528 19.7513 24.1631 19.7376C24.1734 19.7238 24.1874 19.713 24.2052 19.7053C24.2232 19.6974 24.2437 19.6934 24.2666 19.6934C24.29 19.6934 24.3101 19.6975 24.3272 19.7056C24.3444 19.7137 24.3577 19.7248 24.3672 19.7388C24.3767 19.7527 24.3814 19.7684 24.3812 19.786C24.3814 19.8046 24.3761 19.8197 24.3654 19.8314C24.3549 19.8429 24.3418 19.8511 24.326 19.856V19.859C24.3384 19.86 24.3493 19.864 24.3586 19.8712C24.3681 19.8783 24.3754 19.8876 24.3806 19.899C24.3857 19.9103 24.3883 19.9229 24.3883 19.9367C24.3883 19.9569 24.3828 19.9745 24.372 19.9895C24.3613 20.0044 24.3465 20.0158 24.3277 20.024C24.309 20.0321 24.2874 20.0362 24.2631 20.0364C24.2395 20.0362 24.2185 20.0323 24.1999 20.0245C24.1815 20.0168 24.1668 20.0062 24.156 19.9925C24.1453 19.9787 24.1396 19.9626 24.139 19.9444ZM24.4174 20.0293V19.6976H24.5527C24.5883 19.6978 24.6165 19.706 24.6375 19.7222C24.6587 19.7382 24.6692 19.7595 24.669 19.786C24.6692 19.8062 24.6632 19.8217 24.6512 19.8326C24.6393 19.8435 24.6241 19.8509 24.6055 19.8548C24.6175 19.8566 24.6293 19.861 24.6408 19.8679C24.6524 19.8748 24.6621 19.8843 24.6699 19.8964C24.6776 19.9082 24.6814 19.9229 24.6814 19.9403C24.6814 19.9573 24.6771 19.9725 24.6684 19.986C24.6597 19.9994 24.6473 20.01 24.6313 20.0177C24.6153 20.0254 24.596 20.0293 24.5734 20.0293H24.4174ZM24.4654 19.9824H24.5734C24.5908 19.9826 24.6045 19.9786 24.6144 19.9703C24.6245 19.9619 24.6294 19.9506 24.6292 19.9361C24.6294 19.9189 24.6245 19.9055 24.6144 19.8958C24.6045 19.8859 24.5908 19.8809 24.5734 19.8809H24.4654V19.9824ZM24.4654 19.837H24.5527C24.573 19.8368 24.589 19.8326 24.6007 19.8243C24.6124 19.8158 24.6181 19.8042 24.6179 19.7896C24.6181 19.7755 24.6124 19.7645 24.6007 19.7566C24.589 19.7485 24.573 19.7445 24.5527 19.7445H24.4654V19.837ZM24.8274 20.037C24.8064 20.037 24.7873 20.0331 24.7701 20.0251C24.7529 20.017 24.7393 20.0054 24.7292 19.9901C24.7191 19.9749 24.7141 19.9565 24.7141 19.9349C24.7141 19.916 24.7178 19.9006 24.7253 19.889C24.7329 19.8771 24.7428 19.8678 24.7553 19.8611C24.768 19.8541 24.7818 19.849 24.7968 19.8456C24.8121 19.8423 24.8274 19.8396 24.8428 19.8376C24.863 19.8351 24.8793 19.8331 24.8918 19.8317C24.9044 19.8303 24.9136 19.8279 24.9194 19.8246C24.9253 19.8212 24.9283 19.8155 24.9283 19.8074V19.8056C24.9283 19.7844 24.9224 19.768 24.9108 19.7563C24.8993 19.7445 24.8818 19.7385 24.8583 19.7385C24.8341 19.7385 24.8151 19.7439 24.8013 19.7545C24.7874 19.765 24.7778 19.7763 24.7722 19.7884L24.7236 19.7712C24.7323 19.751 24.7438 19.7353 24.7583 19.724C24.7729 19.7127 24.7887 19.7048 24.8057 19.7002C24.823 19.6957 24.8399 19.6934 24.8565 19.6934C24.8672 19.6934 24.8794 19.6947 24.8933 19.6973C24.9071 19.6997 24.9206 19.7048 24.9336 19.7127C24.9469 19.7204 24.9578 19.7322 24.9663 19.748C24.975 19.7636 24.9793 19.7846 24.9793 19.8109V20.0293H24.9283V19.9842H24.9259C24.9225 19.9913 24.9168 19.999 24.9087 20.0073C24.9006 20.0155 24.8898 20.0225 24.8764 20.0284C24.8631 20.0341 24.8468 20.037 24.8274 20.037ZM24.8351 19.9913C24.8553 19.9913 24.8723 19.9874 24.8862 19.9794C24.9 19.9715 24.9105 19.9614 24.9176 19.9489C24.9247 19.9362 24.9283 19.9231 24.9283 19.9094V19.8625C24.9261 19.8651 24.9214 19.8675 24.914 19.8697C24.9069 19.8716 24.8986 19.8734 24.8891 19.875C24.8798 19.8766 24.8707 19.878 24.8618 19.8792C24.8529 19.8802 24.8458 19.8809 24.8405 19.8815C24.8272 19.8833 24.8148 19.8862 24.8034 19.8901C24.7919 19.8939 24.7826 19.8995 24.7755 19.9071C24.7686 19.9146 24.7651 19.9249 24.7651 19.9379C24.7651 19.9555 24.7716 19.9689 24.7847 19.978C24.7979 19.9869 24.8147 19.9913 24.8351 19.9913ZM25.2659 19.84V19.8875H25.0832V19.84H25.2659ZM25.095 19.6976V20.0293H25.0446V19.6976H25.095ZM25.3051 19.6976V20.0293H25.2541V19.6976H25.3051ZM25.4208 19.9539L25.5805 19.6976H25.6392V20.0293H25.5888V19.7729L25.4297 20.0293H25.3704V19.6976H25.4208V19.9539ZM25.8433 20.0364C25.8115 20.0364 25.7839 20.0293 25.7606 20.0151C25.7374 20.0008 25.7196 19.9809 25.7071 19.9554C25.6947 19.9297 25.6885 19.8999 25.6885 19.8661C25.6885 19.8321 25.6946 19.8021 25.7068 19.7762C25.7191 19.7503 25.7363 19.73 25.7585 19.7154C25.7808 19.7007 25.8069 19.6934 25.8368 19.6934C25.854 19.6934 25.8711 19.6963 25.8881 19.702C25.9051 19.7078 25.9206 19.7171 25.9344 19.7299C25.9485 19.7428 25.9596 19.7598 25.968 19.781C25.9763 19.8021 25.9804 19.8281 25.9804 19.859V19.8809H25.7247V19.837H25.9528L25.9294 19.8536C25.9294 19.8315 25.9259 19.8118 25.919 19.7946C25.9121 19.7774 25.9017 19.7638 25.8878 19.754C25.8742 19.7441 25.8572 19.7391 25.8368 19.7391C25.8164 19.7391 25.7989 19.7442 25.7843 19.7542C25.7699 19.7641 25.7588 19.7771 25.7511 19.7931C25.7433 19.8091 25.7395 19.8263 25.7395 19.8447V19.8738C25.7395 19.8989 25.7438 19.9202 25.7525 19.9376C25.7612 19.955 25.7734 19.9683 25.789 19.9774C25.8047 19.9863 25.8228 19.9907 25.8433 19.9907C25.8566 19.9907 25.8687 19.9888 25.8795 19.9851C25.8904 19.9811 25.8998 19.9753 25.9077 19.9676C25.9156 19.9597 25.9217 19.95 25.9258 19.9385L25.9751 19.9527C25.9699 19.9694 25.9612 19.984 25.949 19.9967C25.9369 20.0091 25.9219 20.0189 25.9039 20.026C25.8859 20.033 25.8657 20.0364 25.8433 20.0364ZM26.1709 20.0293V19.6976H26.2213V19.8418H26.2552L26.3744 19.6976H26.4397L26.3062 19.8578L26.4415 20.0293H26.3762L26.267 19.8893H26.2213V20.0293H26.1709ZM26.5887 20.0364C26.5588 20.0364 26.5326 20.0293 26.51 20.0151C26.4875 20.0008 26.4699 19.9808 26.4572 19.9551C26.4448 19.9294 26.4385 19.8995 26.4385 19.8655C26.4385 19.8309 26.4448 19.8007 26.4572 19.775C26.4699 19.7491 26.4875 19.729 26.51 19.7148C26.5326 19.7005 26.5588 19.6934 26.5887 19.6934C26.6187 19.6934 26.645 19.7005 26.6676 19.7148C26.6901 19.729 26.7077 19.7491 26.7204 19.775C26.7331 19.8007 26.7394 19.8309 26.7394 19.8655C26.7394 19.8995 26.7331 19.9294 26.7204 19.9551C26.7077 19.9808 26.6901 20.0008 26.6676 20.0151C26.645 20.0293 26.6187 20.0364 26.5887 20.0364ZM26.5887 19.9907C26.6116 19.9907 26.6304 19.9849 26.645 19.9732C26.6597 19.9615 26.6706 19.9462 26.6777 19.9272C26.6848 19.908 26.6884 19.8875 26.6884 19.8655C26.6884 19.8432 26.6848 19.8224 26.6777 19.8032C26.6706 19.784 26.6597 19.7686 26.645 19.7569C26.6304 19.745 26.6116 19.7391 26.5887 19.7391C26.5661 19.7391 26.5475 19.745 26.5329 19.7569C26.5182 19.7686 26.5074 19.784 26.5002 19.8032C26.4931 19.8224 26.4896 19.8432 26.4896 19.8655C26.4896 19.8875 26.4931 19.908 26.5002 19.9272C26.5074 19.9462 26.5182 19.9615 26.5329 19.9732C26.5475 19.9849 26.5661 19.9907 26.5887 19.9907ZM26.9696 19.9605L27.0854 19.6976H27.1334L26.9904 20.0293H26.9489L26.8082 19.6976H26.8557L26.9696 19.9605ZM26.8391 19.6976V20.0293H26.7886V19.6976H26.8391ZM27.1002 20.0293V19.6976H27.1506V20.0293H27.1002ZM27.2159 20.0293V19.6976H27.4764V20.0293H27.4254V19.745H27.2664V20.0293H27.2159ZM27.639 20.037C27.618 20.037 27.599 20.0331 27.5818 20.0251C27.5645 20.017 27.5509 20.0054 27.5408 19.9901C27.5307 19.9749 27.5257 19.9565 27.5257 19.9349C27.5257 19.916 27.5294 19.9006 27.5369 19.889C27.5445 19.8771 27.5545 19.8678 27.5669 19.8611C27.5796 19.8541 27.5934 19.849 27.6085 19.8456C27.6237 19.8423 27.639 19.8396 27.6544 19.8376C27.6746 19.8351 27.6909 19.8331 27.7034 19.8317C27.7161 19.8303 27.7253 19.8279 27.731 19.8246C27.7369 19.8212 27.7399 19.8155 27.7399 19.8074V19.8056C27.7399 19.7844 27.7341 19.768 27.7224 19.7563C27.7109 19.7445 27.6934 19.7385 27.6699 19.7385C27.6457 19.7385 27.6268 19.7439 27.6129 19.7545C27.5991 19.765 27.5894 19.7763 27.5838 19.7884L27.5352 19.7712C27.5439 19.751 27.5554 19.7353 27.5699 19.724C27.5845 19.7127 27.6003 19.7048 27.6174 19.7002C27.6346 19.6957 27.6515 19.6934 27.6681 19.6934C27.6788 19.6934 27.691 19.6947 27.7049 19.6973C27.7187 19.6997 27.7322 19.7048 27.7452 19.7127C27.7585 19.7204 27.7694 19.7322 27.7779 19.748C27.7866 19.7636 27.7909 19.7846 27.7909 19.8109V20.0293H27.7399V19.9842H27.7375C27.7342 19.9913 27.7284 19.999 27.7203 20.0073C27.7122 20.0155 27.7014 20.0225 27.688 20.0284C27.6747 20.0341 27.6584 20.037 27.639 20.037ZM27.6467 19.9913C27.6669 19.9913 27.6839 19.9874 27.6978 19.9794C27.7116 19.9715 27.7221 19.9614 27.7292 19.9489C27.7363 19.9362 27.7399 19.9231 27.7399 19.9094V19.8625C27.7377 19.8651 27.733 19.8675 27.7257 19.8697C27.7185 19.8716 27.7102 19.8734 27.7007 19.875C27.6914 19.8766 27.6823 19.878 27.6734 19.8792C27.6645 19.8802 27.6574 19.8809 27.6521 19.8815C27.6388 19.8833 27.6265 19.8862 27.615 19.8901C27.6035 19.8939 27.5942 19.8995 27.5871 19.9071C27.5802 19.9146 27.5767 19.9249 27.5767 19.9379C27.5767 19.9555 27.5832 19.9689 27.5963 19.978C27.6095 19.9869 27.6264 19.9913 27.6467 19.9913ZM28.0776 19.84V19.8875H27.8948V19.84H28.0776ZM27.9066 19.6976V20.0293H27.8562V19.6976H27.9066ZM28.1167 19.6976V20.0293H28.0657V19.6976H28.1167ZM28.2324 19.9539L28.3921 19.6976H28.4508V20.0293H28.4004V19.7729L28.2413 20.0293H28.182V19.6976H28.2324V19.9539ZM28.5665 19.9539L28.7262 19.6976H28.7849V20.0293H28.7345V19.7729L28.5754 20.0293H28.5161V19.6976H28.5665V19.9539ZM28.8437 19.9818L28.9267 19.8483H28.976V19.8525L28.8888 19.9818H28.8437ZM28.8437 19.7166H28.8888L28.976 19.8465V19.8507H28.9267L28.8437 19.7166ZM28.9712 19.9818L29.0543 19.8483H29.1036V19.8525L29.0163 19.9818H28.9712ZM28.9712 19.7166H29.0163L29.1036 19.8465V19.8507H29.0543L28.9712 19.7166Z" fill="#6A8496"/>
<path d="M21.6166 9.77735V9.60102H21.6491C21.6604 9.59085 21.6711 9.57649 21.681 9.55795C21.691 9.53919 21.6994 9.5141 21.7065 9.48267C21.7135 9.45125 21.7181 9.41135 21.7204 9.36297L21.7312 9.15002H22.031V9.60102H22.0893V9.77667H22.031V9.65527H21.6749V9.77735H21.6166ZM21.7224 9.60102H21.9726V9.20428H21.7861L21.7787 9.36297C21.7766 9.39982 21.7731 9.43328 21.7682 9.46335C21.7632 9.49319 21.7569 9.51952 21.7492 9.54235C21.7415 9.56519 21.7326 9.58474 21.7224 9.60102ZM22.2907 9.66341C22.2566 9.66341 22.2266 9.65527 22.2009 9.639C22.1751 9.62272 22.155 9.59989 22.1405 9.5705C22.1263 9.54111 22.1191 9.50698 22.1191 9.46809C22.1191 9.42853 22.1263 9.39406 22.1405 9.36467C22.155 9.33505 22.1751 9.31211 22.2009 9.29583C22.2266 9.27956 22.2566 9.27142 22.2907 9.27142C22.3251 9.27142 22.3551 9.27956 22.3809 9.29583C22.4067 9.31211 22.4268 9.33505 22.4413 9.36467C22.4557 9.39406 22.463 9.42853 22.463 9.46809C22.463 9.50698 22.4557 9.54111 22.4413 9.5705C22.4268 9.59989 22.4067 9.62272 22.3809 9.639C22.3551 9.65527 22.3251 9.66341 22.2907 9.66341ZM22.2907 9.61119C22.3169 9.61119 22.3384 9.60452 22.3551 9.59118C22.3719 9.57785 22.3843 9.56033 22.3924 9.53862C22.4006 9.5167 22.4046 9.49319 22.4046 9.46809C22.4046 9.44255 22.4006 9.41881 22.3924 9.39688C22.3843 9.37495 22.3719 9.35732 22.3551 9.34398C22.3384 9.33042 22.3169 9.32364 22.2907 9.32364C22.2649 9.32364 22.2437 9.33042 22.227 9.34398C22.2102 9.35732 22.1978 9.37495 22.1897 9.39688C22.1815 9.41881 22.1775 9.44255 22.1775 9.46809C22.1775 9.49319 22.1815 9.5167 22.1897 9.53862C22.1978 9.56033 22.2102 9.57785 22.227 9.59118C22.2437 9.60452 22.2649 9.61119 22.2907 9.61119ZM22.5193 9.65527V9.27616H22.817V9.65527H22.7587V9.33042H22.5769V9.65527H22.5193ZM23.0449 9.66341C23.0107 9.66341 22.9808 9.65527 22.955 9.639C22.9292 9.62272 22.9091 9.59989 22.8946 9.5705C22.8804 9.54111 22.8733 9.50698 22.8733 9.46809C22.8733 9.42853 22.8804 9.39406 22.8946 9.36467C22.9091 9.33505 22.9292 9.31211 22.955 9.29583C22.9808 9.27956 23.0107 9.27142 23.0449 9.27142C23.0792 9.27142 23.1093 9.27956 23.1351 9.29583C23.1608 9.31211 23.181 9.33505 23.1954 9.36467C23.2099 9.39406 23.2171 9.42853 23.2171 9.46809C23.2171 9.50698 23.2099 9.54111 23.1954 9.5705C23.181 9.59989 23.1608 9.62272 23.1351 9.639C23.1093 9.65527 23.0792 9.66341 23.0449 9.66341ZM23.0449 9.61119C23.0711 9.61119 23.0926 9.60452 23.1093 9.59118C23.126 9.57785 23.1385 9.56033 23.1466 9.53862C23.1547 9.5167 23.1588 9.49319 23.1588 9.46809C23.1588 9.44255 23.1547 9.41881 23.1466 9.39688C23.1385 9.37495 23.126 9.35732 23.1093 9.34398C23.0926 9.33042 23.0711 9.32364 23.0449 9.32364C23.0191 9.32364 22.9978 9.33042 22.9811 9.34398C22.9644 9.35732 22.9519 9.37495 22.9438 9.39688C22.9357 9.41881 22.9316 9.44255 22.9316 9.46809C22.9316 9.49319 22.9357 9.5167 22.9438 9.53862C22.9519 9.56033 22.9644 9.57785 22.9811 9.59118C22.9978 9.60452 23.0191 9.61119 23.0449 9.61119ZM23.2395 9.65527V9.60102H23.2531C23.2684 9.60102 23.2804 9.59684 23.289 9.58847C23.2976 9.57988 23.3039 9.56428 23.308 9.54168C23.3123 9.51907 23.3152 9.48663 23.3168 9.44436L23.3236 9.27616H23.5759V9.65527H23.5176V9.33042H23.3785L23.3724 9.46606C23.3711 9.49703 23.3684 9.52438 23.3643 9.54812C23.3602 9.57163 23.3539 9.59141 23.3453 9.60746C23.3369 9.62329 23.3257 9.63527 23.3117 9.64341C23.2977 9.65132 23.2802 9.65527 23.2592 9.65527H23.2395ZM23.9035 9.43893V9.49319H23.6946V9.43893H23.9035ZM23.7081 9.27616V9.65527H23.6505V9.27616H23.7081ZM23.9482 9.27616V9.65527H23.8899V9.27616H23.9482ZM24.0805 9.56914L24.2629 9.27616H24.33V9.65527H24.2724V9.36229L24.0906 9.65527H24.0228V9.27616H24.0805V9.56914ZM24.3531 9.33042V9.27616H24.6603V9.33042H24.5362V9.65527H24.4779V9.33042H24.3531ZM24.8522 9.66341C24.8158 9.66341 24.7843 9.65527 24.7576 9.639C24.7312 9.62272 24.7108 9.6 24.6966 9.57084C24.6824 9.54145 24.6752 9.50743 24.6752 9.46877C24.6752 9.42989 24.6822 9.39564 24.6963 9.36602C24.7103 9.33641 24.7299 9.31324 24.7553 9.29651C24.7808 9.27978 24.8106 9.27142 24.8448 9.27142C24.8645 9.27142 24.884 9.27469 24.9034 9.28125C24.9229 9.28781 24.9405 9.29843 24.9563 9.31313C24.9724 9.32782 24.9852 9.34726 24.9947 9.37145C25.0042 9.39564 25.0089 9.42537 25.0089 9.46063V9.48573H24.7166V9.43554H24.9774L24.9506 9.45453C24.9506 9.42921 24.9466 9.40672 24.9387 9.38705C24.9308 9.36738 24.9189 9.3519 24.9031 9.34059C24.8875 9.32929 24.8681 9.32364 24.8448 9.32364C24.8215 9.32364 24.8015 9.3294 24.7848 9.34093C24.7683 9.35223 24.7556 9.36704 24.7468 9.38535C24.738 9.40366 24.7336 9.42333 24.7336 9.44436V9.47759C24.7336 9.5063 24.7385 9.5306 24.7485 9.55049C24.7584 9.57039 24.7723 9.58553 24.7902 9.59593C24.808 9.6061 24.8287 9.61119 24.8522 9.61119C24.8674 9.61119 24.8812 9.60904 24.8936 9.60475C24.906 9.60023 24.9168 9.59356 24.9258 9.58474C24.9349 9.5757 24.9418 9.56462 24.9465 9.55151L25.0028 9.56779C24.9969 9.58678 24.987 9.6035 24.973 9.61797C24.9592 9.63221 24.942 9.64341 24.9214 9.65154C24.9008 9.65946 24.8778 9.66341 24.8522 9.66341ZM25.0299 9.65527V9.60102H25.0435C25.0589 9.60102 25.0708 9.59684 25.0794 9.58847C25.088 9.57988 25.0944 9.56428 25.0984 9.54168C25.1027 9.51907 25.1057 9.48663 25.1072 9.44436L25.114 9.27616H25.3663V9.65527H25.308V9.33042H25.169L25.1629 9.46606C25.1615 9.49703 25.1588 9.52438 25.1547 9.54812C25.1506 9.57163 25.1443 9.59141 25.1357 9.60746C25.1274 9.62329 25.1162 9.63527 25.1022 9.64341C25.0881 9.65132 25.0706 9.65527 25.0496 9.65527H25.0299ZM25.4911 9.41384H25.5996C25.6439 9.41361 25.6778 9.4248 25.7013 9.44741C25.7248 9.47001 25.7366 9.49861 25.7366 9.5332C25.7366 9.55581 25.7313 9.57638 25.7207 9.59491C25.7103 9.61323 25.6949 9.62792 25.6745 9.639C25.6542 9.64985 25.6292 9.65527 25.5996 9.65527H25.4409V9.27616H25.4986V9.60102H25.5996C25.6224 9.60102 25.6412 9.59503 25.6559 9.58305C25.6708 9.57084 25.6783 9.55513 25.6783 9.53591C25.6783 9.51579 25.6708 9.4994 25.6559 9.48674C25.6412 9.47408 25.6224 9.46787 25.5996 9.46809H25.4911V9.41384ZM26.0459 9.43893V9.49319H25.837V9.43893H26.0459ZM25.8505 9.27616V9.65527H25.7929V9.27616H25.8505ZM26.0906 9.27616V9.65527H26.0323V9.27616H26.0906ZM26.2154 9.41384H26.3239C26.3682 9.41361 26.4021 9.4248 26.4256 9.44741C26.4492 9.47001 26.4609 9.49861 26.4609 9.5332C26.4609 9.55581 26.4556 9.57638 26.445 9.59491C26.4346 9.61323 26.4192 9.62792 26.3989 9.639C26.3785 9.64985 26.3535 9.65527 26.3239 9.65527H26.1652V9.27616H26.2229V9.60102H26.3239C26.3468 9.60102 26.3655 9.59503 26.3802 9.58305C26.3951 9.57084 26.4026 9.55513 26.4026 9.53591C26.4026 9.51579 26.3951 9.4994 26.3802 9.48674C26.3655 9.47408 26.3468 9.46787 26.3239 9.46809H26.2154V9.41384ZM26.5213 9.65527V9.27616H26.5789V9.65527H26.5213ZM26.7112 9.56914L26.8936 9.27616H26.9607V9.65527H26.9031V9.36229L26.7213 9.65527H26.6535V9.27616H26.7112V9.56914ZM26.8068 9.23106C26.7765 9.23106 26.7519 9.22259 26.7329 9.20563C26.7141 9.18845 26.7047 9.16618 26.7047 9.13883H26.759C26.759 9.15352 26.7634 9.16551 26.7722 9.17477C26.781 9.18404 26.7925 9.18868 26.8068 9.18868C26.821 9.18868 26.8326 9.18404 26.8414 9.17477C26.8502 9.16551 26.8546 9.15352 26.8546 9.13883H26.9089C26.9089 9.16618 26.8994 9.18845 26.8804 9.20563C26.8616 9.22259 26.8371 9.23106 26.8068 9.23106ZM27.1764 9.33042V9.27616H27.4836V9.33042H27.3595V9.65527H27.3012V9.33042H27.1764ZM27.6756 9.66341C27.6392 9.66341 27.6076 9.65527 27.5809 9.639C27.5545 9.62272 27.5342 9.6 27.5199 9.57084C27.5057 9.54145 27.4985 9.50743 27.4985 9.46877C27.4985 9.42989 27.5056 9.39564 27.5196 9.36602C27.5336 9.33641 27.5533 9.31324 27.5786 9.29651C27.6041 9.27978 27.634 9.27142 27.6681 9.27142C27.6878 9.27142 27.7073 9.27469 27.7268 9.28125C27.7462 9.28781 27.7638 9.29843 27.7797 9.31313C27.7957 9.32782 27.8085 9.34726 27.818 9.37145C27.8275 9.39564 27.8322 9.42537 27.8322 9.46063V9.48573H27.5399V9.43554H27.8007L27.7739 9.45453C27.7739 9.42921 27.7699 9.40672 27.762 9.38705C27.7541 9.36738 27.7422 9.3519 27.7264 9.34059C27.7108 9.32929 27.6914 9.32364 27.6681 9.32364C27.6448 9.32364 27.6248 9.3294 27.6081 9.34093C27.5916 9.35223 27.5789 9.36704 27.5701 9.38535C27.5613 9.40366 27.5569 9.42333 27.5569 9.44436V9.47759C27.5569 9.5063 27.5618 9.5306 27.5718 9.55049C27.5817 9.57039 27.5956 9.58553 27.6135 9.59593C27.6314 9.6061 27.652 9.61119 27.6756 9.61119C27.6907 9.61119 27.7045 9.60904 27.7169 9.60475C27.7294 9.60023 27.7401 9.59356 27.7491 9.58474C27.7582 9.5757 27.7651 9.56462 27.7698 9.55151L27.8261 9.56779C27.8202 9.58678 27.8103 9.6035 27.7963 9.61797C27.7825 9.63221 27.7653 9.64341 27.7447 9.65154C27.7242 9.65946 27.7011 9.66341 27.6756 9.66341ZM27.8871 9.65527V9.27616H27.9448V9.44096H27.9835L28.1198 9.27616H28.1944L28.0418 9.45928L28.1964 9.65527H28.1218L27.997 9.49522H27.9448V9.65527H27.8871ZM28.3646 9.66341C28.3293 9.66341 28.2988 9.65505 28.273 9.63832C28.2475 9.62136 28.2277 9.59819 28.2137 9.5688C28.1999 9.53942 28.193 9.50585 28.193 9.46809C28.193 9.42944 28.2001 9.39541 28.2144 9.36602C28.2286 9.33641 28.2485 9.31324 28.2741 9.29651C28.2998 9.27978 28.3298 9.27142 28.3639 9.27142C28.3906 9.27142 28.4146 9.27639 28.4358 9.28634C28.4573 9.29606 28.4748 9.30985 28.4884 9.32771C28.5022 9.34557 28.5106 9.36636 28.5138 9.3901H28.4555C28.4525 9.37857 28.4472 9.36772 28.4395 9.35755C28.4319 9.34737 28.4217 9.33924 28.409 9.33313C28.3966 9.3268 28.3818 9.32364 28.3646 9.32364C28.342 9.32364 28.3222 9.32952 28.3053 9.34127C28.2883 9.35303 28.2751 9.36964 28.2656 9.39112C28.2561 9.41237 28.2513 9.43735 28.2513 9.46606C28.2513 9.49522 28.256 9.52077 28.2652 9.54269C28.2745 9.5644 28.2876 9.58124 28.3046 9.59322C28.3218 9.6052 28.3418 9.61119 28.3646 9.61119C28.3874 9.61119 28.407 9.60531 28.4233 9.59356C28.4395 9.58158 28.4503 9.5653 28.4555 9.54473H28.5138C28.5106 9.56711 28.5025 9.58723 28.4894 9.60509C28.4765 9.62295 28.4594 9.63719 28.4382 9.64781C28.4172 9.65821 28.3926 9.66341 28.3646 9.66341ZM28.5192 9.33042V9.27616H28.8264V9.33042H28.7023V9.65527H28.644V9.33042H28.5192ZM29.076 9.4118V9.46606H28.8549V9.4118H29.076ZM29.2991 9.66341C29.265 9.66341 29.2351 9.65527 29.2093 9.639C29.1835 9.62272 29.1634 9.59989 29.1489 9.5705C29.1347 9.54111 29.1276 9.50698 29.1276 9.46809C29.1276 9.42853 29.1347 9.39406 29.1489 9.36467C29.1634 9.33505 29.1835 9.31211 29.2093 9.29583C29.2351 9.27956 29.265 9.27142 29.2991 9.27142C29.3335 9.27142 29.3636 9.27956 29.3893 9.29583C29.4151 9.31211 29.4352 9.33505 29.4497 9.36467C29.4642 9.39406 29.4714 9.42853 29.4714 9.46809C29.4714 9.50698 29.4642 9.54111 29.4497 9.5705C29.4352 9.59989 29.4151 9.62272 29.3893 9.639C29.3636 9.65527 29.3335 9.66341 29.2991 9.66341ZM29.2991 9.61119C29.3254 9.61119 29.3468 9.60452 29.3636 9.59118C29.3803 9.57785 29.3927 9.56033 29.4009 9.53862C29.409 9.5167 29.4131 9.49319 29.4131 9.46809C29.4131 9.44255 29.409 9.41881 29.4009 9.39688C29.3927 9.37495 29.3803 9.35732 29.3636 9.34398C29.3468 9.33042 29.3254 9.32364 29.2991 9.32364C29.2734 9.32364 29.2521 9.33042 29.2354 9.34398C29.2187 9.35732 29.2062 9.37495 29.1981 9.39688C29.19 9.41881 29.1859 9.44255 29.1859 9.46809C29.1859 9.49319 29.19 9.5167 29.1981 9.53862C29.2062 9.56033 29.2187 9.57785 29.2354 9.59118C29.2521 9.60452 29.2734 9.61119 29.2991 9.61119ZM29.5277 9.65527V9.27616H29.8254V9.65527H29.7671V9.33042H29.5853V9.65527H29.5277ZM29.9577 9.56914L30.1401 9.27616H30.2072V9.65527H30.1496V9.36229L29.9678 9.65527H29.9V9.27616H29.9577V9.56914ZM30.4351 9.66341C30.3998 9.66341 30.3693 9.65505 30.3436 9.63832C30.318 9.62136 30.2982 9.59819 30.2842 9.5688C30.2704 9.53942 30.2635 9.50585 30.2635 9.46809C30.2635 9.42944 30.2707 9.39541 30.2849 9.36602C30.2991 9.33641 30.319 9.31324 30.3446 9.29651C30.3703 9.27978 30.4003 9.27142 30.4344 9.27142C30.4611 9.27142 30.4851 9.27639 30.5063 9.28634C30.5278 9.29606 30.5453 9.30985 30.5589 9.32771C30.5727 9.34557 30.5812 9.36636 30.5843 9.3901H30.526C30.5231 9.37857 30.5177 9.36772 30.5101 9.35755C30.5024 9.34737 30.4922 9.33924 30.4795 9.33313C30.4671 9.3268 30.4523 9.32364 30.4351 9.32364C30.4125 9.32364 30.3927 9.32952 30.3758 9.34127C30.3588 9.35303 30.3456 9.36964 30.3361 9.39112C30.3266 9.41237 30.3219 9.43735 30.3219 9.46606C30.3219 9.49522 30.3265 9.52077 30.3358 9.54269C30.345 9.5644 30.3581 9.58124 30.3751 9.59322C30.3923 9.6052 30.4123 9.61119 30.4351 9.61119C30.4579 9.61119 30.4775 9.60531 30.4938 9.59356C30.5101 9.58158 30.5208 9.5653 30.526 9.54473H30.5843C30.5812 9.56711 30.573 9.58723 30.5599 9.60509C30.547 9.62295 30.5299 9.63719 30.5087 9.64781C30.4877 9.65821 30.4631 9.66341 30.4351 9.66341ZM30.7505 9.66409C30.7265 9.66409 30.7047 9.65957 30.685 9.65053C30.6654 9.64126 30.6498 9.62792 30.6382 9.61051C30.6267 9.59311 30.6209 9.57208 30.6209 9.54744C30.6209 9.52574 30.6252 9.50822 30.6338 9.49488C30.6424 9.48132 30.6538 9.47069 30.6681 9.46301C30.6825 9.45509 30.6984 9.44922 30.7155 9.44537C30.733 9.44153 30.7505 9.43848 30.7681 9.43622C30.7912 9.43328 30.8098 9.43102 30.8241 9.42944C30.8385 9.42785 30.849 9.42514 30.8556 9.4213C30.8624 9.41745 30.8658 9.4109 30.8658 9.40163V9.3996C30.8658 9.37541 30.8591 9.35664 30.8458 9.34331C30.8326 9.32974 30.8126 9.32296 30.7857 9.32296C30.7582 9.32296 30.7365 9.32906 30.7206 9.34127C30.7048 9.35325 30.6937 9.36614 30.6874 9.37993L30.6318 9.36026C30.6417 9.3372 30.655 9.31923 30.6715 9.30634C30.6882 9.29346 30.7063 9.28442 30.7257 9.27922C30.7454 9.27402 30.7647 9.27142 30.7837 9.27142C30.7959 9.27142 30.8099 9.27289 30.8258 9.27583C30.8416 9.27854 30.857 9.28442 30.8719 9.29346C30.887 9.30227 30.8995 9.31573 30.9092 9.33381C30.9191 9.35167 30.9241 9.37563 30.9241 9.4057V9.65527H30.8658V9.60373H30.8631C30.8592 9.61187 30.8527 9.62069 30.8434 9.63018C30.8341 9.63945 30.8218 9.64747 30.8064 9.65426C30.7913 9.66081 30.7726 9.66409 30.7505 9.66409ZM30.7593 9.61187C30.7823 9.61187 30.8018 9.60735 30.8176 9.59831C30.8334 9.58926 30.8454 9.57762 30.8536 9.56338C30.8617 9.54891 30.8658 9.53388 30.8658 9.51828V9.4647C30.8633 9.46764 30.8579 9.47035 30.8495 9.47284C30.8414 9.4751 30.8319 9.47714 30.821 9.47894C30.8104 9.48075 30.8 9.48233 30.7898 9.48369C30.7796 9.48482 30.7715 9.48573 30.7654 9.4864C30.7502 9.48844 30.7361 9.49172 30.723 9.49624C30.7099 9.50053 30.6993 9.50698 30.6911 9.51557C30.6832 9.52416 30.6793 9.53591 30.6793 9.55083C30.6793 9.57095 30.6867 9.58621 30.7016 9.59661C30.7168 9.60678 30.736 9.61187 30.7593 9.61187ZM31.2517 9.43893V9.49319H31.0428V9.43893H31.2517ZM31.0563 9.27616V9.65527H30.9987V9.27616H31.0563ZM31.2964 9.27616V9.65527H31.2381V9.27616H31.2964ZM31.4287 9.56914L31.6111 9.27616H31.6782V9.65527H31.6206V9.36229L31.4388 9.65527H31.371V9.27616H31.4287V9.56914ZM31.9115 9.66341C31.8751 9.66341 31.8436 9.65527 31.8169 9.639C31.7905 9.62272 31.7701 9.6 31.7559 9.57084C31.7417 9.54145 31.7345 9.50743 31.7345 9.46877C31.7345 9.42989 31.7415 9.39564 31.7556 9.36602C31.7696 9.33641 31.7892 9.31324 31.8146 9.29651C31.8401 9.27978 31.8699 9.27142 31.9041 9.27142C31.9237 9.27142 31.9433 9.27469 31.9627 9.28125C31.9822 9.28781 31.9998 9.29843 32.0156 9.31313C32.0317 9.32782 32.0445 9.34726 32.054 9.37145C32.0635 9.39564 32.0682 9.42537 32.0682 9.46063V9.48573H31.7759V9.43554H32.0367L32.0099 9.45453C32.0099 9.42921 32.0059 9.40672 31.998 9.38705C31.9901 9.36738 31.9782 9.3519 31.9624 9.34059C31.9468 9.32929 31.9274 9.32364 31.9041 9.32364C31.8808 9.32364 31.8608 9.3294 31.8441 9.34093C31.8276 9.35223 31.8149 9.36704 31.8061 9.38535C31.7973 9.40366 31.7929 9.42333 31.7929 9.44436V9.47759C31.7929 9.5063 31.7978 9.5306 31.8078 9.55049C31.8177 9.57039 31.8316 9.58553 31.8495 9.59593C31.8673 9.6061 31.888 9.61119 31.9115 9.61119C31.9267 9.61119 31.9405 9.60904 31.9529 9.60475C31.9653 9.60023 31.9761 9.59356 31.9851 9.58474C31.9942 9.5757 32.0011 9.56462 32.0058 9.55151L32.0621 9.56779C32.0562 9.58678 32.0463 9.6035 32.0323 9.61797C32.0185 9.63221 32.0013 9.64341 31.9807 9.65154C31.9601 9.65946 31.9371 9.66341 31.9115 9.66341Z" fill="#6A8496"/>
<path d="M21.6656 8.0498V7.35508H21.9323C21.9823 7.35508 22.024 7.36301 22.0572 7.37886C22.0905 7.3944 22.1154 7.41585 22.1318 7.4432C22.1483 7.47025 22.1566 7.50087 22.1566 7.53506C22.1566 7.56334 22.1511 7.58759 22.1402 7.60779C22.1297 7.62769 22.1152 7.64385 22.0969 7.65628C22.0785 7.66872 22.058 7.67773 22.0353 7.68333V7.69032C22.0602 7.69125 22.0838 7.69871 22.1062 7.7127C22.1289 7.72638 22.1474 7.74565 22.1617 7.77052C22.1763 7.79538 22.1836 7.82538 22.1836 7.8605C22.1836 7.89656 22.1749 7.92889 22.1575 7.95749C22.1404 7.98577 22.1143 8.00831 22.0792 8.02509C22.0443 8.04157 22.0004 8.0498 21.9472 8.0498H21.6656ZM21.7915 7.9449H21.9267C21.9724 7.9449 22.0053 7.93604 22.0255 7.91832C22.0461 7.9006 22.0563 7.87807 22.0563 7.85071C22.0563 7.82989 22.0512 7.81124 22.0409 7.79476C22.0307 7.77829 22.0161 7.76523 21.9971 7.7556C21.9784 7.74596 21.9564 7.74114 21.9309 7.74114H21.7915V7.9449ZM21.7915 7.65069H21.9164C21.9379 7.65069 21.9573 7.64665 21.9747 7.63857C21.9921 7.63048 22.0058 7.61914 22.0157 7.60453C22.026 7.58961 22.0311 7.57205 22.0311 7.55184C22.0311 7.52511 22.0217 7.50304 22.0027 7.48563C21.9837 7.46792 21.9559 7.45906 21.9192 7.45906H21.7915V7.65069ZM22.2526 8.0498V7.52853H22.4713C22.5328 7.52884 22.5815 7.54143 22.6172 7.5663C22.6533 7.59085 22.6713 7.62504 22.6713 7.66887C22.6713 7.6984 22.6612 7.72234 22.641 7.74068C22.6208 7.75871 22.5934 7.77098 22.5589 7.77751C22.586 7.77969 22.6098 7.78668 22.6303 7.79849C22.6511 7.80999 22.6674 7.82507 22.6792 7.84372C22.691 7.86237 22.6969 7.88397 22.6969 7.90853C22.6969 7.93713 22.6893 7.96215 22.6741 7.9836C22.6592 8.00473 22.6374 8.02105 22.6088 8.03255C22.5805 8.04405 22.5459 8.0498 22.5049 8.0498H22.2526ZM22.3673 7.95282H22.5049C22.5275 7.95313 22.5453 7.94801 22.558 7.93744C22.5711 7.92656 22.5774 7.91179 22.5771 7.89314C22.5774 7.87169 22.5711 7.85491 22.558 7.84279C22.5453 7.83035 22.5275 7.82414 22.5049 7.82414H22.3673V7.95282ZM22.3673 7.74487H22.4736C22.4985 7.74456 22.5181 7.73912 22.5324 7.72855C22.5467 7.71799 22.5538 7.70353 22.5538 7.68519C22.5538 7.66685 22.5465 7.65271 22.5319 7.64276C22.5173 7.6325 22.4971 7.62738 22.4713 7.62738H22.3673V7.74487ZM22.9935 8.06006C22.9413 8.06006 22.8962 8.04918 22.8583 8.02742C22.8204 8.00535 22.7911 7.97427 22.7706 7.93417C22.7504 7.89407 22.7403 7.84683 22.7403 7.79243C22.7403 7.73866 22.7504 7.69156 22.7706 7.65116C22.7908 7.61044 22.8193 7.57873 22.8559 7.55604C22.8926 7.53335 22.9358 7.522 22.9856 7.522C23.0176 7.522 23.0479 7.52713 23.0765 7.53739C23.1054 7.54765 23.1309 7.5635 23.1529 7.58495C23.1753 7.60639 23.1929 7.63375 23.2056 7.66701C23.2184 7.69996 23.2248 7.73928 23.2248 7.78497V7.8232H22.7977V7.74068H23.1637L23.1063 7.76492C23.1063 7.73539 23.1018 7.70975 23.0928 7.68799C23.0838 7.66592 23.0704 7.64867 23.0527 7.63624C23.035 7.6238 23.0129 7.61758 22.9865 7.61758C22.9601 7.61758 22.9375 7.6238 22.9189 7.63624C22.9002 7.64867 22.8861 7.66545 22.8765 7.68659C22.8668 7.70742 22.862 7.73073 22.862 7.75653V7.81388C22.862 7.84558 22.8674 7.87278 22.8783 7.89547C22.8895 7.91785 22.9051 7.93495 22.9249 7.94676C22.9452 7.95857 22.9686 7.96448 22.9954 7.96448C23.0128 7.96448 23.0286 7.96199 23.0429 7.95702C23.0575 7.95205 23.07 7.94459 23.0802 7.93464C23.0908 7.92438 23.0989 7.91179 23.1045 7.89687L23.2192 7.91039C23.2117 7.94055 23.1979 7.96697 23.1777 7.98966C23.1578 8.01204 23.1321 8.02944 23.1007 8.04188C23.0696 8.054 23.0339 8.06006 22.9935 8.06006ZM23.2453 8.20134V7.94863H23.2863C23.2975 7.94023 23.3068 7.92873 23.3143 7.91412C23.3217 7.8992 23.3278 7.88164 23.3325 7.86144C23.3374 7.84092 23.3415 7.81808 23.3446 7.7929C23.348 7.76772 23.351 7.74068 23.3534 7.71177L23.3684 7.52853H23.7451V7.94863H23.8253V8.20134H23.7069V8.0498H23.366V8.20134H23.2453ZM23.4127 7.94863H23.6276V7.62784H23.4751L23.4667 7.71177C23.4624 7.76679 23.4563 7.81403 23.4486 7.85351C23.4411 7.89268 23.4291 7.92438 23.4127 7.94863ZM23.9997 7.88335L24.2086 7.52853H24.3344V8.0498H24.2165V7.69452L24.0081 8.0498H23.8817V7.52853H23.9997V7.88335ZM24.3671 7.62924V7.52853H24.8226V7.62924H24.6543V8.0498H24.5354V7.62924H24.3671ZM25.0944 8.06006C25.0422 8.06006 24.9971 8.04918 24.9592 8.02742C24.9213 8.00535 24.8921 7.97427 24.8716 7.93417C24.8514 7.89407 24.8413 7.84683 24.8413 7.79243C24.8413 7.73866 24.8514 7.69156 24.8716 7.65116C24.8918 7.61044 24.9202 7.57873 24.9569 7.55604C24.9936 7.53335 25.0368 7.522 25.0865 7.522C25.1185 7.522 25.1488 7.52713 25.1774 7.53739C25.2063 7.54765 25.2318 7.5635 25.2539 7.58495C25.2763 7.60639 25.2938 7.63375 25.3066 7.66701C25.3193 7.69996 25.3257 7.73928 25.3257 7.78497V7.8232H24.8986V7.74068H25.2646L25.2073 7.76492C25.2073 7.73539 25.2028 7.70975 25.1938 7.68799C25.1847 7.66592 25.1714 7.64867 25.1537 7.63624C25.1359 7.6238 25.1139 7.61758 25.0874 7.61758C25.061 7.61758 25.0385 7.6238 25.0198 7.63624C25.0012 7.64867 24.987 7.66545 24.9774 7.68659C24.9678 7.70742 24.963 7.73073 24.963 7.75653V7.81388C24.963 7.84558 24.9684 7.87278 24.9793 7.89547C24.9905 7.91785 25.006 7.93495 25.0259 7.94676C25.0461 7.95857 25.0696 7.96448 25.0963 7.96448C25.1137 7.96448 25.1296 7.96199 25.1439 7.95702C25.1585 7.95205 25.1709 7.94459 25.1812 7.93464C25.1917 7.92438 25.1998 7.91179 25.2054 7.89687L25.3201 7.91039C25.3126 7.94055 25.2988 7.96697 25.2786 7.98966C25.2587 8.01204 25.2331 8.02944 25.2017 8.04188C25.1706 8.054 25.1349 8.06006 25.0944 8.06006ZM25.5831 7.90666H25.7043C25.7059 7.92625 25.7147 7.94148 25.7309 7.95236C25.747 7.96293 25.7682 7.96821 25.7943 7.96821C25.8207 7.96821 25.8429 7.96246 25.861 7.95096C25.8793 7.93915 25.8885 7.92127 25.8885 7.89734C25.8885 7.88304 25.8849 7.87061 25.8778 7.86004C25.8709 7.84947 25.8611 7.84123 25.8484 7.83533C25.8356 7.82942 25.8209 7.82647 25.8041 7.82647H25.7239V7.73928H25.8041C25.8293 7.73928 25.8484 7.73353 25.8614 7.72203C25.8748 7.71021 25.8815 7.69545 25.8815 7.67773C25.8815 7.65815 25.8745 7.64245 25.8605 7.63064C25.8468 7.61883 25.8277 7.61292 25.8032 7.61292C25.7789 7.61292 25.7587 7.61836 25.7425 7.62924C25.7264 7.64012 25.7178 7.65426 25.7169 7.67167H25.5961C25.5968 7.64152 25.6058 7.61525 25.6232 7.59287C25.6409 7.57018 25.6648 7.55278 25.695 7.54065C25.7254 7.52822 25.7596 7.522 25.7976 7.522C25.8383 7.522 25.8734 7.52806 25.9029 7.54019C25.9325 7.55231 25.9553 7.5694 25.9715 7.59147C25.9876 7.61323 25.9956 7.63888 25.9952 7.66841C25.9956 7.69669 25.9869 7.72001 25.9691 7.73835C25.9514 7.75668 25.9275 7.7699 25.8973 7.77798V7.78311C25.9182 7.78435 25.9368 7.79026 25.9533 7.80082C25.9701 7.81139 25.9833 7.82554 25.9929 7.84325C26.0026 7.86097 26.0074 7.88164 26.0074 7.90527C26.0074 7.93728 25.9982 7.96495 25.9799 7.98826C25.9618 8.01126 25.9368 8.02898 25.9048 8.04141C25.8728 8.05385 25.8361 8.06006 25.7948 8.06006C25.7547 8.06006 25.7188 8.054 25.6871 8.04188C25.6557 8.02976 25.6306 8.01235 25.612 7.98966C25.5936 7.96666 25.584 7.93899 25.5831 7.90666ZM26.2009 8.06053C26.1676 8.06053 26.1378 8.05462 26.1113 8.04281C26.0849 8.03069 26.0641 8.01297 26.0489 7.98966C26.0336 7.96634 26.026 7.93759 26.026 7.9034C26.026 7.87418 26.0315 7.84994 26.0423 7.83066C26.0532 7.81139 26.068 7.79601 26.0866 7.7845C26.1056 7.773 26.1269 7.7643 26.1505 7.75839C26.1741 7.75218 26.1985 7.74783 26.2237 7.74534C26.2545 7.74192 26.2794 7.73897 26.2983 7.73648C26.3173 7.73399 26.331 7.72995 26.3393 7.72436C26.3481 7.71876 26.3524 7.71006 26.3524 7.69825V7.69592C26.3524 7.67074 26.3449 7.65116 26.33 7.63717C26.3151 7.62318 26.2933 7.61619 26.2647 7.61619C26.2346 7.61619 26.2107 7.62271 26.1929 7.63577C26.1755 7.64882 26.1637 7.66421 26.1575 7.68193L26.0433 7.66561C26.0523 7.6339 26.0672 7.60748 26.088 7.58635C26.1089 7.5649 26.1342 7.54889 26.164 7.53832C26.1942 7.52744 26.2274 7.522 26.2638 7.522C26.2887 7.522 26.3135 7.52496 26.3384 7.53086C26.3633 7.53646 26.3861 7.54609 26.407 7.55977C26.4278 7.57345 26.4444 7.59179 26.4568 7.61479C26.4693 7.63779 26.4755 7.66654 26.4755 7.70104V8.0498H26.3575V7.978H26.3538C26.3463 7.9923 26.3358 8.00582 26.3221 8.01857C26.3087 8.031 26.2919 8.0411 26.2717 8.04887C26.2518 8.05664 26.2282 8.06053 26.2009 8.06053ZM26.2321 7.97007C26.257 7.97007 26.2784 7.96526 26.2965 7.95562C26.3145 7.94567 26.3285 7.93262 26.3384 7.91646C26.3484 7.89998 26.3533 7.88211 26.3533 7.86284V7.80176C26.3493 7.80486 26.3428 7.80782 26.3338 7.81062C26.3247 7.8131 26.3145 7.81543 26.303 7.81761C26.2915 7.81978 26.2801 7.82165 26.2689 7.8232C26.2581 7.82476 26.2486 7.826 26.2405 7.82693C26.2222 7.82942 26.2057 7.83362 26.1911 7.83952C26.1768 7.84512 26.1654 7.85289 26.157 7.86284C26.1486 7.87278 26.1445 7.88568 26.1445 7.90154C26.1445 7.92423 26.1527 7.94132 26.1692 7.95282C26.1856 7.96432 26.2066 7.97007 26.2321 7.97007ZM26.911 7.52853V7.62924H26.6862V8.0498H26.5664V7.52853H26.911ZM27.1795 8.06006C27.1286 8.06006 27.0844 8.04887 27.0471 8.02649C27.0098 8.00411 26.9809 7.97272 26.9604 7.93231C26.9402 7.8919 26.9301 7.84496 26.9301 7.7915C26.9301 7.73772 26.9402 7.69063 26.9604 7.65022C26.9809 7.6095 27.0098 7.57795 27.0471 7.55557C27.0844 7.53319 27.1286 7.522 27.1795 7.522C27.2305 7.522 27.2747 7.53319 27.312 7.55557C27.3493 7.57795 27.3782 7.6095 27.3987 7.65022C27.4192 7.69063 27.4295 7.73772 27.4295 7.7915C27.4295 7.84496 27.4192 7.8919 27.3987 7.93231C27.3782 7.97272 27.3493 8.00411 27.312 8.02649C27.2747 8.04887 27.2305 8.06006 27.1795 8.06006ZM27.1795 7.96122C27.2078 7.96122 27.2311 7.95376 27.2495 7.93884C27.2678 7.9236 27.2815 7.90309 27.2905 7.87729C27.2998 7.85149 27.3045 7.82289 27.3045 7.7915C27.3045 7.75948 27.2998 7.73057 27.2905 7.70477C27.2815 7.67898 27.2678 7.65862 27.2495 7.6437C27.2311 7.62846 27.2078 7.62085 27.1795 7.62085C27.1519 7.62085 27.1287 7.62846 27.1101 7.6437C27.0914 7.65862 27.0774 7.67898 27.0681 7.70477C27.0591 7.73057 27.0546 7.75948 27.0546 7.7915C27.0546 7.82289 27.0591 7.85149 27.0681 7.87729C27.0774 7.90309 27.0914 7.9236 27.1101 7.93884C27.1287 7.95376 27.1519 7.96122 27.1795 7.96122ZM27.4612 8.0498L27.4607 7.94863H27.4779C27.4963 7.94863 27.5107 7.94303 27.5213 7.93184C27.5322 7.92065 27.5404 7.90138 27.546 7.87403C27.5516 7.84636 27.5553 7.80828 27.5572 7.75979L27.5661 7.52853H27.9461V8.0498H27.8272V7.62924H27.678L27.6696 7.79803C27.6674 7.84123 27.6626 7.87869 27.6551 7.91039C27.6477 7.9421 27.6369 7.96837 27.623 7.98919C27.6093 8.00971 27.5922 8.02494 27.5717 8.03488C27.5511 8.04483 27.5269 8.0498 27.4989 8.0498H27.4612ZM28.2641 8.06006C28.2131 8.06006 28.1689 8.04887 28.1316 8.02649C28.0943 8.00411 28.0654 7.97272 28.0449 7.93231C28.0247 7.8919 28.0146 7.84496 28.0146 7.7915C28.0146 7.73772 28.0247 7.69063 28.0449 7.65022C28.0654 7.6095 28.0943 7.57795 28.1316 7.55557C28.1689 7.53319 28.2131 7.522 28.2641 7.522C28.315 7.522 28.3592 7.53319 28.3965 7.55557C28.4338 7.57795 28.4627 7.6095 28.4832 7.65022C28.5037 7.69063 28.514 7.73772 28.514 7.7915C28.514 7.84496 28.5037 7.8919 28.4832 7.93231C28.4627 7.97272 28.4338 8.00411 28.3965 8.02649C28.3592 8.04887 28.315 8.06006 28.2641 8.06006ZM28.2641 7.96122C28.2923 7.96122 28.3157 7.95376 28.334 7.93884C28.3523 7.9236 28.366 7.90309 28.375 7.87729C28.3843 7.85149 28.389 7.82289 28.389 7.7915C28.389 7.75948 28.3843 7.73057 28.375 7.70477C28.366 7.67898 28.3523 7.65862 28.334 7.6437C28.3157 7.62846 28.2923 7.62085 28.2641 7.62085C28.2364 7.62085 28.2132 7.62846 28.1946 7.6437C28.1759 7.65862 28.1619 7.67898 28.1526 7.70477C28.1436 7.73057 28.1391 7.75948 28.1391 7.7915C28.1391 7.82289 28.1436 7.85149 28.1526 7.87729C28.1619 7.90309 28.1759 7.9236 28.1946 7.93884C28.2132 7.95376 28.2364 7.96122 28.2641 7.96122ZM28.5816 8.0498V7.52853H28.8003C28.8618 7.52884 28.9104 7.54143 28.9462 7.5663C28.9822 7.59085 29.0003 7.62504 29.0003 7.66887C29.0003 7.6984 28.9902 7.72234 28.97 7.74068C28.9498 7.75871 28.9224 7.77098 28.8879 7.77751C28.9149 7.77969 28.9387 7.78668 28.9592 7.79849C28.9801 7.80999 28.9964 7.82507 29.0082 7.84372C29.02 7.86237 29.0259 7.88397 29.0259 7.90853C29.0259 7.93713 29.0183 7.96215 29.0031 7.9836C28.9882 8.00473 28.9664 8.02105 28.9378 8.03255C28.9095 8.04405 28.8749 8.0498 28.8338 8.0498H28.5816ZM28.6963 7.95282H28.8338C28.8565 7.95313 28.8742 7.94801 28.887 7.93744C28.9 7.92656 28.9064 7.91179 28.9061 7.89314C28.9064 7.87169 28.9 7.85491 28.887 7.84279C28.8742 7.83035 28.8565 7.82414 28.8338 7.82414H28.6963V7.95282ZM28.6963 7.74487H28.8026C28.8274 7.74456 28.847 7.73912 28.8613 7.72855C28.8756 7.71799 28.8828 7.70353 28.8828 7.68519C28.8828 7.66685 28.8755 7.65271 28.8609 7.64276C28.8463 7.6325 28.826 7.62738 28.8003 7.62738H28.6963V7.74487ZM29.3187 8.06006C29.2677 8.06006 29.2236 8.04887 29.1863 8.02649C29.149 8.00411 29.1201 7.97272 29.0996 7.93231C29.0794 7.8919 29.0693 7.84496 29.0693 7.7915C29.0693 7.73772 29.0794 7.69063 29.0996 7.65022C29.1201 7.6095 29.149 7.57795 29.1863 7.55557C29.2236 7.53319 29.2677 7.522 29.3187 7.522C29.3697 7.522 29.4138 7.53319 29.4511 7.55557C29.4884 7.57795 29.5174 7.6095 29.5379 7.65022C29.5584 7.69063 29.5686 7.73772 29.5686 7.7915C29.5686 7.84496 29.5584 7.8919 29.5379 7.93231C29.5174 7.97272 29.4884 8.00411 29.4511 8.02649C29.4138 8.04887 29.3697 8.06006 29.3187 8.06006ZM29.3187 7.96122C29.347 7.96122 29.3703 7.95376 29.3887 7.93884C29.407 7.9236 29.4207 7.90309 29.4297 7.87729C29.439 7.85149 29.4437 7.82289 29.4437 7.7915C29.4437 7.75948 29.439 7.73057 29.4297 7.70477C29.4207 7.67898 29.407 7.65862 29.3887 7.6437C29.3703 7.62846 29.347 7.62085 29.3187 7.62085C29.2911 7.62085 29.2679 7.62846 29.2493 7.6437C29.2306 7.65862 29.2166 7.67898 29.2073 7.70477C29.1983 7.73057 29.1938 7.75948 29.1938 7.7915C29.1938 7.82289 29.1983 7.85149 29.2073 7.87729C29.2166 7.90309 29.2306 7.9236 29.2493 7.93884C29.2679 7.95376 29.2911 7.96122 29.3187 7.96122ZM29.6362 8.0498V7.52853H29.7589V7.73928H29.8036L29.9608 7.52853H30.1081L29.9155 7.78497L30.11 8.0498H29.9617L29.8186 7.85304H29.7589V8.0498H29.6362ZM30.572 8.06006C30.5201 8.06006 30.4755 8.04872 30.4382 8.02603C30.4009 8.00302 30.3723 7.97132 30.3524 7.93091C30.3325 7.8905 30.3226 7.84403 30.3226 7.7915C30.3226 7.73835 30.3327 7.69156 30.3529 7.65116C30.3731 7.61075 30.4018 7.5792 30.4391 7.55651C30.4764 7.5335 30.5204 7.522 30.5711 7.522C30.6137 7.522 30.6513 7.52977 30.6839 7.54531C30.7166 7.56086 30.7425 7.58277 30.7618 7.61106C30.7814 7.63903 30.7926 7.67183 30.7954 7.70944H30.6779C30.6748 7.69265 30.6687 7.67758 30.6597 7.66421C30.6507 7.65084 30.6389 7.64028 30.6242 7.6325C30.6099 7.62473 30.5929 7.62085 30.573 7.62085C30.5478 7.62085 30.5257 7.62769 30.5067 7.64136C30.4881 7.65473 30.4735 7.674 30.4629 7.69918C30.4524 7.72436 30.4471 7.75451 30.4471 7.78963C30.4471 7.82507 30.4522 7.85569 30.4625 7.88149C30.4727 7.90697 30.4873 7.92671 30.5063 7.9407C30.5252 7.95438 30.5475 7.96122 30.573 7.96122C30.6 7.96122 30.6228 7.95329 30.6415 7.93744C30.6605 7.92158 30.6726 7.89967 30.6779 7.87169H30.7954C30.7926 7.90868 30.7817 7.94132 30.7627 7.96961C30.7438 7.99789 30.7181 8.02012 30.6858 8.03628C30.6535 8.05214 30.6155 8.06006 30.572 8.06006ZM30.8052 7.62924V7.52853H31.2607V7.62924H31.0924V8.0498H30.9735V7.62924H30.8052ZM31.3232 8.2447V7.52853H31.4435V7.61479H31.4509C31.4571 7.60235 31.466 7.58899 31.4775 7.57469C31.489 7.56008 31.5045 7.54765 31.5241 7.53739C31.544 7.52713 31.5693 7.522 31.6001 7.522C31.6402 7.522 31.6764 7.53226 31.7088 7.55278C31.7411 7.57329 31.7667 7.60344 31.7857 7.64323C31.805 7.68302 31.8146 7.73197 31.8146 7.7901C31.8146 7.84729 31.8053 7.89594 31.7866 7.93604C31.768 7.97614 31.7423 8.00675 31.7097 8.02789C31.6774 8.04872 31.6407 8.05913 31.5997 8.05913C31.5701 8.05913 31.5454 8.05416 31.5255 8.04421C31.5059 8.03395 31.4901 8.02183 31.478 8.00784C31.4662 7.99354 31.4571 7.98002 31.4509 7.96728H31.4458V8.2447H31.3232ZM31.5661 7.95842C31.5931 7.95842 31.6157 7.95111 31.6337 7.9365C31.652 7.92189 31.6659 7.90185 31.6752 7.87636C31.6845 7.85087 31.6892 7.82196 31.6892 7.78963C31.6892 7.75731 31.6845 7.72855 31.6752 7.70338C31.6659 7.6782 31.6522 7.65846 31.6342 7.64416C31.6161 7.62986 31.5934 7.62271 31.5661 7.62271C31.5397 7.62271 31.5173 7.62955 31.4989 7.64323C31.4809 7.65691 31.4671 7.67633 31.4574 7.70151C31.4481 7.72638 31.4435 7.75575 31.4435 7.78963C31.4435 7.8232 31.4481 7.85273 31.4574 7.87822C31.4671 7.9034 31.4811 7.92314 31.4994 7.93744C31.5177 7.95142 31.54 7.95842 31.5661 7.95842ZM32.0328 8.06053C31.9995 8.06053 31.9697 8.05462 31.9433 8.04281C31.9169 8.03069 31.896 8.01297 31.8808 7.98966C31.8656 7.96634 31.858 7.93759 31.858 7.9034C31.858 7.87418 31.8634 7.84994 31.8743 7.83066C31.8852 7.81139 31.8999 7.79601 31.9186 7.7845C31.9375 7.773 31.9588 7.7643 31.9825 7.75839C32.0061 7.75218 32.0305 7.74783 32.0557 7.74534C32.0864 7.74192 32.1113 7.73897 32.1303 7.73648C32.1492 7.73399 32.1629 7.72995 32.1713 7.72436C32.18 7.71876 32.1843 7.71006 32.1843 7.69825V7.69592C32.1843 7.67074 32.1769 7.65116 32.162 7.63717C32.147 7.62318 32.1253 7.61619 32.0967 7.61619C32.0665 7.61619 32.0426 7.62271 32.0249 7.63577C32.0075 7.64882 31.9957 7.66421 31.9894 7.68193L31.8752 7.66561C31.8842 7.6339 31.8991 7.60748 31.92 7.58635C31.9408 7.5649 31.9661 7.54889 31.996 7.53832C32.0261 7.52744 32.0594 7.522 32.0958 7.522C32.1206 7.522 32.1455 7.52496 32.1704 7.53086C32.1952 7.53646 32.2181 7.54609 32.2389 7.55977C32.2597 7.57345 32.2763 7.59179 32.2888 7.61479C32.3012 7.63779 32.3074 7.66654 32.3074 7.70104V8.0498H32.1895V7.978H32.1857C32.1783 7.9923 32.1677 8.00582 32.154 8.01857C32.1407 8.031 32.1239 8.0411 32.1037 8.04887C32.0838 8.05664 32.0602 8.06053 32.0328 8.06053ZM32.064 7.97007C32.0889 7.97007 32.1104 7.96526 32.1284 7.95562C32.1464 7.94567 32.1604 7.93262 32.1704 7.91646C32.1803 7.89998 32.1853 7.88211 32.1853 7.86284V7.80176C32.1812 7.80486 32.1747 7.80782 32.1657 7.81062C32.1567 7.8131 32.1464 7.81543 32.1349 7.81761C32.1234 7.81978 32.1121 7.82165 32.1009 7.8232C32.09 7.82476 32.0805 7.826 32.0724 7.82693C32.0541 7.82942 32.0376 7.83362 32.023 7.83952C32.0087 7.84512 31.9974 7.85289 31.989 7.86284C31.9806 7.87278 31.9764 7.88568 31.9764 7.90154C31.9764 7.92423 31.9846 7.94132 32.0011 7.95282C32.0176 7.96432 32.0386 7.97007 32.064 7.97007ZM32.7555 7.73835V7.83906H32.479V7.73835H32.7555ZM32.5163 7.52853V8.0498H32.3984V7.52853H32.5163ZM32.8366 7.52853V8.0498H32.7187V7.52853H32.8366ZM33.0451 7.88335L33.2539 7.52853H33.3798V8.0498H33.2619V7.69452L33.0534 8.0498H32.9271V7.52853H33.0451V7.88335ZM33.9109 7.52853V8.0498H33.4707V7.52853H33.5896V7.94909H33.7939V7.52853H33.9109ZM33.9906 7.95842V8.21719H33.8703V7.95842H33.9906ZM34.1333 7.69871H34.2867C34.3529 7.6984 34.4042 7.71457 34.4406 7.7472C34.4772 7.77953 34.4956 7.82181 34.4956 7.87403C34.4956 7.90822 34.4873 7.93852 34.4709 7.96495C34.4544 7.99137 34.4306 8.01219 34.3995 8.02742C34.3684 8.04234 34.3308 8.0498 34.2867 8.0498H34.0498V7.52853H34.1678V7.94909H34.2867C34.3131 7.94909 34.3349 7.94241 34.352 7.92904C34.3694 7.91537 34.3781 7.89765 34.3781 7.87589C34.3781 7.8532 34.3694 7.8347 34.352 7.82041C34.3349 7.80611 34.3131 7.79911 34.2867 7.79942H34.1333V7.69871ZM34.5609 8.0498V7.52853H34.6835V8.0498H34.5609Z" fill="#6A8496"/>
<g clip-path="url(#clip2_4302_755)">
<path fill-rule="evenodd" clip-rule="evenodd" d="M2.00398 2.02253C1.95312 2.07338 1.95312 2.15523 1.95312 2.31891V2.49253C1.95312 2.65622 1.95312 2.73806 2.00398 2.78891C2.05483 2.83976 2.13667 2.83976 2.30036 2.83976C2.46405 2.83976 2.54589 2.83976 2.59674 2.78891C2.64759 2.73806 2.64759 2.65622 2.64759 2.49253V2.31891C2.64759 2.15523 2.64759 2.07338 2.59674 2.02253C2.54589 1.97168 2.46405 1.97168 2.30036 1.97168C2.13667 1.97168 2.05483 1.97168 2.00398 2.02253ZM2.17015 2.06934C2.15217 2.06934 2.13759 2.08391 2.13759 2.10189C2.13759 2.11987 2.15217 2.13445 2.17015 2.13445H2.43057C2.44855 2.13445 2.46313 2.11987 2.46313 2.10189C2.46313 2.08391 2.44855 2.06934 2.43057 2.06934H2.17015ZM2.30036 2.70955C2.3483 2.70955 2.38717 2.67069 2.38717 2.62274C2.38717 2.5748 2.3483 2.53594 2.30036 2.53594C2.25242 2.53594 2.21355 2.5748 2.21355 2.62274C2.21355 2.67069 2.25242 2.70955 2.30036 2.70955Z" fill="#425766"/>
</g>
<defs>
<clipPath id="clip0_4302_755">
<rect width="2.43064" height="2.43064" fill="white" transform="translate(8.98438 9.78418)"/>
</clipPath>
<clipPath id="clip1_4302_755">
<rect width="1.0417" height="1.0417" fill="white" transform="translate(22.2656 2.83887)"/>
</clipPath>
<clipPath id="clip2_4302_755">
<rect width="1.0417" height="1.0417" fill="white" transform="translate(1.7793 1.88477)"/>
</clipPath>
</defs>
</svg>
