<svg width="66" height="52" viewBox="0 0 66 52" fill="none" xmlns="http://www.w3.org/2000/svg">
<path fill-rule="evenodd" clip-rule="evenodd" d="M42 15C41.5858 15 41.25 15.3358 41.25 15.75L41.25 35.75C41.25 36.1642 41.5858 36.5 42 36.5C42.4142 36.5 42.75 36.1642 42.75 35.75L42.75 15.75C42.75 15.3358 42.4142 15 42 15Z" fill="#1D2A33"/>
<path d="M38 21.25C38 20.3154 38 19.8481 37.799 19.5C37.6674 19.272 37.478 19.0826 37.25 18.951C36.9019 18.75 36.4346 18.75 35.5 18.75H26.5C25.5654 18.75 25.0981 18.75 24.75 18.951C24.522 19.0826 24.3326 19.272 24.201 19.5C24 19.8481 24 20.3154 24 21.25C24 22.1846 24 22.6519 24.201 23C24.3326 23.228 24.522 23.4174 24.75 23.549C25.0981 23.75 25.5654 23.75 26.5 23.75L35.5 23.75C36.4346 23.75 36.9019 23.75 37.25 23.549C37.478 23.4174 37.6674 23.228 37.799 23C38 22.6519 38 22.1846 38 21.25Z" fill="#1D2A33"/>
<path d="M38 30.25C38 29.3154 38 28.8481 37.799 28.5C37.6674 28.272 37.478 28.0826 37.25 27.951C36.9019 27.75 36.4346 27.75 35.5 27.75L29.5 27.75C28.5654 27.75 28.0981 27.75 27.75 27.951C27.522 28.0826 27.3326 28.272 27.201 28.5C27 28.8481 27 29.3154 27 30.25C27 31.1846 27 31.6519 27.201 32C27.3326 32.228 27.522 32.4174 27.75 32.549C28.0981 32.75 28.5654 32.75 29.5 32.75H35.5C36.4346 32.75 36.9019 32.75 37.25 32.549C37.478 32.4174 37.6674 32.228 37.799 32C38 31.6519 38 31.1846 38 30.25Z" fill="#1D2A33"/>
</svg>
