<svg width="54" height="54" viewBox="0 0 54 54" fill="none" xmlns="http://www.w3.org/2000/svg">
<path fill-rule="evenodd" clip-rule="evenodd" d="M17.3354 22.8749C16.7949 24.0023 16.9846 25.3208 17.3641 27.9579L17.6428 29.8952C18.1303 33.2827 18.374 34.9764 19.549 35.9882C20.7241 37 22.4474 37 25.8939 37H28.1061C31.5526 37 33.2759 37 34.451 35.9882C35.626 34.9764 35.8697 33.2827 36.3572 29.8952L36.6359 27.9579C37.0154 25.3208 37.2051 24.0023 36.6646 22.8749C36.1242 21.7476 34.9738 21.0623 32.6731 19.6918L31.2882 18.8669C29.199 17.6223 28.1543 17 27 17C25.8457 17 24.801 17.6223 22.7117 18.8669L21.3269 19.6918C19.0262 21.0623 17.8758 21.7476 17.3354 22.8749ZM27.0001 24.2498C27.4143 24.2498 27.7501 24.5856 27.7501 24.9998V27.2498L30.0001 27.2498C30.4143 27.2498 30.7501 27.5856 30.7501 27.9998C30.7501 28.414 30.4143 28.7498 30.0001 28.7498L27.7501 28.7498V30.9998C27.7501 31.414 27.4143 31.7498 27.0001 31.7498C26.5859 31.7498 26.2501 31.414 26.2501 30.9998V28.7498H24.0001C23.5859 28.7498 23.2501 28.414 23.2501 27.9998C23.2501 27.5856 23.5859 27.2498 24.0001 27.2498H26.2501V24.9998C26.2501 24.5856 26.5859 24.2498 27.0001 24.2498Z" fill="#6A8496"/>
</svg>
