<svg width="28" height="28" viewBox="0 0 28 28" fill="none" xmlns="http://www.w3.org/2000/svg">
<path fill-rule="evenodd" clip-rule="evenodd" d="M14.6048 0.023345C16.1127 -6.25849e-09 17.609 0.011655 19.1053 0C19.1974 1.785 19.8305 3.60496 21.1196 4.86493C22.4088 6.15993 24.2274 6.75493 26 6.95324V11.6549C24.3425 11.5965 22.6735 11.2465 21.1657 10.5232C20.5096 10.2199 19.8995 9.83486 19.301 9.4382C19.2895 12.8448 19.3125 16.2515 19.278 19.6464C19.1859 21.2797 18.6564 22.9014 17.7241 24.243C16.2163 26.483 13.6034 27.9413 10.9215 27.988C9.27556 28.0813 7.62957 27.6263 6.22531 26.7863C3.90025 25.398 2.26576 22.8547 2.02407 20.1248C2.00103 19.5414 1.98954 18.9581 2.01253 18.3864C2.21973 16.1698 3.3017 14.0465 4.98221 12.5998C6.89289 10.9199 9.56328 10.1149 12.061 10.5932C12.084 12.3199 12.015 14.0465 12.015 15.7731C10.8754 15.3998 9.54028 15.5048 8.53888 16.2048C7.81373 16.6831 7.26125 17.4181 6.97349 18.2464C6.73176 18.8414 6.80083 19.4948 6.81233 20.1248C7.08859 22.0381 8.9072 23.648 10.8409 23.473C12.1301 23.4614 13.3617 22.703 14.0293 21.5947C14.248 21.2097 14.4897 20.8131 14.5012 20.3581C14.6163 18.2698 14.5703 16.1931 14.5818 14.1048C14.5933 9.4032 14.5703 4.71327 14.6048 0.023345Z" fill="white"/>
</svg>
