<svg width="20" height="20" viewBox="0 0 20 20" fill="none" xmlns="http://www.w3.org/2000/svg">
<path d="M5.18491 3.83419C5.55538 3.58665 5.94437 3.37196 6.34742 3.19146C7.49065 2.67948 8.06226 2.42349 8.82272 2.91616C9.58317 3.40883 9.58317 4.217 9.58317 5.83333V7.08333C9.58317 8.65468 9.58317 9.44035 10.0713 9.92851C10.5595 10.4167 11.3452 10.4167 12.9165 10.4167H14.1665C15.7828 10.4167 16.591 10.4167 17.0837 11.1771C17.5763 11.9376 17.3204 12.5092 16.8084 13.6524C16.6279 14.0555 16.4132 14.4445 16.1656 14.8149C15.2957 16.1168 14.0593 17.1315 12.6128 17.7307C11.1662 18.3299 9.57439 18.4867 8.03871 18.1812C6.50303 17.8757 5.09241 17.1218 3.98525 16.0146C2.87808 14.9074 2.12409 13.4968 1.81862 11.9611C1.51316 10.4254 1.66993 8.83366 2.26913 7.38708C2.86832 5.9405 3.88302 4.70409 5.18491 3.83419Z" fill="#425766" stroke="#425766" stroke-width="1.5"/>
<path d="M17.8715 5.89082C17.195 4.17357 15.8263 2.8048 14.109 2.1283C12.8244 1.62222 11.6665 2.78595 11.6665 4.16666V7.49999C11.6665 7.96023 12.0396 8.33333 12.4998 8.33333H15.8332C17.2139 8.33333 18.3776 7.17544 17.8715 5.89082Z" fill="#425766" stroke="#425766" stroke-width="1.5"/>
</svg>
