<svg width="20" height="20" viewBox="0 0 20 20" fill="none" xmlns="http://www.w3.org/2000/svg">
<path d="M2.29532 12.2633L2.72669 13.8732C3.23023 15.7524 3.48199 16.6921 4.05276 17.3015C4.50344 17.7826 5.08668 18.1194 5.72872 18.2691C6.54187 18.4587 7.48148 18.2069 9.36071 17.7034L9.36072 17.7034C11.24 17.1998 12.1796 16.9481 12.789 16.3773C12.8396 16.3299 12.8885 16.2811 12.9359 16.2309C12.6574 16.2075 12.3765 16.1627 12.091 16.1059C11.5109 15.9906 10.8217 15.8059 10.0065 15.5874L9.91749 15.5636L9.89688 15.5581C9.0099 15.3204 8.26885 15.1214 7.67714 14.9077C7.0549 14.6829 6.48951 14.4058 6.0094 13.9561C5.34778 13.3365 4.88478 12.5345 4.67893 11.6517C4.52956 11.0111 4.57227 10.3829 4.68872 9.7316C4.80032 9.10749 5.00075 8.35955 5.24088 7.46343L5.24089 7.46342L5.68621 5.80145L5.70188 5.743C4.10142 6.17413 3.25901 6.42921 2.69723 6.95538C2.21605 7.40605 1.87932 7.98929 1.72961 8.63134C1.54001 9.44448 1.79178 10.3841 2.29532 12.2633Z" fill="#425766"/>
<path fill-rule="evenodd" clip-rule="evenodd" d="M17.3579 8.92952L16.9265 10.5394C16.423 12.4186 16.1712 13.3583 15.6004 13.9677C15.1498 14.4488 14.5665 14.7856 13.9245 14.9353C13.8442 14.954 13.7628 14.9684 13.6793 14.9787C12.9168 15.0727 11.9863 14.8234 10.2925 14.3696C8.41324 13.866 7.47362 13.6143 6.86422 13.0435C6.38304 12.5928 6.04631 12.0096 5.8966 11.3675C5.707 10.5544 5.95877 9.61476 6.46231 7.73553L6.89368 6.12565C6.96608 5.85545 7.03332 5.60451 7.097 5.37135C7.47623 3.98298 7.73107 3.21916 8.21976 2.69739C8.67043 2.21622 9.25367 1.87948 9.89572 1.72978C10.7089 1.54018 11.6485 1.79195 13.5277 2.29549C15.4069 2.79903 16.3466 3.0508 16.956 3.62157C17.4371 4.07224 17.7739 4.65548 17.9236 5.29753C18.1132 6.11067 17.8614 7.05029 17.3579 8.92952ZM9.21051 8.17158C9.29984 7.83816 9.64255 7.6403 9.97597 7.72964L14.0007 8.80805C14.3341 8.89739 14.5319 9.2401 14.4426 9.57351C14.3533 9.90693 14.0106 10.1048 13.6771 10.0155L9.65245 8.93704C9.31903 8.8477 9.12117 8.50499 9.21051 8.17158ZM8.56313 10.5861C8.65246 10.2527 8.99518 10.0548 9.32859 10.1442L11.7434 10.7912C12.0768 10.8806 12.2747 11.2233 12.1853 11.5567C12.096 11.8901 11.7533 12.088 11.4199 11.9986L9.00507 11.3516C8.67165 11.2623 8.47379 10.9195 8.56313 10.5861Z" fill="#425766"/>
</svg>
