<svg width="24" height="24" viewBox="0 0 24 24" fill="none" xmlns="http://www.w3.org/2000/svg">
<path d="M3.25 9C3.25 7.47501 3.8558 6.01247 4.93414 4.93414C6.01247 3.8558 7.47501 3.25 9 3.25H16.013C16.2119 3.25 16.4027 3.32902 16.5433 3.46967C16.684 3.61032 16.763 3.80109 16.763 4C16.763 4.19891 16.684 4.38968 16.5433 4.53033C16.4027 4.67098 16.2119 4.75 16.013 4.75H9C7.87283 4.75 6.79183 5.19777 5.9948 5.9948C5.19777 6.79183 4.75 7.87283 4.75 9V16.107C4.75 16.3059 4.67098 16.4967 4.53033 16.6373C4.38968 16.778 4.19891 16.857 4 16.857C3.80109 16.857 3.61032 16.778 3.46967 16.6373C3.32902 16.4967 3.25 16.3059 3.25 16.107V9Z" fill="white"/>
<path d="M18.4029 6.79303C15.1442 6.43097 11.8555 6.43097 8.59688 6.79303C8.14595 6.84312 7.72522 7.04429 7.40313 7.36384C7.08104 7.68339 6.87654 8.1025 6.82288 8.55303C6.4386 11.8398 6.4386 15.1602 6.82288 18.447C6.87654 18.8976 7.08104 19.3167 7.40313 19.6362C7.72522 19.9558 8.14595 20.1569 8.59688 20.207C11.8379 20.569 15.1619 20.569 18.4029 20.207C18.8538 20.1569 19.2745 19.9558 19.5966 19.6362C19.9187 19.3167 20.1232 18.8976 20.1769 18.447C20.5612 15.1602 20.5612 11.8398 20.1769 8.55303C20.1232 8.1025 19.9187 7.68339 19.5966 7.36384C19.2745 7.04429 18.8538 6.84312 18.4029 6.79303Z" fill="white"/>
</svg>
