<svg width="13" height="13" viewBox="0 0 13 13" fill="none" xmlns="http://www.w3.org/2000/svg">
<path fill-rule="evenodd" clip-rule="evenodd" d="M11.9668 5.10937C11.9313 5.10711 11.8927 5.10713 11.8526 5.10715L11.8426 5.10715H10.271C8.9756 5.10715 7.86717 6.13483 7.86717 7.475C7.86717 8.81518 8.9756 9.84286 10.271 9.84286H11.8426L11.8526 9.84286C11.8927 9.84288 11.9313 9.8429 11.9668 9.84064C12.493 9.80715 12.9583 9.39215 12.9975 8.8125C13 8.77449 13 8.73352 13 8.69555L13 8.68524V6.26477L13 6.25446C13 6.21649 13 6.17552 12.9975 6.13751C12.9583 5.55786 12.493 5.14286 11.9668 5.10937ZM10.1317 8.10643C10.4652 8.10643 10.7355 7.82373 10.7355 7.475C10.7355 7.12627 10.4652 6.84357 10.1317 6.84357C9.79815 6.84357 9.52779 7.12627 9.52779 7.475C9.52779 7.82373 9.79815 8.10643 10.1317 8.10643Z" fill="white"/>
<path fill-rule="evenodd" clip-rule="evenodd" d="M11.8522 10.79C11.9456 10.7876 12.0163 10.8748 11.991 10.9654C11.8652 11.4153 11.6656 11.7987 11.3452 12.1215C10.8764 12.5941 10.2819 12.8038 9.54734 12.9033C8.83362 13 7.92165 13 6.77028 13H5.44659C4.29522 13 3.38325 13 2.66953 12.9033C1.935 12.8038 1.34048 12.5941 0.871623 12.1215C0.402769 11.649 0.194695 11.0498 0.0959402 10.3095C-1.757e-05 9.59017 -9.69318e-06 8.67104 2.02631e-07 7.51062V7.43938C-9.76786e-06 6.27896 -1.77152e-05 5.35984 0.09594 4.6405C0.194695 3.9002 0.402768 3.30101 0.871622 2.82847C1.34048 2.35593 1.935 2.14622 2.66953 2.04669C3.38325 1.94998 4.29521 1.94999 5.44658 1.95L6.77029 1.95C7.92165 1.94999 8.83362 1.94998 9.54734 2.04669C10.2819 2.14622 10.8764 2.35593 11.3452 2.82847C11.6656 3.15131 11.8652 3.53472 11.9909 3.98458C12.0163 4.07523 11.9456 4.16244 11.8522 4.16L10.2709 4.16001C8.49377 4.16001 6.92736 5.57498 6.92736 7.475C6.92736 9.37503 8.49377 10.79 10.2709 10.79L11.8522 10.79ZM2.3494 4.47571C2.08989 4.47571 1.87952 4.68774 1.87952 4.94929C1.87952 5.21083 2.08989 5.42286 2.3494 5.42286H4.85542C5.11493 5.42286 5.3253 5.21083 5.3253 4.94929C5.3253 4.68774 5.11493 4.47571 4.85542 4.47571H2.3494Z" fill="white"/>
<path d="M3.75484 1.31585L5.02807 0.377819C5.71183 -0.12594 6.63817 -0.125939 7.32193 0.377819L8.60185 1.32078C8.0667 1.29997 7.46907 1.29999 6.81386 1.3H5.40301C4.8043 1.29999 4.25366 1.29997 3.75484 1.31585Z" fill="white"/>
</svg>
