<svg width="10" height="10" viewBox="0 0 10 10" fill="none" xmlns="http://www.w3.org/2000/svg">
<path d="M4.70005 8.08059L4.70005 8.08059L8.39798 4.38266C7.89469 4.17319 7.29859 3.8291 6.73483 3.26534C6.17098 2.70149 5.82687 2.10529 5.61741 1.60195L1.91941 5.29995L1.91939 5.29997C1.63083 5.58853 1.48654 5.73283 1.36245 5.89192C1.21607 6.07959 1.09057 6.28266 0.988171 6.49751C0.901367 6.67965 0.836838 6.87324 0.70778 7.26041L0.0272242 9.30208C-0.0362861 9.49261 0.0133023 9.70267 0.155316 9.84468C0.297329 9.9867 0.50739 10.0363 0.697921 9.97278L2.73959 9.29222C3.12676 9.16317 3.32035 9.09863 3.50249 9.01183C3.71735 8.90943 3.92041 8.78393 4.10808 8.63755C4.26717 8.51346 4.41148 8.36916 4.70005 8.08059Z" fill="white"/>
<path d="M9.42411 3.35653C10.192 2.58868 10.192 1.34374 9.42411 0.575889C8.65626 -0.191963 7.41132 -0.191963 6.64347 0.575889L6.19995 1.01941C6.20603 1.03775 6.21233 1.05634 6.21886 1.07518C6.38143 1.54375 6.68815 2.158 7.26516 2.73501C7.84217 3.31202 8.45642 3.61874 8.92499 3.78131C8.94374 3.78781 8.96225 3.79409 8.98051 3.80013L9.42411 3.35653Z" fill="white"/>
</svg>
